<svg width="163" height="222" viewBox="0 0 163 222" fill="none" xmlns="http://www.w3.org/2000/svg">
<path d="M91.9577 36.789C95.6693 35.9132 99.2236 35.2235 102.31 35.3984C105.483 35.5782 108.304 36.6846 110.299 39.4785C111.245 40.805 111.765 42.1654 111.758 43.5761C111.75 44.9825 111.219 46.2368 110.441 47.3554C109.077 49.3179 106.696 51.1955 104.111 53.1621C104.103 53.2699 104.096 53.368 104.085 53.4521C104.018 53.9572 103.87 54.528 103.68 55.123C103.298 56.3217 102.671 57.8491 101.888 59.5947C100.318 63.0958 98.0268 67.6719 95.5349 72.6386C90.5186 82.6367 84.6884 94.2188 81.9059 102.385C80.1791 107.453 78.0355 110.89 75.5915 112.676C74.3423 113.589 72.9868 114.088 71.5856 114.098C71.4629 114.098 71.3408 114.093 71.2194 114.087C71.5126 122.71 71.9174 128.541 72.3972 131.985C75.6744 123.687 82.4396 114.56 90.7634 107.861C99.8472 100.551 111.136 95.865 122.047 98.7861L127.112 100.142L122.144 101.82C107.895 106.634 103.059 117.855 98.3444 127.408C96.0424 132.073 93.6594 136.576 89.9763 139.202C86.2484 141.86 81.489 142.427 74.9157 140.278C74.8715 140.703 74.8664 141.335 74.9528 142.205C75.2076 144.77 76.1628 148.654 77.8913 153.272C81.342 162.492 87.7566 174.32 97.2829 183.935C97.8991 184.557 97.8942 185.561 97.2722 186.178C96.6499 186.794 95.6455 186.789 95.029 186.167C85.1188 176.165 78.4907 163.923 74.9206 154.385C73.1389 149.624 72.0883 145.457 71.7966 142.518C71.6553 141.095 71.6684 139.754 72.0075 138.756C72.1016 138.479 72.243 138.168 72.4548 137.878C71.8283 137.99 71.2814 137.762 70.9157 137.459C70.575 137.177 70.3658 136.82 70.236 136.557C70.0951 136.27 69.9783 135.947 69.8786 135.612C69.6791 134.942 69.5028 134.075 69.3425 133.032C68.775 129.339 68.3234 122.809 68.0114 113.012C67.9132 112.949 67.8156 112.885 67.7194 112.817C65.4499 111.227 63.6572 108.301 62.4626 104.66C61.2541 100.977 60.5957 96.3823 60.7331 91.2158C60.7944 88.912 61.1295 86.7339 61.6852 84.6787C59.6782 79.7734 57.1962 74.9598 54.237 70.955C51.1838 66.823 47.6947 63.6457 43.7946 62.0371C43.5667 61.943 43.3735 61.801 43.2194 61.6288C41.9007 61.344 40.7009 60.9622 39.6784 60.4267C38.3185 59.7145 37.1877 58.696 36.5202 57.2382C35.8617 55.7997 35.7345 54.1082 36.0417 52.1865C36.9581 46.4543 41.7594 43.3164 47.4479 41.7421C53.1754 40.1571 60.3049 39.9856 66.944 40.5087C75.7934 41.206 84.3757 38.5782 91.9577 36.789ZM115.782 101.086C107.908 100.925 99.8274 104.639 92.7526 110.333C84.0517 117.336 77.2216 127.069 74.5895 135.261C74.398 135.857 74.1546 136.475 73.8229 136.946C74.2304 136.85 74.6368 136.876 75.0046 136.97L75.2438 137.041L75.8307 137.241C81.8224 139.216 85.4707 138.518 88.1345 136.619C91.0631 134.531 93.1365 130.793 95.4997 126.005C99.5468 117.804 104.145 107.156 115.782 101.086ZM99.9372 56.0966C97.2679 57.781 94.708 59.0506 92.778 59.7929C90.7939 60.556 87.4207 61.9967 83.6618 64.1611C82.7822 67.563 81.3687 71.6371 79.4587 76.4667C75.9797 85.2638 73.8749 95.7478 72.6374 102.95C72.0316 106.476 71.6133 109.347 71.3688 110.628C71.3509 110.722 71.3294 110.819 71.3093 110.915C71.3947 110.922 71.4793 110.926 71.5632 110.926C72.1933 110.921 72.9149 110.702 73.7194 110.114C75.3827 108.899 77.2542 106.201 78.903 101.362C81.7725 92.9408 87.727 81.1273 92.6999 71.2158C95.2024 66.2279 97.4578 61.7203 98.9938 58.2958C99.3549 57.4908 99.6692 56.7553 99.9372 56.0966ZM63.9255 90.7412C63.9164 90.9265 63.909 91.1127 63.904 91.2997C63.7746 96.1629 64.3998 100.387 65.4772 103.671C66.1554 105.738 66.9901 107.365 67.8786 108.55C67.7437 105.299 66.4613 98.3782 63.9255 90.7412ZM79.6237 66.6992C79.1352 67.034 78.6445 67.3781 78.1569 67.7363C78.1512 67.7406 78.1451 67.7447 78.1393 67.749C77.3997 68.2928 76.6633 68.8638 75.9372 69.4619C74.1883 70.9023 72.5124 72.4894 70.9958 74.2275C71.1727 76.0278 71.4553 77.8493 71.8532 79.6552C72.0417 80.5106 71.5016 81.3573 70.6462 81.5458C69.7909 81.7343 68.9442 81.194 68.7556 80.3388C68.5701 79.4972 68.4089 78.6516 68.2692 77.8056C66.9144 79.8663 65.8028 82.1014 65.0397 84.5185C67.263 90.1455 68.8696 95.7964 69.861 100.423C71.1443 93.2936 73.2198 83.6167 76.5085 75.3007C77.8038 72.0253 78.8375 69.1739 79.6237 66.6992ZM50.5944 62.4716C52.8795 64.3092 54.9409 66.5708 56.7878 69.0703C59.2906 72.4575 61.4414 76.3376 63.2575 80.3193C64.4433 77.7122 65.9809 75.3397 67.7243 73.1923C67.5084 70.1768 67.5673 67.2278 67.8659 64.4931C62.0144 63.0199 55.941 62.8116 50.5944 62.4716ZM70.9606 65.4072C70.8253 66.8317 70.7586 68.3208 70.7673 69.8496C71.7893 68.8422 72.8477 67.8973 73.9206 67.0136C74.0334 66.9207 74.1472 66.8289 74.2604 66.7372C73.1802 66.229 72.0775 65.7901 70.9606 65.4072ZM77.7292 52.3994C76.7381 52.2378 75.715 52.6219 74.655 53.8857C73.5709 55.1782 72.603 57.2407 71.902 59.9228C71.7116 60.6515 71.544 61.4173 71.3991 62.2138C73.3316 62.8412 75.2386 63.6204 77.0798 64.6015C78.3615 63.6936 79.6452 62.8648 80.8972 62.1093C81.3396 60.1717 81.556 58.5644 81.5544 57.2421C81.5522 55.4847 81.166 54.4343 80.6237 53.7792C80.0887 53.1331 79.2103 52.6409 77.7292 52.3994ZM102.131 38.5654C99.5549 38.4194 96.4086 38.9985 92.6862 39.8769C85.4002 41.5963 76.1753 44.4187 66.695 43.6718C60.2179 43.1614 53.5087 43.3565 48.2936 44.7997C43.0402 46.2537 39.7941 48.806 39.1735 52.6865C38.9309 54.2039 39.0836 55.2179 39.404 55.9179C39.7156 56.5985 40.2639 57.153 41.1501 57.6171C43.0492 58.6115 46.0829 58.9947 50.1452 59.2665C55.3292 59.6135 61.864 59.7582 68.3337 61.3427C68.4797 60.576 68.6464 59.834 68.8327 59.121C69.5967 56.1977 70.7232 53.6363 72.2243 51.8466C73.7494 50.0284 75.8026 48.8714 78.239 49.2685C80.185 49.5857 81.8822 50.3248 83.0671 51.7558C84.2447 53.1782 84.7235 55.0524 84.7263 57.2382C84.7273 58.1033 84.6524 59.0482 84.5056 60.0771C87.4527 58.5331 90.0019 57.4618 91.6393 56.832C94.1098 55.8818 97.9003 53.8937 101.487 51.1728C104.499 48.888 106.702 47.1765 107.837 45.5439C108.37 44.7763 108.582 44.1384 108.586 43.5585C108.589 42.9828 108.387 42.2605 107.716 41.3212C106.424 39.5105 104.62 38.7064 102.131 38.5654Z" fill="black"/>
</svg>
