<svg width="70" height="115" viewBox="0 0 70 115" fill="none" xmlns="http://www.w3.org/2000/svg">
<path d="M34.7578 51.1719H69.6328V57.2871H37.9766V57.2861H34.7578V68.5508H37.9766V68.5498H69.6328V74.665H34.7578V114.572C21.1257 114.55 9.33303 106.692 3.6377 95.2627H29.9316V92.0439H2.23242C0.790771 88.2229 5.21417e-05 84.0823 0 79.7568V77.8838H29.9316V74.665H0V34.8164C0 15.6074 15.5562 0.0316196 34.7578 0V51.1719ZM69.6328 79.7568C69.6326 97.9198 55.7239 112.831 37.9766 114.428V77.8838H69.6328V79.7568ZM48.1143 80.1357C45.8927 80.136 44.0918 81.9375 44.0918 84.1592C44.0918 86.3808 45.8927 88.1814 48.1143 88.1816C50.3358 88.1814 52.1376 86.3808 52.1377 84.1592C52.1377 81.9375 50.3359 80.136 48.1143 80.1357ZM69.6328 65.332H37.9766V60.5049H69.6328V65.332ZM37.9766 0.143555C55.7241 1.74044 69.6328 16.6532 69.6328 34.8164V47.9531H37.9766V0.143555ZM19.4697 22.5283C13.6931 22.5284 9.00977 27.2117 9.00977 32.9883L9.02344 33.5264C9.29467 38.8743 13.5828 43.1622 18.9307 43.4336L19.4697 43.4473C25.0654 43.4469 29.6348 39.0525 29.915 33.5264L29.9287 32.9883C29.9287 27.3923 25.5341 22.8224 20.0078 22.542L19.4697 22.5283ZM19.4697 25.7471C23.4686 25.7475 26.7109 28.9893 26.7109 32.9883C26.7107 36.9871 23.4685 40.2291 19.4697 40.2295C15.4707 40.2294 12.2288 36.9873 12.2285 32.9883C12.2285 28.9891 15.4706 25.7472 19.4697 25.7471Z" fill="#ECE8E0"/>
</svg>
