<svg width="1576" height="406" viewBox="0 0 1576 406" fill="none" xmlns="http://www.w3.org/2000/svg">
<path d="M117.083 191.497H234.554V212.096H127.923V212.095H117.082L117.083 250.037H234.554V270.635H127.923V270.634H117.082V405.06C71.1605 404.985 31.4291 378.518 12.2451 340.016H100.822V329.175H7.51367C2.65771 316.304 2.56589e-06 302.355 0 287.784V281.476H100.822V270.635H0V136.405C0 71.6998 52.4019 19.2338 117.083 19.1291V191.497ZM234.554 287.784C234.554 348.966 187.704 399.204 127.923 404.583V281.476H234.554V287.784ZM162.069 289.066C154.586 289.066 148.519 295.133 148.519 302.616C148.519 310.1 154.585 316.167 162.069 316.167C169.553 316.167 175.62 310.1 175.62 302.616C175.62 295.132 169.553 289.066 162.069 289.066ZM234.554 239.197H127.924L127.923 222.937H234.554V239.197ZM127.924 19.6057C187.705 24.9853 234.554 75.224 234.554 136.405V180.656H127.924V19.6057ZM65.5889 95.0129C46.1306 95.013 30.3566 110.787 30.3564 130.245C30.3564 149.704 46.1305 165.478 65.5889 165.478C85.0471 165.477 100.821 149.704 100.821 130.245C100.821 110.787 85.047 95.0132 65.5889 95.0129ZM65.5889 105.854C79.0598 105.854 89.9803 116.774 89.9805 130.245C89.9805 143.716 79.0599 154.637 65.5889 154.637C52.1177 154.637 41.1973 143.716 41.1973 130.245C41.1974 116.774 52.1178 105.854 65.5889 105.854Z" fill="black"/>
<path d="M757.162 314.602C757.162 319.865 755.928 324.511 753.461 328.54C750.994 332.487 747.623 335.612 743.347 337.914C739.153 340.134 734.343 341.245 728.916 341.245C723.407 341.245 718.514 340.134 714.238 337.914C709.962 335.612 706.591 332.487 704.124 328.54C701.657 324.511 700.424 319.865 700.424 314.602C700.424 309.422 701.657 304.858 704.124 300.911C706.591 296.882 709.962 293.757 714.238 291.537C718.514 289.317 723.407 288.207 728.916 288.207C734.343 288.207 739.153 289.317 743.347 291.537C747.623 293.757 750.994 296.882 753.461 300.911C755.928 304.858 757.162 309.422 757.162 314.602ZM748.034 314.602C748.034 310.491 747.171 306.996 745.444 304.118C743.799 301.158 741.538 298.897 738.66 297.334C735.782 295.772 732.534 294.991 728.916 294.991C725.298 294.991 722.05 295.772 719.172 297.334C716.294 298.897 713.991 301.158 712.265 304.118C710.62 306.996 709.798 310.491 709.798 314.602C709.798 318.714 710.62 322.25 712.265 325.21C713.991 328.17 716.294 330.431 719.172 331.994C722.05 333.556 725.298 334.337 728.916 334.337C732.534 334.337 735.782 333.556 738.66 331.994C741.538 330.431 743.799 328.17 745.444 325.21C747.171 322.25 748.034 318.714 748.034 314.602ZM785.16 383.428H779.98C779.898 382.112 779.816 380.468 779.733 378.494C779.651 376.521 779.569 374.424 779.487 372.204C779.404 369.983 779.322 367.846 779.24 365.79C779.24 363.734 779.24 362.048 779.24 360.733V274.763C778.171 273.529 776.691 272.378 774.8 271.309C772.991 270.158 770.976 269.212 768.756 268.472L769.743 265.512C769.825 265.347 769.948 265.224 770.113 265.142C770.277 264.977 770.606 264.895 771.099 264.895C772.579 264.895 774.306 265.101 776.28 265.512C778.335 265.841 780.309 266.252 782.2 266.745C784.174 267.156 785.736 267.609 786.887 268.102C787.956 268.431 788.45 269.253 788.367 270.569L788.121 277.106V357.649C788.121 359.458 788.038 361.473 787.874 363.693C787.709 365.913 787.504 368.216 787.257 370.6C787.011 372.985 786.682 375.246 786.27 377.384C785.942 379.604 785.572 381.619 785.16 383.428ZM938.824 334.214L943.264 332.241C944.744 332.241 946.348 332.364 948.074 332.611C949.883 332.775 951.569 332.981 953.132 333.227C954.776 333.474 956.092 333.762 957.079 334.091C958.147 334.42 958.682 335.119 958.682 336.187C958.682 337.174 958.394 338.12 957.819 339.024C957.243 339.847 956.667 340.422 956.092 340.751C955.023 340.587 953.584 340.463 951.775 340.381C949.966 340.299 948.157 340.258 946.348 340.258C944.539 340.176 943.017 340.134 941.784 340.134C940.386 340.134 937.796 340.134 934.013 340.134C930.313 340.134 925.955 340.176 920.939 340.258C915.923 340.34 910.66 340.422 905.151 340.504C899.724 340.504 894.544 340.546 889.61 340.628C884.758 340.71 880.565 340.792 877.029 340.875C873.575 340.957 871.273 341.039 870.122 341.121C869.135 341.203 867.86 341.368 866.298 341.615C864.736 341.861 863.173 342.149 861.611 342.478C860.131 342.807 858.856 343.136 857.787 343.465C855.567 342.725 853.388 341.779 851.25 340.628C849.112 339.394 847.262 338.161 845.7 336.928C845.371 336.681 845.247 336.352 845.33 335.941L846.193 334.091C848.249 334.502 850.551 334.831 853.1 335.077C855.649 335.324 857.911 335.447 859.884 335.447C861.035 335.447 863.132 335.447 866.175 335.447C869.217 335.447 872.917 335.447 877.276 335.447C881.716 335.365 886.403 335.283 891.337 335.201C896.353 335.119 901.369 335.036 906.384 334.954C911.483 334.872 916.252 334.79 920.692 334.707C925.133 334.625 928.956 334.543 932.163 334.461C935.37 334.378 937.59 334.296 938.824 334.214ZM903.671 383.058H898.491C898.408 381.66 898.326 379.974 898.244 378.001C898.162 376.11 898.079 374.095 897.997 371.957C897.915 369.819 897.833 367.763 897.75 365.79C897.75 363.816 897.75 362.09 897.75 360.609V336.558H906.508V357.773C906.508 359.417 906.426 361.349 906.261 363.57C906.097 365.79 905.891 368.051 905.644 370.354C905.48 372.738 905.192 375.041 904.781 377.261C904.452 379.481 904.082 381.413 903.671 383.058ZM937.467 320.4L879.619 321.386L880.606 316.206C882.415 316.206 884.799 316.206 887.76 316.206C890.72 316.206 893.927 316.165 897.38 316.083C900.834 316 904.247 315.959 907.618 315.959C911.072 315.877 914.196 315.795 916.992 315.713C919.87 315.548 922.09 315.425 923.653 315.343L927.106 313.492C928.997 313.41 931.094 313.451 933.397 313.616C935.781 313.78 937.549 313.986 938.7 314.232C939.687 314.397 940.181 314.931 940.181 315.836C940.181 316.905 940.057 317.768 939.81 318.426C939.564 319.084 939.276 319.536 938.947 319.783C938.618 320.194 938.125 320.4 937.467 320.4ZM881.839 316.206L879.619 321.386C876.33 321.469 873.986 320.811 872.588 319.413C871.191 318.015 870.492 315.918 870.492 313.122V304.488H879.496V313.986C879.496 315.466 880.277 316.206 881.839 316.206ZM879.496 306.832H870.492V300.665C869.669 299.925 868.642 299.308 867.408 298.815C866.175 298.239 864.818 297.787 863.338 297.458L863.831 295.114C863.996 294.621 864.407 294.374 865.065 294.374C866.298 294.374 867.86 294.415 869.752 294.498C871.643 294.498 873.534 294.58 875.425 294.744C877.317 294.826 878.756 294.95 879.742 295.114L879.496 299.925V306.832ZM924.516 273.653V278.956C923.036 278.956 920.939 278.997 918.225 279.08C915.512 279.08 912.552 279.121 909.345 279.203C906.138 279.203 902.931 279.244 899.724 279.326C896.599 279.326 893.804 279.367 891.337 279.45C888.87 279.45 887.061 279.491 885.91 279.573C884.758 279.655 883.114 279.902 880.976 280.313C878.92 280.642 877.111 281.053 875.549 281.546C873.493 280.806 871.561 279.943 869.752 278.956C868.025 277.97 866.504 276.942 865.188 275.873C864.695 275.626 864.571 275.256 864.818 274.763L865.435 273.406C867.161 273.735 869.135 273.981 871.355 274.146C873.657 274.31 875.59 274.393 877.152 274.393C878.468 274.393 880.688 274.393 883.813 274.393C886.937 274.393 890.473 274.393 894.42 274.393C898.449 274.31 902.438 274.228 906.384 274.146C910.414 274.064 914.032 273.981 917.239 273.899C920.528 273.817 922.954 273.735 924.516 273.653ZM933.397 279.326L923.529 278.956L923.653 273.653L927.846 271.802C928.504 271.391 929.162 271.391 929.82 271.802C930.478 272.049 931.3 272.46 932.287 273.036C933.356 273.611 934.096 274.064 934.507 274.393C934.918 274.722 934.959 275.256 934.63 275.996L933.397 279.326ZM930.683 293.881H923.036C923.2 292.73 923.324 291.208 923.406 289.317C923.488 287.344 923.529 285.37 923.529 283.397C923.611 281.423 923.611 279.902 923.529 278.833L933.397 279.08C933.314 280.478 933.109 282.122 932.78 284.013C932.533 285.905 932.204 287.755 931.793 289.564C931.464 291.291 931.094 292.73 930.683 293.881ZM932.657 299.061L878.509 299.925V295.114C879.989 295.114 882.168 295.114 885.046 295.114C887.924 295.032 891.172 294.991 894.79 294.991C898.408 294.909 901.985 294.826 905.521 294.744C909.057 294.662 912.182 294.58 914.895 294.498C917.609 294.415 919.5 294.333 920.569 294.251L923.653 293.387C924.968 293.141 926.161 293.017 927.229 293.017C928.298 293.017 929.203 293.141 929.943 293.387L933.15 294.744C933.561 294.991 933.767 295.361 933.767 295.854C933.767 296.594 933.643 297.293 933.397 297.951C933.15 298.527 932.903 298.897 932.657 299.061ZM1081.76 332.857V337.791C1076 339.764 1069.67 341.573 1062.76 343.218C1055.85 344.78 1048.99 346.137 1042.16 347.288C1035.42 348.357 1029.34 349.097 1023.91 349.509C1023.17 349.591 1022.43 349.632 1021.69 349.632C1021.03 349.632 1020.41 349.632 1019.84 349.632C1017.78 349.632 1016.06 349.097 1014.66 348.028C1013.34 346.877 1012.36 345.356 1011.7 343.465C1011.53 342.971 1011.37 342.231 1011.2 341.245C1011.12 340.258 1011.08 339.148 1011.08 337.914V310.779H1020.21V339.641C1020.21 341.121 1020.91 341.82 1022.3 341.738C1026.33 341.656 1030.9 341.409 1036 340.998C1041.09 340.504 1046.36 339.888 1051.78 339.148C1057.29 338.325 1062.64 337.38 1067.82 336.311C1073 335.242 1077.64 334.091 1081.76 332.857ZM1020.21 313.369H1011.08V294.374C1009.02 292.565 1006.31 291.332 1002.94 290.674L1003.56 287.837C1003.72 287.426 1004.13 287.22 1004.79 287.22C1006.02 287.22 1007.63 287.261 1009.6 287.344C1011.66 287.426 1013.67 287.549 1015.64 287.714C1017.7 287.878 1019.3 288.125 1020.45 288.454L1020.21 293.881V313.369ZM1058.94 292.647L1019.59 293.881V288.33C1020.91 288.33 1022.8 288.289 1025.27 288.207C1027.81 288.125 1030.49 288.043 1033.28 287.96C1036.16 287.878 1038.79 287.796 1041.18 287.714C1043.64 287.549 1045.41 287.426 1046.48 287.344L1049.81 285.37C1051.29 285.37 1053.06 285.452 1055.11 285.617C1057.25 285.699 1058.9 285.905 1060.05 286.234C1061.12 286.398 1061.65 286.932 1061.65 287.837C1061.65 288.824 1061.53 289.687 1061.28 290.427C1061.03 291.167 1060.79 291.702 1060.54 292.031C1060.21 292.442 1059.68 292.647 1058.94 292.647ZM1110.37 322.003L1087.18 322.373V317.069L1097.67 316.576L1101.61 314.356C1103.42 314.274 1105.4 314.315 1107.53 314.479C1109.76 314.561 1111.4 314.726 1112.47 314.972C1113.62 315.219 1114.2 315.877 1114.2 316.946C1114.28 318.097 1114.15 319.084 1113.83 319.906C1113.58 320.646 1113.21 321.14 1112.72 321.386C1112.47 321.551 1112.1 321.715 1111.61 321.88C1111.19 321.962 1110.78 322.003 1110.37 322.003ZM1086.07 383.428H1080.89C1080.81 382.112 1080.73 380.468 1080.65 378.494C1080.56 376.521 1080.48 374.424 1080.4 372.204C1080.32 369.983 1080.23 367.846 1080.15 365.79C1080.15 363.734 1080.15 362.048 1080.15 360.733V274.763C1079.08 273.529 1077.6 272.378 1075.71 271.309C1073.9 270.158 1071.89 269.212 1069.67 268.472L1070.66 265.512C1070.74 265.347 1070.86 265.224 1071.03 265.142C1071.19 264.977 1071.52 264.895 1072.01 264.895C1073.49 264.895 1075.22 265.101 1077.19 265.512C1079.25 265.841 1081.22 266.252 1083.11 266.745C1085.09 267.156 1086.65 267.609 1087.8 268.102C1088.79 268.431 1089.28 269.253 1089.28 270.569L1088.91 277.106V357.649C1088.91 359.458 1088.83 361.473 1088.66 363.693C1088.58 365.913 1088.42 368.216 1088.17 370.6C1087.92 372.985 1087.59 375.246 1087.18 377.384C1086.85 379.604 1086.48 381.619 1086.07 383.428ZM1209.39 290.797L1213.22 288.947C1215.03 289.029 1217.04 289.194 1219.26 289.44C1221.56 289.687 1223.25 290.016 1224.32 290.427C1225.22 290.756 1225.68 291.291 1225.68 292.031C1225.68 293.1 1225.35 294.086 1224.69 294.991C1224.11 295.813 1223.62 296.348 1223.21 296.594C1222.39 296.43 1221.24 296.348 1219.75 296.348C1218.36 296.265 1216.92 296.224 1215.44 296.224C1214.04 296.142 1212.89 296.101 1211.98 296.101C1211 296.101 1209.15 296.142 1206.43 296.224C1203.72 296.224 1200.6 296.265 1197.06 296.348C1193.52 296.43 1189.99 296.512 1186.45 296.594C1182.92 296.677 1179.79 296.759 1177.08 296.841C1174.36 296.923 1172.56 297.005 1171.65 297.088C1170.5 297.17 1168.98 297.376 1167.09 297.704C1165.2 298.033 1163.72 298.403 1162.65 298.815C1160.92 298.239 1159.15 297.417 1157.34 296.348C1155.62 295.279 1154.1 294.251 1152.78 293.264C1152.37 292.853 1152.25 292.483 1152.41 292.154L1153.27 290.674C1155 291.003 1156.93 291.249 1159.07 291.414C1161.21 291.496 1162.98 291.537 1164.37 291.537C1165.44 291.537 1167.46 291.537 1170.42 291.537C1173.38 291.537 1176.83 291.537 1180.78 291.537C1184.73 291.455 1188.67 291.373 1192.62 291.291C1196.57 291.208 1200.06 291.126 1203.1 291.044C1206.15 290.962 1208.24 290.879 1209.39 290.797ZM1239.74 354.689H1234.56C1234.39 353.456 1234.27 351.934 1234.19 350.125C1234.1 348.316 1234.02 346.384 1233.94 344.328C1233.94 342.272 1233.9 340.299 1233.82 338.408C1233.82 336.434 1233.82 334.748 1233.82 333.351V274.763C1232.75 273.529 1231.27 272.378 1229.38 271.309C1227.57 270.158 1225.59 269.212 1223.46 268.472L1224.44 265.512C1224.52 265.101 1224.98 264.895 1225.8 264.895C1227.28 264.895 1229.01 265.101 1230.98 265.512C1233.03 265.841 1235.01 266.252 1236.9 266.745C1238.79 267.156 1240.31 267.609 1241.46 268.102C1242.45 268.431 1242.94 269.253 1242.94 270.569L1242.57 276.983V330.267C1242.57 333.145 1242.45 336.105 1242.2 339.148C1242.04 342.108 1241.71 344.945 1241.22 347.658C1240.81 350.29 1240.31 352.633 1239.74 354.689ZM1264.04 317.809L1240.85 318.179V312.876L1251.33 312.506L1255.28 310.162C1257.09 310.08 1259.06 310.121 1261.2 310.285C1263.42 310.368 1265.06 310.532 1266.13 310.779C1267.28 311.108 1267.86 311.807 1267.86 312.876C1267.94 313.945 1267.82 314.89 1267.49 315.713C1267.24 316.453 1266.87 316.946 1266.38 317.193C1266.13 317.439 1265.76 317.604 1265.27 317.686C1264.86 317.768 1264.45 317.809 1264.04 317.809ZM1249.6 379.358L1197.31 379.728L1198.54 374.301C1200.43 374.301 1203.06 374.301 1206.43 374.301C1209.81 374.301 1213.38 374.301 1217.16 374.301C1220.95 374.301 1224.44 374.259 1227.65 374.177C1230.94 374.095 1233.49 374.013 1235.3 373.93L1239.24 371.834C1241.13 371.751 1243.23 371.793 1245.53 371.957C1247.92 372.204 1249.69 372.45 1250.84 372.697C1251.91 372.944 1252.44 373.519 1252.44 374.424C1252.44 375.575 1252.28 376.521 1251.95 377.261C1251.7 378.001 1251.41 378.494 1251.08 378.741C1250.76 379.152 1250.26 379.358 1249.6 379.358ZM1215.68 322.126C1215.68 326.156 1214.53 329.733 1212.23 332.857C1209.93 335.9 1206.85 338.284 1202.98 340.011C1199.2 341.656 1194.96 342.478 1190.28 342.478C1185.67 342.478 1181.4 341.615 1177.45 339.888C1173.58 338.161 1170.5 335.776 1168.2 332.734C1165.98 329.691 1164.87 326.156 1164.87 322.126C1164.87 318.015 1165.98 314.438 1168.2 311.396C1170.5 308.353 1173.58 306.01 1177.45 304.365C1181.4 302.72 1185.67 301.898 1190.28 301.898C1194.96 301.898 1199.2 302.72 1202.98 304.365C1206.85 306.01 1209.93 308.353 1212.23 311.396C1214.53 314.438 1215.68 318.015 1215.68 322.126ZM1207.17 322.126C1207.17 319.084 1206.39 316.494 1204.83 314.356C1203.35 312.218 1201.34 310.573 1198.79 309.422C1196.24 308.271 1193.4 307.695 1190.28 307.695C1187.23 307.695 1184.44 308.271 1181.89 309.422C1179.34 310.573 1177.28 312.218 1175.72 314.356C1174.24 316.494 1173.5 319.084 1173.5 322.126C1173.5 325.087 1174.24 327.636 1175.72 329.774C1177.28 331.912 1179.34 333.556 1181.89 334.707C1184.44 335.776 1187.23 336.311 1190.28 336.311C1193.4 336.311 1196.24 335.776 1198.79 334.707C1201.34 333.556 1203.35 331.912 1204.83 329.774C1206.39 327.636 1207.17 325.087 1207.17 322.126ZM1170.91 273.653L1171.77 272.666C1177.28 273.653 1182.67 274.269 1187.93 274.516C1193.28 274.763 1198.09 274.927 1202.36 275.009C1203.27 275.009 1203.84 275.379 1204.09 276.119C1204.25 276.531 1204.34 277.024 1204.34 277.6C1204.34 278.175 1204.3 278.751 1204.21 279.326C1204.13 279.902 1203.97 280.354 1203.72 280.683C1203.64 281.012 1203.43 281.218 1203.1 281.3C1202.77 281.382 1202.45 281.423 1202.12 281.423C1199.98 281.423 1197.59 281.464 1194.96 281.546C1192.41 281.629 1189.86 281.711 1187.32 281.793C1184.85 281.875 1182.71 281.999 1180.9 282.163C1179.92 282.163 1179.13 281.999 1178.56 281.67C1177.32 280.93 1176.01 279.943 1174.61 278.71C1173.3 277.476 1172.1 276.161 1171.03 274.763C1170.79 274.351 1170.75 273.981 1170.91 273.653ZM1198.54 374.301L1197.43 379.728C1193.4 379.645 1190.56 378.864 1188.92 377.384C1187.27 375.904 1186.45 373.478 1186.45 370.107V360.856H1195.46V371.094C1195.46 373.232 1196.48 374.301 1198.54 374.301ZM1195.46 365.05H1186.45V357.526C1185.47 356.704 1184.19 356.005 1182.63 355.429C1181.07 354.771 1179.46 354.278 1177.82 353.949L1178.44 351.235C1178.52 350.742 1178.93 350.495 1179.67 350.495C1181.07 350.495 1182.67 350.536 1184.48 350.619C1186.29 350.701 1188.06 350.824 1189.78 350.989C1191.51 351.153 1192.87 351.359 1193.85 351.605C1195.09 351.852 1195.7 352.633 1195.7 353.949L1195.46 359.376V365.05ZM1400.43 383.428H1395.37C1395.21 382.112 1395.09 380.468 1395 378.494C1394.92 376.521 1394.84 374.424 1394.76 372.204C1394.67 369.983 1394.63 367.846 1394.63 365.79C1394.63 363.734 1394.63 362.048 1394.63 360.733V274.763C1393.56 273.529 1392.08 272.378 1390.19 271.309C1388.3 270.158 1386.25 269.212 1384.03 268.472L1385.01 265.512C1385.09 265.347 1385.22 265.224 1385.38 265.142C1385.63 264.977 1385.96 264.895 1386.37 264.895C1387.93 264.895 1389.7 265.101 1391.67 265.512C1393.73 265.841 1395.7 266.252 1397.59 266.745C1399.48 267.156 1401.01 267.609 1402.16 268.102C1403.23 268.431 1403.76 269.253 1403.76 270.569L1403.39 277.106V357.649C1403.39 359.458 1403.31 361.473 1403.14 363.693C1402.98 365.913 1402.77 368.216 1402.53 370.6C1402.36 372.985 1402.08 375.246 1401.66 377.384C1401.25 379.604 1400.84 381.619 1400.43 383.428ZM1322.23 346.918L1330.12 353.702C1328.97 353.784 1327.37 354.072 1325.31 354.566C1323.26 354.977 1321.66 355.429 1320.5 355.922C1318.37 355.018 1316.19 353.908 1313.97 352.592C1311.83 351.276 1309.9 349.961 1308.17 348.645C1307.68 348.316 1307.55 347.905 1307.8 347.412L1308.54 345.808C1310.68 346.219 1312.94 346.507 1315.32 346.672C1317.79 346.836 1320.09 346.918 1322.23 346.918ZM1396.36 340.504L1396.73 343.465C1396.81 344.04 1396.52 344.41 1395.87 344.575C1392.82 345.315 1389.17 346.096 1384.89 346.918C1380.61 347.741 1376.01 348.522 1371.07 349.262C1366.22 349.92 1361.29 350.578 1356.27 351.235C1351.34 351.893 1346.61 352.428 1342.09 352.839C1337.57 353.25 1333.58 353.538 1330.12 353.702L1322.23 346.918C1325.93 346.836 1330.25 346.672 1335.18 346.425C1340.12 346.096 1345.3 345.726 1350.72 345.315C1356.15 344.822 1361.58 344.287 1367 343.711C1372.51 343.136 1377.65 342.519 1382.42 341.861C1387.19 341.203 1391.39 340.546 1395 339.888C1395.74 339.723 1396.2 339.929 1396.36 340.504ZM1374.65 304.612C1374.65 309.052 1373.46 313.081 1371.07 316.699C1368.69 320.235 1365.48 323.072 1361.45 325.21C1357.42 327.266 1352.78 328.294 1347.52 328.294C1342.42 328.294 1337.81 327.266 1333.7 325.21C1329.59 323.072 1326.34 320.235 1323.96 316.699C1321.57 313.081 1320.38 309.052 1320.38 304.612C1320.38 300.007 1321.57 295.937 1323.96 292.401C1326.34 288.783 1329.59 285.946 1333.7 283.89C1337.81 281.834 1342.42 280.806 1347.52 280.806C1352.78 280.806 1357.42 281.834 1361.45 283.89C1365.48 285.946 1368.69 288.783 1371.07 292.401C1373.46 295.937 1374.65 300.007 1374.65 304.612ZM1365.52 304.612C1365.52 301.076 1364.74 298.033 1363.18 295.484C1361.62 292.853 1359.48 290.838 1356.77 289.44C1354.05 288.043 1350.97 287.344 1347.52 287.344C1344.14 287.344 1341.06 288.043 1338.27 289.44C1335.55 290.838 1333.41 292.853 1331.85 295.484C1330.29 298.033 1329.51 301.076 1329.51 304.612C1329.51 307.983 1330.29 310.984 1331.85 313.616C1333.41 316.165 1335.55 318.138 1338.27 319.536C1341.06 320.934 1344.14 321.633 1347.52 321.633C1350.97 321.633 1354.05 320.934 1356.77 319.536C1359.48 318.138 1361.62 316.165 1363.18 313.616C1364.74 310.984 1365.52 307.983 1365.52 304.612ZM1526.96 294.251C1526.96 298.116 1525.81 301.569 1523.5 304.612C1521.28 307.572 1518.24 309.874 1514.38 311.519C1510.51 313.163 1506.15 313.986 1501.3 313.986C1496.53 313.986 1492.22 313.163 1488.35 311.519C1484.49 309.874 1481.4 307.572 1479.1 304.612C1476.88 301.569 1475.77 298.116 1475.77 294.251C1475.77 290.222 1476.88 286.727 1479.1 283.767C1481.4 280.724 1484.49 278.381 1488.35 276.736C1492.22 275.092 1496.53 274.269 1501.3 274.269C1506.15 274.269 1510.51 275.092 1514.38 276.736C1518.24 278.381 1521.28 280.724 1523.5 283.767C1525.81 286.727 1526.96 290.222 1526.96 294.251ZM1517.95 294.251C1517.95 289.893 1516.35 286.521 1513.14 284.137C1509.94 281.67 1505.99 280.436 1501.3 280.436C1496.7 280.436 1492.79 281.67 1489.59 284.137C1486.38 286.521 1484.77 289.893 1484.77 294.251C1484.77 298.527 1486.38 301.898 1489.59 304.365C1492.79 306.75 1496.7 307.942 1501.3 307.942C1505.99 307.942 1509.94 306.75 1513.14 304.365C1516.35 301.898 1517.95 298.527 1517.95 294.251ZM1503.89 347.658H1498.22C1497.97 345.932 1497.77 343.876 1497.6 341.491C1497.52 339.107 1497.48 337.01 1497.48 335.201V327.183H1506.24V333.227C1506.24 335.53 1505.99 338.079 1505.5 340.875C1505.09 343.588 1504.55 345.849 1503.89 347.658ZM1475.89 324.347L1483.91 330.884C1483.25 330.884 1482.27 331.048 1480.95 331.377C1479.72 331.624 1478.48 331.912 1477.25 332.241C1476.02 332.569 1475.07 332.898 1474.41 333.227C1472.19 332.323 1469.97 331.254 1467.75 330.02C1465.53 328.787 1463.56 327.471 1461.83 326.073C1461.34 325.744 1461.22 325.333 1461.46 324.84L1462.33 323.236C1464.46 323.565 1466.73 323.853 1469.11 324.1C1471.58 324.264 1473.84 324.347 1475.89 324.347ZM1539.29 319.536L1539.54 321.756C1539.62 322.25 1539.42 322.579 1538.92 322.743C1535.63 323.648 1531.65 324.552 1526.96 325.457C1522.35 326.279 1517.42 327.101 1512.16 327.924C1506.98 328.664 1501.92 329.321 1496.99 329.897C1492.05 330.39 1487.69 330.719 1483.91 330.884L1475.89 324.347C1479.84 324.347 1484.53 324.223 1489.96 323.977C1495.46 323.648 1501.18 323.236 1507.1 322.743C1513.02 322.25 1518.69 321.715 1524.12 321.14C1529.55 320.482 1534.19 319.824 1538.06 319.166C1538.72 319.002 1539.13 319.125 1539.29 319.536ZM1528.19 336.311L1534.36 341.121C1533.29 341.203 1532.06 341.45 1530.66 341.861C1529.26 342.272 1528.03 342.684 1526.96 343.095C1525.31 342.519 1523.75 341.82 1522.27 340.998C1520.79 340.176 1519.43 339.353 1518.2 338.531C1517.79 338.202 1517.67 337.791 1517.83 337.298L1518.69 335.817C1520.09 335.982 1521.65 336.105 1523.38 336.187C1525.11 336.27 1526.71 336.311 1528.19 336.311ZM1550.64 334.707V339.888C1549.16 339.888 1547.35 339.97 1545.21 340.134C1543.08 340.217 1540.98 340.34 1538.92 340.504C1536.95 340.669 1535.43 340.875 1534.36 341.121L1528.19 336.311C1529.84 336.229 1532.02 336.146 1534.73 336.064C1537.52 335.9 1540.36 335.694 1543.24 335.447C1546.2 335.201 1548.67 334.954 1550.64 334.707ZM1554.22 358.019H1549.04C1548.87 356.868 1548.75 355.347 1548.67 353.456C1548.58 351.564 1548.5 349.591 1548.42 347.535C1548.42 345.397 1548.38 343.383 1548.3 341.491C1548.3 339.6 1548.3 337.997 1548.3 336.681V274.763C1547.23 273.529 1545.75 272.378 1543.86 271.309C1542.05 270.158 1540.07 269.212 1537.94 268.472L1538.8 265.512C1538.96 265.101 1539.46 264.895 1540.28 264.895C1541.76 264.895 1543.49 265.101 1545.46 265.512C1547.52 265.841 1549.49 266.252 1551.38 266.745C1553.27 267.156 1554.79 267.609 1555.94 268.102C1556.93 268.431 1557.42 269.253 1557.42 270.569L1557.05 276.983V333.597C1557.05 336.064 1556.93 338.819 1556.68 341.861C1556.52 344.822 1556.19 347.741 1555.7 350.619C1555.29 353.414 1554.79 355.881 1554.22 358.019ZM1561.74 380.344L1508.09 380.714L1509.32 375.411C1510.88 375.411 1512.98 375.411 1515.61 375.411C1518.32 375.411 1521.2 375.411 1524.24 375.411C1527.37 375.411 1530.45 375.369 1533.5 375.287C1536.54 375.205 1539.29 375.123 1541.76 375.041C1544.31 375.041 1546.32 374.999 1547.8 374.917L1551.87 372.82C1553.6 372.82 1555.62 372.903 1557.92 373.067C1560.22 373.232 1561.99 373.437 1563.22 373.684C1564.29 373.93 1564.82 374.506 1564.82 375.411C1564.82 376.48 1564.66 377.384 1564.33 378.124C1564 378.946 1563.71 379.481 1563.47 379.728C1563.06 380.139 1562.48 380.344 1561.74 380.344ZM1509.32 375.411L1508.09 380.714C1504.06 380.714 1501.22 379.933 1499.58 378.371C1498.01 376.891 1497.23 374.506 1497.23 371.217V363.2H1506.24V372.204C1506.24 374.342 1507.26 375.411 1509.32 375.411ZM1506.24 366.53H1497.23V358.883C1496.25 358.143 1494.93 357.485 1493.29 356.909C1491.72 356.251 1490.12 355.717 1488.48 355.306L1489.09 352.592C1489.17 352.099 1489.63 351.852 1490.45 351.852C1491.85 351.852 1493.41 351.893 1495.14 351.975C1496.94 352.058 1498.71 352.181 1500.44 352.345C1502.17 352.51 1503.56 352.715 1504.63 352.962C1505.78 353.291 1506.36 354.072 1506.36 355.306L1506.24 360.856V366.53Z" fill="black"/>
<path d="M341.136 51.5014H362.118V197.584H341.136V51.5014ZM441.014 124.345C457.047 124.345 467.934 113.854 467.934 97.0285C467.934 80.2033 457.047 69.9102 441.014 69.9102H409.145V124.345H441.014ZM495.844 197.584H470.507L433.492 142.754H409.145V197.584H388.163V51.5014H443.587C470.309 51.5014 488.916 69.7122 488.916 96.6326C489.114 115.635 478.821 131.867 456.849 139.784L495.844 197.584ZM570.269 198.97C535.035 198.97 514.449 174.425 514.449 139.784V51.5014H535.431V139.784C535.431 163.538 547.11 179.571 570.269 179.571C593.429 179.571 605.107 163.538 605.107 139.784V51.5014H626.287V139.784C626.287 174.425 605.503 198.97 570.269 198.97ZM693.318 179.175C724.593 179.175 745.575 157.203 745.575 124.543C745.575 91.8819 724.593 69.9102 693.318 69.9102L672.534 70.1081V178.977L693.318 179.175ZM693.516 51.5014C736.272 51.5014 766.359 81.5889 766.359 124.543C766.359 167.496 736.272 197.584 693.516 197.584H651.552V51.5014H693.516ZM847.87 51.5014L902.107 197.584H879.739L865.091 157.797H805.114L789.873 197.584H767.505L822.731 51.5014H847.87ZM811.844 139.586H858.163L835.4 78.0259L811.844 139.586ZM1034.36 199.167C992 199.167 962.308 168.288 962.308 124.543C962.308 80.5992 992 49.9179 1034.36 49.9179C1054.35 49.9179 1072.17 58.4294 1085.23 71.6917L1071.38 85.3498C1062.67 75.0567 1048.81 68.3266 1034.16 68.3266C1003.88 68.3266 983.488 90.8922 983.488 124.543C983.488 158.193 1003.88 180.759 1034.16 180.759C1049.8 180.759 1062.27 173.633 1070.58 164.131L1085.23 177.394C1072.17 190.656 1055.34 199.365 1034.36 199.167ZM1126.23 51.5014V179.175H1192.35V197.584H1105.25V51.5014H1126.23ZM1214.34 51.5014H1235.32V197.584H1214.34V51.5014ZM1376.96 51.5014V197.584H1354.2L1281.75 87.5272V197.584H1260.77V51.5014H1283.54L1355.78 161.36V51.5014H1376.96ZM1402.34 51.5014H1423.32V197.584H1402.34V51.5014ZM1515.57 199.167C1473.21 199.167 1443.52 168.288 1443.52 124.543C1443.52 80.5992 1473.21 49.9179 1515.57 49.9179C1535.56 49.9179 1553.38 58.4294 1566.44 71.6917L1552.59 85.3498C1543.88 75.0567 1530.02 68.3266 1515.37 68.3266C1485.09 68.3266 1464.7 90.8922 1464.7 124.543C1464.7 158.193 1485.09 180.759 1515.37 180.759C1531.01 180.759 1543.48 173.633 1551.8 164.131L1566.44 177.394C1553.38 190.656 1536.55 199.365 1515.57 199.167Z" fill="black"/>
</svg>
