<svg width="49" height="26" viewBox="0 0 49 26" fill="none" xmlns="http://www.w3.org/2000/svg">
<path d="M23.7894 25.6917C23.6088 25.6032 23.4818 25.3777 23.4154 25.1761C23.3944 25.1132 23.5093 25.0407 23.499 24.993C23.4788 24.8999 23.38 24.8931 23.3674 24.7936C23.3637 24.7602 23.5352 24.6349 23.5279 24.6033C23.4868 24.431 23.3481 24.3679 23.2716 24.2283C22.8949 23.5403 22.4274 22.9613 21.9562 22.3548C21.8007 22.155 21.7194 21.8043 21.477 21.6797C21.4486 21.6653 21.3311 21.8084 21.3163 21.815C21.0879 21.9155 21.3722 21.6737 21.3654 21.597C21.3377 21.2934 21.1655 21.0972 20.9558 20.988C20.8662 20.942 20.6754 21.2688 20.7524 21.0552C20.7575 21.0407 20.913 20.9195 20.9092 20.8862C20.9002 20.8108 20.7954 20.7555 20.7737 20.7118C20.7325 20.627 20.7207 20.618 20.6627 20.5568C20.5846 20.472 20.5564 20.3063 20.4377 20.2502C20.4119 20.2387 20.2948 20.4052 20.2409 20.3996C20.187 20.3939 20.1203 20.3031 20.1271 20.2431C20.134 20.1831 20.2568 20.0829 20.2777 20.0527C20.4546 19.7983 20.0648 20.0059 20.0457 20.0015C19.706 19.9136 19.6928 19.5601 19.4917 19.3599C19.3386 19.2083 19.1195 19.1015 18.9822 18.9489C18.8192 18.7664 18.7497 18.5432 18.5687 18.3886C18.5498 18.3721 18.4038 18.5596 18.3803 18.5398C18.1311 18.3295 17.9211 18.0831 17.8049 17.7418C17.7934 17.7074 17.9694 17.5905 17.9666 17.5474C17.9466 17.2868 18.0136 16.7757 17.2928 17.3298C17.2226 17.2098 17.1329 17.0687 17.1764 16.8551C17.2042 16.7176 17.417 16.6113 17.2816 16.612C17.2512 16.612 17.1313 16.7714 17.0963 16.7608C16.9493 16.716 16.8899 16.5658 16.7228 16.5431C16.6885 16.5388 16.5686 16.6693 16.5406 16.6863C16.3121 16.8229 16.5373 16.4446 16.5426 16.406C16.579 16.1155 16.4219 16.0871 16.3076 15.9648C16.2811 15.9363 16.1455 16.1369 16.114 16.1156C15.9528 16.0026 15.8253 15.8462 15.7657 15.6374C15.7529 15.5906 15.9235 15.4748 15.9247 15.4451C15.9282 15.3158 15.6438 15.5724 15.6419 15.4536C15.6412 15.4289 15.7709 15.3135 15.7821 15.2977C15.9571 15.0501 15.6261 15.318 15.6102 15.3153C15.4017 15.2875 15.6389 14.8994 15.4805 14.8295C15.4612 14.8215 15.3369 15.0074 15.2922 14.9753C14.9938 14.7625 14.766 14.4495 14.6371 14.0724C14.6168 14.014 14.7614 13.9256 14.7733 13.9087C14.9574 13.6439 14.6306 13.9185 14.6064 13.917C14.4237 13.8974 14.5814 13.5506 14.1544 13.8401C13.8501 13.2872 13.2223 13.0617 13.1182 12.3157C13.1165 12.3066 13.2743 12.1682 13.2703 12.1506C13.2236 11.9376 13.0184 12.1928 12.6509 12.3884C12.5586 12.4374 12.8327 12.0317 12.8518 12.001C12.9224 11.8879 13.1647 11.6896 13.1754 11.6647C13.2562 11.4663 12.5371 12.2046 12.4575 12.1255C12.4563 12.1218 12.6008 11.9981 12.6075 11.9781C12.6287 11.9156 12.5549 11.9483 12.5808 11.8819C12.6413 11.7288 12.9789 11.3582 12.7021 11.4935C12.6664 11.5113 12.2667 11.9383 12.2154 11.848C12.1953 11.8116 12.0632 11.6937 12.055 11.6319C12.0468 11.5702 12.204 11.461 12.2073 11.4527C12.2891 11.1823 12.3979 11.1451 12.6114 10.8371C12.824 10.5301 12.2175 11.1628 12.1291 11.2127C12.0408 11.2624 12.117 11.0479 12.1506 10.9804C12.1841 10.9129 12.29 10.8494 12.3035 10.8057C12.3903 10.5188 11.952 11.0694 11.8207 11.1347C11.5101 11.2899 11.909 10.7698 11.8829 10.6536C11.8758 10.6222 11.7868 10.7425 11.7599 10.7352C11.6546 10.7046 11.7571 10.5204 11.5484 10.5746C11.5143 10.5834 11.1756 10.7972 11.3379 10.554C11.3614 10.5191 11.4922 10.4208 11.4889 10.3662C11.4842 10.2845 11.4313 10.1815 11.3465 10.1733C11.2839 10.1673 11.1345 10.3954 11.1499 10.2935C11.1569 10.2482 11.3029 10.1734 11.3068 10.0973C11.3109 10.0215 11.2143 9.93465 11.1756 9.90355C11.1368 9.87261 11.0128 10.0348 11.0003 10.0416C10.928 10.0798 10.7922 10.082 10.7864 10.0759C10.4709 9.79533 10.4373 9.27923 10.0673 9.06889C10.0385 9.05218 9.90269 9.21828 9.89674 9.21729C9.75554 9.20256 10.2183 8.86274 10.2981 8.67397C9.99974 8.98812 10.023 8.90051 9.93454 8.87919C9.89164 8.86916 9.78746 9.00217 9.77291 9.01189C9.55354 9.15278 9.75887 8.89279 9.79943 8.83816C9.94851 8.63708 9.71337 8.81567 9.8127 8.68096C9.91118 8.54713 10.1241 8.41561 10.0692 8.36515C9.94477 8.46002 9.69736 8.78564 9.61094 8.79209C9.28442 8.81686 9.22759 8.31044 9.12964 8.16578C9.03191 8.02138 8.97258 8.00251 8.94165 7.89234C8.88587 7.69326 8.71999 7.95254 8.54357 7.97072C8.36692 7.98866 8.92853 7.50419 9.02957 7.38035C9.13075 7.25676 9.00284 7.36023 9.05069 7.28452C9.09858 7.20887 9.20508 7.16247 9.19562 7.10663C9.18612 7.05078 8.89685 7.1614 8.76771 7.26739C8.49415 7.49198 8.27299 7.79365 8.27839 7.61535C8.27887 7.60492 8.43254 7.48353 8.4274 7.45059C8.38206 7.1935 8.23155 7.02986 8.17416 6.78519C8.16649 6.75133 8.33805 6.6169 8.33532 6.59547C8.3073 6.37173 8.09432 6.6747 7.73876 6.89229C8.13562 6.52641 8.33079 6.25493 8.23751 6.15714C8.18157 6.09823 8.02489 6.27468 7.87035 6.35493C7.82382 6.37917 7.89755 6.22417 7.81186 6.29514C7.53152 6.52692 7.28315 6.85183 7.29879 6.6392C7.2999 6.62945 7.45382 6.50305 7.44737 6.47963C7.40642 6.32755 7.12703 6.58383 6.99026 6.51193C6.88303 6.4556 6.90091 6.14683 6.83435 6.02716C7.26508 5.60034 7.07895 5.61057 6.74764 5.87052C6.69931 5.79799 6.61732 5.74943 6.59978 5.65016C6.59361 5.61613 6.73095 5.50519 6.74183 5.48924C6.91338 5.23995 6.59949 5.5013 6.57517 5.49953C6.32419 5.46776 6.42699 5.13459 6.07903 5.21271C6.06657 5.21559 5.76097 5.50567 5.94238 5.25214C5.95503 5.23482 6.1351 5.14386 6.08212 5.06992C6.02914 4.99593 6.06913 4.7166 5.843 4.76649C5.78845 4.77839 5.49272 4.96623 5.63834 4.73403C5.65822 4.70261 5.74995 4.6235 5.78916 4.56764C5.91371 4.38927 5.59797 4.67561 5.82209 4.38823C6.04619 4.10086 6.17192 3.84353 5.9066 3.9311C5.89863 3.9334 5.63899 4.15096 5.61482 4.11925C5.57643 4.0684 5.56279 3.95536 5.51465 3.91032C5.49152 3.88885 5.35763 4.05129 5.35105 4.05012C5.11805 3.98317 5.14339 3.74434 5.04005 3.52635C5.02139 3.48609 4.73472 3.60349 4.83743 3.38674C4.94968 3.14928 5.74139 2.48623 5.42419 2.51562C5.29683 2.52689 4.30053 3.37621 4.67433 2.79379C4.35356 2.70996 4.41116 2.27818 4.03914 2.24448C4.02252 2.24285 3.73612 2.47155 3.71818 2.4466C3.69204 2.40906 3.79494 2.27121 3.78013 2.24054C3.72112 2.10901 3.53096 2.12483 3.45513 2.01696C3.42608 1.97627 3.56274 1.864 3.5281 1.81545C3.49338 1.76704 3.30176 1.90322 3.32459 1.76774C3.34239 1.66486 3.63486 1.28732 3.61744 1.19181C3.28484 1.5201 3.25287 1.47451 3.09671 1.49281C3.06654 1.49649 2.96573 1.6257 2.94552 1.63338C2.86074 1.66714 2.93245 1.54822 2.84371 1.58853C2.82231 1.59813 2.7092 1.71071 2.68533 1.72492C2.47819 1.85016 2.66455 1.52884 2.69716 1.47305C2.82059 1.26078 2.65306 1.3868 2.68509 1.28663C2.71718 1.18653 2.85064 1.15475 2.85102 1.07492C2.85162 0.90961 2.72757 0.822012 2.64912 0.733185C2.61712 0.698443 2.48925 0.871839 2.48117 0.870368C2.37395 0.839562 2.4644 0.609541 2.12608 0.871333C2.85406 0.0476506 2.00921 0.904969 2.06588 0.651016C2.07067 0.630685 2.42767 0.253914 2.51136 0.229882C2.59501 0.205907 2.52556 0.365817 2.65091 0.323248C2.68042 0.313351 3.08036 0.0256959 3.10884 0.0125334C3.33161 -0.0902199 2.79185 0.466544 2.76492 0.499833C2.47595 0.860804 2.91493 0.559044 2.95859 0.551518C3.15851 0.516908 3.15164 0.66424 3.30447 0.649671C3.40378 0.640785 3.76734 0.28608 3.79185 0.33258C3.87355 0.486942 3.41375 1.02912 3.95937 0.705959C4.07586 0.637158 4.44468 0.220942 4.22148 0.615044C4.2074 0.639871 3.98848 0.985674 4.20374 0.84373C4.23086 0.825814 4.34511 0.711278 4.36079 0.707736C4.46364 0.686267 4.39964 0.804536 4.48761 0.805214C4.57558 0.80589 4.69395 0.794119 4.70575 0.883523C4.71305 0.937219 4.53905 1.18948 4.50147 1.25626C4.39238 1.44781 4.68303 1.24555 4.52655 1.45311C4.36936 1.66181 4.04119 1.88928 3.99052 2.07502C4.29022 1.78031 4.60102 1.48101 4.90393 1.18614C5.04146 1.3446 5.09098 1.58633 5.2526 1.72169C5.27294 1.73817 5.41388 1.55957 5.43981 1.57312C5.54845 1.631 5.50728 1.81763 5.63899 1.85862C5.74155 1.88974 5.98401 1.79386 6.09652 1.82113C5.79913 2.20391 6.01829 2.19216 6.06255 2.29858C6.0782 2.33571 5.98561 2.42478 5.97475 2.47318C5.93596 2.65358 6.20331 2.31987 6.27002 2.29198C6.55515 2.17342 5.88204 2.86078 5.99704 2.94216C6.0029 2.9467 6.42908 2.64769 6.46042 2.63387C6.66331 2.54228 6.34342 2.76929 6.35146 2.8309C6.36609 2.94345 6.32367 3.07422 6.50449 3.04263C6.55769 3.03292 6.83588 2.8591 6.70331 3.07616C6.68598 3.10461 6.56306 3.22138 6.56051 3.23287C6.52448 3.43084 6.9032 3.05638 7.07701 2.97511C7.2508 2.89388 7.0623 3.22531 7.00192 3.31478C6.84615 3.54666 6.88994 3.36846 6.86885 3.38541C6.61829 3.58756 6.70939 3.60072 6.73009 3.65967C6.36661 4.03469 6.44447 4.06822 6.75304 3.71931C6.78665 3.68111 6.72122 3.68454 6.73009 3.65967C7.12733 3.33235 7.23494 3.34717 6.96401 3.75333C6.83699 3.94365 6.62206 4.09874 6.78588 4.1272C6.86007 4.14028 7.09745 3.86917 7.20527 3.83836C7.45139 3.76818 7.32854 4.11966 7.45659 4.17298C7.50307 4.19232 7.61019 4.02109 7.64675 4.02952C7.74421 4.05145 7.69244 4.20852 7.80589 4.21498C7.81634 4.21539 7.94875 4.05644 7.96925 4.07322C8.12752 4.19765 8.15727 4.41403 8.30226 4.56419C8.37238 4.63668 8.5802 4.6838 8.63792 4.77382C8.7388 4.92898 8.68444 5.29832 8.84526 5.35621C8.94953 5.3946 9.0796 5.23324 9.20945 5.16452C9.46087 5.03105 9.22055 5.48016 9.18123 5.5476C9.17989 5.54979 9.08416 5.52277 9.04211 5.63031C8.90529 5.80521 9.17986 5.54758 9.18123 5.5476C9.15597 5.59131 9.24551 5.747 9.29771 5.74349C9.32616 5.7415 9.45682 5.59604 9.46904 5.59761C9.75654 5.63801 9.95587 5.76716 10.0576 5.998C10.0577 6.00372 9.89891 6.15373 9.90116 6.16525C9.92877 6.33018 10.1793 6.20291 10.3709 6.17014C10.5624 6.13742 10.5878 6.23792 10.3697 6.55002C10.4629 6.57654 10.4317 6.77967 10.41 6.90024C10.3883 7.0208 10.6958 6.7271 10.7061 6.72551C11.032 6.67102 10.9384 6.92152 11.0525 7.08909C11.1061 7.16928 11.2825 7.25845 11.3879 7.29805C11.4716 7.32885 11.4357 7.4338 11.5335 7.44154C11.5467 7.44266 11.6733 7.3016 11.6806 7.29863C11.8997 7.1974 11.5442 7.49629 11.4979 7.56689C11.3295 7.82349 11.2435 7.96391 11.4189 7.93937C11.4592 7.93387 11.981 7.51343 12.0403 7.51759C12.1165 7.52387 11.932 7.67717 12.0161 7.67945C12.0232 7.67979 12.1266 7.57484 12.1486 7.60608C12.2524 7.74973 12.3266 7.9452 12.4656 8.0633C12.4842 8.07983 12.6269 7.89208 12.6565 7.91324C12.7951 8.01269 12.9195 8.14928 12.9581 8.3426C12.9671 8.39069 12.8335 8.48851 12.8053 8.52905C12.6355 8.77496 12.9915 8.52689 13.0061 8.53003C13.3636 8.59723 13.2528 9.03305 13.5993 9.11934C13.6187 9.12348 14.0332 8.89039 13.7959 9.20852C13.7802 9.22977 13.5362 9.55388 13.7658 9.39504C13.7802 9.38508 13.9015 9.21389 13.9301 9.27232C13.9587 9.33072 14.1265 9.30309 14.0256 9.52362C13.9939 9.59318 13.7553 9.92134 14.0377 9.75194C14.0571 9.73985 14.6552 9.31628 14.3339 9.69984C14.2809 9.7629 13.9027 10.1306 14.1613 10.0068C14.2113 9.98259 14.2711 9.87602 14.357 9.85802C14.489 9.82997 14.4581 9.99876 14.6881 9.89656C14.7287 9.87829 15.0293 9.67262 14.8752 9.90282C14.8511 9.93887 14.7153 10.0521 14.7214 10.0861C14.7502 10.2485 14.9336 10.2654 14.9445 10.4486C14.9486 10.5132 14.7298 10.6969 14.7117 10.7867C14.6936 10.8765 14.7139 11.0006 14.8434 10.9461C14.973 10.8916 15.2528 10.5298 15.3346 10.5603C15.6905 10.6932 15.7443 11.1234 15.9607 11.3949C15.9928 11.4352 16.0776 11.2904 16.1331 11.3415C16.3382 11.5296 16.7853 11.7614 16.712 12.1759C16.6533 12.5079 16.3325 12.4847 16.3575 12.6686C16.37 12.7569 16.7974 12.4385 16.8214 12.4389C17.0595 12.4385 16.9769 12.6863 17.1345 12.7426C17.1672 12.7542 17.2967 12.5814 17.3227 12.5929C17.4132 12.6309 17.4132 12.7659 17.4869 12.8149C17.5203 12.8365 17.6307 12.716 17.6471 12.7502C17.6877 12.8309 17.6928 12.933 17.6437 13.1003C17.6392 13.1155 17.4593 13.2228 17.4988 13.273C17.5631 13.3539 17.5465 13.5507 17.7402 13.524C17.7982 13.5156 18.063 13.2527 17.934 13.4882C17.9072 13.5374 17.5761 13.84 17.9119 13.6283C17.9678 13.5932 18.4413 13.3282 18.2544 13.6173C18.2052 13.6935 17.9804 13.9872 18.051 13.9762C18.0615 13.9738 18.187 13.8159 18.2256 13.8267C18.3588 13.8675 18.4349 13.9738 18.5687 14.0188C18.6047 14.0305 18.7158 13.8483 18.7648 13.8705C18.8997 13.9313 18.9845 14.0908 19.0343 14.2324C19.0524 14.2848 18.9065 14.3819 18.8958 14.3977C18.722 14.6541 19.0367 14.3882 19.0673 14.385C19.2539 14.3688 19.1824 14.57 19.297 14.6125C19.3283 14.6246 19.4513 14.4708 19.468 14.4628C19.6333 14.3869 19.3514 14.6022 19.3523 14.6579C19.3541 14.8148 19.4537 14.8921 19.5516 14.9547C19.5878 14.9774 19.7151 14.7838 19.7457 14.8061C19.9299 14.935 20.0773 15.1131 20.1416 15.3544C20.1534 15.4001 20.0117 15.5055 19.9895 15.5398C19.8334 15.7786 20.1633 15.5698 20.2029 15.558C20.3834 15.5042 20.2987 15.6381 20.3751 15.6737C20.7499 15.8455 21.0151 16.2553 21.2284 16.5581C21.507 16.9518 21.6504 17.3303 22.0015 17.6204C22.0237 17.639 22.1675 17.454 22.1887 17.4679C22.4551 17.6551 22.6142 17.9426 22.8889 18.1224C22.9112 18.1374 23.0401 17.9547 23.0811 17.9736C23.1662 18.0113 23.2355 18.0975 23.2478 18.2094C23.2541 18.2636 23.0797 18.3567 23.0888 18.4086C23.1096 18.5297 23.1746 18.6169 23.2725 18.6648C23.3145 18.6848 23.4271 18.4786 23.4692 18.5171C23.7597 18.7759 24.0568 19.0182 24.128 19.5021C24.1328 19.5353 23.8256 19.876 23.9281 19.8543C24.0211 19.7674 24.1267 19.6615 24.2241 19.5667C24.6756 19.9148 24.959 20.4228 25.3426 20.8411C25.3588 20.8587 25.5012 20.6578 25.5335 20.691C25.7204 20.8829 25.9518 21.0193 25.975 21.3837C25.9775 21.4196 25.6657 21.7117 25.768 21.7227C25.7863 21.7243 25.9119 21.7694 25.9995 21.7259C26.0124 21.719 26.1378 21.5625 26.1694 21.5859C26.3506 21.7242 26.4858 21.9238 26.5592 22.1694C26.5708 22.2094 26.3933 22.332 26.4002 22.3618C26.4506 22.5715 26.7061 22.5988 26.6941 22.8594C26.6856 23.0343 26.3953 23.263 26.1841 23.5626C26.1544 23.6049 26.2002 23.6621 26.0542 23.8133C25.6874 24.1938 25.2534 24.578 24.8653 24.9865C24.7817 25.0744 24.9431 25.051 24.695 25.2175C24.6782 25.2285 24.5594 25.2473 24.4768 25.3053C24.4196 25.3453 24.2839 25.5119 24.2042 25.5566C24.1245 25.6013 24.232 25.4554 24.1298 25.4995C24.0268 25.5446 23.8676 25.7292 23.7894 25.6917ZM10.3148 7.44076C10.2162 7.63091 10.7517 7.10893 10.5757 7.18591C10.5666 7.19025 10.3195 7.43131 10.3148 7.44076ZM4.69133 1.98431C4.51799 2.27738 4.90185 1.97543 5.03974 1.7531C5.17743 1.53096 4.74379 1.89538 4.69133 1.98431ZM3.90035 1.53384C3.78643 1.78767 4.5472 1.04893 4.32071 1.12557C4.30778 1.12977 3.90693 1.51907 3.90035 1.53384ZM25.9064 23.4303C25.9 23.438 25.9302 23.4818 25.9381 23.4758C26.1257 23.3275 26.0652 23.2399 25.9064 23.4303ZM3.09901 1.10324C3.01943 1.2265 3.1994 1.17231 3.29837 1.01905C3.37799 0.895748 3.19798 0.949876 3.09901 1.10324ZM12.139 10.3936C12.1319 10.4022 12.1513 10.4358 12.1953 10.3907C12.337 10.2455 12.2595 10.249 12.139 10.3936ZM2.04347 0.0649599C2.16993 0.24786 1.64437 0.96098 1.54582 0.722652C1.52796 0.679509 1.80906 0.590887 1.82607 0.496231C1.85676 0.323465 1.42072 0.665165 1.5566 0.384289C1.58162 0.333026 2.03764 0.0531558 2.04461 0.0643729C2.04424 0.0645724 2.04385 0.0647656 2.04347 0.0649599ZM9.7061 8.1022C9.70002 8.1101 9.73014 8.15348 9.73795 8.14743C9.92571 7.99947 9.86513 7.91199 9.7061 8.1022ZM13.3611 12.2695C13.3482 12.2864 13.4196 12.3856 13.4361 12.3747C13.7551 12.1447 13.6116 11.9433 13.3611 12.2695ZM6.84433 6.01425C6.63536 6.14302 6.56752 6.11494 6.7476 5.87092C6.7762 5.92203 6.81465 5.9638 6.84433 6.01425Z" fill="black"/>
<path d="M24.1583 24.6393C24.3354 24.5475 24.5239 24.3833 24.6497 24.2412C24.6893 24.1968 24.6228 24.1728 24.6478 24.1399C24.6966 24.0753 24.7783 24.0513 24.8225 23.9835C24.8368 23.9607 24.7416 23.9117 24.7579 23.8891C24.8475 23.7653 24.9786 23.6945 25.0842 23.5841C25.6019 23.0371 26.1384 22.527 26.6783 21.9893C26.8569 21.8127 26.9985 21.5223 27.2335 21.3902C27.2611 21.375 27.3359 21.4754 27.3476 21.4789C27.5286 21.532 27.3265 21.3724 27.347 21.3095C27.4291 21.0603 27.6128 20.8755 27.8177 20.7616C27.9052 20.7133 28.0206 20.9648 27.988 20.7956C27.9859 20.784 27.8672 20.6997 27.8761 20.6714C27.8963 20.6073 27.9986 20.5495 28.0249 20.5105C28.0751 20.4346 28.087 20.4257 28.1484 20.3678C28.2316 20.2881 28.2808 20.1435 28.3959 20.0838C28.4209 20.0715 28.5033 20.2033 28.5532 20.1937C28.6031 20.184 28.6772 20.1005 28.6793 20.0495C28.6814 19.9984 28.583 19.9227 28.5681 19.8984C28.4408 19.6937 28.768 19.8386 28.7866 19.8338C29.1103 19.7299 29.1674 19.4203 29.3758 19.2273C29.5348 19.0816 29.7512 18.9722 29.8957 18.8268C30.0675 18.6531 30.1532 18.4461 30.3379 18.2952C30.3573 18.2792 30.4806 18.444 30.5047 18.4249C30.7609 18.2215 30.9834 17.9876 31.1182 17.6649C31.1316 17.6324 30.9694 17.5293 30.9747 17.4888C31.0114 17.2448 30.9695 16.7587 31.6404 17.2629C31.7154 17.1479 31.8107 17.0123 31.7783 16.8098C31.7574 16.6792 31.5548 16.5831 31.6866 16.5802C31.7162 16.5794 31.8261 16.7289 31.8608 16.7179C32.0065 16.6719 32.071 16.5267 32.2359 16.5018C32.2698 16.4971 32.3823 16.6202 32.4092 16.6361C32.6287 16.7637 32.4224 16.4044 32.4185 16.3671C32.3933 16.0879 32.5484 16.0574 32.6651 15.9375C32.6921 15.9096 32.8199 16.1022 32.8517 16.0812C33.0148 15.9702 33.1461 15.8176 33.2105 15.6136C33.2244 15.5678 33.0579 15.4562 33.0574 15.4272C33.0567 15.3008 33.3331 15.5493 33.3377 15.4333C33.339 15.4091 33.2127 15.2971 33.2019 15.2818C33.0333 15.0405 33.3563 15.3004 33.3722 15.2977C33.5802 15.2694 33.3515 14.8897 33.5097 14.8197C33.529 14.8117 33.6498 14.994 33.6947 14.9623C33.9955 14.7517 34.2271 14.4427 34.3586 14.0681C34.3793 14.0101 34.2354 13.9224 34.2237 13.9057C34.0415 13.6429 34.3661 13.9152 34.3903 13.9138C34.5731 13.8942 34.4171 13.5491 34.8427 13.8371C35.0891 13.3957 35.5421 13.1635 35.7653 12.7035C35.8202 12.5902 35.8612 12.4631 35.8817 12.3156C35.8834 12.3065 35.7256 12.1681 35.7296 12.1506C35.7763 11.9375 35.9815 12.1926 36.3485 12.3878C36.4407 12.4367 36.1668 12.0312 36.1478 12.0005C36.0772 11.8876 35.8352 11.6895 35.8246 11.6647C35.7439 11.4664 36.462 12.2037 36.5412 12.1242C36.5425 12.1205 36.3982 11.9971 36.3916 11.9771C36.3704 11.9146 36.444 11.9472 36.4181 11.8809C36.3577 11.7278 36.0212 11.3583 36.2973 11.4929C36.3329 11.5105 36.7313 11.9363 36.7823 11.8456C36.8023 11.8092 36.9336 11.6906 36.9418 11.6287C36.95 11.5669 36.7936 11.4586 36.7904 11.4504C36.7092 11.1806 36.601 11.1439 36.3892 10.8377C36.1785 10.5325 36.7806 11.1609 36.8684 11.2102C36.9561 11.2593 36.8807 11.0457 36.8476 10.9786C36.8144 10.9115 36.7094 10.8488 36.6961 10.8053C36.611 10.52 37.0447 11.0661 37.1749 11.1303C37.4826 11.2825 37.0881 10.7669 37.1148 10.6513C37.122 10.62 37.2097 10.7391 37.2364 10.7315C37.3409 10.7001 37.2403 10.5179 37.4467 10.5697C37.4804 10.5782 37.814 10.7868 37.6549 10.5468C37.6318 10.5123 37.5032 10.4162 37.5068 10.3619C37.512 10.2807 37.5652 10.178 37.649 10.1688C37.7109 10.1621 37.8564 10.3863 37.8419 10.2854C37.8354 10.2405 37.6921 10.1683 37.6889 10.093C37.6856 10.018 37.7818 9.93071 37.8203 9.89938C37.8588 9.86822 37.9792 10.0268 37.9914 10.0333C38.0621 10.07 38.1955 10.0697 38.2012 10.0635C38.5125 9.77876 38.5533 9.26989 38.9177 9.05386C38.946 9.03664 39.0743 9.19524 39.0801 9.1941C39.217 9.17511 38.7755 8.85654 38.7026 8.67467C38.9849 8.97276 38.9643 8.88786 39.0505 8.86426C39.0923 8.8531 39.19 8.97964 39.2039 8.98867C39.4126 9.11891 39.22 8.87162 39.1822 8.81976C39.0431 8.62866 39.2658 8.79486 39.1733 8.66696C39.0818 8.54007 38.8793 8.41893 38.9341 8.36841C39.0517 8.45649 39.282 8.76496 39.3651 8.76811C39.6782 8.77951 39.7455 8.28349 39.8447 8.14011C39.9429 7.99623 40 7.97512 40.0337 7.86769C40.0947 7.67385 40.2416 7.91412 40.4071 7.92136C40.5725 7.92803 40.0631 7.49585 39.973 7.38291C39.8829 7.27044 39.9994 7.36249 39.9578 7.29297C39.9161 7.22359 39.817 7.1846 39.8291 7.1314C39.8415 7.07842 40.1108 7.16903 40.2271 7.26223C40.4739 7.46008 40.6677 7.73438 40.6705 7.56421C40.6705 7.5543 40.5321 7.4482 40.5385 7.41652C40.5937 7.16924 40.7436 7.00498 40.8122 6.77157C40.8215 6.73933 40.6701 6.62503 40.6741 6.60484C40.7156 6.39461 40.8943 6.66328 41.2092 6.8402C40.8652 6.52723 40.7023 6.28803 40.7974 6.19207C40.8543 6.13408 40.9865 6.28607 41.1236 6.34883C41.1647 6.36772 41.1082 6.22991 41.182 6.28902C41.4232 6.48165 41.6285 6.76345 41.6279 6.56593C41.6276 6.55695 41.4958 6.4527 41.5034 6.43035C41.5517 6.28567 41.7879 6.49876 41.9158 6.41804C42.016 6.3546 42.0225 6.07026 42.0923 5.95385C41.7408 5.60623 41.9096 5.59911 42.183 5.8012C42.2325 5.72979 42.3097 5.67646 42.3344 5.58432C42.343 5.55274 42.2312 5.46737 42.223 5.45411C42.0943 5.24764 42.3489 5.44968 42.3704 5.44513C42.5952 5.38713 42.5395 5.10105 42.8359 5.12763C42.8466 5.12874 43.0821 5.34876 42.9506 5.14516C42.9416 5.13142 42.7942 5.07318 42.8485 5.00051C42.9022 4.9273 42.9007 4.6864 43.0906 4.7001C43.1367 4.70352 43.3679 4.82687 43.2706 4.64293C43.2573 4.61814 43.1882 4.5616 43.1613 4.51815C43.0767 4.37964 43.312 4.58557 43.156 4.3663C42.9999 4.14694 42.9292 3.94463 43.1466 3.98429C43.1532 3.98527 43.3457 4.13566 43.3707 4.10475C43.4106 4.05545 43.4386 3.95677 43.4864 3.91136C43.5093 3.88965 43.5992 4.00812 43.605 4.00615C43.8112 3.91244 43.8242 3.71193 43.9463 3.51266C43.9689 3.47635 44.1868 3.525 44.1376 3.36178C44.0851 3.18408 43.5415 2.76913 43.8063 2.74607C43.9147 2.73841 44.5771 3.2538 44.3781 2.84621C44.6549 2.71847 44.697 2.38629 45.0022 2.28584C45.016 2.28132 45.1938 2.4015 45.2127 2.37751C45.2408 2.34185 45.1892 2.25536 45.2074 2.22812C45.2822 2.11235 45.4266 2.08242 45.5087 1.9808C45.5401 1.94249 45.4604 1.8871 45.4984 1.84199C45.5368 1.7972 45.6518 1.8568 45.6659 1.7582C45.6761 1.6833 45.5442 1.46642 45.5832 1.39243C45.7559 1.56082 45.7917 1.51908 45.9049 1.49444C45.9267 1.48973 45.9706 1.56207 45.9839 1.5628C46.0389 1.56675 46.0143 1.49501 46.0704 1.50268C46.084 1.50441 46.1404 1.56029 46.1545 1.56478C46.2763 1.60465 46.2164 1.40981 46.2069 1.37711C46.1694 1.25075 46.2609 1.30077 46.2629 1.23457C46.2653 1.16896 46.1751 1.18049 46.196 1.12193C46.2399 1.00109 46.3564 0.905992 46.4388 0.821135C46.4721 0.787674 46.5162 0.877321 46.5226 0.874106C46.608 0.821498 46.6094 0.683297 46.7761 0.773525C46.4923 0.394002 46.8497 0.763908 46.8807 0.597644C46.883 0.584407 46.7417 0.423268 46.6884 0.429621C46.6349 0.435787 46.6366 0.527956 46.5581 0.532207C46.54 0.533732 46.3323 0.438382 46.3145 0.435926C46.1783 0.4197 46.4111 0.669464 46.4213 0.686084C46.5287 0.865421 46.2937 0.767695 46.2624 0.77251C46.1227 0.798129 46.0848 0.900652 45.9728 0.926955C45.8998 0.944348 45.7223 0.775746 45.6888 0.813268C45.5761 0.936591 45.7857 1.22856 45.4472 1.11256C45.3746 1.08761 45.1989 0.864559 45.2639 1.10041C45.2675 1.11481 45.3467 1.32081 45.2136 1.26109C45.1968 1.25348 45.1367 1.19308 45.125 1.19351C45.0475 1.19744 45.0663 1.27047 44.9946 1.28738C44.9227 1.30422 44.8284 1.31647 44.7941 1.38336C44.7731 1.4234 44.849 1.5775 44.8626 1.62037C44.9029 1.74304 44.7167 1.64529 44.7925 1.77213C44.8695 1.9007 45.079 2.00944 45.0777 2.14319C44.9053 1.97584 44.7248 1.80685 44.5493 1.63936C44.3933 1.77937 44.2925 1.96985 44.1247 2.09896C44.1036 2.11471 44.0265 1.99996 44.0012 2.0141C43.8943 2.07373 43.8859 2.21083 43.7638 2.26138C43.6688 2.30012 43.4804 2.25828 43.3753 2.29296C43.5486 2.55167 43.3621 2.57255 43.3006 2.66176C43.2792 2.69309 43.3416 2.75202 43.3413 2.78923C43.3389 2.92846 43.1728 2.69602 43.12 2.68197C42.8924 2.62096 43.3454 3.08827 43.2315 3.17067C43.2259 3.17555 42.9083 2.98504 42.8827 2.97701C42.7204 2.92599 42.9602 3.07292 42.9415 3.12386C42.9073 3.21688 42.9219 3.31976 42.7673 3.31441C42.7222 3.31277 42.5046 3.19955 42.5842 3.3637C42.5947 3.38528 42.6839 3.46834 42.6842 3.47757C42.6827 3.63805 42.4089 3.36852 42.2659 3.31803C42.1226 3.26726 42.2348 3.52242 42.2748 3.59147C42.3768 3.76958 42.3667 3.62507 42.3829 3.63713C42.5743 3.78017 42.4908 3.80093 42.4631 3.85289C42.7294 4.13066 42.6561 4.16878 42.4334 3.90571C42.4092 3.87695 42.4672 3.87295 42.4631 3.85289C42.1595 3.61916 42.0568 3.63889 42.2388 3.95612C42.3244 4.10501 42.4945 4.21526 42.3441 4.25719C42.2759 4.27623 42.101 4.06762 42.0077 4.05135C41.7939 4.01344 41.8544 4.30261 41.7307 4.36029C41.6855 4.38089 41.611 4.24225 41.5762 4.25242C41.4831 4.27876 41.5092 4.41019 41.4036 4.42448C41.3939 4.42559 41.293 4.29815 41.2716 4.31403C41.1068 4.43192 41.0503 4.62165 40.8962 4.76265C40.8217 4.83076 40.6202 4.88424 40.5551 4.9668C40.441 5.10877 40.4539 5.4367 40.2961 5.49759C40.1933 5.53746 40.0854 5.39821 39.9681 5.3421C39.7404 5.23231 39.9257 5.62636 39.9576 5.68641C39.9587 5.68838 40.0526 5.65956 40.0828 5.75526C40.1974 5.90795 39.959 5.68638 39.9576 5.68641C39.9776 5.72487 39.8781 5.87056 39.8284 5.86956C39.8013 5.86891 39.6887 5.74154 39.6768 5.74343C39.3963 5.79089 39.1902 5.91326 39.0729 6.12847C39.0723 6.13375 39.215 6.26761 39.2119 6.27832C39.1729 6.43182 38.9391 6.32128 38.7539 6.29487C38.5689 6.26865 38.5357 6.36139 38.7284 6.64809C38.6353 6.67482 38.653 6.86429 38.6672 6.97748C38.6815 7.09068 38.3975 6.82043 38.3874 6.81908C38.0701 6.77312 38.1467 7.00662 38.0256 7.16713C37.9684 7.24378 37.7896 7.33058 37.6833 7.36918C37.5987 7.39918 37.6295 7.49899 37.5321 7.50716C37.519 7.50833 37.3997 7.37458 37.3925 7.37179C37.1793 7.27636 37.5191 7.55956 37.5619 7.6267C37.7179 7.87087 37.798 8.00538 37.6253 7.98358C37.5858 7.97887 37.0839 7.57832 37.0243 7.5822C36.948 7.58833 37.1257 7.73493 37.0418 7.73736C37.0348 7.73771 36.9358 7.6372 36.9125 7.66718C36.8029 7.80503 36.7218 7.99356 36.579 8.10783C36.5598 8.1238 36.4231 7.94206 36.3927 7.96244C36.2504 8.05814 36.1211 8.18983 36.0771 8.37781C36.0668 8.4246 36.1983 8.52029 36.2255 8.55986C36.3896 8.80009 36.039 8.55739 36.0242 8.5603C35.6634 8.62421 35.7659 9.05174 35.4169 9.13555C35.3975 9.13966 34.9842 8.90781 35.218 9.22248C35.2334 9.24345 35.4743 9.56439 35.2458 9.40664C35.2315 9.39674 35.1119 9.22724 35.0823 9.28474C35.0528 9.34227 34.8845 9.31402 34.9834 9.53261C35.0144 9.60152 35.2509 9.92758 34.969 9.75867C34.9497 9.74672 34.3527 9.32412 34.6721 9.70581C34.7248 9.76857 35.1016 10.1349 34.843 10.0111C34.7931 9.98693 34.7338 9.88089 34.6477 9.86269C34.5153 9.8343 34.5454 10.0022 34.3151 9.89973C34.2745 9.88144 33.9738 9.67571 34.1272 9.90528C34.1513 9.94124 34.287 10.0543 34.2807 10.0882C34.2511 10.2499 34.0673 10.2662 34.056 10.449C34.0517 10.5136 34.2706 10.6973 34.2886 10.787C34.3066 10.8766 34.2861 11.0006 34.1566 10.9461C34.027 10.8916 33.7473 10.5298 33.6654 10.5603C33.6549 10.5643 33.6446 10.5684 33.6346 10.5729C33.3062 10.7184 33.2505 11.1326 33.0425 11.3981C33.0108 11.4387 32.9259 11.2939 32.871 11.3456C32.6676 11.5354 32.2273 11.774 32.3019 12.1898C32.3611 12.5223 32.6775 12.4947 32.6533 12.6794C32.6411 12.768 32.2188 12.4547 32.1953 12.4556C31.9612 12.4592 32.0434 12.7066 31.889 12.7661C31.8571 12.7784 31.7296 12.6076 31.7042 12.6198C31.6159 12.66 31.6166 12.7956 31.5449 12.8466C31.5124 12.8692 31.4043 12.751 31.3885 12.7858C31.3493 12.8679 31.345 12.9708 31.3932 13.1372C31.3976 13.1523 31.5729 13.2551 31.5345 13.3063C31.4721 13.3891 31.488 13.5852 31.3001 13.5643C31.2439 13.5576 30.9875 13.3032 31.1124 13.5347C31.1385 13.5831 31.4586 13.8746 31.1339 13.674C31.0795 13.6405 30.6235 13.393 30.8037 13.6754C30.851 13.7497 31.0669 14.0345 30.9989 14.0261C30.9887 14.024 30.8683 13.8712 30.8313 13.8835C30.7032 13.9295 30.63 14.0387 30.5021 14.0896C30.4678 14.103 30.3621 13.9262 30.3154 13.9507C30.187 14.018 30.1067 14.182 30.0591 14.3257C30.0418 14.379 30.1793 14.4677 30.1893 14.4829C30.3522 14.7283 30.0559 14.4809 30.0272 14.4795C29.8513 14.474 29.9175 14.67 29.8094 14.7189C29.78 14.7328 29.6657 14.5878 29.6501 14.5809C29.4959 14.5161 29.7584 14.712 29.7571 14.7674C29.7542 14.9231 29.6599 15.0057 29.5679 15.0741C29.5339 15.0991 29.4175 14.9164 29.3888 14.9407C29.2166 15.0815 29.0794 15.2698 29.0165 15.5124C29.0049 15.5584 29.133 15.6503 29.1528 15.6821C29.2915 15.9034 28.9924 15.7254 28.9567 15.7176C28.7927 15.6803 28.8675 15.8044 28.7971 15.8458C28.4524 16.0478 28.2059 16.4763 28.0057 16.7921C27.7455 17.2044 27.6005 17.5811 27.2813 17.9032C27.2612 17.9238 27.1491 17.7706 27.1302 17.7869C26.8935 18.0038 26.7418 18.2986 26.5017 18.513C26.4824 18.5309 26.3889 18.3837 26.3541 18.4088C26.2819 18.4594 26.22 18.553 26.2018 18.659C26.1927 18.7104 26.3275 18.764 26.3161 18.8135C26.2895 18.9288 26.2289 19.0204 26.1456 19.0828C26.11 19.1093 26.0365 18.9422 25.9995 18.9859C25.7446 19.2802 25.4943 19.5693 25.3863 20.0164C25.3791 20.0472 25.5772 20.2787 25.4997 20.2821C25.4381 20.2266 25.3691 20.1572 25.305 20.0959C24.9203 20.5107 24.645 21.0268 24.3032 21.4869C24.2889 21.5064 24.2189 21.3779 24.1911 21.4156C24.0293 21.6326 23.8505 21.8217 23.7703 22.129C23.7622 22.1593 23.922 22.2994 23.8489 22.3396C23.8359 22.3465 23.7406 22.4219 23.6897 22.4151C23.6824 22.4138 23.6273 22.3276 23.6018 22.357C23.4542 22.529 23.3276 22.7372 23.2277 22.9563C23.2116 22.9918 23.3008 23.0261 23.2897 23.0517C23.2089 23.231 23.038 23.3429 22.9828 23.5364C22.9451 23.665 23.0737 23.732 23.1309 23.8776C23.1388 23.898 23.0921 23.9544 23.1457 24.0133C23.2801 24.1613 23.461 24.2923 23.6015 24.4533C23.6248 24.48 23.5643 24.5025 23.592 24.5302C23.592 24.5302 23.592 24.5302 23.592 24.5302C23.6002 24.5384 23.616 24.547 23.644 24.5565C23.6523 24.5591 23.7341 24.5408 23.775 24.557C23.8034 24.5683 23.8436 24.6394 23.8876 24.6484C23.9318 24.6576 23.9049 24.5922 23.9667 24.596C24.0292 24.6005 24.0819 24.6787 24.1583 24.6393ZM38.7316 7.48714C38.8189 7.666 38.3207 7.18137 38.4893 7.25093C38.4981 7.25487 38.7274 7.47826 38.7316 7.48714ZM44.5321 2.2077C44.6097 2.4051 44.3601 2.23739 44.2962 2.08905C44.2337 1.94211 44.5093 2.14842 44.5321 2.2077ZM45.2751 1.70929C45.304 1.87812 44.8796 1.47576 45.0433 1.48959C45.0527 1.49028 45.2735 1.69955 45.2751 1.70929ZM23.3546 23.6913C23.3569 23.6949 23.3242 23.7363 23.3206 23.7344C23.2345 23.6878 23.2985 23.6037 23.3546 23.6913ZM46.0031 1.20538C46.0305 1.27646 45.9091 1.28084 45.8746 1.19202C45.8474 1.12111 45.9698 1.11761 46.0031 1.20538ZM36.8619 10.3945C36.869 10.403 36.8494 10.4365 36.8059 10.392C36.666 10.2485 36.7431 10.2517 36.8619 10.3945ZM47.074 0.182404C46.9242 0.341954 47.0858 0.691109 47.2189 0.487346C47.2436 0.451087 47.0773 0.477195 47.093 0.415304C47.1242 0.304425 47.3193 0.405161 47.3106 0.25151C47.3099 0.224567 47.0827 0.173469 47.0734 0.182344C47.0736 0.182368 47.0738 0.182386 47.074 0.182404ZM39.2941 8.10243C39.2997 8.10984 39.2691 8.15275 39.2618 8.14719C39.0858 8.01093 39.1477 7.92485 39.2941 8.10243ZM35.6389 12.2695C35.6518 12.2864 35.5804 12.3856 35.5639 12.3747C35.2449 12.1447 35.3884 11.9433 35.6389 12.2695ZM42.0845 5.94304C42.2612 6.03963 42.3229 6.00541 42.183 5.80156C42.1531 5.85134 42.1152 5.89365 42.0845 5.94304Z" fill="black"/>
</svg>
