<svg width="54" height="54" viewBox="0 0 54 54" fill="none" xmlns="http://www.w3.org/2000/svg">
<path d="M9.22832 24.6869C9.42756 24.6348 9.68874 24.6905 9.88723 24.767C9.94943 24.7907 9.91793 24.8967 9.96088 24.9179C10.0449 24.9591 10.1231 24.9071 10.2061 24.9562C10.2336 24.973 10.1994 25.1409 10.2282 25.1547C10.3863 25.2289 10.5358 25.1861 10.6959 25.2218C11.4845 25.3979 12.2597 25.461 13.0579 25.5375C13.3212 25.5626 13.6411 25.715 13.913 25.6483C13.9447 25.6404 13.9258 25.493 13.9318 25.4808C14.0265 25.2949 13.995 25.5924 14.0569 25.632C14.3023 25.7881 14.5752 25.8016 14.8114 25.7448C14.9119 25.7201 14.8112 25.4273 14.9123 25.5917C14.9194 25.6028 14.8939 25.7593 14.9214 25.776C14.9839 25.8136 15.1025 25.7856 15.1509 25.798C15.2443 25.8227 15.2597 25.8211 15.348 25.8229C15.4687 25.8267 15.6122 25.9045 15.7417 25.869C15.7694 25.861 15.7328 25.7005 15.7769 25.6732C15.821 25.646 15.9377 25.6596 15.9771 25.6974C16.0164 25.7352 15.9997 25.8614 16.0066 25.8903C16.0639 26.1343 16.1989 25.7963 16.2163 25.788C16.5331 25.6456 16.8047 25.8381 17.102 25.8375C17.3277 25.8367 17.5691 25.7731 17.7838 25.7819C18.0397 25.7929 18.2566 25.8798 18.5051 25.8649C18.5314 25.8635 18.5006 25.6748 18.5327 25.6727C18.8731 25.6508 19.2111 25.6713 19.5501 25.7987C19.5841 25.8116 19.5402 25.9773 19.5742 26.0001C19.7821 26.1363 20.1111 26.4633 20.2346 25.7421C20.3754 25.7702 20.5464 25.7993 20.6724 25.9447C20.7537 26.0383 20.6748 26.2187 20.7746 26.1417C20.7971 26.1246 20.7678 25.9665 20.8016 25.9528C20.9437 25.8949 21.0989 25.9463 21.2395 25.8646C21.2681 25.8476 21.2603 25.706 21.2684 25.6805C21.3365 25.474 21.4499 25.8154 21.4746 25.8402C21.6627 26.0252 21.8002 25.9524 21.9755 25.9569C22.0161 25.958 21.9681 25.7678 22.0072 25.7621C22.2102 25.7348 22.4205 25.7512 22.6193 25.8356C22.6635 25.8548 22.6229 26.0168 22.644 26.0343C22.7372 26.1094 22.7578 25.8034 22.8472 25.8695C22.866 25.8831 22.8554 26.0218 22.8589 26.037C22.9126 26.2761 22.9594 25.9373 22.9732 25.9298C23.1482 25.8276 23.26 26.1813 23.4291 26.1312C23.4493 26.1249 23.4037 25.9494 23.4605 25.9423C23.8392 25.8938 24.2398 25.942 24.6146 26.0824C24.6729 26.104 24.6313 26.2358 24.635 26.2521C24.6948 26.506 24.7334 26.1658 24.7524 26.153C24.9024 26.0607 25.0424 26.3461 25.1443 25.9408C25.7792 26.0814 26.4113 25.8539 27.041 26.2169C27.049 26.2211 27.0347 26.3887 27.0506 26.3964C27.243 26.4905 27.206 26.23 27.3333 25.9115C27.3653 25.8315 27.4629 26.2161 27.4715 26.2443C27.5029 26.3481 27.4703 26.5974 27.4809 26.6176C27.568 26.7755 27.5538 25.9511 27.6713 25.9508C27.675 25.9522 27.6595 26.1039 27.6694 26.119C27.7 26.1664 27.7304 26.1061 27.7604 26.1583C27.829 26.2792 27.8535 26.6798 27.9583 26.4467C27.9715 26.4164 27.9513 25.9487 28.0562 25.9708C28.098 25.98 28.2832 25.972 28.3351 26.0023C28.3869 26.0326 28.3513 26.1833 28.355 26.1898C28.4947 26.3891 28.4417 26.4717 28.5117 26.7667C28.5816 27.0606 28.5622 26.3596 28.5907 26.2814C28.6193 26.2034 28.7217 26.3678 28.7469 26.4249C28.772 26.4821 28.7406 26.5779 28.763 26.6102C28.9113 26.8216 28.8281 26.2623 28.8769 26.151C28.9921 25.8876 29.0818 26.4074 29.1873 26.4584C29.2158 26.4721 29.1925 26.3537 29.2179 26.3427C29.3185 26.3004 29.3791 26.4626 29.4935 26.3138C29.5122 26.2896 29.6048 25.977 29.6647 26.2064C29.6732 26.2395 29.6491 26.3691 29.692 26.3981C29.756 26.4416 29.8714 26.4699 29.9403 26.4266C29.9911 26.3946 29.9329 26.1811 29.9969 26.2474C30.0253 26.2771 29.9726 26.4019 30.026 26.4471C30.0792 26.4923 30.2151 26.4869 30.2668 26.4825C30.3184 26.4781 30.2901 26.3162 30.2943 26.3053C30.3195 26.2428 30.4186 26.1647 30.4274 26.1649C30.8689 26.1452 31.2761 26.4181 31.706 26.3278C31.7397 26.3209 31.7172 26.1501 31.7224 26.1473C31.8379 26.0758 31.7468 26.5298 31.8275 26.6818C31.8158 26.3352 31.8635 26.398 31.9448 26.36C31.984 26.3414 31.9627 26.2072 31.9663 26.1935C32.0244 25.9897 32.0649 26.2529 32.0753 26.3068C32.1138 26.5048 32.1557 26.2708 32.1819 26.4032C32.2081 26.5346 32.1478 26.7294 32.2259 26.7269C32.2478 26.6029 32.1898 26.2787 32.2491 26.2262C32.4726 26.0275 32.8898 26.2818 33.0695 26.3082C33.2489 26.3346 33.3068 26.3117 33.4113 26.3566C33.6001 26.4376 33.5309 26.1971 33.6481 26.087C33.7657 25.977 33.7085 26.5687 33.7254 26.6959C33.742 26.8231 33.7601 26.6922 33.7808 26.7621C33.8013 26.832 33.7568 26.9185 33.8052 26.9447C33.8536 26.9709 33.9859 26.7447 34.0031 26.6117C34.0394 26.3299 33.9797 26.0341 34.1078 26.1381C34.1152 26.1442 34.0912 26.2998 34.1195 26.3156C34.3435 26.4353 34.5762 26.4428 34.7999 26.5487C34.8307 26.5635 34.8032 26.7366 34.8211 26.7472C35.0076 26.8579 34.9409 26.566 35.0431 26.2418C35.0202 26.6733 35.0767 26.9373 35.2182 26.9398C35.3033 26.9415 35.2887 26.7531 35.3437 26.6202C35.3602 26.5802 35.4204 26.7096 35.4313 26.621C35.4673 26.3313 35.4106 26.007 35.5565 26.1361C35.5629 26.1422 35.5425 26.3008 35.5646 26.3104C35.7076 26.3733 35.7247 26.0703 35.8793 26.0336C36.0005 26.0048 36.2159 26.1896 36.3539 26.2196C36.351 26.7047 36.4813 26.5936 36.5341 26.2592C36.6237 26.2729 36.7204 26.2539 36.8069 26.3002C36.8367 26.3159 36.8171 26.4564 36.8209 26.4716C36.8785 26.7096 36.9174 26.3842 36.9367 26.3715C37.1462 26.2475 37.3168 26.4941 37.5167 26.2531C37.5238 26.2444 37.5353 25.9074 37.5887 26.1534C37.5922 26.1704 37.5261 26.3237 37.6202 26.3356C37.7142 26.3475 37.8915 26.5281 38.022 26.372C38.0536 26.3344 38.1336 26.0608 38.1977 26.2745C38.2062 26.3036 38.1969 26.4002 38.2092 26.454C38.2491 26.6253 38.2709 26.2848 38.3177 26.5741C38.3646 26.8634 38.4621 27.0801 38.5937 26.8805C38.5979 26.8747 38.6291 26.6047 38.6705 26.609C38.7366 26.6161 38.8305 26.6723 38.8995 26.6705C38.9325 26.6696 38.9114 26.502 38.9171 26.4989C39.1393 26.405 39.2974 26.5544 39.5355 26.6193C39.5791 26.6315 39.7045 26.4029 39.789 26.5836C39.8817 26.7814 39.7864 27.6044 39.9996 27.4083C40.0856 27.3299 40.1945 26.2859 40.349 26.8268C40.6487 26.6927 40.9259 26.9696 41.2264 26.7782C41.2399 26.7697 41.2827 26.4783 41.3144 26.4823C41.3616 26.4888 41.3875 26.6249 41.4212 26.6339C41.5623 26.6749 41.6915 26.5584 41.8275 26.5765C41.8792 26.5831 41.8611 26.7239 41.9227 26.7318C41.9843 26.7396 42.0254 26.5541 42.1088 26.6437C42.1719 26.7119 42.2349 27.091 42.3185 27.1351C42.3217 26.7613 42.3792 26.769 42.4813 26.6703C42.5009 26.6511 42.4799 26.521 42.4892 26.5053C42.527 26.4382 42.5619 26.546 42.5978 26.473C42.6065 26.4555 42.6069 26.3278 42.6141 26.3063C42.6748 26.1183 42.7747 26.4054 42.7919 26.4554C42.8577 26.6453 42.8884 26.4793 42.9389 26.5541C42.9893 26.6289 42.914 26.7223 42.9728 26.7677C43.0948 26.8616 43.2516 26.8409 43.3755 26.8468C43.425 26.8484 43.3912 26.6779 43.3983 26.6742C43.5005 26.631 43.6039 26.8123 43.6606 26.4728C43.7315 27.3505 43.7223 26.3876 43.8684 26.5634C43.8799 26.5776 43.8946 26.9927 43.8504 27.0536C43.8062 27.1145 43.7392 26.9847 43.6778 27.0797C43.6633 27.102 43.5802 27.491 43.5688 27.5145C43.4799 27.6987 43.4673 27.0784 43.4626 27.0443C43.4093 26.6766 43.3076 27.0957 43.2809 27.1246C43.1584 27.2573 43.0544 27.1701 42.9519 27.2648C42.8849 27.326 42.8784 27.7323 42.8258 27.7198C42.6509 27.6787 42.5899 27.1119 42.4251 27.6034C42.3898 27.7082 42.4249 28.1523 42.2983 27.8031C42.2904 27.7811 42.1964 27.4616 42.1421 27.6637C42.1352 27.6892 42.1355 27.8186 42.1265 27.8295C42.0662 27.8998 42.026 27.7967 41.9603 27.8461C41.8947 27.8954 41.8157 27.9691 41.7407 27.9252C41.6955 27.8989 41.6376 27.6578 41.6159 27.5988C41.5549 27.4287 41.4894 27.7075 41.4516 27.5016C41.4134 27.2946 41.488 26.9803 41.3879 26.8466C41.3842 27.1828 41.3757 27.5279 41.3698 27.8661C41.1505 27.8542 40.9348 27.7455 40.7148 27.7604C40.6875 27.7626 40.7154 27.9433 40.6862 27.9503C40.5628 27.979 40.4551 27.8502 40.3272 27.9015C40.2281 27.9419 40.1195 28.1333 40.016 28.1815C39.9528 27.7968 39.7991 27.9274 39.6875 27.8922C39.6484 27.8801 39.651 27.7773 39.6232 27.7438C39.5183 27.6198 39.5675 27.9598 39.5387 28.0133C39.4153 28.2417 39.4048 27.4721 39.2593 27.4911C39.2516 27.4918 39.1574 27.9021 39.1444 27.9276C39.062 28.0942 39.1308 27.7848 39.0792 27.7545C38.985 27.6991 38.9195 27.6012 38.809 27.7213C38.7768 27.7569 38.6995 28.0126 38.6369 27.8148C38.6286 27.7889 38.6332 27.6533 38.6266 27.6454C38.5066 27.513 38.5035 27.9391 38.4349 28.0834C38.3664 28.2276 38.2605 27.9335 38.2389 27.8488C38.1826 27.6295 38.2821 27.755 38.2852 27.7335C38.321 27.4774 38.2438 27.5215 38.1848 27.4999C38.1763 27.0821 38.0938 27.1072 38.1236 27.4791C38.127 27.5197 38.173 27.4808 38.1848 27.4999C38.133 27.9098 38.0423 27.9622 37.9422 27.5792C37.8953 27.3997 37.9396 27.1904 37.7972 27.267C37.7325 27.3015 37.7575 27.5892 37.7005 27.6676C37.5701 27.8465 37.4008 27.5782 37.2664 27.6205C37.2177 27.6358 37.2652 27.7933 37.2318 27.8092C37.1434 27.8519 37.0654 27.7338 36.9766 27.7943C36.9685 27.8 36.9882 27.9648 36.9606 27.9669C36.7512 27.9861 36.5689 27.8805 36.3502 27.8776C36.2446 27.8762 36.0557 27.9671 35.9463 27.9489C35.7567 27.9181 35.5233 27.6785 35.3613 27.7367C35.2557 27.774 35.2788 27.9388 35.2336 28.0511C35.1462 28.2689 34.9915 27.8789 34.9707 27.8185C34.9701 27.8165 35.061 27.7776 35.0125 27.693C34.9843 27.5167 34.9717 27.8177 34.9707 27.8185C34.957 27.7795 34.7754 27.742 34.7393 27.7736C34.7197 27.7908 34.7307 27.947 34.7204 27.953C34.4776 28.0928 34.2342 28.1325 33.9879 28.0594C33.9836 28.0563 33.9901 27.8816 33.9799 27.8763C33.8373 27.7987 33.7459 28.0124 33.6283 28.1393C33.5107 28.2661 33.4175 28.2236 33.3478 27.9237C33.2591 27.9615 33.1318 27.8289 33.0585 27.7484C32.9853 27.668 32.975 28.008 32.9686 28.0148C32.7676 28.23 32.6513 28.0353 32.4427 28.005C32.3436 27.99 32.1469 28.0393 32.0395 28.0765C31.9547 28.1065 31.9035 28.0268 31.8253 28.0778C31.8148 28.0846 31.8254 28.236 31.8222 28.2418C31.735 28.423 31.7769 28.0528 31.7589 27.9867C31.6936 27.7463 31.6532 27.6182 31.5415 27.7313C31.5157 27.7572 31.4406 28.2902 31.3936 28.3214C31.3325 28.361 31.3556 28.1699 31.2916 28.2162C31.2862 28.22 31.2873 28.3378 31.2478 28.3326C31.0646 28.3101 30.8648 28.2415 30.6744 28.2533C30.6483 28.2545 30.6817 28.4414 30.6441 28.4462C30.4678 28.4683 30.2745 28.4614 30.1027 28.3739C30.0604 28.3518 30.0869 28.2209 30.0777 28.182C30.0213 27.9468 29.9414 28.2885 29.9282 28.295C29.6137 28.4592 29.3729 28.15 29.0523 28.2972C29.0349 28.3059 28.9005 28.6722 28.8406 28.358C28.8365 28.3371 28.7772 28.0157 28.7248 28.2355C28.7215 28.2492 28.7584 28.4147 28.694 28.3978C28.6295 28.381 28.5257 28.4915 28.4371 28.3097C28.409 28.2524 28.3427 27.9318 28.259 28.1874C28.2535 28.2052 28.1243 28.7831 28.0782 28.3844C28.0707 28.3188 28.0785 27.8968 27.9786 28.1132C27.9595 28.1551 27.9942 28.2492 27.9439 28.308C27.8669 28.3986 27.7648 28.2855 27.6701 28.4735C27.6535 28.5068 27.5832 28.7932 27.5268 28.5758C27.518 28.5418 27.5348 28.4009 27.505 28.3851C27.3634 28.3095 27.215 28.4037 27.0712 28.3063C27.0203 28.272 27.0463 28.0443 26.9932 27.9833C26.9401 27.9223 26.8332 27.8636 26.7776 27.9676C26.722 28.0718 26.7827 28.4347 26.6995 28.4637C26.3375 28.5899 25.9789 28.377 25.6175 28.3458C25.5639 28.3412 25.6083 28.471 25.5293 28.4735C25.2381 28.4832 24.7353 28.6049 24.4825 28.329C24.28 28.1079 24.5349 27.9397 24.3801 27.8497C24.3055 27.8068 24.2247 28.2288 24.2066 28.2421C24.0306 28.377 23.9082 28.1901 23.7497 28.2474C23.717 28.2593 23.7491 28.4304 23.7212 28.4386C23.6261 28.4683 23.5261 28.3919 23.4352 28.4059C23.3944 28.4125 23.4019 28.5432 23.3644 28.5331C23.2746 28.5105 23.1951 28.4556 23.1076 28.3331C23.0996 28.322 23.1534 28.1595 23.087 28.1534C22.9795 28.1441 22.846 28.0233 22.7223 28.1481C22.6856 28.1856 22.6841 28.4841 22.6052 28.278C22.5887 28.2349 22.6098 27.8764 22.5179 28.1862C22.5024 28.2376 22.348 28.6554 22.2722 28.3861C22.2522 28.3152 22.2012 28.0219 22.1571 28.068C22.1511 28.0753 22.1751 28.2357 22.1385 28.2513C22.0096 28.3037 21.8745 28.2866 21.742 28.3368C21.7067 28.3505 21.7593 28.5164 21.7066 28.5316C21.5617 28.5736 21.3807 28.5313 21.239 28.4794C21.1867 28.4599 21.2228 28.3224 21.219 28.3075C21.1579 28.0642 21.1217 28.3926 21.1014 28.4117C20.9752 28.5264 20.8791 28.3721 20.7628 28.413C20.7307 28.4238 20.7534 28.5804 20.747 28.5944C20.6807 28.7308 20.7301 28.4496 20.6882 28.4186C20.5706 28.3308 20.4396 28.3434 20.3207 28.3634C20.2771 28.371 20.3261 28.5525 20.287 28.5572C20.055 28.5885 19.814 28.5712 19.5876 28.4711C19.545 28.4519 19.5718 28.3121 19.5629 28.2801C19.5017 28.0567 19.412 28.3615 19.3914 28.3905C19.2975 28.523 19.261 28.3994 19.1782 28.4225C18.7732 28.5374 18.2732 28.4555 17.891 28.4049C17.3929 28.3398 17.0064 28.2068 16.5314 28.2413C16.5012 28.2433 16.5316 28.4293 16.5056 28.4335C16.1696 28.4783 15.8389 28.4056 15.5022 28.4593C15.4746 28.4634 15.5144 28.6397 15.4701 28.6522C15.3791 28.679 15.2639 28.6695 15.1719 28.6132C15.1271 28.586 15.1872 28.4347 15.1421 28.4105C15.037 28.3538 14.9243 28.3412 14.8163 28.3695C14.7703 28.3819 14.8397 28.5622 14.78 28.5643C14.3731 28.5822 13.9735 28.6133 13.5624 28.3798C13.5342 28.3637 13.5094 27.9972 13.4495 28.0675C13.445 28.1692 13.4452 28.2889 13.4433 28.3976C12.851 28.4561 12.2648 28.3291 11.6708 28.3094C11.6458 28.3087 11.6891 28.5028 11.6406 28.5023C11.36 28.4994 11.0875 28.5532 10.8005 28.3602C10.772 28.3413 10.7866 27.9997 10.7027 28.0514C10.6879 28.0608 10.5615 28.1064 10.5288 28.1805C10.5243 28.1917 10.5474 28.3512 10.5067 28.3558C10.27 28.38 10.0219 28.3436 9.78564 28.2462C9.7475 28.2302 9.78811 28.0604 9.76095 28.0475C9.56828 27.9573 9.35871 28.0864 9.17461 27.9322C9.05137 27.8284 9.097 27.5349 9.03151 27.246C9.02225 27.2052 8.94594 27.1987 8.94199 27.0306C8.93186 26.6079 8.96882 26.145 8.95366 25.6945C8.95045 25.5974 8.84826 25.7019 8.90876 25.4674C8.91299 25.4517 8.98709 25.3739 9.00533 25.2943C9.01804 25.2393 8.99514 25.0683 9.02107 24.9979C9.04699 24.9276 9.07548 25.0709 9.11845 24.9882C9.16141 24.9044 9.14252 24.7099 9.22832 24.6869ZM32.7287 27.3888C32.6608 27.2255 32.6508 27.8237 32.7242 27.6805C32.7277 27.6729 32.7322 27.3968 32.7287 27.3888ZM40.936 27.2943C40.8473 27.0305 40.7866 27.4184 40.8492 27.6222C40.9118 27.8257 40.963 27.3743 40.936 27.2943ZM41.8556 27.1017C41.752 26.8937 41.7356 27.7419 41.8467 27.5704C41.8531 27.5607 41.8617 27.1138 41.8556 27.1017ZM9.3352 27.1637C9.33426 27.1558 9.27941 27.148 9.27809 27.1559C9.24889 27.3459 9.35857 27.3612 9.3352 27.1637ZM42.7682 26.892C42.7358 26.7772 42.6426 26.9097 42.6828 27.0524C42.7152 27.1672 42.8084 27.0347 42.7682 26.892ZM29.1901 26.7504C29.189 26.7415 29.1497 26.7334 29.1505 26.7838C29.1532 26.9461 29.2079 26.9003 29.1901 26.7504ZM44.3191 26.8822C44.09 26.8503 43.951 26.1496 44.2006 26.2286C44.2458 26.2429 44.1032 26.4521 44.1607 26.5153C44.2659 26.6304 44.3358 26.1904 44.4432 26.4261C44.4627 26.4693 44.3322 26.8856 44.3187 26.8832C44.3189 26.8829 44.319 26.8825 44.3191 26.8822ZM32.6896 26.6703C32.6882 26.6624 32.6338 26.6549 32.6325 26.6627C32.603 26.8526 32.7127 26.8678 32.6896 26.6703ZM26.8953 26.3805C26.8923 26.3636 26.766 26.3479 26.7619 26.3634C26.6959 26.674 26.9514 26.7067 26.8953 26.3805ZM36.3561 26.2325C36.4155 26.0415 36.4865 26.019 36.5339 26.2589C36.4748 26.2462 36.4154 26.2443 36.3561 26.2325ZM15.7722 2.46468C16.6837 2.41257 17.8784 2.46828 18.7864 2.54475C19.071 2.56847 18.9269 2.67449 19.1233 2.69563C19.5075 2.73685 19.8655 2.68486 20.2451 2.73396C20.371 2.75075 20.2143 2.91868 20.3463 2.93245C21.0693 3.00666 21.7532 2.96389 22.4856 2.99959C26.0932 3.17571 29.6393 3.23875 33.291 3.31526C34.495 3.34034 35.9587 3.49275 37.2024 3.4261C37.3476 3.41817 37.261 3.27077 37.2886 3.25862C37.7219 3.07264 37.5778 3.37021 37.8607 3.40974C38.266 3.46609 38.6876 3.50387 39.1119 3.52647C39.9923 3.5643 40.8643 3.75403 41.6201 4.04743C42.1196 4.25359 41.7593 3.75061 42.1793 4.15129C42.2071 4.17916 42.0123 4.25101 42.1336 4.33652C42.4107 4.52365 42.9407 4.86646 43.1252 5.04935C43.2941 5.20862 43.3911 5.31121 43.4828 5.4067C43.5867 5.51652 43.6842 5.61679 43.8444 5.80794C44.258 6.30113 44.5814 6.99354 44.8492 7.61658C44.9072 7.75108 44.9917 7.51101 45.097 7.72693C45.2088 7.94216 45.3477 8.56669 45.3355 8.7836C45.33 8.99967 45.1907 8.92666 45.1675 8.96733C45.0393 9.17844 45.1505 9.51715 45.2304 9.77767C45.2759 9.90236 45.3208 9.99914 45.3238 10.0275C45.4662 11.4764 45.2737 12.719 45.2742 14.0791C45.2751 15.1116 45.3386 16.2157 45.3299 17.1981C45.3189 18.3686 45.2319 19.3607 45.2469 20.4978C45.2483 20.6178 45.4369 20.4771 45.439 20.6237C45.461 22.1809 45.4404 23.7273 45.3131 25.2778C45.3001 25.4333 45.1345 25.2329 45.1116 25.3882C44.9755 26.3394 44.6485 27.8444 45.3697 28.4093C45.3415 29.0536 45.3124 29.8357 45.1671 30.4121C45.0735 30.7838 44.893 30.4228 44.97 30.8793C44.9872 30.9823 45.1452 30.8484 45.159 31.0028C45.2169 31.6529 45.1655 32.3632 45.2471 33.0063C45.2641 33.1371 45.4057 33.1014 45.4312 33.1384C45.6377 33.4499 45.2964 33.9685 45.2715 34.0815C45.0866 34.9424 45.1594 35.571 45.1549 36.3729C45.1537 36.559 45.3439 36.339 45.3497 36.5181C45.3769 37.4468 45.3606 38.4089 45.2762 39.3182C45.257 39.5205 45.0949 39.3345 45.0775 39.4312C45.0024 39.8574 45.3084 39.9519 45.2423 40.3606C45.2287 40.4468 45.09 40.3982 45.0748 40.414C44.8356 40.66 45.1745 40.8738 45.1819 40.937C45.2842 41.7375 44.9304 42.2491 44.9805 43.0224C44.9869 43.1149 45.1624 42.9063 45.1695 43.1663C45.1894 43.8769 45.193 44.6041 45.1806 45.3332C45.1715 46.4695 44.6441 47.5755 43.8346 48.2781C43.7402 48.3612 43.6424 48.4392 43.5418 48.5118C43.2867 48.6893 43.3786 48.4465 43.3524 48.4471C42.965 48.429 42.9912 48.803 42.9046 48.8685C42.235 49.3521 41.4757 49.2063 40.9491 49.6141C40.9293 49.6136 40.9095 49.613 40.8896 49.6122C40.2965 49.5843 39.7039 49.5716 39.1119 49.5658C38.0024 49.5608 36.9001 49.111 36.1242 48.3209C35.341 47.5366 34.9089 46.4157 34.9823 45.3332C35.0131 44.9115 35.0536 44.49 35.1067 44.0688C35.1109 44.0321 35.2785 44.0978 35.2861 44.0247C35.3802 43.1449 35.1198 43.3138 34.8013 42.7317C34.7448 42.6282 34.9196 42.3757 35.0373 42.2221L35.5563 42.7411C35.4922 42.6919 35.4452 42.6527 35.4336 42.6444C35.2898 42.5405 35.439 42.2912 35.3908 42.2711C34.9923 42.1131 35.0573 42.9376 34.5197 42.9379C34.5029 42.9365 34.5735 42.7847 34.5284 42.7696C34.3882 42.7223 34.2492 42.7826 34.112 42.7303C33.7981 42.6095 33.6863 42.2089 33.2068 42.442C33.1461 42.4723 33.2388 42.9399 32.7588 42.9178C32.5675 42.9086 31.7205 42.9167 31.4831 42.8863C31.2461 42.8561 31.4088 42.7054 31.3919 42.6988C30.7531 42.4996 30.9953 42.417 30.6753 42.1219C30.3553 41.828 30.444 42.5291 30.3136 42.6073C30.1829 42.6853 29.7145 42.5209 29.5994 42.4637C29.4844 42.4066 29.6279 42.3108 29.5256 42.2784C28.8473 42.067 29.2279 42.6264 29.0044 42.7377C28.4775 43.0011 28.0671 42.4812 27.5848 42.4303C27.4543 42.4165 27.5608 42.5349 27.4446 42.546C26.9843 42.5883 26.7074 42.4261 26.1838 42.5748C26.0981 42.5991 25.6748 42.9116 25.4007 42.6822C25.3619 42.6492 25.4722 42.5196 25.276 42.4906C24.983 42.447 24.455 42.4187 24.14 42.462C23.9074 42.4941 24.174 42.7075 23.8812 42.6412C23.7511 42.6116 23.9923 42.4867 23.7478 42.4415C23.5047 42.3963 22.8831 42.4018 22.6465 42.4061C22.4104 42.4105 22.5396 42.5725 22.5206 42.5834C22.4051 42.6459 21.9519 42.7239 21.9119 42.7238C20.4864 42.7377 19.1392 42.6059 17.7785 42.5588L18.1152 42.2221C18.0956 42.7895 18.0907 43.3592 18.1173 43.9379C18.1242 44.0922 18.2949 43.9894 18.2978 44.0129C18.3693 44.5413 17.9153 44.1247 17.7633 44.4938C18.1098 44.4404 18.0471 44.6583 18.0851 45.0305C18.1037 45.2098 18.2379 45.1122 18.2516 45.1285C18.3092 45.2036 18.3295 45.2723 18.3278 45.3332C18.3232 45.514 18.1662 45.6235 18.1249 45.6568C17.9131 45.8266 18.109 46.0635 17.9499 46.1662C17.7929 46.2568 17.6709 45.946 17.5855 46.2872C17.675 46.4232 18.0684 46.2343 18.0329 46.5381C17.97 47.0494 17.6223 47.7182 17.0887 48.199C16.4204 48.8283 15.5263 49.0842 15.0347 49.162C14.6931 49.223 14.4364 49.2332 14.223 49.2319C13.9104 49.2283 13.6968 49.2264 13.4022 49.1988C12.6169 49.1251 12.8074 49.3173 12.4452 49.4355C12.4035 49.4473 12.3552 49.4577 12.2983 49.4657C11.6592 49.5306 12.0397 48.9592 11.9706 48.8273C11.9151 48.6915 11.8145 48.8075 11.7368 48.72C11.664 48.6326 11.8678 48.5895 11.6738 48.5186C11.5701 48.4798 11.3509 48.4777 11.1435 48.4758C10.9677 48.4759 10.8005 48.4787 10.739 48.515C10.454 48.6715 10.555 49.1031 10.0493 48.6406C10.0226 48.6135 10.2114 48.5589 10.1062 48.4621C9.96922 48.3351 9.83965 48.2008 9.71895 48.0595C9.10594 47.3505 8.73161 46.4214 8.77702 45.5291C8.7855 45.3838 8.96365 45.5055 8.97147 45.424C8.97487 45.392 8.97816 45.3619 8.98124 45.3332C9.05863 44.5952 8.77674 44.8601 8.46491 44.4104C8.89639 44.5154 9.16036 44.2568 9.16291 43.6094C9.16459 43.2202 8.97615 43.2872 8.84333 43.0355C8.80329 42.96 8.93269 42.6846 8.84406 42.6347C8.55437 42.4701 8.23007 42.7295 8.3592 42.062C8.36534 42.0327 8.52391 42.1259 8.53352 42.0247C8.59638 41.3706 8.29336 41.2923 8.25666 40.5853C8.22787 40.031 8.41265 39.0453 8.4427 38.4143C8.9278 38.4275 8.81672 37.8315 8.48225 37.5897C8.49594 37.1801 8.47703 36.7378 8.52326 36.3419C8.53903 36.2057 8.67947 36.2952 8.69465 36.278C8.93271 36.0146 8.60731 35.8365 8.59455 35.7481C8.47055 34.79 8.71717 34.0094 8.47615 33.0951C8.46746 33.0626 8.1305 33.01 8.37654 32.7656C8.3935 32.7498 8.54681 33.0518 8.55866 32.6216C8.57055 32.1914 8.75118 31.3805 8.59504 30.7832C8.55745 30.6387 8.2839 30.2731 8.49763 29.9797C8.52665 29.9406 8.62329 29.9834 8.67707 29.927C8.84843 29.7446 8.50784 29.645 8.79719 29.4306C9.08652 29.2162 9.30321 28.7703 9.10358 28.168C9.09778 28.1488 8.82783 28.0062 8.8321 27.8168C8.83915 27.5144 8.89538 27.0852 8.89362 26.7694C8.89269 26.6183 8.72506 26.715 8.72199 26.6888C8.62806 25.6724 8.7775 24.949 8.84235 23.8601C8.85458 23.6605 8.62599 23.0869 8.80671 22.7005C9.00454 22.2761 9.82747 22.7122 9.63141 21.7369C9.553 21.3435 8.50895 20.8455 9.04987 20.1386C8.91584 18.7675 9.19268 17.4996 9.00129 16.1248C8.99281 16.063 8.70143 15.8675 8.70539 15.7221C8.71184 15.5063 8.84803 15.3879 8.857 15.2338C8.89803 14.5882 8.78151 13.9974 8.79963 13.3749C8.80622 13.1386 8.94703 13.2212 8.9549 12.9393C8.96264 12.6576 8.77721 12.4698 8.86677 12.0881C8.87371 12.0587 8.88387 12.0294 8.89656 12C9.00867 11.7402 9.31854 11.4726 9.35822 11.1288C8.98437 11.1142 8.99207 10.8514 8.89338 10.3843C8.87423 10.2945 8.74411 10.3908 8.72834 10.3483C8.66128 10.1754 8.76912 10.0154 8.69612 9.8513C8.67873 9.81171 8.55306 9.80952 8.52994 9.77767C8.52974 9.77738 8.52955 9.77709 8.52937 9.77679C8.33553 9.47109 8.67818 8.99828 8.74301 8.93444C8.97957 8.66022 8.85148 8.49012 8.98742 8.27903C9.12544 8.07696 9.11571 8.43337 9.2368 8.19215C9.48557 7.6987 9.7866 7.07619 10.1309 6.64565C10.2667 6.47444 10.0417 6.4856 10.0579 6.45871C10.171 6.28613 10.328 6.14823 10.4641 6.01878C10.6387 5.85224 10.7788 5.69835 10.7779 5.45558C11.5718 5.95876 10.9398 5.195 11.6417 4.993C11.6983 4.97922 11.9416 5.31826 11.8074 5.46131C11.6761 5.60325 11.3627 5.64849 11.2134 5.88529C11.1708 5.94243 11.1684 6.45652 11.1599 6.50103C11.1387 6.56401 11.1093 6.60391 11.0732 6.62785C10.9017 6.74208 10.5564 6.48722 10.5235 6.48046C10.0859 6.41076 10.1486 7.03703 10.124 7.13829C9.96315 7.63495 9.71732 7.99244 9.68551 8.42386C9.66882 8.7057 10.0627 8.81946 10.0134 9.00399C9.93364 9.32768 9.75792 9.54064 9.67388 9.77767C9.59843 10.0295 9.59182 10.2812 9.82648 10.6412C9.9313 10.8028 10.3754 10.6422 10.0262 11.2213C10.0042 11.2577 9.68472 11.6876 9.88679 11.9361C9.91063 11.9653 10.0255 11.9663 10.0491 12C10.0507 12.0023 10.0519 12.0048 10.0526 12.0074C10.1229 12.2832 10.0198 12.4671 10.0692 12.7675C10.1185 13.0678 10.1922 13.429 10.1483 13.772C10.122 13.9787 9.88088 14.2439 9.82184 14.3428C9.65178 14.6222 9.93061 14.9218 9.72468 15.0948C9.5177 15.2694 9.20338 14.9281 9.06965 15.3858C9.4059 15.4028 9.75102 15.4417 10.0892 15.469C10.0773 16.472 9.96861 17.4588 9.98346 18.4652C9.98564 18.5899 10.1664 18.4623 10.1734 18.5961C10.2021 19.1604 10.0733 19.6533 10.1246 20.2385C10.165 20.6914 10.3564 21.1881 10.4046 21.6618C10.0198 21.9511 10.1505 22.654 10.1153 23.1646C10.1032 23.3434 10.0004 23.3315 9.96686 23.4587C9.84287 23.9385 10.1829 23.7137 10.2364 23.8452C10.4648 24.4096 9.69516 24.4579 9.71418 25.1234C9.71493 25.1586 10.1252 25.5895 10.1507 25.6489C10.3173 26.026 10.0079 25.7113 9.97761 25.9473C9.92221 26.3783 9.82425 26.6777 9.9444 27.1833C9.97999 27.3307 10.2357 27.6844 10.0379 27.9707C10.012 28.0083 9.87642 27.9875 9.86847 28.0178C9.73611 28.5665 10.1622 28.581 10.3065 28.8945C10.4507 29.2082 10.1566 29.6925 10.0718 29.7911C9.85255 30.049 9.97813 29.5935 9.95661 29.5795C9.70052 29.4155 9.74461 29.7687 9.72297 30.0387C9.30521 30.0777 9.33029 30.4552 9.70222 30.3185C9.74284 30.3029 9.70388 30.0929 9.72297 30.0387C10.1328 30.2756 10.1853 30.6905 9.80231 31.1487C9.6228 31.3632 9.41349 31.1604 9.49006 31.8119C9.52462 32.1076 9.81227 31.9934 9.89069 32.2543C10.0696 32.8505 9.80129 33.6252 9.84357 34.2398C9.85892 34.4629 10.0164 34.2456 10.0323 34.398C10.075 34.8026 9.95688 35.1594 10.0174 35.5657C10.0231 35.6025 10.1879 35.5126 10.19 35.6389C10.2091 36.5968 10.1036 37.4309 10.1007 38.431C10.0993 38.9142 10.1902 39.7782 10.1719 40.2788C10.1412 41.1464 9.90156 42.2137 9.95978 42.9548C9.99705 43.4382 10.1619 43.3322 10.2742 43.5393C10.492 43.939 10.102 44.6465 10.0416 44.7417C10.0396 44.7447 10.0007 44.3287 9.91608 44.5506C9.73975 44.6797 10.0408 44.7371 10.0416 44.7417C10.0193 44.7775 9.99755 45.0635 9.98884 45.3332C9.98175 45.4736 9.99768 45.6076 10.0177 45.654C10.0433 45.7127 10.1931 45.656 10.2035 45.6849C10.3707 46.1397 10.6252 46.5199 10.9414 46.8371C11.0977 46.9933 11.2702 47.1342 11.4606 47.2588C11.4702 47.2672 11.3737 47.4142 11.3988 47.4327C11.4453 47.4673 11.4931 47.4946 11.5412 47.5156C11.8631 47.6518 12.1548 47.5213 12.4243 47.416C12.4313 47.4132 12.4383 47.4105 12.4452 47.4078C12.9664 47.2912 13.3812 47.3384 13.6926 47.6316C13.8509 47.6169 14.0361 47.6281 14.223 47.652C14.4129 47.6903 14.6199 47.7302 14.7702 47.7457C15.0231 47.7668 14.9429 47.425 14.9565 47.4151C15.2647 47.1458 15.4808 47.0421 15.7474 46.8577C15.8703 46.7693 15.997 46.6603 16.1067 46.5024C16.2858 46.2749 16.4117 45.7087 16.3671 45.4119C16.3646 45.3844 16.363 45.3583 16.3622 45.3332C16.3555 45.019 16.4123 44.7997 16.3673 44.4839C16.3605 44.4355 16.2091 44.4844 16.2033 44.4696C16.0221 44.0704 16.3923 44.2622 16.4584 44.1798C16.6988 43.881 16.8269 43.6964 16.7138 43.1852C16.6879 43.0673 16.1549 42.7239 16.1237 42.5089C16.0963 42.3154 16.1795 42.3065 16.2179 42.2221C16.2396 41.3395 16.896 40.6398 17.7785 40.6615C17.816 40.6785 17.8683 40.6867 17.9583 40.6725C17.9833 40.6687 17.9781 40.5508 18.1587 40.556C18.997 40.5786 19.9109 40.6472 20.782 40.6354C20.901 40.6342 20.7485 40.4473 20.9204 40.4425C21.7271 40.4203 22.6113 40.4273 23.3973 40.5148C23.5907 40.5369 23.4695 40.6678 23.5114 40.7067C23.7693 40.9418 24.1349 40.6001 24.1952 40.5936C25.6342 40.4294 26.7355 40.7387 28.2021 40.5914C28.282 40.5828 28.8965 40.2165 29.1707 40.5306C29.1894 40.5515 29.4607 40.873 29.7006 40.6532C29.7155 40.6395 29.5464 40.474 29.8414 40.4908C30.1364 40.5077 30.6111 40.3972 31.0166 40.579C31.1449 40.6363 31.4483 40.9569 31.8312 40.7013C31.8562 40.6835 32.4473 40.1056 32.6583 40.5043C32.6925 40.5699 32.6567 40.9918 33.1137 40.7755C33.201 40.7336 33.0425 40.6395 33.2726 40.5807C33.625 40.4901 34.092 40.6031 34.5253 40.4152C34.6008 40.3819 34.9225 40.0955 35.1805 40.3129C35.2209 40.3469 35.1441 40.4878 35.2804 40.5035C35.3718 40.5142 35.4638 40.5215 35.5563 40.5264C36.5153 40.55 37.2756 41.2632 37.252 42.2221C37.222 42.7851 37.2797 43.3654 37.196 43.9304C37.1618 44.1634 36.9341 44.0443 36.873 44.2872C36.812 44.5301 36.7533 45.0195 36.8574 45.2737C36.8674 45.2981 36.8798 45.3176 36.894 45.3332C37.0299 45.4193 37.3232 45.3115 37.3597 45.4804C37.4581 45.8828 37.6066 46.2541 37.8679 46.5772C38.1212 46.892 38.5011 47.1453 38.9339 47.2011C39.0535 47.2143 38.9782 47.0983 39.1119 47.084C39.1314 47.0827 39.1532 47.082 39.1775 47.0818C39.656 47.0784 40.2593 47.0604 40.8896 47.0517C41.3759 47.0434 41.8368 46.8201 42.1883 46.6319C42.237 46.6068 42.2844 46.5828 42.331 46.5607C42.8208 46.278 42.5498 46.935 42.8822 46.6209C43.0525 46.4383 42.7514 46.0499 42.7493 46.0131C42.7629 45.7411 42.8204 45.5486 42.8502 45.3332C42.87 45.0608 42.8881 44.7891 42.8643 44.4892C42.8524 44.3395 42.6814 44.4863 42.6732 44.3589C42.6435 43.9236 42.7198 43.4662 42.7059 43.0503C42.6992 42.8637 42.5686 42.8981 42.5787 42.7264C42.6013 42.3156 42.6562 41.9524 42.7786 41.5519C42.7898 41.5154 42.9523 41.7615 42.9583 41.4576C42.9676 40.9657 43.0884 40.3551 42.9637 39.7892C42.9262 39.6213 42.6276 39.6147 42.8338 39.2537C42.8769 39.178 43.2353 39.2746 42.9256 38.8541C42.8741 38.7834 42.4564 38.0771 42.7257 37.7305C42.7965 37.639 43.0899 37.4056 43.0438 37.2037C43.0364 37.1763 42.8761 37.286 42.8604 37.1187C42.8081 36.529 42.8252 35.9109 42.775 35.3051C42.7612 35.1433 42.5953 35.3843 42.5802 35.1432C42.5382 34.4801 42.5805 33.6522 42.6324 33.0038C42.6519 32.7647 42.7893 32.93 42.8043 32.9126C43.0476 32.6329 42.7192 32.4675 42.7 32.3747C42.5854 31.7973 42.7396 31.3576 42.6988 30.8254C42.688 30.6785 42.5314 30.7826 42.5174 30.7534C42.381 30.4502 42.6622 30.676 42.6932 30.4841C42.781 29.9464 42.7684 29.347 42.7484 28.8033C42.7408 28.6035 42.5592 28.828 42.5545 28.6488C42.5232 27.5879 42.5406 26.485 42.6407 25.4497C42.6599 25.2547 42.7997 25.3774 42.8316 25.3368C43.055 25.0567 42.7503 24.6463 42.7213 24.5519C42.5887 24.1225 42.7124 23.9557 42.6893 23.5765C42.5744 21.7241 42.6563 19.4369 42.7069 17.6883C42.772 15.4098 42.905 13.6417 42.8704 11.4688C42.8684 11.3307 42.6824 11.47 42.6783 11.3509C42.6629 10.8244 42.6614 10.3006 42.6638 9.77767C42.67 9.11135 42.4931 8.4304 42.1009 7.87991C42.0525 7.81249 41.9684 8.00587 41.8875 7.90607C41.7626 7.75554 41.6182 7.57676 41.4825 7.40702C41.4362 7.3487 41.3913 7.29134 41.3496 7.2355C41.2676 7.12882 41.5028 7.13122 41.4138 7.0236C41.2026 6.77176 40.901 6.56745 40.5815 6.45806C40.4468 6.41349 40.5683 6.66113 40.404 6.59437C39.99 6.43345 39.5508 6.35705 39.1119 6.3533C37.9474 6.34676 36.7834 6.30466 35.5985 6.15753C35.4695 6.1415 35.3564 5.775 35.0823 5.84528C35.0616 5.94699 35.0627 6.06664 35.0537 6.17536C32.3443 6.23392 29.6625 6.10687 26.9455 6.08722C26.831 6.08644 27.0289 6.28063 26.8071 6.28009C25.5235 6.27722 24.277 6.33102 22.964 6.138C22.8337 6.11913 22.9006 5.7775 22.5167 5.82917C22.4489 5.8386 21.8707 5.88416 21.7212 5.95832C21.7009 5.9695 21.8064 6.12896 21.6201 6.13361C20.5373 6.15782 19.4026 6.12142 18.3217 6.02399C18.1473 6.00796 18.333 5.83815 18.2088 5.82526C17.3274 5.73512 16.3687 5.8642 15.5265 5.71003C14.9628 5.60621 15.1715 5.31268 14.8719 5.02375C14.8296 4.98299 14.4805 4.97653 14.4624 4.80842C14.4161 4.3857 14.5852 3.92282 14.5158 3.47224C14.5011 3.37519 14.0336 3.47972 14.3104 3.24519C14.3298 3.22949 14.6687 3.15166 14.7522 3.0721C14.8103 3.01709 14.7056 2.84612 14.8242 2.77571C14.9427 2.70536 15.0731 2.84867 15.2697 2.76594C15.4662 2.68219 15.3798 2.4877 15.7722 2.46468ZM15.9319 47.5932C16.2352 47.5609 15.8582 47.0941 15.7676 47.3516C15.7635 47.3644 15.917 47.5944 15.9319 47.5932ZM9.5174 17.4532C9.25356 17.8589 9.64151 18.1365 9.84528 17.8503C10.0488 17.5642 9.59738 17.3296 9.5174 17.4532ZM9.32478 13.2465C9.11675 13.7206 9.965 13.7952 9.79352 13.2874C9.78383 13.2579 9.33685 13.2188 9.32478 13.2465ZM16.2612 4.94147C16.2569 4.93353 16.0059 4.92579 15.9999 4.93366C15.8663 5.12365 16.3681 5.139 16.2612 4.94147ZM9.15969 9.10375C9.02216 9.23225 9.13143 9.65335 9.2841 9.48521C9.40198 9.35792 9.32395 8.95371 9.15969 9.10375ZM27.5717 42.1383C27.5766 42.1472 27.7565 42.1552 27.7529 42.1049C27.7407 41.9426 27.4904 41.9884 27.5717 42.1383ZM13.6706 4.68986C12.7084 4.78338 11.7995 4.40048 13.0209 4.13298C13.2362 4.09802 12.6129 4.45946 12.8978 4.45552C13.3891 4.45567 13.6809 3.97516 14.2135 4.20394C14.2957 4.24133 13.7156 4.67908 13.6689 4.69103C13.6695 4.69064 13.67 4.69025 13.6706 4.68986ZM16.5049 48.0551C16.516 48.0589 16.7064 47.897 16.7038 47.8856C16.666 47.6633 16.3048 47.9717 16.5049 48.0551ZM35.2703 44.7351C35.2546 44.7479 35.2399 45.2461 35.2503 45.3332C35.2511 45.3406 35.2521 45.3453 35.2532 45.3468C35.3349 45.4313 35.3964 45.405 35.4379 45.3332C35.5564 45.1351 35.5115 44.5455 35.2703 44.7351ZM8.45564 38.4043C8.26459 38.1326 8.24209 37.8075 8.482 37.5909C8.46927 37.861 8.46739 38.1328 8.45564 38.4043ZM9.26731 10.027C9.46877 9.97867 9.73054 10.0393 9.92884 10.1195C9.99099 10.1443 9.95732 10.2497 10.0001 10.2717C10.0839 10.3145 10.1636 10.264 10.2462 10.3146C10.2735 10.3319 10.236 10.4992 10.2647 10.5135C10.4224 10.5906 10.5736 10.5507 10.7341 10.5894C11.5243 10.7802 12.3032 10.8578 13.105 10.9493C13.3694 10.9793 13.6885 11.1377 13.9633 11.0761C13.9954 11.0688 13.9791 10.9211 13.9854 10.909C14.0841 10.7249 14.0469 11.0218 14.1084 11.0625C14.3524 11.2231 14.6268 11.2418 14.8655 11.1894C14.9671 11.1666 14.8712 10.872 14.9699 11.0382C14.9768 11.0495 14.9482 11.2055 14.9756 11.2227C15.0378 11.2614 15.1576 11.2357 15.2061 11.249C15.2996 11.2754 15.3152 11.2741 15.404 11.2776C15.5254 11.2836 15.6684 11.3641 15.7993 11.3311C15.8273 11.3236 15.7935 11.1624 15.8383 11.136C15.8832 11.1095 16.0004 11.1253 16.0393 11.1639C16.0782 11.2025 16.059 11.3282 16.0655 11.3573C16.1186 11.6023 16.2608 11.267 16.2784 11.2589C16.5998 11.1225 16.8695 11.3201 17.1687 11.3251C17.3958 11.3285 17.6399 11.2695 17.8558 11.2822C18.1131 11.298 18.3297 11.389 18.5801 11.3787C18.6065 11.3778 18.5791 11.1886 18.6113 11.1872C18.9543 11.1716 19.294 11.1985 19.6327 11.3322C19.6667 11.3458 19.6195 11.5106 19.6533 11.534C19.86 11.674 20.1849 12.0072 20.3226 11.2884C20.4638 11.3192 20.6353 11.3515 20.7594 11.4992C20.8394 11.5943 20.7566 11.7732 20.8585 11.6981C20.8814 11.6814 20.8549 11.5228 20.8892 11.5097C21.0332 11.4545 21.1885 11.5088 21.3315 11.4298C21.3606 11.4133 21.3554 11.2716 21.364 11.2463C21.4364 11.0411 21.5441 11.3845 21.5685 11.4098C21.7544 11.5982 21.894 11.528 22.0703 11.5358C22.1112 11.5377 22.0664 11.3467 22.1059 11.3416C22.3107 11.3182 22.522 11.3385 22.7204 11.4266C22.7646 11.4467 22.7206 11.6079 22.7416 11.6258C22.8339 11.7026 22.8604 11.397 22.9491 11.4648C22.9678 11.4787 22.9545 11.6172 22.9577 11.6325C23.0074 11.8726 23.0607 11.5347 23.0748 11.5275C23.2527 11.4285 23.3587 11.7843 23.5297 11.7374C23.5502 11.7314 23.5076 11.5551 23.5649 11.549C23.9469 11.5077 24.349 11.5634 24.7236 11.7108C24.7819 11.7335 24.7375 11.8645 24.7409 11.8808C24.7963 12.1358 24.8416 11.7964 24.861 11.7839C25.0135 11.6945 25.1491 11.9824 25.2592 11.5791C25.8955 11.7317 26.5357 11.516 27.1626 11.8908C27.1706 11.8951 27.153 12.0624 27.1689 12.0704C27.3607 12.1681 27.3284 11.907 27.4624 11.5909C27.4961 11.5115 27.5871 11.8978 27.5953 11.9262C27.625 12.0306 27.5875 12.2793 27.5977 12.2996C27.6824 12.4592 27.6835 11.6346 27.8018 11.6365C27.8054 11.638 27.7871 11.7894 27.7967 11.8047C27.8267 11.8526 27.8584 11.7929 27.8876 11.8457C27.9544 11.9678 27.9715 12.3688 28.0813 12.1377C28.0952 12.1077 28.0836 11.6397 28.1887 11.6638C28.2306 11.6738 28.4171 11.6692 28.4687 11.7005C28.5203 11.7317 28.4817 11.8817 28.4853 11.8883C28.6221 12.0902 28.5673 12.1718 28.6322 12.4681C28.6971 12.7632 28.6907 12.062 28.7208 11.9843C28.751 11.9068 28.851 12.0731 28.8752 12.1307C28.8995 12.1884 28.8661 12.2835 28.888 12.3163C29.0333 12.5305 28.96 11.9696 29.0112 11.8593C29.132 11.5981 29.2126 12.1195 29.3178 12.1724C29.3462 12.1867 29.325 12.0679 29.3508 12.0573C29.4528 12.0169 29.5107 12.1802 29.6286 12.0337C29.6479 12.0098 29.7469 11.699 29.8029 11.9295C29.8108 11.9627 29.7841 12.0918 29.8267 12.1216C29.8904 12.1664 30.006 12.1968 30.0761 12.1548C30.1278 12.1237 30.0732 11.9092 30.1363 11.9767C30.1644 12.0069 30.109 12.1307 30.162 12.1769C30.2146 12.2231 30.3514 12.2202 30.4035 12.2168C30.4556 12.2134 30.4302 12.051 30.4346 12.0401C30.4611 11.9781 30.5623 11.9019 30.5711 11.9023C31.0157 11.8908 31.4203 12.1713 31.8546 12.0891C31.8887 12.0828 31.8693 11.9117 31.8745 11.909C31.9921 11.8396 31.892 12.2918 31.9703 12.4453C31.965 12.0986 32.0118 12.1622 32.0944 12.1258C32.1342 12.1079 32.1152 11.9734 32.119 11.9597C32.1813 11.757 32.2172 12.021 32.2266 12.075C32.2617 12.2738 32.3082 12.0405 32.3321 12.1734C32.356 12.3053 32.2917 12.4989 32.3703 12.4979C32.3946 12.3743 32.3424 12.0491 32.403 11.9977C32.6316 11.8032 33.0467 12.0653 33.227 12.0951C33.407 12.1249 33.4657 12.1031 33.57 12.1498C33.7585 12.2344 33.6934 11.9927 33.8134 11.8848C33.9337 11.777 33.8652 12.3675 33.8798 12.495C33.8941 12.6225 33.9148 12.4919 33.9343 12.5622C33.9537 12.6325 33.9072 12.7181 33.9554 12.7453C34.0036 12.7724 34.141 12.5487 34.1608 12.416C34.2025 12.135 34.148 11.8381 34.2749 11.9444C34.2822 11.9507 34.2553 12.1059 34.2834 12.1221C34.5065 12.2461 34.7406 12.2579 34.9637 12.368C34.9944 12.3834 34.9635 12.5559 34.9813 12.5668C35.1669 12.681 35.1053 12.388 35.2142 12.0657C35.183 12.4967 35.235 12.7617 35.3774 12.7669C35.463 12.7702 35.4517 12.5815 35.5096 12.4497C35.5269 12.41 35.5851 12.5405 35.5977 12.4521C35.6393 12.1631 35.5883 11.8378 35.7327 11.9696C35.739 11.9759 35.7156 12.1341 35.7377 12.1441C35.8804 12.2096 35.9032 11.907 36.0595 11.8732C36.1819 11.8467 36.3953 12.0354 36.5335 12.0681C36.5216 12.553 36.6548 12.4444 36.7142 12.111C36.804 12.1264 36.9017 12.1093 36.9879 12.1571C37.0175 12.1734 36.9952 12.3135 36.9987 12.3287C37.0523 12.5678 37.0975 12.2432 37.1172 12.2308C37.3302 12.1108 37.4973 12.3606 37.703 12.1233C37.7103 12.1148 37.7281 11.7781 37.7773 12.0251C37.7804 12.0421 37.7112 12.1942 37.8055 12.2078C37.9 12.2214 38.075 12.4053 38.2093 12.2517C38.2418 12.2147 38.3273 11.9427 38.3878 12.1576C38.3959 12.1868 38.3847 12.2832 38.3961 12.3372C38.433 12.5093 38.4613 12.1692 38.503 12.4593C38.5448 12.7495 38.6388 12.968 38.775 12.7709C38.7794 12.7651 38.8158 12.4958 38.8574 12.5009C38.9237 12.5091 39.0171 12.5671 39.0866 12.5667C39.1199 12.5663 39.1017 12.3983 39.1075 12.3954C39.3329 12.3056 39.4892 12.458 39.7275 12.5273C39.7712 12.5404 39.9016 12.3142 39.9832 12.4964C40.0729 12.696 39.9617 13.517 40.1798 13.3249C40.2678 13.2482 40.3968 12.2063 40.5422 12.7501C40.8463 12.6217 41.1201 12.9037 41.426 12.7179C41.4398 12.7097 41.4882 12.4192 41.5201 12.4237C41.5675 12.4311 41.591 12.5677 41.6247 12.5773C41.766 12.621 41.8981 12.5069 42.0347 12.5276C42.0865 12.5351 42.0657 12.6756 42.1276 12.6846C42.1894 12.6935 42.2342 12.5089 42.3165 12.6C42.3786 12.6694 42.435 13.0495 42.5183 13.0953C42.5285 12.7216 42.5862 12.7303 42.6908 12.6336C42.7109 12.6148 42.6921 12.4843 42.7017 12.4687C42.741 12.4024 42.7742 12.5108 42.8117 12.4385C42.8208 12.4212 42.8236 12.2935 42.8312 12.2721C42.8957 12.0853 42.9909 12.3743 43.0073 12.4246C43.07 12.6157 43.104 12.4502 43.1534 12.526C43.2027 12.6017 43.1252 12.6937 43.1835 12.7402C43.3046 12.8363 43.4627 12.8186 43.5873 12.8268C43.637 12.8293 43.6062 12.6583 43.6134 12.6547C43.7171 12.6134 43.8178 12.7966 43.8811 12.4582C43.9361 13.3371 43.9448 12.3742 44.0885 12.5527C44.0998 12.5671 44.1069 12.9824 44.0612 13.0425C44.0156 13.1025 43.9506 12.9715 43.8872 13.0654C43.8721 13.0874 43.7812 13.4747 43.7693 13.4981C43.6764 13.6805 43.6753 13.0601 43.6712 13.0259C43.6244 12.6573 43.5143 13.0744 43.4868 13.1028C43.3612 13.2332 43.2581 13.144 43.1533 13.2368C43.0847 13.2967 43.0706 13.7028 43.0179 13.6894C42.8427 13.645 42.7918 13.0772 42.6169 13.5655C42.5794 13.6696 42.6064 14.1143 42.4855 13.7628C42.4779 13.7406 42.3893 13.4194 42.3309 13.6204C42.3236 13.6458 42.3214 13.7752 42.3121 13.7859C42.2502 13.8551 42.2116 13.7512 42.1446 13.7994C42.0776 13.8475 41.9968 13.9196 41.9222 13.8744C41.8772 13.8473 41.8234 13.6051 41.8027 13.5457C41.7444 13.3745 41.6733 13.652 41.6391 13.4454C41.6046 13.2378 41.6855 12.9249 41.5873 12.7893C41.5773 13.1254 41.5623 13.4703 41.55 13.8083C41.3296 13.7924 41.1146 13.6796 40.8929 13.6903C40.8654 13.692 40.8902 13.8733 40.8606 13.8797C40.7359 13.9061 40.6299 13.7753 40.5002 13.8242C40.3999 13.8627 40.287 14.052 40.1819 14.0983C40.1255 13.7124 39.9684 13.8401 39.8568 13.8029C39.8177 13.79 39.8222 13.6873 39.7949 13.6533C39.6916 13.5273 39.7347 13.8682 39.7048 13.9212C39.5764 14.1472 39.5801 13.3775 39.4334 13.3938C39.4256 13.3944 39.3232 13.8028 39.3097 13.8281C39.2236 13.9931 39.2986 13.6851 39.2472 13.6538C39.1535 13.5967 39.0894 13.4975 38.976 13.6156C38.9429 13.6505 38.8603 13.9047 38.801 13.7058C38.7932 13.6798 38.8003 13.5443 38.7938 13.5362C38.6756 13.4016 38.6645 13.8276 38.5928 13.9705C38.5211 14.1135 38.4201 13.8174 38.4 13.7323C38.3473 13.512 38.4452 13.6394 38.4487 13.6179C38.4895 13.3626 38.411 13.4052 38.352 13.3825C38.3512 12.9646 38.2677 12.9881 38.2909 13.3606C38.2935 13.4012 38.3405 13.3632 38.352 13.3825C38.2923 13.7913 38.2 13.8421 38.1064 13.4572C38.0625 13.2769 38.1111 13.0684 37.9663 13.1423C37.9006 13.1757 37.9204 13.4637 37.8615 13.5411C37.7271 13.7175 37.5617 13.4461 37.4257 13.4858C37.3763 13.5003 37.4212 13.6586 37.3874 13.6739C37.2976 13.7149 37.2213 13.5953 37.1308 13.6542C37.1226 13.6597 37.1393 13.8249 37.1115 13.8265C36.9004 13.8417 36.7189 13.7327 36.499 13.7257C36.3927 13.7224 36.201 13.8097 36.0912 13.7894C35.9009 13.7551 35.6706 13.5111 35.5065 13.5663C35.3995 13.6016 35.4197 13.7668 35.3721 13.8783C35.2801 14.0943 35.1318 13.7015 35.1119 13.6407C35.1113 13.6387 35.2035 13.6016 35.1563 13.5161C35.1312 13.3392 35.113 13.64 35.1119 13.6407C35.0989 13.6015 34.9168 13.5607 34.8799 13.5915C34.8599 13.6083 34.868 13.7647 34.8576 13.7705C34.6106 13.9057 34.365 13.9409 34.1185 13.8632C34.1142 13.86 34.124 13.6854 34.1139 13.68C33.9718 13.5997 33.8759 13.8117 33.7552 13.9363C33.6345 14.0609 33.5414 14.0167 33.477 13.7155C33.387 13.7516 33.2614 13.6166 33.1891 13.5348C33.1169 13.453 33.1003 13.7929 33.0937 13.7995C32.8874 14.0108 32.774 13.814 32.5647 13.7798C32.4652 13.763 32.2664 13.8086 32.1576 13.8438C32.0717 13.8722 32.0217 13.7915 31.9421 13.841C31.9314 13.8476 31.9393 13.9992 31.9359 14.005C31.8447 14.1845 31.8938 13.8151 31.8769 13.7487C31.8157 13.5071 31.7775 13.3783 31.6629 13.4893C31.6365 13.5147 31.551 14.0462 31.5032 14.0765C31.441 14.1149 31.4677 13.9243 31.4025 13.9694C31.3969 13.9731 31.3959 14.0909 31.3562 14.085C31.1723 14.059 30.9725 13.9867 30.7807 13.9949C30.7545 13.9956 30.7846 14.1831 30.7467 14.1872C30.5688 14.206 30.3744 14.1955 30.2032 14.1048C30.161 14.0819 30.1901 13.9515 30.1816 13.9125C30.1293 13.6763 30.0425 14.0164 30.0291 14.0227C29.7095 14.1809 29.4731 13.8673 29.1477 14.0084C29.13 14.0168 28.988 14.3805 28.9335 14.0653C28.9298 14.0443 28.8761 13.7218 28.8192 13.9405C28.8157 13.9542 28.8498 14.1204 28.7852 14.1023C28.7207 14.0843 28.6142 14.1928 28.5284 14.0094C28.5012 13.9516 28.4405 13.6298 28.3515 13.8837C28.3456 13.9015 28.2049 14.4768 28.1659 14.0773C28.1596 14.0116 28.1753 13.5898 28.0707 13.8043C28.0508 13.8458 28.0839 13.9406 28.0322 13.9984C27.953 14.0875 27.8523 13.9726 27.7535 14.1588C27.7363 14.1917 27.6602 14.4767 27.6075 14.2584C27.5993 14.2242 27.6188 14.0836 27.5891 14.0673C27.448 13.989 27.297 14.0805 27.1541 13.9803C27.1035 13.9451 27.1339 13.7179 27.0816 13.6559C27.0293 13.5939 26.9228 13.5333 26.8649 13.6363C26.8071 13.7393 26.8614 14.1033 26.7771 14.1308C26.4105 14.2501 26.0537 14.0305 25.6906 13.9926C25.6367 13.987 25.679 14.1176 25.5995 14.1186C25.3062 14.1228 24.798 14.2351 24.5488 13.9545C24.3492 13.7297 24.6087 13.5662 24.4547 13.4734C24.3804 13.4291 24.2912 13.8495 24.2728 13.8624C24.0931 13.994 23.9735 13.8049 23.8129 13.8592C23.7798 13.8705 23.8089 14.0421 23.7807 14.0498C23.6844 14.0777 23.5852 13.9995 23.4935 14.0117C23.4523 14.0176 23.4575 14.1484 23.4199 14.1376C23.3299 14.1133 23.2511 14.0569 23.1652 13.9329C23.1574 13.9216 23.2146 13.7601 23.1478 13.7528C23.0398 13.7415 22.9078 13.6182 22.781 13.7406C22.7433 13.7774 22.7363 14.0759 22.6607 13.8683C22.6449 13.8249 22.6728 13.4669 22.5746 13.7749C22.5581 13.826 22.3949 14.2408 22.3237 13.9702C22.3049 13.8989 22.259 13.6047 22.2137 13.65C22.2076 13.6572 22.2287 13.818 22.1916 13.8329C22.0609 13.8828 21.9253 13.8632 21.7911 13.9109C21.7553 13.924 21.8052 14.0909 21.7518 14.105C21.6052 14.1443 21.4239 14.0986 21.2822 14.044C21.23 14.0236 21.2689 13.8869 21.2654 13.8718C21.2084 13.6274 21.1659 13.9551 21.1451 13.9738C21.016 14.0861 20.9221 13.9301 20.8043 13.9687C20.7718 13.979 20.7918 14.1359 20.7851 14.1498C20.7158 14.2849 20.7708 14.0047 20.7291 13.9729C20.6125 13.883 20.4804 13.8931 20.3604 13.9109C20.3163 13.9176 20.3623 14.1001 20.3228 14.1041C20.0889 14.131 19.8466 14.1091 19.6207 14.0048C19.5782 13.9848 19.6078 13.8455 19.5995 13.8134C19.542 13.5889 19.4461 13.8919 19.4248 13.9205C19.3278 14.0513 19.2935 13.927 19.2096 13.9485C18.8 14.0558 18.2984 13.9646 17.9147 13.9068C17.4148 13.8324 17.0283 13.6922 16.5497 13.7178C16.5193 13.7192 16.5465 13.9058 16.5202 13.9094C16.1813 13.9479 15.8498 13.8691 15.51 13.9165C15.4822 13.92 15.519 14.0971 15.4741 14.1087C15.3821 14.1338 15.2663 14.1221 15.1749 14.0641C15.1302 14.0361 15.1936 13.8859 15.1486 13.8609C15.0439 13.8022 14.9307 13.7875 14.8215 13.8138C14.7751 13.8253 14.8415 14.0069 14.7813 14.0079C14.3716 14.0181 13.969 14.0417 13.5596 13.8005C13.5315 13.784 13.5135 13.4171 13.4519 13.4862C13.4454 13.5878 13.4434 13.7074 13.4394 13.8161C12.8424 13.8636 12.2548 13.7255 11.6576 13.6947C11.6324 13.6935 11.6723 13.8885 11.6235 13.887C11.3412 13.8789 11.066 13.9276 10.7808 13.7292C10.7525 13.7098 10.7736 13.3685 10.6882 13.4186C10.6731 13.4277 10.5451 13.4709 10.5108 13.5445C10.5061 13.5556 10.5264 13.7154 10.4853 13.7193C10.2467 13.7391 9.99774 13.698 9.7618 13.5962C9.72372 13.5794 9.76775 13.4104 9.74066 13.397C9.54847 13.3033 9.33518 13.4284 9.1528 13.2708C9.03073 13.1647 9.08211 12.8721 9.0216 12.582C9.01304 12.541 8.93638 12.5332 8.93554 12.365C8.93322 11.9422 8.97903 11.4801 8.97217 11.0293C8.97075 10.9322 8.86597 11.0348 8.93122 10.8014C8.93577 10.7858 9.01178 10.7094 9.03162 10.6302C9.04543 10.5754 9.02558 10.404 9.05298 10.3341C9.08037 10.2643 9.10636 10.4081 9.15115 10.3262C9.19594 10.2433 9.18055 10.0484 9.26731 10.027ZM32.8639 13.1691C32.7987 13.0045 32.7775 13.6024 32.854 13.4607C32.8577 13.4531 32.8673 13.1772 32.8639 13.1691ZM41.1242 13.2285C41.0399 12.9631 40.9716 13.3498 41.0308 13.5547C41.0899 13.7594 41.1499 13.309 41.1242 13.2285ZM42.0531 13.0532C41.9527 12.8432 41.9205 13.691 42.0354 13.5217C42.0421 13.5121 42.059 13.0654 42.0531 13.0532ZM9.32871 12.5054C9.32792 12.4974 9.27287 12.4887 9.2714 12.4965C9.23847 12.6859 9.34856 12.7033 9.32871 12.5054ZM42.9753 12.8606C42.9449 12.7453 42.8486 12.876 42.8864 13.0194C42.9169 13.1347 43.0132 13.0041 42.9753 12.8606ZM29.3152 12.4644C29.3143 12.4555 29.2748 12.4467 29.2747 12.4971C29.2744 12.6594 29.3303 12.6147 29.3152 12.4644ZM44.5361 12.8799C44.3061 12.8437 44.1794 12.1405 44.429 12.2242C44.4742 12.2394 44.3268 12.4458 44.3835 12.5101C44.4873 12.6271 44.5658 12.1885 44.6695 12.4263C44.6882 12.4698 44.5492 12.8835 44.5357 12.8809C44.5358 12.8806 44.536 12.8802 44.5361 12.8799ZM32.838 12.45C32.8368 12.442 32.7821 12.4335 32.7807 12.4413C32.7475 12.6307 32.8575 12.6479 32.838 12.45ZM27.013 12.0516C27.0103 12.0347 26.8834 12.0166 26.879 12.032C26.8069 12.3413 27.0633 12.3788 27.013 12.0516ZM36.5355 12.0811C36.5988 11.8912 36.6707 11.87 36.7139 12.1108C36.6547 12.0969 36.595 12.0939 36.5355 12.0811ZM19.7527 34.6291C19.7987 34.7415 19.7257 34.8827 19.6315 34.9724C19.6022 35.0007 19.501 34.965 19.4762 34.9825C19.4278 35.0159 19.4703 35.0654 19.4129 35.0949C19.3934 35.1042 19.2339 35.0491 19.2174 35.0591C19.1283 35.1119 19.151 35.1879 19.0942 35.2464C18.8156 35.5258 18.5969 35.7634 18.3268 35.9493C18.2975 35.9692 18.256 35.9807 18.2132 35.9901C18.1261 36.0096 18.036 36.0185 18.0115 36.0959C18.0072 36.1096 18.1054 36.2197 18.1113 36.2306C18.1969 36.4003 18.0215 36.1596 17.9791 36.1425C17.8103 36.0756 17.7307 36.1121 17.6851 36.2042C17.6659 36.2435 17.8425 36.48 17.7279 36.3559C17.7203 36.3474 17.6523 36.2061 17.6356 36.1963C17.5984 36.1741 17.5749 36.2179 17.554 36.2144C17.5138 36.2068 17.5099 36.2104 17.4814 36.2216C17.4412 36.2359 17.3673 36.1825 17.3397 36.2307C17.3336 36.2415 17.4022 36.3872 17.3964 36.4185C17.3905 36.4499 17.344 36.4516 17.3186 36.4201C17.293 36.3886 17.2601 36.2667 17.2488 36.24C17.1578 36.0132 17.2159 36.3484 17.2098 36.3587C17.1362 36.5272 16.995 36.3587 16.8988 36.3706C16.8237 36.3806 16.7437 36.4479 16.6674 36.4403C16.6668 36.4403 16.6662 36.4402 16.6656 36.4401C16.574 36.4288 16.5064 36.337 16.4225 36.3414C16.4134 36.3416 16.3998 36.5301 16.3877 36.5306C16.26 36.5359 16.1321 36.4852 16.058 36.3271C16.0508 36.3112 16.116 36.1582 16.1128 36.1331C16.0845 35.9805 16.1523 35.6546 15.8114 36.2912C15.7776 36.2447 15.735 36.1898 15.7704 36.0428C15.7939 35.9486 15.9048 35.8041 15.8412 35.8563C15.8268 35.8677 15.7546 36.0086 15.7383 36.015C15.6684 36.0409 15.6538 35.9704 15.569 36.0106C15.5514 36.019 15.4717 36.136 15.4545 36.1551C15.3125 36.3077 15.4798 36.0065 15.4901 35.983C15.5532 35.7982 15.4776 35.8294 15.4375 35.7869C15.4285 35.777 15.3115 35.9279 15.2975 35.9229C15.2724 35.9126 15.2508 35.8976 15.234 35.8777C15.2031 35.841 15.1891 35.7875 15.2014 35.7182C15.2061 35.6942 15.3377 35.5986 15.3465 35.5821C15.3857 35.5124 15.1461 35.7028 15.1778 35.6369C15.1844 35.6235 15.2951 35.5398 15.3063 35.5294C15.484 35.3687 15.2089 35.5668 15.1995 35.5668C15.0813 35.58 15.3499 35.3467 15.2833 35.3359C15.2746 35.3342 15.1348 35.4413 15.1189 35.4297C15.0116 35.3522 14.9905 35.2007 15.0825 35.0459C15.0966 35.022 15.2244 34.9875 15.2392 34.9806C15.4719 34.8779 15.1492 34.9857 15.1349 34.9837C15.0321 34.9693 15.2951 34.8534 14.8967 34.9328C14.9631 34.7515 14.8196 34.6058 14.9532 34.4443C14.9863 34.4066 15.0362 34.371 15.1101 34.3414C15.1144 34.3395 15.2814 34.3543 15.2893 34.3509C15.3867 34.3115 15.1261 34.3024 14.8142 34.2253C14.7361 34.2036 15.1214 34.2237 15.1495 34.2272C15.2535 34.2339 15.499 34.2778 15.5193 34.2781C15.678 34.2852 14.8626 34.1617 14.8692 34.1219C14.8708 34.1211 15.0193 34.1524 15.0347 34.1522C15.0829 34.1519 15.0252 34.1321 15.0782 34.1335C15.2009 34.1361 15.5931 34.2175 15.3709 34.1433C15.3423 34.1331 14.885 34.0336 14.9147 34.0053C14.9266 33.9946 14.9346 33.9354 14.9686 33.9287C15.0023 33.922 15.143 33.9771 15.1497 33.9778C15.3512 34.0013 15.4255 34.0405 15.7097 34.1207C15.9915 34.205 15.3279 33.9789 15.2567 33.9455C15.1858 33.9117 15.3498 33.9425 15.405 33.9584C15.4604 33.9735 15.5472 34.0146 15.5791 34.0218C15.7864 34.0725 15.2613 33.8795 15.1632 33.8252C14.9339 33.6902 15.4219 33.8727 15.4768 33.8761C15.4921 33.876 15.3829 33.8298 15.3757 33.8192C15.3495 33.7765 15.4997 33.839 15.3824 33.7433C15.3625 33.729 15.1041 33.5506 15.3115 33.6505C15.3411 33.6653 15.4499 33.7359 15.4802 33.7416C15.5258 33.7501 15.5634 33.7431 15.5361 33.7058C15.5161 33.6779 15.3297 33.5728 15.3945 33.5951C15.4232 33.6054 15.5198 33.6856 15.5644 33.7002C15.6088 33.7151 15.6218 33.6871 15.6256 33.675C15.629 33.6629 15.4955 33.5712 15.4873 33.564C15.4408 33.5217 15.3959 33.4519 15.3978 33.4499C15.4313 33.39 15.5294 33.389 15.6107 33.3876C15.6829 33.3856 15.7422 33.3823 15.7553 33.3173C15.7577 33.3065 15.6462 33.1771 15.6454 33.1741C15.6267 33.0976 15.8897 33.4685 15.9964 33.5779C15.782 33.3057 15.8294 33.3482 15.8228 33.3057C15.8197 33.2849 15.7359 33.18 15.7285 33.1684C15.6219 32.9938 15.786 33.2001 15.8186 33.2431C15.9403 33.3996 15.8152 33.2016 15.8955 33.3071C15.9739 33.4127 16.0734 33.5806 16.0841 33.5704C16.0195 33.4643 15.8274 33.2029 15.8114 33.1504C15.7574 32.9465 15.9946 33.1061 16.0423 33.1145C16.0952 33.119 16.1002 33.0925 16.1416 33.1241C16.2145 33.1827 16.1121 32.9644 16.1081 32.8489C16.1063 32.7331 16.2787 33.2996 16.3235 33.4187C16.3667 33.5383 16.3286 33.4131 16.354 33.4783C16.3787 33.5438 16.3988 33.6282 16.4138 33.6509C16.4272 33.6741 16.3824 33.4514 16.3514 33.322C16.2834 33.0485 16.189 32.7675 16.2523 32.8582C16.2558 32.8636 16.2891 33.0157 16.3001 33.0291C16.3848 33.1308 16.4398 33.128 16.5036 33.2263C16.5121 33.2401 16.5291 33.4125 16.5339 33.4225C16.5806 33.5284 16.5323 33.2402 16.5283 32.9148C16.5629 33.3449 16.5984 33.6066 16.6174 33.608C16.6299 33.609 16.6181 33.4209 16.6239 33.2877C16.6262 33.2476 16.6419 33.3765 16.6419 33.2879C16.644 32.9983 16.6234 32.6742 16.6674 32.8026C16.6674 32.8027 16.6675 32.8027 16.6675 32.8028C16.6681 32.8049 16.6678 32.8261 16.6674 32.853C16.6669 32.8883 16.6663 32.9334 16.6674 32.9586C16.6679 32.9685 16.6685 32.9753 16.6696 32.9771C16.7049 33.0403 16.7159 32.7372 16.7669 32.7031C16.8079 32.6763 16.8553 32.8666 16.8863 32.9017C16.8195 33.3822 16.856 33.2752 16.9285 32.9484C16.9496 32.966 16.9791 32.9526 16.9913 33.0028C16.9954 33.0199 16.9593 33.1557 16.9569 33.1707C16.9155 33.4054 16.9983 33.0907 17.0071 33.0798C17.0929 32.9736 17.0579 33.2206 17.1851 33.0103C17.1893 33.0026 17.3091 32.6875 17.2383 32.9237C17.2328 32.9398 17.1635 33.0775 17.1818 33.0971C17.2022 33.1176 17.1677 33.2987 17.2607 33.17C17.2823 33.1385 17.4233 32.9027 17.3438 33.102C17.3327 33.1289 17.2872 33.2142 17.2655 33.2635C17.1952 33.4199 17.3571 33.1203 17.2317 33.3812C17.1066 33.6424 17.0082 33.8354 17.1262 33.6733C17.1294 33.6685 17.273 33.4398 17.2786 33.4482C17.2868 33.4615 17.2722 33.5189 17.2841 33.5249C17.29 33.5277 17.3803 33.3864 17.383 33.3845C17.4789 33.3361 17.4227 33.481 17.4165 33.5607C17.414 33.5745 17.588 33.423 17.4796 33.569C17.3577 33.7259 16.783 34.315 16.9285 34.1831C16.9288 34.1829 16.9291 34.1826 16.9294 34.1824C16.9884 34.1185 17.7581 33.4296 17.3799 33.8146C17.519 33.7702 17.3245 33.9715 17.5095 33.906C17.5176 33.9029 17.7687 33.7548 17.7696 33.7637C17.7699 33.7765 17.6561 33.8516 17.6517 33.8618C17.6303 33.9061 17.745 33.8733 17.7423 33.9083C17.7413 33.9211 17.6133 33.9798 17.6111 33.9934C17.6086 34.0063 17.781 33.9371 17.7061 33.9893C17.6492 34.0295 17.3033 34.1849 17.2651 34.2085C17.6129 34.0714 17.6094 34.083 17.7088 34.0677C17.7281 34.0649 17.8491 34.0167 17.8646 34.0132C17.9307 33.9989 17.8315 34.0419 17.9032 34.0259C17.9204 34.0222 18.0414 33.9816 18.0625 33.9765C18.2464 33.9333 17.9809 34.0469 17.9336 34.0635C17.7558 34.1318 17.9169 34.0913 17.8479 34.1225C17.7785 34.152 17.6844 34.1622 17.6434 34.1845C17.5582 34.2292 17.5836 34.2477 17.5817 34.2694C17.5817 34.2777 17.7482 34.2409 17.7521 34.2414C17.7986 34.2551 17.622 34.2992 17.9598 34.264C17.0918 34.3958 18.0461 34.265 17.8754 34.3208C17.8616 34.3252 17.4487 34.3675 17.3875 34.3684C17.3265 34.3698 17.4542 34.3455 17.359 34.35C17.3365 34.3497 16.9506 34.3992 16.9274 34.4037C16.7453 34.4309 17.3564 34.3248 17.3898 34.3176C17.7503 34.2448 17.3352 34.3053 17.3067 34.3109C17.1743 34.3257 17.2568 34.2962 17.1626 34.3106C17.1017 34.3201 16.711 34.4316 16.7229 34.428C16.7637 34.4204 17.2956 34.2237 16.8307 34.3834C16.7319 34.4185 16.3178 34.5788 16.6438 34.4538C16.6649 34.4472 16.9588 34.322 16.7721 34.3992C16.7486 34.4092 16.6298 34.4605 16.6199 34.465C16.5559 34.494 16.6501 34.4523 16.6055 34.4734C16.561 34.4948 16.4964 34.5303 16.5364 34.5121C16.5607 34.5018 16.7733 34.388 16.8244 34.3585C16.9719 34.2737 16.7282 34.4093 16.9058 34.305C17.0825 34.1972 17.3589 34.0471 17.4659 33.9654C17.1772 34.1378 16.8811 34.315 16.5917 34.49C16.6045 34.4882 16.6942 34.4265 16.6811 34.4338C16.6794 34.4351 16.5365 34.5458 16.5315 34.5508C16.5121 34.5725 16.6124 34.4915 16.575 34.5267C16.5456 34.5545 16.4094 34.6891 16.3811 34.7291C16.4012 34.7096 16.4194 34.6919 16.4358 34.6759C16.6432 34.4728 16.5664 34.5513 16.591 34.5297C16.5997 34.5212 16.6678 34.4441 16.6897 34.4188C16.7699 34.3242 16.5489 34.5826 16.5149 34.624C16.3744 34.8042 16.8625 34.209 16.8418 34.2169C16.8398 34.2163 16.592 34.5433 16.5786 34.5651C16.4824 34.7012 16.6632 34.4501 16.6809 34.4255C16.7135 34.3807 16.7651 34.2973 16.6981 34.397C16.6773 34.426 16.5441 34.6443 16.6482 34.4761C16.6617 34.454 16.7318 34.3379 16.7358 34.3311C16.7999 34.2152 16.5851 34.5832 16.5186 34.7113C16.4533 34.8401 16.5978 34.5838 16.635 34.5076C16.7348 34.3123 16.6781 34.4244 16.6879 34.4052C16.8079 34.179 16.7848 34.2166 16.7919 34.196C16.979 33.8225 16.9581 33.8401 16.7983 34.176C16.7806 34.2126 16.7998 34.1786 16.7919 34.196C16.6048 34.5608 16.5942 34.6138 16.7486 34.2633C16.82 34.0986 16.9068 33.9079 16.8644 33.9732C16.8458 34.0029 16.7384 34.2697 16.7081 34.3421C16.6429 34.5086 16.7339 34.2562 16.7142 34.2943C16.7085 34.3086 16.6629 34.4593 16.6582 34.4745C16.6471 34.5158 16.679 34.402 16.6633 34.4604C16.662 34.466 16.6205 34.6255 16.6209 34.6278C16.6244 34.6484 16.6507 34.5459 16.6535 34.5432C16.6545 34.5421 16.6501 34.6331 16.6557 34.6151C16.6614 34.5957 16.6684 34.4893 16.6674 34.4316C16.6673 34.3997 16.6657 34.3826 16.666 34.4034C16.6666 34.4407 16.6749 34.6053 16.683 34.7174C16.7032 34.9343 16.6812 34.5447 16.6716 34.4849C16.6712 34.483 16.6675 34.4443 16.6593 34.36C16.6413 34.1846 16.6712 34.4842 16.6716 34.4849C16.6682 34.4461 16.6625 34.409 16.6668 34.4403C16.6693 34.4573 16.6921 34.6118 16.6932 34.6178C16.7212 34.7551 16.7527 34.7891 16.7446 34.7153C16.7439 34.7123 16.6959 34.5443 16.6946 34.5392C16.6741 34.4642 16.7377 34.6684 16.7883 34.7852C16.8379 34.9022 16.8357 34.8574 16.723 34.5794C16.7403 34.6131 16.6905 34.4901 16.6549 34.4179C16.6191 34.3458 16.7686 34.6513 16.7721 34.6571C16.8779 34.8448 16.7976 34.6669 16.7863 34.6381C16.7815 34.6235 16.8147 34.6607 16.8414 34.6873C16.863 34.7087 16.8172 34.6434 16.8513 34.6815C16.8559 34.6865 16.9482 34.8065 16.952 34.811C17.0699 34.9488 16.8378 34.6604 16.7974 34.608C16.6499 34.4181 16.5649 34.3222 16.6373 34.4091C16.6525 34.4302 17.0064 34.8289 17.0323 34.8474C17.0635 34.8726 16.9325 34.7334 16.9675 34.7641C16.9704 34.7665 17.051 34.8526 17.0503 34.846C17.0497 34.8391 17.0471 34.8301 17.0438 34.8207C17.0334 34.7909 17.0142 34.7569 17.0287 34.7537C17.0311 34.7527 17.171 34.8767 17.1775 34.8764C17.2077 34.8751 17.2186 34.8495 17.1571 34.7844C17.1415 34.7682 17.0321 34.6962 17.0005 34.6735C16.808 34.5385 17.0942 34.7251 17.1013 34.7262C17.2592 34.7837 16.9991 34.6152 17.1415 34.6569C17.149 34.6616 17.4935 34.7876 17.2055 34.6618C17.1867 34.6524 16.889 34.5314 17.0953 34.6071C17.1083 34.6115 17.2615 34.6744 17.2482 34.6617C17.2346 34.6504 17.3437 34.6731 17.1736 34.6081C17.1205 34.5862 16.8145 34.4906 17.061 34.5581C17.0773 34.5665 17.6397 34.7007 17.2554 34.5941C17.1921 34.5767 16.7826 34.4751 16.9939 34.5214C17.0351 34.5297 17.126 34.5542 17.1843 34.563C17.2745 34.5748 17.1656 34.5438 17.3524 34.567C17.3853 34.5722 17.6698 34.6074 17.4564 34.5651C17.4229 34.5588 17.2834 34.5394 17.2682 34.5339C17.1955 34.5094 17.2908 34.504 17.1947 34.482C17.1608 34.475 16.9335 34.4618 16.8727 34.4561C16.8119 34.4501 16.7533 34.4476 16.8574 34.448C16.9615 34.4471 17.3244 34.4577 17.3535 34.4482C17.3572 34.4469 17.3606 34.4456 17.3638 34.4443C17.4672 34.3958 17.2615 34.3631 17.2258 34.3395C17.2202 34.335 17.3487 34.3154 17.3492 34.3053C17.3541 34.2737 17.4451 34.1585 17.1781 34.2367C16.968 34.307 16.8186 34.3859 16.7337 34.416C16.6948 34.4342 17.0779 34.2571 17.0886 34.2487C17.2035 34.176 17.0314 34.25 17.0761 34.2128C17.0851 34.2044 17.2352 34.1224 17.2408 34.1156C17.2607 34.0907 17.1893 34.1203 17.1959 34.1047C17.1991 34.0974 17.309 34.0268 17.2978 34.028C17.2724 34.0306 17.2207 34.0526 17.1165 34.1175C17.1073 34.1238 16.978 34.2222 16.9704 34.2221C16.9578 34.2207 16.86 34.2916 16.9514 34.2065C16.979 34.1811 17.2051 33.9861 17.0442 34.1152C17.0105 34.1421 16.7434 34.3812 16.9709 34.1709C17.0109 34.1383 17.3017 33.8374 17.1014 34.0179C17.075 34.0422 17.0077 34.1061 16.9522 34.1595C16.898 34.2116 16.8552 34.2537 16.8703 34.2367C16.8751 34.2311 16.9886 34.1178 16.9973 34.1045C17.0257 34.059 17.005 34.0633 17.0278 34.0169C17.0338 34.0039 17.1453 33.8809 17.1498 33.8649C17.1615 33.82 17.1141 33.837 17.0703 33.8698C17.0538 33.8821 16.9791 33.9975 16.9701 34.0095C16.8278 34.2069 17.0109 33.9343 17.0187 33.9165C17.0689 33.8122 16.9764 33.9363 16.9871 33.8953C16.9894 33.8841 17.0701 33.7499 17.0764 33.7374C17.1359 33.6143 17.0021 33.8617 16.9826 33.8863C16.9281 33.9563 16.9245 33.9403 16.9218 33.9167C16.9208 33.9078 17.0044 33.7466 17.0018 33.7401C16.9866 33.6981 16.9434 33.6997 16.8854 33.7861C16.8744 33.8027 16.8341 33.9366 16.8233 33.9666C16.7507 34.1779 16.8355 33.8852 16.8398 33.8562C16.8662 33.7259 16.828 33.8436 16.8253 33.8192C16.8058 33.6951 16.7196 33.7665 16.6799 33.8172C16.6755 33.8221 16.6714 33.8275 16.6674 33.8331C16.6173 33.9021 16.6058 34.016 16.566 33.9919C16.5631 33.9905 16.5249 33.8085 16.5211 33.8051C16.4705 33.7708 16.4563 33.8516 16.4006 33.8171C16.3957 33.8147 16.3316 33.6503 16.3205 33.6415C16.297 33.6224 16.2832 33.6394 16.2961 33.6959C16.3025 33.723 16.3771 33.8549 16.3832 33.8789C16.3982 33.9349 16.3955 33.9506 16.3716 33.9317C16.3609 33.9236 16.2779 33.7633 16.2699 33.7655C16.2148 33.7762 16.1356 33.7977 16.2592 34.0018C16.2673 34.0161 16.5167 34.2847 16.4667 34.2353C16.3961 34.1621 16.3131 34.0759 16.2376 33.9976C16.2322 33.9978 16.2273 33.9986 16.2229 33.9998C16.1519 34.0221 16.2044 34.1422 16.1986 34.1934C16.198 34.1961 16.0291 34.1002 16.0267 34.1058C16.0135 34.1363 15.9464 34.1567 16.1178 34.2513C16.1346 34.2604 16.4577 34.3714 16.4076 34.3581C16.3985 34.3556 16.3532 34.3478 16.2814 34.3292C16.2705 34.3265 16.1184 34.2786 16.1127 34.2813C16.0826 34.2977 16.1115 34.3358 16.2047 34.3705C16.2201 34.3759 16.3883 34.3995 16.4008 34.403C16.4888 34.4227 16.3595 34.4207 16.513 34.4366C16.6166 34.4442 16.91 34.4546 17.199 34.4577C17.2397 34.4579 17.2463 34.4506 17.4144 34.4513C17.8372 34.4524 18.2999 34.4669 18.7505 34.4679C18.8476 34.4679 18.7432 34.4279 18.9777 34.4521C18.9934 34.4537 19.0709 34.4851 19.1503 34.4951C19.2051 34.502 19.3763 34.4947 19.4464 34.5089C19.5164 34.5236 19.3728 34.5331 19.4547 34.5571C19.5374 34.5819 19.7323 34.5809 19.7527 34.6291ZM16.4811 34.103C16.397 33.9628 16.6897 34.4846 16.6208 34.3591C16.6171 34.3524 16.4851 34.1099 16.4811 34.103ZM17.0608 34.1634C17.269 34.0011 16.9542 34.228 16.7926 34.3521C16.6283 34.4723 16.9963 34.2108 17.0608 34.1634ZM17.2739 34.1457C17.4531 34.0389 16.699 34.4276 16.8532 34.3525C16.8619 34.3482 17.2633 34.1516 17.2739 34.1457ZM17.2795 34.4926C17.2874 34.4932 17.2956 34.4877 17.2877 34.487C17.0984 34.4717 17.0825 34.4789 17.2795 34.4926ZM17.5145 34.1857C17.6226 34.1466 17.4917 34.1723 17.3578 34.2221C17.2497 34.2605 17.3795 34.2322 17.5145 34.1857ZM15.7405 34.0014C15.7324 33.9977 15.722 34.0009 15.7677 34.0221C15.9149 34.0906 15.877 34.0636 15.7405 34.0014ZM17.5627 34.4244C17.5941 34.3959 18.29 34.3022 18.215 34.3774C18.2012 34.3892 17.9906 34.3635 17.9282 34.3809C17.8143 34.4064 18.2546 34.4142 18.0189 34.4439C17.9758 34.4463 17.5594 34.4241 17.5617 34.4243C17.562 34.4244 17.5623 34.4244 17.5627 34.4244ZM16.1301 33.476C16.1261 33.4692 16.113 33.468 16.1166 33.4749C16.2062 33.6424 16.2292 33.6469 16.1301 33.476ZM15.2714 34.3881C15.2544 34.388 15.2378 34.4194 15.2534 34.4207C15.5635 34.4387 15.5976 34.3903 15.2714 34.3881ZM16.8851 32.9146C16.9279 32.7277 16.9573 32.7096 16.9285 32.9482C16.915 32.9329 16.8994 32.9285 16.8851 32.9146ZM39.7527 34.6291C39.7987 34.7415 39.7257 34.8827 39.6315 34.9724C39.6022 35.0007 39.501 34.965 39.4762 34.9825C39.4278 35.0159 39.4703 35.0654 39.4129 35.0949C39.3934 35.1042 39.2339 35.0491 39.2174 35.0591C39.1283 35.1119 39.151 35.1879 39.0942 35.2464C38.8156 35.5258 38.5969 35.7634 38.3268 35.9493C38.2975 35.9692 38.256 35.9807 38.2132 35.9901C38.1261 36.0096 38.036 36.0185 38.0115 36.0959C38.0072 36.1096 38.1054 36.2197 38.1113 36.2306C38.1969 36.4003 38.0215 36.1596 37.9791 36.1425C37.8103 36.0756 37.7307 36.1121 37.6851 36.2042C37.6659 36.2435 37.8425 36.48 37.7279 36.3559C37.7203 36.3474 37.6523 36.2061 37.6356 36.1963C37.5984 36.1741 37.5749 36.2179 37.554 36.2144C37.5138 36.2068 37.5099 36.2104 37.4814 36.2216C37.4412 36.2359 37.3673 36.1825 37.3397 36.2307C37.3336 36.2415 37.4022 36.3872 37.3964 36.4185C37.3905 36.4499 37.344 36.4516 37.3186 36.4201C37.293 36.3886 37.2601 36.2667 37.2488 36.24C37.1578 36.0132 37.2159 36.3484 37.2098 36.3587C37.1362 36.5272 36.995 36.3587 36.8988 36.3706C36.8237 36.3806 36.7437 36.4479 36.6674 36.4403C36.6668 36.4403 36.6662 36.4402 36.6656 36.4401C36.574 36.4288 36.5064 36.337 36.4225 36.3414C36.4134 36.3416 36.3998 36.5301 36.3877 36.5306C36.26 36.5359 36.1321 36.4852 36.058 36.3271C36.0508 36.3112 36.116 36.1582 36.1128 36.1331C36.0845 35.9805 36.1523 35.6546 35.8114 36.2912C35.7776 36.2447 35.735 36.1898 35.7704 36.0428C35.7939 35.9486 35.9048 35.8041 35.8412 35.8563C35.8268 35.8677 35.7546 36.0086 35.7383 36.015C35.6684 36.0409 35.6538 35.9705 35.569 36.0106C35.5514 36.019 35.4717 36.136 35.4545 36.1551C35.3125 36.3077 35.4798 36.0065 35.4901 35.983C35.5532 35.7982 35.4776 35.8294 35.4375 35.7869C35.4285 35.777 35.3115 35.9279 35.2975 35.9229C35.2724 35.9126 35.2508 35.8976 35.234 35.8777C35.2031 35.841 35.1891 35.7875 35.2014 35.7182C35.2061 35.6942 35.3377 35.5986 35.3465 35.5821C35.3857 35.5124 35.1461 35.7028 35.1778 35.6369C35.1844 35.6235 35.2951 35.5398 35.3063 35.5294C35.484 35.3687 35.2089 35.5668 35.1995 35.5668C35.0813 35.58 35.3499 35.3467 35.2833 35.3359C35.2746 35.3342 35.1348 35.4413 35.1189 35.4297C35.0116 35.3522 34.9905 35.2007 35.0825 35.0459C35.0966 35.022 35.2244 34.9875 35.2392 34.9806C35.4719 34.8779 35.1492 34.9857 35.1349 34.9837C35.0321 34.9693 35.2951 34.8534 34.8967 34.9328C34.9631 34.7515 34.8196 34.6058 34.9532 34.4443C34.9863 34.4066 35.0362 34.371 35.1101 34.3414C35.1144 34.3395 35.2814 34.3543 35.2893 34.3509C35.3867 34.3115 35.1261 34.3025 34.8142 34.2253C34.7361 34.2036 35.1214 34.2237 35.1495 34.2272C35.2535 34.2339 35.499 34.2778 35.5193 34.2781C35.678 34.2852 34.8626 34.1617 34.8692 34.1219C34.8708 34.1211 35.0193 34.1524 35.0347 34.1522C35.0829 34.1519 35.0252 34.1321 35.0782 34.1335C35.2009 34.1361 35.5931 34.2175 35.3709 34.1433C35.3423 34.1331 34.885 34.0336 34.9147 34.0053C34.9266 33.9946 34.9346 33.9354 34.9686 33.9287C35.0023 33.922 35.143 33.9771 35.1497 33.9778C35.3512 34.0013 35.4255 34.0405 35.7097 34.1207C35.9915 34.205 35.3279 33.9789 35.2567 33.9455C35.1858 33.9117 35.3498 33.9425 35.405 33.9584C35.4604 33.9735 35.5472 34.0146 35.5791 34.0218C35.7864 34.0725 35.2612 33.8795 35.1632 33.8252C34.9339 33.6902 35.4219 33.8727 35.4768 33.8761C35.4921 33.876 35.3829 33.8298 35.3757 33.8192C35.3495 33.7765 35.4997 33.839 35.3824 33.7433C35.3625 33.729 35.1041 33.5506 35.3115 33.6505C35.3411 33.6653 35.4499 33.7359 35.4802 33.7416C35.5257 33.7501 35.5634 33.7431 35.5361 33.7058C35.5161 33.6779 35.3297 33.5728 35.3945 33.5951C35.4232 33.6054 35.5198 33.6856 35.5644 33.7002C35.6088 33.7151 35.6218 33.6871 35.6256 33.675C35.629 33.6629 35.4955 33.5712 35.4873 33.564C35.4408 33.5216 35.3959 33.4519 35.3978 33.4499C35.4313 33.39 35.5294 33.389 35.6107 33.3876C35.6829 33.3856 35.7422 33.3823 35.7553 33.3173C35.7577 33.3065 35.6462 33.1771 35.6454 33.1741C35.6267 33.0976 35.8897 33.4685 35.9964 33.5779C35.782 33.3057 35.8294 33.3482 35.8228 33.3057C35.8197 33.2849 35.7359 33.18 35.7285 33.1684C35.6219 32.9938 35.786 33.2001 35.8186 33.2431C35.9403 33.3996 35.8152 33.2016 35.8955 33.3071C35.9739 33.4127 36.0734 33.5806 36.0841 33.5704C36.0195 33.4643 35.8274 33.2029 35.8114 33.1504C35.7574 32.9465 35.9946 33.1061 36.0423 33.1145C36.0952 33.119 36.1002 33.0925 36.1416 33.1241C36.2145 33.1827 36.1121 32.9644 36.1081 32.8489C36.1063 32.7331 36.2787 33.2996 36.3235 33.4187C36.3667 33.5383 36.3286 33.4131 36.354 33.4783C36.3787 33.5438 36.3988 33.6282 36.4138 33.6509C36.4272 33.6741 36.3824 33.4514 36.3514 33.322C36.2834 33.0485 36.189 32.7675 36.2523 32.8582C36.2558 32.8636 36.2891 33.0157 36.3001 33.0291C36.3848 33.1308 36.4398 33.128 36.5036 33.2263C36.5121 33.2401 36.5291 33.4125 36.5339 33.4225C36.5806 33.5284 36.5323 33.2402 36.5283 32.9148C36.5629 33.3449 36.5984 33.6066 36.6174 33.608C36.6299 33.609 36.6181 33.4209 36.6239 33.2877C36.6262 33.2476 36.6419 33.3765 36.6419 33.2879C36.644 32.9983 36.6234 32.6742 36.6674 32.8026C36.6674 32.8027 36.6675 32.8027 36.6675 32.8028C36.6681 32.8049 36.6678 32.8261 36.6674 32.853C36.6669 32.8883 36.6663 32.9334 36.6674 32.9585C36.6679 32.9685 36.6685 32.9753 36.6696 32.9771C36.7049 33.0403 36.7159 32.7372 36.7669 32.7031C36.8079 32.6763 36.8553 32.8666 36.8863 32.9017C36.8195 33.3822 36.856 33.2752 36.9285 32.9484C36.9496 32.966 36.9791 32.9526 36.9913 33.0028C36.9954 33.0199 36.9593 33.1557 36.9569 33.1707C36.9155 33.4054 36.9983 33.0907 37.0071 33.0798C37.0929 32.9736 37.0579 33.2206 37.1851 33.0103C37.1893 33.0026 37.3091 32.6875 37.2383 32.9237C37.2328 32.9398 37.1635 33.0775 37.1818 33.0971C37.2022 33.1176 37.1677 33.2987 37.2607 33.17C37.2823 33.1385 37.4233 32.9027 37.3438 33.102C37.3327 33.1289 37.2872 33.2142 37.2655 33.2635C37.1952 33.4199 37.3571 33.1203 37.2317 33.3812C37.1066 33.6424 37.0082 33.8354 37.1262 33.6733C37.1294 33.6685 37.273 33.4398 37.2786 33.4482C37.2868 33.4615 37.2722 33.5189 37.2841 33.5249C37.29 33.5277 37.3803 33.3864 37.383 33.3845C37.4789 33.3361 37.4227 33.481 37.4165 33.5607C37.414 33.5745 37.588 33.423 37.4796 33.569C37.3577 33.7259 36.783 34.315 36.9285 34.1831C36.9288 34.1829 36.9291 34.1826 36.9294 34.1824C36.9884 34.1185 37.7581 33.4296 37.3799 33.8146C37.519 33.7702 37.3245 33.9715 37.5095 33.906C37.5176 33.9029 37.7687 33.7548 37.7696 33.7637C37.7699 33.7765 37.6561 33.8516 37.6517 33.8618C37.6303 33.9061 37.745 33.8733 37.7423 33.9083C37.7413 33.9211 37.6133 33.9798 37.6111 33.9934C37.6086 34.0063 37.781 33.9371 37.7061 33.9893C37.6492 34.0295 37.3033 34.1849 37.2651 34.2085C37.6129 34.0714 37.6094 34.083 37.7088 34.0677C37.7281 34.0649 37.8491 34.0167 37.8646 34.0132C37.9307 33.9989 37.8315 34.0419 37.9032 34.0259C37.9204 34.0222 38.0414 33.9816 38.0625 33.9765C38.2464 33.9333 37.9809 34.0469 37.9336 34.0635C37.7558 34.1318 37.9169 34.0913 37.8479 34.1225C37.7785 34.152 37.6844 34.1622 37.6434 34.1845C37.5582 34.2292 37.5836 34.2477 37.5817 34.2694C37.5817 34.2777 37.7482 34.2409 37.7521 34.2414C37.7986 34.2551 37.622 34.2992 37.9598 34.264C37.0918 34.3958 38.0461 34.265 37.8754 34.3208C37.8616 34.3252 37.4487 34.3675 37.3875 34.3684C37.3265 34.3698 37.4542 34.3455 37.359 34.35C37.3365 34.3497 36.9506 34.3992 36.9274 34.4037C36.7453 34.4309 37.3564 34.3248 37.3898 34.3176C37.7503 34.2448 37.3352 34.3053 37.3067 34.3109C37.1743 34.3257 37.2568 34.2962 37.1626 34.3106C37.1017 34.3201 36.711 34.4316 36.7229 34.428C36.7637 34.4204 37.2956 34.2237 36.8307 34.3834C36.7319 34.4185 36.3178 34.5788 36.6438 34.4538C36.6649 34.4472 36.9588 34.322 36.7721 34.3992C36.7486 34.4092 36.6298 34.4605 36.6199 34.465C36.5559 34.494 36.6501 34.4523 36.6055 34.4734C36.561 34.4948 36.4964 34.5303 36.5364 34.5121C36.5607 34.5018 36.7733 34.388 36.8244 34.3585C36.9719 34.2737 36.7282 34.4093 36.9058 34.305C37.0825 34.1972 37.3589 34.0471 37.4659 33.9654C37.1772 34.1378 36.8811 34.315 36.5917 34.49C36.6045 34.4882 36.6942 34.4265 36.6811 34.4338C36.6794 34.4351 36.5365 34.5458 36.5315 34.5508C36.5121 34.5725 36.6124 34.4915 36.575 34.5267C36.5456 34.5545 36.4094 34.6891 36.3811 34.7291C36.4012 34.7096 36.4194 34.6919 36.4358 34.6759C36.6432 34.4728 36.5664 34.5513 36.591 34.5297C36.5997 34.5212 36.6678 34.4441 36.6897 34.4188C36.7699 34.3242 36.5489 34.5826 36.5149 34.624C36.3744 34.8042 36.8625 34.209 36.8418 34.2169C36.8398 34.2163 36.592 34.5433 36.5786 34.5651C36.4824 34.7012 36.6632 34.4501 36.6809 34.4255C36.7135 34.3807 36.7652 34.2973 36.6981 34.397C36.6773 34.426 36.5441 34.6443 36.6482 34.4761C36.6617 34.454 36.7318 34.3379 36.7358 34.3311C36.7999 34.2152 36.5851 34.5832 36.5186 34.7113C36.4533 34.8401 36.5978 34.5838 36.635 34.5076C36.7348 34.3123 36.6781 34.4244 36.6879 34.4052C36.8079 34.179 36.7848 34.2166 36.7919 34.196C36.979 33.8225 36.9581 33.8401 36.7983 34.176C36.7806 34.2126 36.7998 34.1786 36.7919 34.196C36.6048 34.5608 36.5942 34.6138 36.7486 34.2633C36.82 34.0986 36.9068 33.9079 36.8644 33.9732C36.8458 34.0029 36.7384 34.2697 36.7081 34.3421C36.6429 34.5086 36.7339 34.2562 36.7142 34.2943C36.7085 34.3086 36.6629 34.4593 36.6582 34.4745C36.6471 34.5158 36.679 34.402 36.6633 34.4604C36.662 34.466 36.6205 34.6255 36.6209 34.6278C36.6244 34.6484 36.6507 34.5459 36.6535 34.5432C36.6545 34.5421 36.6501 34.6331 36.6557 34.6151C36.6614 34.5957 36.6684 34.4893 36.6674 34.4316C36.6673 34.3997 36.6657 34.3826 36.666 34.4034C36.6666 34.4407 36.6749 34.6053 36.683 34.7174C36.7032 34.9343 36.6812 34.5447 36.6716 34.4849C36.6712 34.483 36.6675 34.4443 36.6593 34.36C36.6413 34.1846 36.6712 34.4842 36.6716 34.4849C36.6682 34.4461 36.6625 34.409 36.6668 34.4403C36.6693 34.4573 36.6921 34.6118 36.6932 34.6178C36.7212 34.7551 36.7527 34.7891 36.7446 34.7153C36.7439 34.7123 36.6959 34.5443 36.6946 34.5392C36.6741 34.4642 36.7377 34.6684 36.7883 34.7852C36.8379 34.9022 36.8357 34.8574 36.723 34.5794C36.7403 34.6131 36.6905 34.4901 36.6549 34.4179C36.6191 34.3458 36.7686 34.6513 36.7721 34.6571C36.8779 34.8448 36.7976 34.6669 36.7863 34.6381C36.7815 34.6235 36.8147 34.6607 36.8414 34.6873C36.863 34.7087 36.8172 34.6434 36.8513 34.6815C36.8559 34.6865 36.9482 34.8065 36.952 34.811C37.0699 34.9488 36.8378 34.6604 36.7974 34.608C36.6499 34.4181 36.5649 34.3222 36.6373 34.4091C36.6525 34.4302 37.0064 34.8289 37.0323 34.8474C37.0635 34.8726 36.9325 34.7334 36.9675 34.7641C36.9704 34.7665 37.051 34.8526 37.0503 34.846C37.0497 34.8391 37.0471 34.8301 37.0438 34.8207C37.0334 34.7909 37.0142 34.7569 37.0287 34.7537C37.0311 34.7527 37.171 34.8767 37.1775 34.8764C37.2077 34.8751 37.2186 34.8495 37.1571 34.7844C37.1415 34.7682 37.0321 34.6962 37.0005 34.6735C36.808 34.5385 37.0942 34.7251 37.1013 34.7262C37.2592 34.7837 36.9991 34.6152 37.1415 34.6569C37.149 34.6616 37.4936 34.7876 37.2055 34.6618C37.1867 34.6524 36.889 34.5314 37.0953 34.6071C37.1083 34.6115 37.2615 34.6744 37.2482 34.6617C37.2346 34.6504 37.3437 34.6731 37.1736 34.608C37.1205 34.5862 36.8145 34.4906 37.061 34.5581C37.0773 34.5664 37.6397 34.7007 37.2554 34.5941C37.1921 34.5767 36.7826 34.4751 36.9939 34.5214C37.0351 34.5297 37.126 34.5542 37.1843 34.563C37.2745 34.5748 37.1656 34.5438 37.3524 34.567C37.3853 34.5722 37.6698 34.6074 37.4564 34.5651C37.4229 34.5588 37.2834 34.5394 37.2682 34.5339C37.1955 34.5094 37.2908 34.504 37.1947 34.482C37.1608 34.475 36.9335 34.4618 36.8727 34.4561C36.8119 34.4501 36.7533 34.4476 36.8574 34.448C36.9615 34.4471 37.3244 34.4577 37.3535 34.4482C37.3572 34.4469 37.3606 34.4456 37.3638 34.4443C37.4672 34.3958 37.2615 34.3631 37.2258 34.3395C37.2202 34.335 37.3487 34.3154 37.3492 34.3053C37.3541 34.2737 37.4451 34.1585 37.1781 34.2367C36.968 34.307 36.8186 34.3859 36.7337 34.416C36.6948 34.4342 37.0779 34.2571 37.0886 34.2487C37.2035 34.176 37.0314 34.25 37.0761 34.2128C37.0851 34.2044 37.2352 34.1224 37.2408 34.1156C37.2607 34.0907 37.1893 34.1203 37.1959 34.1047C37.1991 34.0974 37.309 34.0268 37.2978 34.0281C37.2724 34.0306 37.2207 34.0526 37.1165 34.1175C37.1073 34.1238 36.978 34.2222 36.9704 34.2221C36.9578 34.2207 36.86 34.2916 36.9514 34.2065C36.979 34.1811 37.2051 33.9861 37.0442 34.1152C37.0105 34.1421 36.7434 34.3812 36.9709 34.1709C37.0109 34.1383 37.3017 33.8374 37.1014 34.0179C37.075 34.0422 37.0077 34.1061 36.9523 34.1595C36.898 34.2116 36.8552 34.2537 36.8703 34.2367C36.8751 34.2311 36.9886 34.1178 36.9973 34.1045C37.0256 34.059 37.005 34.0633 37.0278 34.0169C37.0338 34.0039 37.1453 33.8809 37.1498 33.8649C37.1615 33.82 37.1141 33.837 37.0703 33.8698C37.0538 33.8821 36.9791 33.9975 36.9701 34.0095C36.8278 34.2069 37.0109 33.9343 37.0187 33.9165C37.0689 33.8122 36.9764 33.9363 36.9871 33.8953C36.9894 33.8841 37.0701 33.7499 37.0764 33.7374C37.1359 33.6143 37.0021 33.8617 36.9826 33.8863C36.9281 33.9563 36.9245 33.9403 36.9218 33.9167C36.9208 33.9078 37.0044 33.7466 37.0017 33.7401C36.9866 33.6981 36.9434 33.6997 36.8854 33.7861C36.8744 33.8027 36.8341 33.9366 36.8233 33.9666C36.7507 34.1779 36.8355 33.8852 36.8398 33.8562C36.8662 33.7259 36.828 33.8436 36.8253 33.8192C36.8058 33.6951 36.7196 33.7665 36.6799 33.8172C36.6755 33.8221 36.6714 33.8275 36.6674 33.8331C36.6173 33.9021 36.6058 34.016 36.566 33.9919C36.5631 33.9905 36.5249 33.8085 36.5211 33.8051C36.4705 33.7708 36.4563 33.8516 36.4006 33.8171C36.3957 33.8147 36.3316 33.6503 36.3205 33.6415C36.297 33.6224 36.2832 33.6394 36.2961 33.6959C36.3025 33.723 36.3771 33.8549 36.3832 33.8789C36.3982 33.9349 36.3955 33.9506 36.3716 33.9317C36.3609 33.9236 36.2779 33.7633 36.2699 33.7655C36.2148 33.7762 36.1356 33.7977 36.2592 34.0018C36.2673 34.0161 36.5167 34.2847 36.4667 34.2353C36.3961 34.1621 36.3131 34.0759 36.2376 33.9976C36.2322 33.9978 36.2273 33.9985 36.2229 33.9998C36.1519 34.0221 36.2044 34.1422 36.1986 34.1934C36.198 34.1961 36.0291 34.1002 36.0267 34.1058C36.0135 34.1363 35.9464 34.1567 36.1178 34.2513C36.1346 34.2604 36.4577 34.3714 36.4076 34.3581C36.3985 34.3556 36.3532 34.3478 36.2814 34.3292C36.2705 34.3265 36.1184 34.2786 36.1127 34.2813C36.0826 34.2977 36.1115 34.3358 36.2047 34.3705C36.2201 34.3759 36.3883 34.3995 36.4008 34.403C36.4888 34.4227 36.3595 34.4207 36.513 34.4366C36.6166 34.4442 36.91 34.4546 37.199 34.4577C37.2397 34.4579 37.2463 34.4506 37.4144 34.4513C37.8372 34.4524 38.2999 34.4669 38.7505 34.4679C38.8476 34.4679 38.7432 34.4279 38.9777 34.4521C38.9934 34.4537 39.0709 34.4851 39.1503 34.4951C39.2051 34.502 39.3763 34.4947 39.4464 34.5089C39.5164 34.5236 39.3728 34.5331 39.4547 34.5571C39.5374 34.5819 39.7323 34.5809 39.7527 34.6291ZM36.4811 34.103C36.397 33.9628 36.6897 34.4846 36.6208 34.3591C36.6171 34.3525 36.4851 34.1099 36.4811 34.103ZM37.0608 34.1634C37.269 34.0011 36.9542 34.228 36.7926 34.3521C36.6283 34.4723 36.9963 34.2108 37.0608 34.1634ZM37.2739 34.1457C37.4531 34.0389 36.699 34.4276 36.8532 34.3525C36.8619 34.3482 37.2633 34.1516 37.2739 34.1457ZM37.2795 34.4926C37.2874 34.4932 37.2956 34.4877 37.2877 34.487C37.0984 34.4717 37.0825 34.4789 37.2795 34.4926ZM37.5145 34.1857C37.6226 34.1466 37.4917 34.1723 37.3578 34.2221C37.2497 34.2605 37.3795 34.2322 37.5145 34.1857ZM35.7405 34.0014C35.7324 33.9977 35.722 34.0009 35.7677 34.0221C35.9149 34.0906 35.877 34.0636 35.7405 34.0014ZM37.5627 34.4244C37.5941 34.3959 38.29 34.3022 38.215 34.3774C38.2012 34.3892 37.9906 34.3635 37.9282 34.3809C37.8143 34.4064 38.2546 34.4142 38.0189 34.4439C37.9758 34.4463 37.5594 34.4241 37.5617 34.4243C37.562 34.4244 37.5623 34.4244 37.5627 34.4244ZM36.1301 33.476C36.1261 33.4692 36.113 33.468 36.1166 33.4749C36.2062 33.6424 36.2292 33.6469 36.1301 33.476ZM35.2714 34.3881C35.2544 34.388 35.2378 34.4194 35.2534 34.4207C35.5635 34.4387 35.5976 34.3903 35.2714 34.3881ZM36.8851 32.9146C36.9279 32.7277 36.9573 32.7096 36.9285 32.9482C36.915 32.9329 36.8994 32.9285 36.8851 32.9146Z" fill="#161716"/>
</svg>
