<svg width="54" height="54" viewBox="0 0 54 54" fill="none" xmlns="http://www.w3.org/2000/svg">
<path d="M5.02151 29.5575C5.07404 28.8222 5.42346 27.901 5.81712 27.2913C5.93925 27.0993 5.98234 27.2497 6.07211 27.1234C6.24875 26.8793 6.34926 26.6134 6.55687 26.3965C6.62593 26.3259 6.69572 26.5201 6.76422 26.4456C7.07226 26.1126 7.33279 25.7744 7.65569 25.4672C7.72478 25.4016 7.79638 25.338 7.87176 25.2768C9.33466 24.0856 11.1651 23.4603 12.9858 23.518C13.6503 23.5424 14.318 23.5644 14.9915 23.5877C15.7213 23.6128 16.6084 23.7652 17.3621 23.6986C17.4501 23.6906 17.3976 23.5432 17.4144 23.5311C17.677 23.3451 17.5897 23.6427 17.7611 23.6822C18.4416 23.8383 19.1982 23.8519 19.8531 23.795C20.1317 23.7704 19.8523 23.4776 20.1328 23.6419C20.1523 23.653 20.0816 23.8096 20.158 23.8262C20.3313 23.8638 20.66 23.8358 20.7943 23.8482C21.0531 23.8729 21.0959 23.8713 21.3407 23.8731C21.6754 23.8769 22.0734 23.9547 22.4324 23.9193C22.509 23.9112 22.4076 23.7508 22.5298 23.7235C22.6521 23.6962 22.9757 23.7098 23.0848 23.7476C23.194 23.7855 23.1475 23.9116 23.1668 23.9405C23.3257 24.1845 23.7001 23.8466 23.7482 23.8382C24.6264 23.6958 25.3795 23.8883 26.2038 23.8878C26.8296 23.8869 27.4987 23.8234 28.0942 23.8321C28.8036 23.8431 29.4049 23.9301 30.094 23.9151C30.1668 23.9137 30.0815 23.7251 30.1704 23.723C31.1142 23.701 32.0514 23.7216 32.9911 23.8489C33.0854 23.8619 32.9639 24.0275 33.0581 24.0504C33.6345 24.1865 34.5467 24.5135 34.889 23.7923C35.2795 23.8205 35.7536 23.8496 36.1029 23.9949C36.3282 24.0885 36.1094 24.269 36.3861 24.192C36.4485 24.1748 36.3673 24.0168 36.4609 24.003C36.8549 23.9451 37.2854 23.9965 37.6752 23.9149C37.7545 23.8979 37.7328 23.7563 37.7553 23.7308C37.9441 23.5243 38.2584 23.8656 38.3269 23.8905C38.8486 24.0754 39.2296 24.0026 39.7156 24.0072C39.8284 24.0083 39.6951 23.8181 39.8036 23.8123C39.9836 23.8036 40.1657 23.7994 40.3481 23.8004C40.7946 23.8021 41.2428 23.8726 41.6505 24.0096C41.7832 24.0553 41.6266 24.1895 41.6872 24.2194C41.9472 24.3516 42.0842 24.0709 42.3377 24.2138C42.3902 24.244 42.3176 24.3668 42.3233 24.3845C42.4062 24.6601 42.6459 24.3868 42.6917 24.3955C43.2458 24.4952 43.4035 24.969 43.8556 25.1877C43.9112 25.2153 43.8857 24.9913 44.0382 25.0799C44.4468 25.3201 44.8322 25.6246 45.1682 25.9773C45.6668 26.4987 46.0528 27.1265 46.2859 27.7706C46.346 27.9385 46.1711 27.8839 46.1618 27.9015C46.0113 28.1691 46.3636 28.1275 46.3995 28.1775C46.6679 28.5658 46.5116 29.04 46.9753 29.2463C47.058 29.7631 47.1057 30.2801 47.1023 30.7973C47.0929 32.0882 47.1451 33.3749 46.8783 34.6582C46.8741 34.6804 46.7065 34.6406 46.6988 34.6849C46.6162 35.153 46.8069 35.1312 47.0702 35.3577C47.1068 35.3959 47.1442 35.4408 47.1812 35.496C47.2607 35.6195 46.8395 35.9051 46.8053 35.9179C46.6865 35.9968 46.4578 35.8556 46.4326 35.8835C46.2301 36.0861 47.0531 36.233 46.9234 36.6269C46.9181 36.6379 46.7923 36.5386 46.7672 36.5642C46.6893 36.6416 46.7079 36.7561 46.6198 36.8239C46.4109 36.9804 46.0414 36.8353 46.0672 37.2158C46.0661 37.2653 46.5002 37.4827 46.256 37.7523C46.2176 37.7929 46.1321 37.8913 46.0257 37.995C45.8618 38.1584 45.6413 38.3254 45.543 38.3711C45.3824 38.4464 45.3962 38.253 45.3816 38.2553C44.9028 38.327 45 38.1615 44.6928 37.9926C44.4034 37.8051 44.7364 38.4211 44.683 38.5291C44.6281 38.6402 44.2683 38.5838 44.1851 38.5414C44.0992 38.5035 44.1655 38.389 44.0958 38.3724C43.6511 38.2462 43.9736 38.7506 43.8373 38.8851C43.69 39.019 43.5293 38.9948 43.3884 38.9165C43.23 38.8143 43.0784 38.635 42.9128 38.6061C42.8337 38.5924 42.8983 38.7108 42.8278 38.7219C42.5489 38.7641 42.3811 38.6019 42.0637 38.7507C42.0118 38.7749 41.7552 39.0875 41.5891 38.8581C41.5656 38.825 41.6324 38.6955 41.5135 38.6664C41.3359 38.6229 41.0159 38.5946 40.825 38.6379C40.684 38.6699 40.8456 38.8834 40.6682 38.8171C40.5893 38.7875 40.7355 38.6626 40.5873 38.6174C40.44 38.5722 40.0632 38.5777 39.9198 38.582C39.7767 38.5864 39.8551 38.7483 39.8435 38.7592C39.7735 38.8217 39.4989 38.8998 39.4746 38.8996C38.2504 38.9194 37.1215 38.6464 35.9296 38.7368C35.836 38.7436 35.8983 38.9144 35.8841 38.9172C35.5638 38.9887 35.8163 38.5347 35.5926 38.3827C35.625 38.7293 35.4929 38.6665 35.2673 38.7045C35.1586 38.7231 35.2178 38.8573 35.2079 38.871C35.0467 39.0748 34.9345 38.8116 34.9056 38.7577C34.7988 38.5597 34.6827 38.7937 34.61 38.6613C34.5374 38.5299 34.7045 38.3351 34.4882 38.3376C34.4275 38.4616 34.5881 38.7858 34.4239 38.8383C33.8042 39.037 32.6474 38.7827 32.1491 38.7563C31.6519 38.7299 31.4913 38.7528 31.2015 38.7079C30.6781 38.6269 30.8699 38.8674 30.5449 38.9775C30.219 39.0875 30.3774 38.4958 30.3306 38.3686C30.2846 38.2414 30.2343 38.3723 30.1771 38.3024C30.1201 38.2325 30.2436 38.1461 30.1094 38.1198C29.9752 38.0936 29.6083 38.3198 29.5608 38.4528C29.4602 38.7346 29.6256 39.0304 29.2705 38.9264C29.2501 38.9203 29.3163 38.7647 29.2381 38.749C28.617 38.6292 27.9718 38.6217 27.3515 38.5158C27.2662 38.501 27.3425 38.3279 27.2928 38.3173C26.7758 38.2066 26.9606 38.4985 26.6772 38.8227C26.7409 38.3912 26.5842 38.1272 26.1918 38.1247C25.9559 38.123 25.9965 38.3115 25.8439 38.4443C25.7981 38.4843 25.6312 38.3549 25.601 38.4435C25.5012 38.7332 25.6585 39.0575 25.2539 38.9284C25.2361 38.9223 25.2927 38.7637 25.2313 38.7541C24.8349 38.6912 24.7874 38.9942 24.3589 39.0309C24.023 39.0597 23.4256 38.875 23.0431 38.8449C23.0511 38.3598 22.6899 38.4709 22.5433 38.8054C22.2951 38.7917 22.027 38.8106 21.7871 38.7643C21.7045 38.7486 21.7588 38.6081 21.7483 38.593C21.5887 38.3549 21.4808 38.6803 21.4272 38.6931C20.8465 38.8171 20.3734 38.5704 19.8192 38.8115C19.7996 38.8201 19.7677 39.1571 19.6195 38.9111C19.6099 38.8941 19.793 38.7408 19.5323 38.7289C19.2715 38.7171 18.78 38.5364 18.418 38.6926C18.3305 38.7302 18.1089 39.0037 17.9311 38.79C17.9074 38.761 17.9333 38.6643 17.8991 38.6105C17.7885 38.4392 17.7282 38.7798 17.5983 38.4904C17.4683 38.2011 17.198 37.9844 16.833 38.184C16.8214 38.1898 16.735 38.4598 16.6202 38.4555C16.4369 38.4485 16.1767 38.3922 15.9854 38.394C15.8938 38.3949 15.9524 38.5625 15.9365 38.5656C15.3205 38.6595 14.882 38.5101 14.2221 38.4452C14.1011 38.433 13.7534 38.6616 13.5192 38.4809C13.2621 38.2831 13.5263 37.4601 12.9352 37.6562C12.6968 37.7346 12.395 38.7786 11.9665 38.2377C11.274 38.3494 10.6249 38.1758 9.94553 38.2256C9.81732 38.2355 9.68698 38.246 9.55017 38.2595C9.51631 38.2639 9.34963 38.5327 9.25542 38.5075C9.11999 38.4706 9.08527 38.318 8.99925 38.2813C8.64228 38.122 8.26431 38.0467 7.96845 37.7846C7.85959 37.6845 7.98951 37.6126 7.87359 37.4926C7.86314 37.4815 7.85199 37.4717 7.84022 37.463C7.7261 37.3778 7.53444 37.3854 7.47158 37.1639C7.41972 36.9757 7.6585 36.6409 7.61816 36.4517C7.27893 36.6048 7.21295 36.4685 7.03665 36.2289C7.0028 36.1818 6.89465 36.2752 6.87204 36.2542C6.77625 36.1649 6.85756 36.0402 6.76675 35.9517C6.74485 35.9297 6.61895 35.9508 6.59394 35.9326C6.37133 35.77 6.64146 35.4249 6.69426 35.3828C6.70253 35.3742 6.71015 35.3658 6.71717 35.3577C6.86995 35.1911 6.7213 35.1073 6.79279 34.9735C6.86757 34.8338 6.96104 35.0427 7.00642 34.8795C7.10027 34.5413 7.07965 34.1066 7.08552 33.763C7.08707 33.626 6.91665 33.7195 6.91291 33.6999C6.86969 33.4164 7.05097 33.1298 6.7115 32.9726C7.58925 32.7761 6.62636 32.8017 6.80207 32.3965C6.81628 32.3646 7.23137 32.324 7.2923 32.4465C7.35319 32.569 7.22344 32.7548 7.31843 32.9248C7.34072 32.9651 7.72968 33.1957 7.75324 33.2272C7.93738 33.4736 7.3171 33.5086 7.28303 33.5216C6.91537 33.6695 7.3344 33.9513 7.36335 34.0255C7.49602 34.365 7.40879 34.6535 7.50349 34.9374C7.56469 35.1232 7.971 35.1413 7.95856 35.2872C7.9565 35.3114 7.95313 35.3349 7.94863 35.3577C7.86587 35.6169 7.41958 35.9038 7.96405 36.0635C8.08893 36.0939 8.46765 35.8641 8.23789 36.1992C8.21885 36.2141 8.02856 36.5356 8.25965 36.5119C8.28789 36.508 8.394 36.4339 8.41168 36.4402C8.52731 36.481 8.49016 36.5988 8.6046 36.6478C8.61648 36.6526 8.62876 36.6573 8.64127 36.662C8.74834 36.7021 8.86658 36.7303 8.93299 36.8237C8.97467 36.8853 8.94009 37.1442 8.95218 37.2171C8.98381 37.427 9.21243 37.2198 9.2086 37.4362C9.22215 37.6588 8.94278 37.8999 9.14759 38.1044C9.2511 37.7843 9.36325 37.4574 9.46141 37.1336C9.61805 37.1818 9.77737 37.2282 9.94553 37.2525C10.28 37.2827 10.6143 37.3124 10.9523 37.3041C11.0279 37.302 10.9506 37.1212 11.0317 37.1142C11.3737 37.0855 11.6724 37.2143 12.0271 37.163C12.3016 37.1226 12.6027 36.9312 12.8897 36.883C13.0651 37.2678 13.4911 37.1371 13.8005 37.1723C13.9089 37.1845 13.9017 37.2872 13.9788 37.3207C14.2696 37.4447 14.1333 37.1047 14.2131 37.0512C14.5551 36.8228 14.5844 37.5924 14.9877 37.5734C15.0091 37.5727 15.2703 37.1624 15.3062 37.1369C15.5348 36.9703 15.3441 37.2797 15.4871 37.31C15.7483 37.3654 15.9298 37.4634 16.2362 37.3432C16.3256 37.3076 16.5399 37.0519 16.7134 37.2497C16.7362 37.2756 16.7236 37.4112 16.742 37.4191C17.0746 37.5515 17.0833 37.1254 17.2734 36.9811C17.4634 36.8369 17.757 37.131 17.8167 37.2158C17.973 37.435 17.697 37.3095 17.6885 37.331C17.5891 37.5871 17.8032 37.543 17.9668 37.5646C17.9905 37.9824 18.2193 37.9573 18.1364 37.5854C18.127 37.5448 17.9996 37.5837 17.9668 37.5646C18.1104 37.1548 18.3618 37.1023 18.6395 37.4853C18.7695 37.6648 18.6466 37.8741 19.0415 37.7975C19.2208 37.763 19.1515 37.4753 19.3097 37.3969C19.671 37.218 20.1405 37.4863 20.513 37.444C20.6482 37.4287 20.5165 37.2712 20.6089 37.2553C20.8541 37.2126 21.0704 37.3307 21.3166 37.2702C21.339 37.2645 21.2844 37.0997 21.361 37.0976C21.9416 37.0785 22.4471 37.184 23.0532 37.187C23.3461 37.1883 23.8697 37.0974 24.1731 37.1157C24.6989 37.1464 25.3458 37.386 25.795 37.3278C26.088 37.2906 26.0237 37.1257 26.1493 37.0134C26.3915 36.7956 26.8203 37.1856 26.878 37.246C26.8798 37.248 26.6277 37.2869 26.7622 37.3715C26.8404 37.5479 26.8752 37.2468 26.878 37.246C26.916 37.285 27.4196 37.3225 27.5196 37.291C27.5739 37.2737 27.5435 37.1175 27.5719 37.1115C28.2453 36.9717 28.9199 36.932 29.6029 37.0051C29.6149 37.0082 29.5968 37.1829 29.6251 37.1882C30.0205 37.2659 30.2737 37.0521 30.5998 36.9252C30.9259 36.7984 31.1845 36.8409 31.3775 37.1408C31.6235 37.103 31.9765 37.2356 32.1796 37.3161C32.3827 37.3966 32.411 37.0565 32.4289 37.0497C32.9863 36.8346 33.3086 37.0292 33.8869 37.0595C34.1618 37.0745 34.7072 37.0252 35.0049 36.988C35.2401 36.958 35.3819 37.0377 35.5986 36.9868C35.628 36.98 35.5983 36.8285 35.6073 36.8227C35.8492 36.6415 35.733 37.0117 35.7829 37.0778C35.964 37.3182 36.0759 37.4463 36.3857 37.3332C36.4572 37.3073 36.6653 36.7743 36.7956 36.7431C36.965 36.7036 36.9011 36.8946 37.0784 36.8483C37.0936 36.8445 37.0904 36.7267 37.1999 36.7319C37.7079 36.7544 38.2618 36.823 38.7898 36.8112C38.8619 36.8101 38.7695 36.6231 38.8737 36.6184C39.3626 36.5962 39.8985 36.6031 40.3748 36.6906C40.4921 36.7127 40.4186 36.8436 40.444 36.8825C40.6003 37.1177 40.8219 36.776 40.8584 36.7695C41.7306 36.6053 42.3981 36.9145 43.287 36.7673C43.3002 36.7649 43.3376 36.7359 43.3884 36.7013C43.453 36.6096 43.5163 36.4726 43.6029 36.6893C43.6051 36.7105 43.7559 37.0106 43.7742 36.7776C43.7734 36.7633 43.6888 36.6156 43.767 36.6108C43.8514 36.6029 43.9087 36.4622 44.092 36.5647C44.144 36.6013 44.4191 36.8084 44.3557 36.5295C44.3537 36.5169 44.2573 36.2988 44.2406 36.21C44.2324 36.155 44.2593 36.1429 44.3863 36.2254C44.4395 36.2626 44.7614 36.5431 44.6808 36.2901C44.662 36.2441 44.5596 36.2266 44.5481 36.1398C44.5249 36.0147 44.6884 35.9445 44.5496 35.7731C44.5269 35.7378 44.2715 35.5997 44.4938 35.5967C44.5291 35.5944 44.663 35.6433 44.6855 35.6113C44.7381 35.5358 44.7435 35.4453 44.7414 35.3577C44.7394 35.152 44.7392 34.9454 44.7889 34.742C44.8232 34.6008 45.0509 34.673 45.1119 34.5258C45.1729 34.3785 45.2316 34.0819 45.1275 33.9279C45.0234 33.7738 44.6605 33.9421 44.6314 33.7113C44.5089 32.7364 44.7063 31.7704 44.7463 30.7973C44.7474 30.7766 44.7483 30.7559 44.7489 30.7351C44.7511 30.6277 44.6247 30.7188 44.6154 30.5652C44.5964 29.9792 44.1946 29.1179 44.1564 28.5575C44.1253 28.0859 44.5529 28.4533 44.449 28.1203C44.3908 27.9517 43.945 28.062 43.9141 28.0444C43.7162 27.9222 43.6281 27.7711 43.5217 27.6237C43.4527 27.5283 43.3765 27.4364 43.264 27.3703C43.2052 27.3362 43.1448 27.5088 43.0972 27.4799C42.9358 27.3843 42.8211 27.2076 42.6599 27.1229C42.5876 27.0857 42.5327 27.2053 42.4759 27.1599C42.3379 27.0534 42.2285 26.936 42.1165 26.7531C42.1053 26.7361 42.2739 26.6323 42.1489 26.5714C41.9492 26.475 41.7111 26.266 41.4257 26.3263C41.3403 26.3451 41.2782 26.6352 41.162 26.4029C41.1379 26.3553 41.2393 26.0066 40.9995 26.2831C40.9511 26.3263 40.6179 26.7087 40.4847 26.4385C40.4603 26.3912 40.4101 26.2478 40.3481 26.1684C40.3057 26.1267 40.2613 26.1024 40.2192 26.1182C40.2026 26.1256 40.2691 26.2859 40.1677 26.3016C39.8102 26.3539 39.4357 26.3368 39.0685 26.387C38.9704 26.4008 39.1165 26.5667 38.9703 26.5819C38.5684 26.6238 38.0667 26.5815 37.6737 26.5296C37.5288 26.5101 37.629 26.3727 37.6184 26.3577C37.4489 26.1144 37.3486 26.4428 37.2924 26.462C36.9424 26.5766 36.676 26.4224 36.3534 26.4632C36.2644 26.474 36.3275 26.6306 36.3098 26.6446C36.126 26.781 36.2629 26.4998 36.1466 26.4688C35.8207 26.381 35.4574 26.3936 35.1278 26.4136C35.0068 26.4212 35.1428 26.6028 35.0342 26.6075C34.3912 26.6388 33.7228 26.6214 33.0953 26.5213C32.9771 26.5021 33.0515 26.3623 33.0268 26.3304C32.8571 26.107 32.6084 26.4117 32.5511 26.4407C32.2909 26.5733 32.1898 26.4496 31.96 26.4727C30.8373 26.5876 29.4511 26.5057 28.3913 26.4551C27.0103 26.39 25.9387 26.257 24.6218 26.2916C24.5381 26.2936 24.6225 26.4796 24.5503 26.4837C23.6188 26.5285 22.7017 26.4559 21.7683 26.5096C21.6917 26.5137 21.8021 26.69 21.6792 26.7025C21.427 26.7293 21.1076 26.7197 20.8526 26.6634C20.7283 26.6363 20.8951 26.485 20.7699 26.4608C20.4784 26.404 20.166 26.3915 19.8666 26.4197C19.7392 26.4322 19.9314 26.6125 19.7658 26.6146C18.6378 26.6325 17.5299 26.6635 16.39 26.43C16.3119 26.414 16.2433 26.0475 16.0772 26.1177C16.0646 26.2195 16.0653 26.3391 16.0599 26.4478C15.0317 26.4845 14.0101 26.4484 12.9858 26.4114C12.5446 26.3892 12.0947 26.4342 11.6632 26.5613C11.6153 26.5757 11.7547 26.735 11.665 26.7633C11.1422 26.9344 10.72 27.2247 10.1614 27.4406C10.1062 27.4633 9.90529 27.1825 9.80542 27.3426C9.79614 27.3581 9.74201 27.4299 9.69832 27.5098C9.66172 27.5763 9.63264 27.6477 9.6364 27.6933C9.63868 27.7074 9.78664 27.7819 9.73505 27.8451C9.43396 28.2119 9.13714 28.6024 8.85537 29.0092C8.80968 29.0752 8.68661 28.9308 8.65225 28.9789C8.40534 29.3322 8.41383 29.8003 8.21153 30.1734C8.07693 30.4312 7.79699 30.3018 7.49619 30.4417C7.45312 30.4621 7.4385 30.6537 7.27098 30.6609C6.84756 30.6809 6.38784 30.5597 5.93618 30.5915C5.83725 30.5986 5.9399 30.9335 5.7064 30.7338C5.68987 30.7202 5.61832 30.4713 5.54339 30.4044C5.49086 30.3577 5.31564 30.4284 5.25055 30.3332C5.18601 30.2366 5.3358 30.1477 5.26905 29.9893C5.20329 29.8288 4.99848 29.8732 5.02151 29.5575ZM33.0941 37.6757C33.2822 37.839 33.31 37.2409 33.1066 37.384C33.0967 37.3916 33.0844 37.6677 33.0941 37.6757ZM10.339 37.7702C10.5849 38.034 10.7531 37.6461 10.5797 37.4423C10.4062 37.2388 10.2641 37.6902 10.339 37.7702ZM8.24898 37.3347C8.32128 37.6619 8.83489 36.9836 8.56754 36.9903C8.55267 36.9904 8.24621 37.3164 8.24898 37.3347ZM7.51722 29.6708C7.50856 29.6714 7.47448 29.8073 7.48205 29.8121C7.65556 29.9163 7.72129 29.6541 7.51722 29.6708ZM7.1319 35.4404C7.01691 35.5308 7.17566 35.7602 7.30631 35.6417C7.40962 35.5554 7.27193 35.3393 7.1319 35.4404ZM42.9049 38.3141C42.9079 38.3231 43.0169 38.3311 43.0147 38.2807C43.0073 38.1184 42.8556 38.1642 42.9049 38.3141ZM7.12092 31.1469C7.08899 31.7822 6.38829 32.1674 6.46736 31.4755C6.48166 31.3502 6.6908 31.7456 6.75398 31.5861C6.86907 31.2943 6.42911 31.1005 6.66487 30.8028C6.70802 30.7489 7.1243 31.1106 7.1219 31.148C7.12157 31.1476 7.12124 31.1472 7.12092 31.1469ZM33.2024 38.3942C33.2062 38.4021 33.3571 38.4096 33.3608 38.4018C33.4425 38.2119 33.1384 38.1967 33.2024 38.3942ZM46.7147 34.2543C46.7315 34.2459 46.7473 33.8957 46.7318 33.8842C46.4212 33.7015 46.3884 34.4097 46.7147 34.2543ZM23.0371 38.832C22.8724 39.023 22.6754 39.0455 22.5441 38.8056C22.7077 38.8183 22.8725 38.8202 23.0371 38.832Z" fill="#161716"/>
<path d="M11.1642 38.4697C11.2163 38.5683 11.1606 38.6976 11.0842 38.7958C11.0604 38.8266 10.9544 38.811 10.9333 38.8323C10.8921 38.8738 10.944 38.9126 10.8949 38.9536C10.8782 38.9672 10.7102 38.9503 10.6965 38.9646C10.6222 39.0428 10.665 39.1168 10.6293 39.196C10.4532 39.5863 10.3902 39.9699 10.3136 40.365C10.2886 40.4953 10.1362 40.6536 10.2028 40.7881C10.2107 40.8039 10.3581 40.7945 10.3703 40.7975C10.5563 40.8443 10.2587 40.8288 10.2192 40.8594C10.0631 40.9808 10.0495 41.1159 10.1064 41.2328C10.131 41.2825 10.4238 41.2327 10.2594 41.2827C10.2483 41.2862 10.0918 41.2736 10.0751 41.2872C10.0376 41.3181 10.0656 41.3768 10.0532 41.4008C10.0285 41.447 10.03 41.4546 10.0282 41.4983C10.0244 41.5581 9.94664 41.6291 9.98211 41.6932C9.99014 41.7069 10.1506 41.6888 10.1779 41.7106C10.2052 41.7324 10.1916 41.7902 10.1537 41.8097C10.1159 41.8291 9.98977 41.8208 9.96087 41.8243C9.71687 41.8526 10.0548 41.9195 10.0632 41.9281C10.2056 42.0848 10.0131 42.2192 10.0136 42.3664C10.0139 42.4037 10.0212 42.4419 10.0304 42.4802C10.0489 42.5145 10.0776 42.5436 10.0761 42.5733C10.0726 42.6248 10.0018 42.6971 10.038 42.748C10.0415 42.7529 10.214 42.6763 10.2181 42.6807C10.2619 42.7271 10.2646 42.7737 10.2152 42.9113C10.2106 42.9256 10.0796 43.0275 10.0685 43.0495C10.053 43.0823 10.032 43.1256 10.0187 43.1662C9.97439 43.2893 10.0227 43.3946 10.3558 42.963C10.3621 43.0022 10.3727 43.0434 10.3338 43.1871C10.3102 43.2802 10.2087 43.4312 10.2718 43.3764C10.2855 43.364 10.3463 43.2179 10.3604 43.2093C10.4168 43.1722 10.436 43.2344 10.4934 43.1666C10.5049 43.1524 10.5437 43.0161 10.5524 42.9921C10.6183 42.7965 10.5477 43.1306 10.5519 43.1569C10.5566 43.3475 10.6144 43.2824 10.6569 43.2893C10.6672 43.291 10.6662 43.1004 10.6747 43.0951C10.6849 43.089 10.6948 43.0852 10.7047 43.084C10.7816 43.0806 10.8592 43.1055 10.9336 43.1693C10.9555 43.1886 10.9354 43.3506 10.9458 43.3681C10.9919 43.4432 11.0022 43.1372 11.0464 43.2033C11.0557 43.2168 11.0505 43.3555 11.0522 43.3708C11.0788 43.6099 11.1019 43.2711 11.1087 43.2636C11.1953 43.1614 11.2507 43.5151 11.3344 43.465C11.3444 43.4586 11.3218 43.2831 11.3499 43.276C11.5374 43.2276 11.7356 43.2758 11.9211 43.4162C11.9499 43.4378 11.9293 43.5696 11.9312 43.5858C11.9607 43.8398 11.9799 43.4995 11.9893 43.4867C12.0635 43.3945 12.1328 43.6798 12.1832 43.2746C12.4974 43.4152 12.8102 43.1876 13.1219 43.5507C13.1258 43.5549 13.1187 43.7225 13.1266 43.7301C13.2218 43.8242 13.2036 43.5638 13.2665 43.2453C13.2824 43.1653 13.3307 43.5498 13.3349 43.578C13.3505 43.6819 13.3344 43.9312 13.3396 43.9513C13.3827 44.1093 13.3757 43.2848 13.4338 43.2846C13.4356 43.286 13.428 43.4377 13.4329 43.4528C13.448 43.5002 13.4631 43.4399 13.4779 43.4921C13.5119 43.613 13.524 44.0136 13.5758 43.7804C13.5824 43.7502 13.5724 43.2825 13.6243 43.3046C13.645 43.3138 13.7366 43.3058 13.7623 43.3361C13.788 43.3664 13.7704 43.5171 13.7722 43.5236C13.8413 43.7229 13.8151 43.8055 13.8497 44.1005C13.8843 44.3944 13.8747 43.6934 13.8888 43.6151C13.903 43.5371 13.9537 43.7015 13.9661 43.7587C13.9786 43.8159 13.963 43.9116 13.9741 43.944C14.0475 44.1554 14.0063 43.596 14.0305 43.4848C14.0875 43.2213 14.1319 43.7412 14.1841 43.7921C14.1982 43.8059 14.1867 43.6875 14.1992 43.6764C14.249 43.6341 14.279 43.7964 14.3356 43.6476C14.3449 43.6234 14.3907 43.3108 14.4203 43.5402C14.4245 43.5733 14.4126 43.7028 14.4338 43.7318C14.4655 43.7754 14.5227 43.8037 14.5567 43.7604C14.5819 43.7284 14.5531 43.5149 14.5847 43.5812C14.5988 43.6108 14.5727 43.7357 14.5992 43.7809C14.6255 43.8261 14.6927 43.8206 14.7183 43.8163C14.7439 43.8119 14.7299 43.65 14.7319 43.6391C14.7444 43.5766 14.7935 43.4985 14.7978 43.4987C14.959 43.4841 15.111 43.6289 15.2651 43.6695C15.3078 43.684 15.3529 43.6828 15.3935 43.6545C15.4056 43.6463 15.3775 43.4776 15.3792 43.4746C15.4082 43.3989 15.433 43.8535 15.4921 43.9987C15.4362 43.6566 15.4652 43.7161 15.4903 43.6727C15.502 43.6515 15.4677 43.5215 15.4665 43.5077C15.4443 43.3044 15.5109 43.559 15.5286 43.6102C15.5896 43.7994 15.5495 43.5681 15.5928 43.6935C15.6389 43.8171 15.6612 44.0131 15.699 44C15.6738 43.8781 15.5631 43.5727 15.5694 43.5162C15.579 43.309 15.7926 43.4899 15.8751 43.469C15.9473 43.4548 15.9513 43.4224 16.0109 43.4332C16.1206 43.4488 15.9467 43.2798 15.9001 43.1741C15.85 43.0703 16.247 43.509 16.3397 43.5965C16.4342 43.682 16.3496 43.5817 16.4063 43.6238C16.41 43.6265 16.4137 43.6294 16.4172 43.6324C16.4369 43.6486 16.455 43.6683 16.4716 43.6868C16.4875 43.7043 16.5022 43.7206 16.516 43.7311C16.5262 43.7388 16.5359 43.7434 16.5454 43.743C16.5861 43.7397 16.47 43.5309 16.3724 43.4398C16.1691 43.2439 15.9305 43.0686 16.0362 43.1037C16.0427 43.1055 16.1581 43.2103 16.177 43.2119C16.3255 43.2181 16.3864 43.1389 16.5249 43.096C16.5444 43.0897 16.6946 43.1768 16.7081 43.1732C16.8498 43.1307 16.5703 43.0382 16.2842 42.8819C16.681 43.0506 16.9383 43.1228 16.9683 43.0417C16.9852 42.9948 16.8026 42.9465 16.6825 42.8841C16.646 42.8662 16.7787 42.8712 16.6941 42.8437C16.4169 42.7575 16.0975 42.7008 16.2334 42.6849C16.2399 42.6839 16.3935 42.7241 16.4046 42.7179C16.4772 42.6747 16.1792 42.6173 16.1475 42.5716C16.1308 42.5471 16.2087 42.5183 16.2702 42.4802C16.301 42.452 16.3282 42.425 16.3383 42.4022C16.8234 42.4037 16.7123 42.3392 16.3778 42.313C16.3915 42.2687 16.3726 42.2209 16.4188 42.1781C16.4346 42.1633 16.575 42.173 16.5902 42.1711C16.8283 42.1426 16.5029 42.1234 16.4901 42.1138C16.3661 42.0102 16.6127 41.9257 16.3717 41.8268C16.363 41.8233 16.0261 41.8176 16.2721 41.7911C16.2891 41.7894 16.4424 41.8221 16.4542 41.7756C16.4661 41.729 16.6468 41.6413 16.4906 41.5767C16.453 41.561 16.1795 41.5215 16.3932 41.4898C16.4222 41.4855 16.5189 41.4902 16.5726 41.4841C16.744 41.4643 16.4034 41.4535 16.6928 41.4303C16.9821 41.4072 17.1988 41.3589 16.9992 41.2938C16.9933 41.2917 16.7234 41.2763 16.7277 41.2558C16.7347 41.223 16.7909 41.1766 16.7892 41.1425C16.7883 41.1261 16.6206 41.1366 16.6176 41.1337C16.5236 41.0238 16.6731 40.9455 16.7379 40.8277C16.7501 40.8061 16.5216 40.7441 16.7023 40.7022C16.9001 40.6563 17.723 40.7035 17.527 40.598C17.4486 40.5554 16.4045 40.5016 16.9454 40.4251C16.8114 40.2768 17.0882 40.1396 16.8969 39.9909C16.8884 39.9842 16.597 39.963 16.601 39.9473C16.6074 39.924 16.7436 39.9111 16.7526 39.8945C16.7936 39.8246 16.6771 39.7607 16.6952 39.6934C16.7018 39.6678 16.8426 39.6767 16.8505 39.6462C16.8582 39.6158 16.6728 39.5954 16.7623 39.5541C16.8306 39.523 17.2096 39.4918 17.2538 39.4504C16.8799 39.4488 16.8876 39.4204 16.7889 39.3698C16.7698 39.3601 16.6397 39.3705 16.6239 39.3659C16.5568 39.3472 16.6647 39.3299 16.5917 39.3122C16.5741 39.3078 16.4465 39.3076 16.4249 39.3041C16.2369 39.2741 16.5241 39.2246 16.5741 39.2161C16.764 39.1835 16.598 39.1683 16.6727 39.1433C16.7475 39.1184 16.841 39.1557 16.8864 39.1266C16.9802 39.0662 16.9596 38.9886 16.9655 38.9273C16.967 38.9028 16.7966 38.9195 16.7929 38.916C16.7496 38.8654 16.9309 38.8142 16.5914 38.7862C17.4692 38.7511 16.5063 38.7557 16.682 38.6833C16.6962 38.6776 17.1113 38.6704 17.1722 38.6923C17.2331 38.7141 17.1034 38.7473 17.1984 38.7777C17.2207 38.7848 17.6096 38.826 17.6332 38.8316C17.8173 38.8756 17.197 38.8819 17.163 38.8842C16.7953 38.9106 17.2143 38.9609 17.2433 38.9741C17.376 39.0347 17.2887 39.0862 17.3834 39.1369C17.4446 39.1701 17.8509 39.1733 17.8385 39.1993C17.7974 39.2859 17.2306 39.3161 17.722 39.3976C17.8269 39.4151 18.271 39.3977 17.9218 39.4604C17.8997 39.4643 17.5803 39.5108 17.7824 39.5377C17.8078 39.5411 17.9373 39.541 17.9481 39.5454C18.0184 39.5753 17.9153 39.5952 17.9647 39.6277C18.0141 39.6601 18.0877 39.6992 18.0438 39.7363C18.0176 39.7587 17.7764 39.7874 17.7174 39.7981C17.5473 39.8283 17.8262 39.8607 17.6202 39.8794C17.4133 39.8983 17.0989 39.8614 16.9652 39.9109C17.3015 39.9128 17.6466 39.917 17.9847 39.9199C17.9729 40.0284 17.8642 40.1352 17.879 40.2441C17.8812 40.2576 18.062 40.2437 18.069 40.2582C18.0977 40.3193 17.9688 40.3726 18.0201 40.4359C18.0606 40.4849 18.252 40.5386 18.3002 40.5899C17.9154 40.6212 18.046 40.6972 18.0109 40.7525C17.9987 40.7718 17.896 40.7705 17.8624 40.7843C17.7384 40.8362 18.0785 40.8119 18.132 40.8261C18.3603 40.8872 17.5907 40.8924 17.6097 40.9644C17.6105 40.9682 18.0207 41.0148 18.0463 41.0212C18.2128 41.062 17.9035 41.028 17.8732 41.0535C17.8178 41.1001 17.7198 41.1325 17.84 41.1872C17.8756 41.2032 18.1312 41.2414 17.9335 41.2724C17.9076 41.2765 17.772 41.2742 17.764 41.2775C17.6317 41.3369 18.0577 41.3384 18.202 41.3724C18.3463 41.4063 18.0522 41.4587 17.9674 41.4693C17.7481 41.4972 17.8737 41.448 17.8522 41.4465C17.5961 41.4287 17.6402 41.4669 17.6185 41.4961C17.2008 41.5004 17.2259 41.5412 17.5978 41.5264C17.6384 41.5247 17.5994 41.502 17.6185 41.4961C18.0284 41.5218 18.0809 41.5666 17.6979 41.6162C17.5184 41.6394 17.3091 41.6175 17.3856 41.688C17.4202 41.72 17.7078 41.7076 17.7863 41.7358C17.9652 41.8003 17.6969 41.8841 17.7391 41.9506C17.7545 41.9748 17.9119 41.9513 17.9279 41.9678C17.9706 42.0115 17.8524 42.0501 17.913 42.0941C17.9186 42.0981 18.0835 42.0883 18.0856 42.102C18.1047 42.2056 17.9991 42.2959 17.9962 42.4041C17.9957 42.4247 18.0095 42.4517 18.0253 42.4802C18.0498 42.5594 18.0743 42.6485 18.0582 42.7081C18.0137 42.8849 17.7404 43.0347 17.7602 43.1758C17.7715 43.2716 17.9339 43.3013 18.0282 43.3759C18.2088 43.5284 17.7881 43.5315 17.7272 43.5184C17.7255 43.5178 17.7187 43.4312 17.6248 43.4376C17.4531 43.3919 17.727 43.5168 17.7272 43.5184C17.6873 43.5155 17.5892 43.6392 17.6021 43.6802C17.6098 43.703 17.7528 43.7665 17.7538 43.7775C17.7758 44.039 17.6664 44.2713 17.457 44.3989C17.4519 44.3998 17.3244 44.2803 17.3145 44.2836C17.239 44.3067 17.2332 44.3725 17.2426 44.4577C17.251 44.5322 17.2715 44.6209 17.2715 44.7009C17.2712 44.8722 17.1612 44.9047 16.9312 44.7022C16.8887 44.7819 16.717 44.7372 16.6233 44.6996C16.5302 44.662 16.6924 44.9603 16.6901 44.9695C16.6274 45.2514 16.429 45.1296 16.2419 45.1667C16.1511 45.1852 15.9906 45.284 15.8973 45.3413C15.8236 45.388 15.7618 45.3181 15.6965 45.3796C15.6875 45.3878 15.7198 45.5361 15.7176 45.5423C15.6543 45.7342 15.6476 45.3612 15.6222 45.2979C15.5318 45.0666 15.4941 44.9426 15.4079 45.0611C15.3912 45.0882 15.3403 45.6237 15.2878 45.6551C15.2786 45.661 15.2712 45.6618 15.2651 45.6592C15.2482 45.6437 15.2525 45.5105 15.2255 45.5499C15.2228 45.5537 15.2234 45.6716 15.2038 45.6664C15.1131 45.6438 15.0143 45.5752 14.92 45.5871C14.9071 45.5882 14.9236 45.7752 14.905 45.7799C14.8178 45.8021 14.7221 45.7952 14.6371 45.7077C14.6162 45.6855 14.6293 45.5546 14.6247 45.5158C14.5968 45.2806 14.5573 45.6223 14.5508 45.6288C14.3951 45.793 14.2759 45.4838 14.1173 45.631C14.1086 45.6396 14.0422 46.006 14.0125 45.6918C14.0105 45.6709 13.9811 45.3495 13.9552 45.5692C13.9536 45.583 13.9718 45.7485 13.9399 45.7316C13.908 45.7148 13.8567 45.8253 13.8128 45.6435C13.7989 45.5862 13.7661 45.2656 13.7247 45.5211C13.722 45.539 13.658 46.1169 13.6352 45.7182C13.6315 45.6525 13.6354 45.2306 13.5859 45.4469C13.5765 45.4889 13.5936 45.583 13.5687 45.6417C13.5306 45.7323 13.4801 45.6193 13.4332 45.8073C13.425 45.8405 13.3902 46.1269 13.3623 45.9096C13.358 45.8755 13.3663 45.7347 13.3515 45.7189C13.2814 45.6433 13.208 45.7375 13.1369 45.64C13.1116 45.6058 13.1245 45.3781 13.0983 45.317C13.072 45.256 13.019 45.1974 12.9915 45.3014C12.964 45.4055 12.9941 45.7685 12.9529 45.7975C12.7737 45.9236 12.5963 45.7107 12.4174 45.6796C12.3909 45.6749 12.4129 45.8048 12.3738 45.8073C12.2296 45.8169 11.9808 45.9387 11.8557 45.6627C11.7555 45.4417 11.8816 45.2734 11.805 45.1835C11.7681 45.1406 11.7281 45.5625 11.7192 45.5758C11.632 45.7108 11.5715 45.5239 11.493 45.5812C11.4768 45.5931 11.4927 45.7641 11.4789 45.7724C11.4319 45.802 11.3824 45.7257 11.3374 45.7396C11.3172 45.7463 11.3209 45.8769 11.3023 45.8668C11.2579 45.8442 11.2186 45.7893 11.1753 45.6669C11.1713 45.6557 11.1979 45.4933 11.1651 45.4872C11.1118 45.4779 11.0458 45.3571 10.9846 45.4818C10.9664 45.5194 10.9657 45.8179 10.9266 45.6117C10.9184 45.5687 10.9289 45.2102 10.8834 45.5199C10.8758 45.5714 10.7993 45.9892 10.7618 45.7199C10.752 45.649 10.7267 45.3557 10.7049 45.4018C10.7048 45.4019 10.7047 45.4021 10.7047 45.4024C10.7037 45.4054 10.704 45.4159 10.7047 45.4305C10.7055 45.4616 10.7071 45.5112 10.7047 45.546C10.7019 45.5658 10.6964 45.5808 10.6862 45.5851C10.5546 45.6366 10.4173 45.6102 10.2753 45.6415C10.2365 45.65 10.2697 45.8223 10.2104 45.8291C10.0453 45.848 9.8541 45.761 9.72352 45.6654C9.67527 45.63 9.75424 45.5106 9.75453 45.4951C9.7707 45.245 9.63339 45.5445 9.60473 45.5547C9.43674 45.6159 9.39898 45.432 9.27262 45.4161C9.23716 45.4108 9.1896 45.5618 9.17724 45.5713C9.04922 45.6598 9.22501 45.4335 9.19917 45.3854C9.12886 45.2503 9.00896 45.1934 8.89425 45.1394C8.85196 45.1195 8.79242 45.299 8.75426 45.2783C8.57728 45.1847 8.41839 45.0452 8.31427 44.8706C8.28349 44.8192 8.25747 44.7648 8.23702 44.7081C8.2205 44.661 8.34434 44.5897 8.36191 44.5614C8.48952 44.3693 8.20107 44.4977 8.16289 44.4959C7.99649 44.4986 8.07122 44.3911 8.00279 44.3328C7.65422 44.0398 7.51472 43.4737 7.50004 43.07C7.48747 42.8563 7.5096 42.6621 7.54226 42.4802C7.59113 42.3497 7.63047 42.2247 7.6098 42.084C7.60778 42.069 7.42179 42.0841 7.41766 42.0712C7.37282 41.905 7.4455 41.7413 7.39178 41.5746C7.3877 41.561 7.21138 41.5807 7.19891 41.5587C7.17209 41.5137 7.18167 41.4567 7.23797 41.4112C7.2651 41.389 7.4164 41.4188 7.44061 41.3964C7.49733 41.3444 7.50989 41.2886 7.48163 41.2352C7.46921 41.2125 7.28888 41.2468 7.2868 41.2172C7.26891 41.0159 7.23785 40.8181 7.47137 40.6146C7.48741 40.6007 7.85391 40.5884 7.78363 40.5588C7.68191 40.5565 7.56227 40.5567 7.45355 40.5557C7.39499 40.2626 7.52204 39.9725 7.54168 39.6785C7.54247 39.6661 7.34828 39.6875 7.34881 39.6635C7.35168 39.5247 7.29789 39.3898 7.4909 39.2478C7.50978 39.2337 7.85141 39.2409 7.79974 39.1994C7.79031 39.192 7.74475 39.1295 7.67059 39.1133C7.6594 39.1111 7.49994 39.1225 7.4953 39.1024C7.47108 38.9852 7.50749 38.8625 7.60492 38.7455C7.62095 38.7267 7.79076 38.7468 7.80365 38.7333C7.89379 38.638 7.7647 38.5343 7.91888 38.4431C8.02269 38.3822 8.31622 38.4047 8.60516 38.3723C8.64592 38.3677 8.65238 38.33 8.82049 38.328C9.24321 38.323 9.70609 38.3413 10.1567 38.3338C10.2537 38.3322 10.1492 38.2816 10.3837 38.3116C10.3994 38.3137 10.4773 38.3503 10.5568 38.3594C10.6118 38.3657 10.7828 38.3543 10.8532 38.3672C10.9235 38.38 10.7802 38.3941 10.863 38.4154C10.9467 38.4366 11.1412 38.4273 11.1642 38.4697ZM16.2239 44.5072C16.1124 44.379 16.3488 44.9286 16.3453 44.7726C16.3448 44.7643 16.2296 44.5134 16.2239 44.5072ZM17.413 40.1346C17.1491 40.1785 17.5371 40.2085 17.7408 40.1775C17.9444 40.1466 17.4929 40.1212 17.413 40.1346ZM17.2203 39.6795C17.0123 39.7308 17.8606 39.7388 17.6891 39.6839C17.6794 39.6807 17.2324 39.6765 17.2203 39.6795ZM8.68743 38.5226C8.69538 38.5222 8.70312 38.495 8.69524 38.4944C8.50526 38.4799 8.48991 38.5342 8.68743 38.5226ZM17.0106 39.2279C16.8959 39.2439 17.0283 39.29 17.171 39.2701C17.2858 39.2541 17.1534 39.2079 17.0106 39.2279ZM14.1855 44.0841C14.1849 44.0752 14.1655 44.0672 14.1659 44.1176C14.1672 44.2799 14.1943 44.2341 14.1855 44.0841ZM17.0009 38.4603C16.9689 38.5737 16.2682 38.6425 16.3473 38.519C16.3616 38.4966 16.5707 38.5672 16.6339 38.5387C16.749 38.4866 16.3091 38.452 16.5448 38.3989C16.588 38.3892 17.0042 38.4538 17.0018 38.4605C17.0015 38.4604 17.0012 38.4604 17.0009 38.4603ZM15.8991 43.8659C15.8952 43.8591 15.8677 43.8631 15.8702 43.8705C15.9311 44.0513 15.9931 44.0404 15.8991 43.8659ZM13.0498 43.7143C13.0483 43.6974 12.9858 43.6816 12.9837 43.6972C12.9511 44.0077 13.0775 44.0405 13.0498 43.7143ZM16.3512 42.4012C16.1602 42.3718 16.1377 42.3366 16.3776 42.3132C16.3648 42.3424 16.363 42.3718 16.3512 42.4012ZM38.5266 38.5655C38.5787 38.6641 38.5229 38.7934 38.4465 38.8916C38.4228 38.9224 38.3167 38.9068 38.2956 38.928C38.2544 38.9696 38.3064 39.0083 38.2573 39.0494C38.2405 39.063 38.0725 39.0461 38.0588 39.0603C37.9846 39.1386 38.0273 39.2126 37.9916 39.2918C37.8155 39.6821 37.7525 40.0657 37.676 40.4608C37.6509 40.591 37.4985 40.7494 37.5651 40.8839C37.5731 40.8996 37.7205 40.8903 37.7326 40.8932C37.9186 40.9401 37.621 40.9245 37.5815 40.9551C37.4254 41.0766 37.4118 41.2117 37.4687 41.3285C37.4933 41.3783 37.7861 41.3284 37.6218 41.3785C37.6107 41.382 37.4541 41.3694 37.4374 41.383C37.3999 41.4139 37.4279 41.4726 37.4155 41.4966C37.3908 41.5428 37.3924 41.5504 37.3906 41.5941C37.3868 41.6538 37.309 41.7249 37.3444 41.789C37.3525 41.8026 37.5129 41.7845 37.5402 41.8063C37.5675 41.8282 37.5539 41.8859 37.5161 41.9054C37.4782 41.9249 37.3521 41.9166 37.3232 41.9201C37.0792 41.9484 37.4171 42.0152 37.4255 42.0238C37.5679 42.1806 37.3754 42.315 37.3759 42.4621C37.376 42.4681 37.3762 42.4742 37.3766 42.4802C37.3834 42.5302 37.445 42.5714 37.4455 42.6127C37.4453 42.6643 37.3792 42.741 37.4185 42.7894C37.4223 42.7942 37.5897 42.7068 37.594 42.711C37.6406 42.7545 37.6462 42.8008 37.6057 42.9413C37.6056 42.9414 37.6056 42.9415 37.6055 42.9417C37.6 42.9576 37.4775 43.066 37.468 43.0884C37.3989 43.2173 37.3385 43.5801 37.7492 42.984C37.7579 43.0228 37.7711 43.0632 37.7413 43.209C37.7237 43.3034 37.6319 43.4605 37.6914 43.4019C37.7043 43.3886 37.7558 43.239 37.7693 43.2295C37.8233 43.1889 37.8463 43.2498 37.8994 43.1786C37.9099 43.1636 37.94 43.0252 37.9472 43.0007C38.0007 42.8013 37.9513 43.1392 37.9571 43.1652C37.9732 43.3506 38.0254 43.2896 38.067 43.2905C38.069 43.2905 38.071 43.2906 38.0731 43.2907C38.0932 43.2918 38.0694 43.1016 38.0888 43.0959C38.1892 43.0686 38.2933 43.0849 38.3917 43.1693C38.4136 43.1886 38.3935 43.3506 38.4039 43.3681C38.45 43.4432 38.4603 43.1372 38.5045 43.2033C38.5138 43.2168 38.5085 43.3555 38.5102 43.3708C38.5369 43.6099 38.56 43.2711 38.5668 43.2636C38.6534 43.1614 38.7088 43.5151 38.7924 43.465C38.8024 43.4586 38.7799 43.2831 38.808 43.276C38.9954 43.2276 39.1937 43.2758 39.3792 43.4162C39.408 43.4378 39.3874 43.5696 39.3892 43.5858C39.4188 43.8398 39.438 43.4995 39.4474 43.4867C39.5216 43.3945 39.5909 43.6798 39.6413 43.2746C39.9555 43.4152 40.2683 43.1876 40.58 43.5507C40.5839 43.5549 40.5768 43.7225 40.5847 43.7301C40.6799 43.8242 40.6616 43.5638 40.7246 43.2453C40.7405 43.1653 40.7888 43.5498 40.793 43.578C40.8086 43.6819 40.7924 43.9312 40.7977 43.9513C40.8408 44.1093 40.8337 43.2848 40.8919 43.2846C40.8937 43.286 40.8861 43.4377 40.891 43.4528C40.9061 43.5002 40.9212 43.4399 40.936 43.4921C40.97 43.613 40.9821 44.0136 41.0339 43.7804C41.0405 43.7502 41.0305 43.2825 41.0824 43.3046C41.1031 43.3138 41.1947 43.3058 41.2204 43.3361C41.2461 43.3664 41.2284 43.5171 41.2303 43.5236C41.2994 43.7229 41.2732 43.8055 41.3078 44.1005C41.3424 44.3944 41.3328 43.6934 41.3469 43.6151C41.3611 43.5371 41.4117 43.7015 41.4242 43.7587C41.4366 43.8159 41.4211 43.9116 41.4322 43.944C41.5056 44.1554 41.4644 43.596 41.4886 43.4848C41.5456 43.2213 41.59 43.7412 41.6422 43.7921C41.6563 43.8059 41.6447 43.6875 41.6573 43.6764C41.7071 43.6341 41.7371 43.7964 41.7937 43.6476C41.803 43.6234 41.8488 43.3108 41.8784 43.5402C41.8826 43.5733 41.8707 43.7028 41.8919 43.7318C41.9236 43.7754 41.9807 43.8037 42.0148 43.7604C42.04 43.7284 42.0111 43.5149 42.0428 43.5812C42.0569 43.6108 42.0308 43.7357 42.0572 43.7809C42.0836 43.8261 42.1508 43.8206 42.1764 43.8163C42.2019 43.8119 42.188 43.65 42.19 43.6391C42.2025 43.5766 42.2515 43.4985 42.2559 43.4987C42.3836 43.4871 42.5056 43.5757 42.6274 43.6331C42.6925 43.674 42.7677 43.693 42.8294 43.6441C42.841 43.6351 42.8024 43.4685 42.8038 43.4654C42.8281 43.388 42.8815 43.8403 42.9496 43.9813C42.8723 43.6435 42.9049 43.701 42.9272 43.6561C42.9376 43.6343 42.8952 43.5066 42.8931 43.493C42.8581 43.2915 42.9407 43.5414 42.9615 43.5914C43.0343 43.7764 42.9797 43.548 43.0309 43.6705C43.0846 43.7909 43.1193 43.9851 43.1562 43.9696C43.1233 43.8496 42.9937 43.5518 42.9963 43.495C42.9929 43.2876 43.2175 43.4546 43.2985 43.4286C43.3696 43.4099 43.3716 43.3773 43.4317 43.3843C43.5163 43.3913 43.4279 43.3003 43.3588 43.2115C43.3374 43.1841 43.3177 43.1568 43.3049 43.1327C43.2484 43.0323 43.6722 43.4452 43.7701 43.5267C43.8699 43.606 43.7792 43.5112 43.8384 43.5497C43.8983 43.5874 43.9465 43.6637 43.9847 43.6599C44.0251 43.654 43.896 43.453 43.7929 43.3682C43.5777 43.1854 43.3285 43.0255 43.4362 43.0539C43.4428 43.0553 43.5646 43.1526 43.5835 43.153C43.7322 43.1499 43.7879 43.067 43.9235 43.0155C43.9426 43.0079 44.0979 43.0854 44.1111 43.081C44.2499 43.0297 43.9651 42.9549 43.6698 42.8169C44.0765 42.9603 44.3378 43.0162 44.3626 42.9334C44.3765 42.8854 44.1912 42.8488 44.0674 42.7941C44.0299 42.7785 44.1626 42.7751 44.0765 42.753C43.7944 42.6845 43.4721 42.648 43.6067 42.6235C43.6131 42.6221 43.7689 42.6525 43.7796 42.6457C43.8493 42.598 43.5484 42.5595 43.5138 42.5159C43.506 42.5055 43.5156 42.4939 43.5338 42.4802C43.5791 42.4233 43.6792 42.3552 43.7006 42.3065C44.1857 42.3079 44.0746 42.2434 43.7401 42.2173C43.7538 42.173 43.7349 42.1251 43.7812 42.0823C43.7969 42.0675 43.9374 42.0772 43.9525 42.0754C44.1906 42.0469 43.8652 42.0276 43.8524 42.018C43.7284 41.9144 43.9751 41.8299 43.734 41.731C43.7253 41.7275 43.3884 41.7218 43.6344 41.6954C43.6514 41.6937 43.8047 41.7263 43.8166 41.6798C43.8284 41.6333 44.0091 41.5455 43.8529 41.4809C43.8153 41.4653 43.5418 41.4257 43.7555 41.394C43.7845 41.3898 43.8812 41.3944 43.935 41.3883C44.1063 41.3685 43.7657 41.3578 44.0551 41.3346C44.3444 41.3114 44.5611 41.2631 44.3615 41.198C44.3557 41.1959 44.0857 41.1805 44.09 41.16C44.097 41.1273 44.1533 41.0808 44.1515 41.0467C44.1506 41.0303 43.9829 41.0408 43.9799 41.038C43.8859 40.928 44.0354 40.8497 44.1002 40.7319C44.1125 40.7103 43.8839 40.6483 44.0646 40.6065C44.2624 40.5606 45.0854 40.6077 44.8893 40.5022C44.8109 40.4597 43.7668 40.4058 44.3078 40.3293C44.1737 40.181 44.4506 40.0438 44.2592 39.8951C44.2507 39.8884 43.9593 39.8673 43.9633 39.8515C43.9697 39.8282 44.1059 39.8154 44.1149 39.7987C44.1559 39.7289 44.0394 39.6649 44.0575 39.5976C44.0641 39.572 44.2049 39.581 44.2128 39.5505C44.2205 39.52 44.0351 39.4997 44.1247 39.4584C44.1929 39.4272 44.5719 39.396 44.6161 39.3546C44.2423 39.353 44.25 39.3246 44.1513 39.2741C44.1321 39.2643 44.002 39.2748 43.9862 39.2702C43.9192 39.2515 44.027 39.2342 43.954 39.2164C43.9365 39.2121 43.8088 39.2119 43.7873 39.2083C43.5992 39.1783 43.8864 39.1288 43.9364 39.1203C44.1263 39.0878 43.9603 39.0726 44.0351 39.0476C44.1098 39.0226 44.2033 39.0599 44.2487 39.0308C44.3425 38.9704 44.3219 38.8928 44.3278 38.8315C44.3293 38.807 44.1589 38.8237 44.1552 38.8202C44.1119 38.7696 44.2932 38.7185 43.9538 38.6904C44.8315 38.6553 43.8686 38.6599 44.0443 38.5876C44.0585 38.5819 44.4736 38.5746 44.5346 38.5965C44.5954 38.6184 44.4657 38.6515 44.5607 38.6819C44.583 38.6891 44.9719 38.7302 44.9955 38.7359C45.1796 38.7798 44.5594 38.7861 44.5253 38.7884C44.1576 38.8148 44.5767 38.8651 44.6056 38.8784C44.7383 38.939 44.651 38.9904 44.7457 39.0411C44.8069 39.0743 45.2133 39.0775 45.2008 39.1036C45.1597 39.1901 44.5929 39.2203 45.0844 39.3018C45.1892 39.3193 45.6333 39.302 45.2841 39.3646C45.2621 39.3685 44.9426 39.4151 45.1447 39.4419C45.1701 39.4453 45.2996 39.4452 45.3104 39.4497C45.3808 39.4795 45.2777 39.4994 45.327 39.5319C45.3764 39.5644 45.45 39.6035 45.4061 39.6406C45.3799 39.6629 45.1388 39.6916 45.0797 39.7023C44.9097 39.7325 45.1885 39.7649 44.9826 39.7837C44.7756 39.8025 44.4613 39.7656 44.3275 39.8151C44.6638 39.817 45.0089 39.8212 45.3471 39.8241C45.3352 39.9327 45.2265 40.0394 45.2413 40.1483C45.2435 40.1618 45.4243 40.148 45.4313 40.1625C45.46 40.2235 45.3311 40.2768 45.3825 40.3401C45.4229 40.3891 45.6143 40.4429 45.6625 40.4941C45.2777 40.5254 45.4083 40.6015 45.3732 40.6567C45.361 40.676 45.2583 40.6747 45.2247 40.6885C45.1008 40.7404 45.4408 40.7161 45.4943 40.7303C45.7226 40.7914 44.953 40.7966 44.9721 40.8686C44.9728 40.8724 45.383 40.919 45.4086 40.9255C45.5752 40.9663 45.2658 40.9322 45.2355 40.9577C45.1801 41.0044 45.0821 41.0368 45.2023 41.0915C45.2379 41.1074 45.4936 41.1457 45.2958 41.1766C45.2699 41.1807 45.1343 41.1785 45.1264 41.1817C44.994 41.2411 45.4201 41.2427 45.5643 41.2766C45.7086 41.3105 45.4145 41.3629 45.3297 41.3736C45.1104 41.4015 45.236 41.3522 45.2145 41.3507C44.9584 41.3329 45.0025 41.3712 44.9809 41.4004C44.5631 41.4046 44.5882 41.4454 44.9601 41.4306C45.0007 41.429 44.9618 41.4062 44.9809 41.4004C45.3907 41.426 45.4432 41.4709 45.0602 41.5205C44.8807 41.5437 44.6714 41.5217 44.7479 41.5922C44.7825 41.6242 45.0702 41.6118 45.1486 41.6401C45.3275 41.7046 45.0592 41.7884 45.1015 41.8549C45.1168 41.879 45.2743 41.8555 45.2902 41.872C45.3329 41.9158 45.2148 41.9544 45.2753 41.9983C45.281 42.0023 45.4458 41.9926 45.4479 42.0062C45.467 42.1099 45.3615 42.2001 45.3585 42.3083C45.3574 42.3524 45.4219 42.4258 45.4312 42.4802C45.4329 42.4988 45.4325 42.5162 45.4294 42.5318C45.3961 42.711 45.1327 42.8777 45.1614 43.0173C45.1787 43.1122 45.3427 43.1317 45.4415 43.2002C45.6312 43.341 45.2116 43.3705 45.15 43.3613C45.1483 43.3608 45.136 43.2748 45.0427 43.2872C44.8684 43.2523 45.1497 43.3597 45.15 43.3613C45.1099 43.361 45.0199 43.4906 45.0354 43.5307C45.0444 43.553 45.1911 43.6073 45.1929 43.6182C45.2313 43.8778 45.1368 44.1165 44.9358 44.257C44.9308 44.2583 44.796 44.147 44.7863 44.151C44.6487 44.201 44.7598 44.3976 44.7696 44.5702C44.7708 44.5889 44.7705 44.6061 44.7688 44.6216C44.7548 44.7472 44.6459 44.7599 44.4302 44.5929C44.3927 44.6751 44.2186 44.6413 44.1227 44.6096C44.0274 44.578 44.208 44.8655 44.2063 44.8749C44.1615 45.1601 43.9557 45.0511 43.7714 45.0999C43.682 45.1241 43.528 45.2328 43.4385 45.2958C43.3679 45.347 43.3018 45.2812 43.2406 45.3467C43.2321 45.3555 43.2737 45.5014 43.2718 45.5078C43.2207 45.7033 43.1905 45.3314 43.1613 45.2698C43.0565 45.0447 43.011 44.9233 42.9325 45.047C42.9175 45.0751 42.9004 45.6127 42.8499 45.6474C42.7891 45.6909 42.8022 45.4989 42.7408 45.5479C42.7355 45.5518 42.741 45.6697 42.6997 45.6656C42.6758 45.6633 42.6517 45.66 42.6274 45.656C42.5465 45.6279 42.4605 45.5767 42.3781 45.5871C42.3652 45.5882 42.3817 45.7752 42.3631 45.7799C42.2759 45.8021 42.1802 45.7952 42.0952 45.7077C42.0742 45.6855 42.0874 45.5546 42.0828 45.5158C42.0549 45.2806 42.0154 45.6223 42.0089 45.6288C41.8532 45.793 41.734 45.4838 41.5754 45.631C41.5667 45.6396 41.5002 46.006 41.4706 45.6918C41.4685 45.6709 41.4392 45.3495 41.4133 45.5692C41.4116 45.583 41.4299 45.7485 41.398 45.7316C41.3661 45.7148 41.3148 45.8253 41.2709 45.6435C41.257 45.5862 41.2242 45.2656 41.1827 45.5211C41.18 45.539 41.1161 46.1169 41.0933 45.7182C41.0896 45.6525 41.0934 45.2306 41.044 45.4469C41.0346 45.4889 41.0517 45.583 41.0268 45.6417C40.9887 45.7323 40.9382 45.6193 40.8913 45.8073C40.8831 45.8405 40.8483 46.1269 40.8204 45.9096C40.816 45.8755 40.8243 45.7347 40.8096 45.7189C40.7395 45.6433 40.6661 45.7375 40.5949 45.64C40.5697 45.6058 40.5826 45.3781 40.5563 45.317C40.5301 45.256 40.4771 45.1974 40.4496 45.3014C40.4221 45.4055 40.4522 45.7685 40.4109 45.7975C40.2318 45.9236 40.0544 45.7107 39.8755 45.6796C39.849 45.6749 39.871 45.8048 39.8319 45.8073C39.6877 45.8169 39.4389 45.9387 39.3138 45.6627C39.2136 45.4417 39.3397 45.2734 39.2631 45.1835C39.2262 45.1406 39.1862 45.5625 39.1773 45.5758C39.0901 45.7108 39.0296 45.5239 38.9511 45.5812C38.9349 45.5931 38.9508 45.7641 38.937 45.7724C38.8899 45.802 38.8405 45.7257 38.7955 45.7396C38.7753 45.7463 38.779 45.8769 38.7604 45.8668C38.716 45.8442 38.6767 45.7893 38.6334 45.6669C38.6294 45.6557 38.656 45.4933 38.6232 45.4872C38.5699 45.4779 38.5039 45.3571 38.4427 45.4818C38.4245 45.5194 38.4238 45.8179 38.3847 45.6117C38.3765 45.5687 38.387 45.2102 38.3415 45.5199C38.3338 45.5714 38.2574 45.9892 38.2199 45.7199C38.21 45.649 38.1848 45.3557 38.1629 45.4018C38.16 45.4091 38.1719 45.5695 38.1537 45.5851C38.1253 45.6084 38.0963 45.618 38.067 45.6258C37.9916 45.6356 37.9155 45.64 37.8375 45.6623C37.7993 45.6732 37.8434 45.843 37.7846 45.8536C37.6211 45.8829 37.4247 45.808 37.2883 45.7209C37.2379 45.6885 37.3092 45.5645 37.3085 45.5489C37.3089 45.2983 37.1908 45.6059 37.1628 45.6178C36.999 45.6895 36.9497 45.5084 36.8226 45.5004C36.7869 45.4973 36.7489 45.6511 36.7372 45.6613C36.615 45.7577 36.7762 45.5208 36.7474 45.4744C36.6687 45.344 36.5455 45.2948 36.4276 45.2481C36.3842 45.231 36.336 45.4138 36.2967 45.3956C36.0602 45.2895 35.8495 45.1025 35.7445 44.859C35.725 44.8131 35.8441 44.7341 35.8599 44.7048C35.8671 44.6918 35.8728 44.6803 35.8771 44.6702C35.9411 44.5241 35.6926 44.6509 35.6572 44.652C35.4913 44.6651 35.5591 44.5531 35.4871 44.4993C35.1208 44.2288 34.9459 43.6725 34.9059 43.2706C34.8706 42.9798 34.901 42.7232 34.9382 42.4802C34.9692 42.3829 34.9877 42.2858 34.9721 42.1798C34.9701 42.1648 34.7841 42.1799 34.78 42.167C34.7351 42.0007 34.8078 41.837 34.7541 41.6704C34.75 41.6567 34.5737 41.6765 34.5612 41.6545C34.5344 41.6095 34.544 41.5525 34.6003 41.507C34.6274 41.4848 34.7787 41.5145 34.8029 41.4922C34.8597 41.4402 34.8722 41.3844 34.8439 41.331C34.8315 41.3082 34.6512 41.3425 34.6491 41.313C34.6312 41.1116 34.6002 40.9139 34.8337 40.7104C34.8497 40.6964 35.2162 40.6842 35.1459 40.6546C35.0442 40.6523 34.9246 40.6524 34.8159 40.6515C34.7573 40.3583 34.8844 40.0682 34.904 39.7743C34.9048 39.7619 34.7106 39.7833 34.7111 39.7593C34.714 39.6204 34.6602 39.4856 34.8532 39.3435C34.8721 39.3294 35.2137 39.3367 35.1621 39.2951C35.1526 39.2878 35.1071 39.2253 35.0329 39.2091C35.0217 39.2069 34.8623 39.2183 34.8576 39.1981C34.8334 39.081 34.8698 38.9583 34.9672 38.8413C34.9833 38.8224 35.1531 38.8425 35.166 38.8291C35.2561 38.7337 35.127 38.63 35.2812 38.5389C35.385 38.4779 35.6785 38.5005 35.9675 38.4681C36.0082 38.4635 36.0147 38.4258 36.1828 38.4238C36.6055 38.4188 37.0684 38.4371 37.519 38.4296C37.616 38.428 37.5115 38.3774 37.746 38.4074C37.7617 38.4094 37.8396 38.4461 37.9191 38.4551C37.9741 38.4614 38.1451 38.4501 38.2155 38.4629C38.2859 38.4758 38.1426 38.4899 38.2253 38.5111C38.309 38.5324 38.5035 38.523 38.5266 38.5655ZM43.7119 44.4429C43.5926 44.3219 43.8631 44.8556 43.8498 44.7C43.8488 44.6918 43.718 44.4486 43.7119 44.4429ZM44.7753 40.0388C44.5114 40.0827 44.8994 40.1127 45.1032 40.0818C45.3067 40.0508 44.8553 40.0254 44.7753 40.0388ZM44.5827 39.5837C44.3746 39.635 45.2229 39.6431 45.0514 39.5881C45.0417 39.5849 44.5947 39.5807 44.5827 39.5837ZM36.0498 38.6184C36.0577 38.6179 36.0654 38.5908 36.0576 38.5901C35.8676 38.5757 35.8522 38.63 36.0498 38.6184ZM44.3729 39.1321C44.2582 39.1481 44.3907 39.1942 44.5333 39.1743C44.6481 39.1583 44.5157 39.1121 44.3729 39.1321ZM41.6436 44.0841C41.643 44.0752 41.6236 44.0672 41.624 44.1176C41.6253 44.2799 41.6524 44.2341 41.6436 44.0841ZM44.3632 38.3645C44.3312 38.4779 43.6306 38.5467 43.7096 38.4232C43.7239 38.4008 43.9331 38.4714 43.9962 38.4429C44.1113 38.3908 43.6714 38.3563 43.9071 38.3031C43.9503 38.2935 44.3666 38.3581 44.3642 38.3647C44.3638 38.3647 44.3635 38.3646 44.3632 38.3645ZM43.3474 43.8232C43.343 43.8167 43.3159 43.8224 43.3189 43.8297C43.391 44.0062 43.4522 43.9914 43.3474 43.8232ZM40.5079 43.7143C40.5064 43.6974 40.4439 43.6816 40.4418 43.6972C40.4092 44.0077 40.5356 44.0405 40.5079 43.7143ZM43.7135 42.3054C43.5225 42.276 43.5 42.2408 43.7399 42.2174C43.7272 42.2466 43.7253 42.276 43.7135 42.3054ZM39.7809 25.0491C39.6437 24.8406 39.5794 24.5222 39.5623 24.2678C39.5567 24.1882 39.6695 24.1856 39.6701 24.1289C39.6712 24.0181 39.5879 23.9476 39.5967 23.8351C39.6001 23.7976 39.7718 23.7757 39.7718 23.7377C39.7706 23.5304 39.6642 23.3752 39.6263 23.1795C39.4394 22.2152 39.1532 21.3074 38.8692 20.3683C38.7755 20.0587 38.7751 19.6381 38.592 19.3519C38.5705 19.3186 38.4416 19.3937 38.4276 19.3912C38.2121 19.3506 38.5034 19.2785 38.5127 19.1936C38.549 18.8567 38.4402 18.5402 38.282 18.2912C38.2144 18.1855 37.9864 18.4068 38.0945 18.2316C38.1017 18.2196 38.2589 18.1918 38.2622 18.1543C38.2694 18.0693 38.1906 17.9441 38.1806 17.8843C38.162 17.7688 38.1537 17.7517 38.1161 17.6503C38.1147 17.6466 38.1134 17.6428 38.1121 17.639C38.0741 17.5204 38.0815 17.3543 37.9917 17.2477C37.9717 17.2249 37.8439 17.3291 37.7995 17.3003C37.7555 17.2716 37.7131 17.1601 37.7267 17.1064C37.7405 17.0527 37.8593 17.0071 37.8811 16.9868C38.0646 16.813 37.697 16.8542 37.6816 16.8458C37.3902 16.6412 37.3809 16.3066 37.1695 16.0659C37.0102 15.8863 36.7843 15.7538 36.6201 15.6017C36.4708 15.4625 36.3581 15.3105 36.2087 15.1866C36.1625 15.1483 36.1129 15.113 36.0581 15.0825C36.0339 15.0688 35.9604 15.2455 35.9314 15.2297C35.6231 15.0631 35.3297 14.8954 35.0408 14.6525C35.0116 14.6279 35.1127 14.4886 35.086 14.4545C34.9305 14.2485 34.6231 13.8265 34.3392 14.5056C34.2019 14.4462 34.0332 14.3878 33.9171 14.2267C33.8412 14.123 33.9484 13.9539 33.8287 14.0178C33.802 14.0322 33.8172 14.1927 33.7794 14.2027C33.622 14.2445 33.4574 14.1837 33.3055 14.2634C33.2748 14.28 33.2819 14.4217 33.2733 14.4471C33.2606 14.4838 33.2468 14.5031 33.2323 14.51C33.1517 14.5419 33.0535 14.3077 33.0286 14.2873C32.798 14.1023 32.6296 14.1751 32.4148 14.1706C32.365 14.1695 32.4239 14.3597 32.3759 14.3654C32.1272 14.3927 31.8695 14.3763 31.6259 14.2919C31.5718 14.2727 31.6216 14.1107 31.5957 14.0932C31.4815 14.0181 31.4562 14.3241 31.3467 14.258C31.3237 14.2444 31.3367 14.1057 31.3324 14.0905C31.2666 13.8514 31.2093 14.1902 31.1924 14.1977C30.978 14.2999 30.8409 13.9462 30.6338 13.9963C30.609 14.0026 30.6649 14.1781 30.5952 14.1852C30.1312 14.2337 29.6405 14.1855 29.1811 14.0451C29.1097 14.0235 29.1607 13.8917 29.1562 13.8754C29.083 13.6215 29.0356 13.9617 29.0123 13.9745C28.8286 14.0668 28.657 13.7814 28.5322 14.1867C27.7542 14.0461 26.9798 14.2736 26.2082 13.9106C26.1984 13.9064 26.216 13.7388 26.1964 13.7311C25.9607 13.637 26.006 13.8975 25.8501 14.216C25.8108 14.296 25.6913 13.9114 25.6807 13.8832C25.6422 13.7794 25.6821 13.5301 25.6692 13.5099C25.5625 13.352 25.5799 14.1764 25.4359 14.1767C25.4314 14.1753 25.4503 14.0236 25.4382 14.0085C25.4007 13.9611 25.3635 14.0214 25.3267 13.9692C25.2426 13.8483 25.2127 13.4477 25.0843 13.6808C25.068 13.7111 25.0928 14.1788 24.9643 14.1567C24.913 14.1475 24.6862 14.1555 24.6226 14.1252C24.5591 14.0949 24.6027 13.9442 24.5982 13.9377C24.4271 13.7384 24.4919 13.6558 24.4062 13.3608C24.3205 13.0669 24.3443 13.7679 24.3093 13.8461C24.2743 13.9241 24.1489 13.7597 24.118 13.7026C24.0872 13.6454 24.1257 13.5496 24.0983 13.5173C23.9166 13.3058 24.0185 13.8652 23.9587 13.9765C23.8175 14.2399 23.7076 13.7201 23.5784 13.6691C23.5435 13.6554 23.572 13.7738 23.5409 13.7848C23.4176 13.8271 23.3434 13.6649 23.2032 13.8136C23.1802 13.8379 23.0668 14.1505 22.9935 13.9211C22.9831 13.888 23.0126 13.7584 22.96 13.7294C22.8816 13.6859 22.7401 13.6576 22.6558 13.7009C22.5935 13.7329 22.6649 13.9464 22.5865 13.8801C22.5516 13.8504 22.6162 13.7256 22.5507 13.6803C22.4856 13.6352 22.3191 13.6406 22.2557 13.6449C22.1925 13.6494 22.2271 13.8113 22.222 13.8222C22.1911 13.8847 22.0697 13.9628 22.059 13.9626C21.518 13.9823 21.0191 13.7094 20.4923 13.7997C20.451 13.8066 20.4785 13.9773 20.4722 13.9802C20.3307 14.0517 20.4423 13.5977 20.3434 13.4457C20.3577 13.7922 20.2993 13.7295 20.1997 13.7675C20.1516 13.7861 20.1778 13.9203 20.1734 13.934C20.1448 14.0158 20.1197 14.0224 20.0991 13.9975C20.0711 13.9603 20.0509 13.8532 20.0433 13.821C19.9959 13.6234 19.9513 13.8585 19.9174 13.7271C19.8817 13.5969 19.9492 13.3995 19.853 13.4055C19.8321 13.5305 19.9123 13.8516 19.8467 13.907C19.6082 14.1114 19.1211 13.922 18.9057 13.9452C18.6976 13.9637 18.639 14.0047 18.5101 13.9941C18.2759 13.9791 18.4226 14.1866 18.3338 14.3315C18.2477 14.4777 18.1094 13.8997 18.0485 13.7861C17.9863 13.6733 18.0095 13.8041 17.9615 13.7473C17.913 13.6907 17.9361 13.5899 17.869 13.5868C17.8 13.584 17.7281 13.857 17.7625 13.9874C17.8327 14.264 18.011 14.5085 17.8387 14.4706C17.8285 14.4684 17.7902 14.315 17.7542 14.314C17.4675 14.3111 17.2205 14.4339 16.938 14.4859C16.8987 14.4931 16.8348 14.3288 16.8105 14.3316C16.6008 14.358 16.7177 14.4988 16.8123 14.732C16.8332 14.7832 16.8533 14.8389 16.8694 14.8988C16.6464 14.529 16.4378 14.3495 16.289 14.4571C16.201 14.5215 16.3305 14.6601 16.3598 14.8059C16.3691 14.8493 16.2306 14.7948 16.2763 14.872C16.4272 15.1234 16.6833 15.3307 16.4762 15.3373C16.4667 15.3374 16.3809 15.202 16.3553 15.2113C16.1888 15.2738 16.3775 15.5117 16.2825 15.6548C16.2087 15.7661 15.911 15.8141 15.7864 15.9174C15.4183 15.6007 15.3986 15.7992 15.6264 16.0521C15.5524 16.1246 15.5024 16.2245 15.4078 16.2797C15.3753 16.2989 15.2726 16.2006 15.2576 16.1955C15.0219 16.1179 15.2656 16.3396 15.2645 16.3644C15.2378 16.6313 14.9231 16.6854 15.0329 17.0028C15.0368 17.0146 15.3333 17.1745 15.0863 17.12C15.0691 17.1166 14.9644 16.9806 14.9065 17.0736C14.8558 17.1548 14.6519 17.2595 14.6712 17.4251C14.6734 17.4463 14.679 17.4684 14.6887 17.4913C14.7097 17.541 14.9289 17.7316 14.7013 17.7272C14.6704 17.7264 14.5846 17.6807 14.529 17.6752C14.3516 17.6585 14.6592 17.807 14.3687 17.7554C14.0783 17.7038 13.833 17.7364 13.9604 17.9592C13.964 17.9661 14.2016 18.0998 14.1792 18.1455C14.1432 18.2184 14.049 18.3051 14.02 18.3845C14.0061 18.4225 14.1717 18.4593 14.172 18.467C14.1606 18.7547 13.951 18.881 13.7846 19.1291C13.7538 19.1745 13.911 19.4007 13.705 19.4315C13.4794 19.4655 12.7551 19.0577 12.8429 19.3723C12.8777 19.499 13.8019 20.0025 13.2292 19.9824C13.2207 20.3733 12.8394 20.5891 12.8839 21.0017C12.8858 21.0202 13.1383 21.1749 13.1204 21.2097C13.0934 21.2612 12.955 21.2413 12.9317 21.2765C12.8306 21.4227 12.8817 21.6124 12.8042 21.7612C12.7751 21.8178 12.6519 21.746 12.6172 21.8135C12.5826 21.881 12.737 21.9952 12.6165 22.0579C12.5248 22.1051 12.1436 22.0393 12.0653 22.1188C12.4121 22.2582 12.3794 22.321 12.4259 22.4734C12.435 22.5028 12.5656 22.526 12.5762 22.5424C12.6218 22.6099 12.5058 22.6106 12.5578 22.6781C12.5703 22.6944 12.689 22.7413 12.7059 22.7573C12.8541 22.8948 12.542 22.9046 12.4878 22.9061C12.2816 22.9122 12.4226 23.0076 12.3305 23.0381C12.2384 23.0684 12.1848 22.9485 12.1163 22.9992C11.9746 23.1044 11.924 23.2908 11.8634 23.4301C11.84 23.486 12.0137 23.5094 12.0141 23.5189C12.0088 23.6513 11.7939 23.7034 12.085 23.8915C11.2356 23.6535 12.1369 23.9928 11.9081 24.0958C11.8897 24.1038 11.4965 23.9697 11.4594 23.8971C11.4223 23.8245 11.573 23.7952 11.5118 23.6907C11.4975 23.666 11.1722 23.4297 11.1553 23.4082C11.0233 23.2398 11.6068 23.4508 11.6406 23.4578C12.0069 23.5305 11.6618 23.2622 11.6467 23.2211C11.5776 23.0332 11.7052 22.9461 11.6625 22.7948C11.6353 22.6961 11.2597 22.541 11.2947 22.4854C11.4108 22.3008 11.9661 22.437 11.5815 22.0704C11.4996 21.992 11.0702 21.8707 11.4519 21.8531C11.476 21.852 11.8154 21.8607 11.6513 21.7253C11.6306 21.7083 11.51 21.6615 11.5038 21.6473C11.4652 21.5529 11.5791 21.5445 11.5623 21.4516C11.5455 21.3587 11.5121 21.2418 11.5864 21.1722C11.6309 21.1301 11.8814 21.1516 11.946 21.1483C12.1317 21.1404 11.901 20.9643 12.1097 20.9959C12.3195 21.0276 12.5792 21.2269 12.7483 21.1613C12.4367 21.0349 12.1189 20.8998 11.8065 20.7702C11.9152 20.5242 12.1125 20.3174 12.1966 20.0609C12.2067 20.029 12.0258 19.9951 12.0323 19.9592C12.0605 19.808 12.2285 19.7318 12.2376 19.5671C12.2441 19.4394 12.1141 19.2459 12.1152 19.1102C12.5019 19.1778 12.4486 18.9549 12.531 18.8403C12.5597 18.8 12.6543 18.8404 12.6979 18.8208C12.8601 18.7461 12.5215 18.6787 12.4844 18.6264C12.3266 18.4026 13.0483 18.6701 13.0953 18.4972C13.098 18.4881 12.7578 18.2315 12.7397 18.2074C12.6212 18.0528 12.8788 18.2437 12.93 18.1959C13.0236 18.1084 13.144 18.0693 13.0812 17.8995C13.0624 17.8498 12.8586 17.6686 13.0707 17.669C13.0985 17.669 13.2228 17.7235 13.2332 17.7188C13.4099 17.63 13.0144 17.4716 12.9104 17.3409C12.8065 17.2103 13.1277 17.1962 13.2163 17.2024C13.4457 17.2177 13.2843 17.2858 13.303 17.2971C13.5257 17.4311 13.519 17.3269 13.5654 17.2674C13.9584 17.4094 13.9718 17.3061 13.6119 17.2051C13.5726 17.1942 13.5884 17.2608 13.5654 17.2674C13.2485 17.0837 13.2048 16.9666 13.4754 16.9588C13.5121 16.9556 13.5542 16.9545 13.6019 16.9557C13.7934 16.9615 13.9627 17.0966 13.9669 16.8909C13.97 16.7973 13.6931 16.7122 13.6551 16.6058C13.5705 16.3585 13.9216 16.2598 13.9772 16.0773C13.9981 16.0095 13.8277 15.9904 13.8379 15.9406C13.8657 15.8068 14.0253 15.7719 14.0438 15.6315C14.0455 15.6185 13.8912 15.5535 13.9117 15.5179C14.067 15.2454 14.313 15.0897 14.5205 14.8467C14.6197 14.7289 14.7411 14.4609 14.87 14.3585C15.0921 14.1765 15.5036 14.1331 15.6479 13.9454C15.7444 13.822 15.6181 13.7123 15.6041 13.5817C15.5846 13.3833 15.8386 13.447 15.9744 13.506C16.0131 13.5223 16.043 13.5376 16.056 13.5449C16.0568 13.5454 16.0413 13.565 16.0316 13.5897C16.0184 13.623 16.0163 13.6653 16.0767 13.6826C16.0947 13.6992 16.1074 13.7088 16.1159 13.7131C16.1701 13.7405 16.0552 13.5463 16.056 13.5449C16.0942 13.5648 16.3345 13.4542 16.3633 13.4013C16.3786 13.3719 16.2841 13.2465 16.2939 13.2335C16.5303 12.9275 16.8514 12.7195 17.2221 12.6442C17.2293 12.6446 17.2876 12.8096 17.3035 12.8086C17.5253 12.8012 17.5731 12.5563 17.7037 12.3783C17.8334 12.2011 17.9909 12.2 18.1689 12.4623C18.2863 12.3906 18.5017 12.4758 18.6208 12.5334C18.7396 12.5908 18.6893 12.2548 18.6978 12.2462C18.9571 11.979 19.1684 12.1458 19.4781 12.1486C19.6265 12.1497 19.9174 12.0872 20.08 12.051C20.0864 12.0495 20.0928 12.0482 20.099 12.0472C20.194 12.0287 20.2551 12.0981 20.3461 12.0497C20.359 12.0429 20.3459 11.8915 20.3499 11.8857C20.4568 11.7045 20.4054 12.0747 20.4275 12.1408C20.5075 12.3812 20.557 12.5093 20.6939 12.3962C20.7255 12.3703 20.8175 11.8373 20.8751 11.8061C20.9499 11.7665 20.9217 11.9576 21 11.9113C21.0067 11.9075 21.0053 11.7897 21.0537 11.7949C21.2782 11.8174 21.523 11.886 21.7563 11.8742C21.7882 11.873 21.7474 11.6861 21.7934 11.6813C22.0095 11.6592 22.2463 11.6661 22.4568 11.7536C22.5086 11.7757 22.4762 11.9066 22.4874 11.9455C22.5565 12.1807 22.6544 11.839 22.6705 11.8325C23.056 11.6683 23.351 11.9775 23.7438 11.8303C23.7652 11.8216 23.9298 11.4553 24.0032 11.7695C24.0082 11.7904 24.0809 12.1118 24.1451 11.892C24.1491 11.8783 24.1039 11.7128 24.1829 11.7297C24.2619 11.7465 24.389 11.636 24.4976 11.8178C24.532 11.8751 24.6133 12.1957 24.7158 11.9401C24.7225 11.9223 24.8808 11.3444 24.9374 11.7431C24.9465 11.8087 24.9369 12.2307 25.0593 12.0143C25.0827 11.9724 25.0403 11.8783 25.1019 11.8195C25.1963 11.7289 25.3214 11.842 25.4374 11.654C25.4577 11.6207 25.5438 11.3343 25.6129 11.5517C25.6237 11.5857 25.6032 11.7266 25.6397 11.7424C25.8132 11.818 25.9949 11.7238 26.1711 11.8212C26.2335 11.8555 26.2016 12.0832 26.2667 12.1442C26.3318 12.2052 26.4629 12.2639 26.5309 12.1598C26.599 12.0557 26.5246 11.6928 26.6267 11.6638C27.0702 11.5376 27.5095 11.7505 27.9523 11.7817C28.018 11.7863 27.9636 11.6565 28.0604 11.654C28.4172 11.6443 29.0333 11.5226 29.343 11.7985C29.5911 12.0195 29.2789 12.1878 29.4685 12.2778C29.56 12.3207 29.6589 11.8987 29.681 11.8854C29.8968 11.7505 30.0467 11.9374 30.2409 11.8801C30.281 11.8682 30.2417 11.6971 30.2758 11.6889C30.3924 11.6592 30.5149 11.7356 30.6263 11.7216C30.6763 11.715 30.6671 11.5843 30.7131 11.5944C30.8231 11.617 30.9204 11.6719 31.0277 11.7944C31.0374 11.8055 30.9715 11.968 31.0529 11.9741C31.1847 11.9834 31.3482 12.1041 31.4998 11.9794C31.5448 11.9419 31.5465 11.6434 31.6432 11.8495C31.6635 11.8926 31.6376 12.2511 31.7502 11.9413C31.7692 11.8899 31.9584 11.4721 32.0512 11.7414C32.0757 11.8123 32.1382 12.1056 32.1923 12.0595C32.1996 12.0521 32.1703 11.8918 32.2151 11.8762C32.373 11.8238 32.5386 11.8409 32.7008 11.7907C32.7442 11.777 32.6796 11.611 32.7442 11.5959C32.8939 11.5605 33.075 11.585 33.2322 11.6247C33.2703 11.6321 33.3072 11.6402 33.3425 11.6489C33.4252 11.6697 33.3651 11.8062 33.3711 11.8212C33.4599 12.0662 33.5243 11.7403 33.5583 11.7225C33.764 11.6167 33.9059 11.7827 34.0909 11.7617C34.1424 11.7566 34.1244 11.597 34.136 11.5843C34.2584 11.4612 34.1464 11.7311 34.2085 11.7699C34.3812 11.8799 34.5828 11.9001 34.7698 11.9175C34.8385 11.9238 34.7989 11.7303 34.8612 11.7384C35.2321 11.7834 35.6075 11.9087 35.9118 12.1255C35.9688 12.1667 35.8807 12.2834 35.8828 12.3182C35.8931 12.5595 36.1297 12.3256 36.1725 12.3119C36.3603 12.2457 36.3658 12.3831 36.4936 12.4158C36.9004 12.5193 37.3216 12.7626 37.6755 13.0402C37.871 13.1926 38.0474 13.3544 38.201 13.5041C38.7643 14.0597 39.066 14.5919 39.5149 15.167C39.5432 15.2042 39.6691 15.0593 39.6958 15.0907C40.0355 15.5055 40.2251 16.0013 40.4818 16.4692C40.5026 16.5082 40.6403 16.3806 40.6796 16.4421C40.7108 16.4904 40.7387 16.5464 40.761 16.6062C40.7878 16.6793 40.8013 16.7604 40.7941 16.8379C40.7888 16.8989 40.6211 16.8852 40.6186 16.9455C40.6126 17.0861 40.651 17.2194 40.7254 17.3324C40.7574 17.3803 40.8946 17.2357 40.9231 17.3031C41.1208 17.7611 41.3276 18.206 41.2929 18.7601C41.2906 18.7981 40.9601 18.9595 41.0522 19.0024C41.149 18.9706 41.2604 18.9268 41.3626 18.8896C41.6807 19.5445 41.8232 20.2599 42.0692 20.9451C42.0796 20.9739 42.2413 20.854 42.2624 20.9095C42.3846 21.2309 42.5559 21.5225 42.5038 21.9202C42.4989 21.9596 42.1741 22.067 42.2596 22.144C42.275 22.1575 42.3737 22.2853 42.4573 22.2956C42.4697 22.2966 42.608 22.2124 42.6305 22.2572C42.7584 22.5186 42.8348 22.815 42.8492 23.1202C42.8512 23.1695 42.6749 23.1848 42.675 23.2205C42.6768 23.4732 42.8903 23.6656 42.8286 23.9317C42.7867 24.1101 42.4929 24.1646 42.2528 24.3443C42.219 24.3697 42.2469 24.4592 42.0921 24.5247C41.7027 24.6898 41.255 24.8158 40.8419 24.9967C40.7529 25.0356 40.8958 25.1143 40.6504 25.1304C40.6339 25.1313 40.5284 25.075 40.4461 25.083C40.3892 25.0885 40.2401 25.1768 40.163 25.1727C40.0859 25.1687 40.2067 25.0841 40.1105 25.0651C40.0134 25.0465 39.8406 25.1387 39.7809 25.0491ZM19.1403 12.8067C19.2532 12.9559 19.1911 12.3607 19.1055 12.5169C19.1014 12.5252 19.1344 12.7994 19.1403 12.8067ZM12.5323 20.4827C12.8176 20.4773 12.4832 20.2671 12.2655 20.2645C12.048 20.262 12.4458 20.4845 12.5323 20.4827ZM12.3025 21.6025C12.5424 21.5597 11.7594 21.233 11.8697 21.422C11.8759 21.4329 12.2885 21.605 12.3025 21.6025ZM42.0411 24.0275C42.0341 24.0315 42.0513 24.0969 42.0592 24.0956C42.2492 24.0599 42.2147 23.9291 42.0411 24.0275ZM12.0917 22.7204C12.213 22.7251 12.131 22.5707 11.9802 22.5647C11.8589 22.56 11.9407 22.7145 12.0917 22.7204ZM23.5749 13.3771C23.5763 13.386 23.6244 13.3941 23.6235 13.3437C23.6202 13.1814 23.5531 13.2272 23.5749 13.3771ZM11.4104 24.4945C11.5422 24.2445 12.2568 24.3404 12.0721 24.5966C12.0387 24.643 11.9073 24.4042 11.8228 24.4469C11.6687 24.5253 12.0475 24.7649 11.7801 24.8018C11.7312 24.8083 11.4015 24.5082 11.4097 24.4937C11.4099 24.4939 11.4102 24.4942 11.4104 24.4945ZM19.289 13.5114C19.2918 13.5189 19.3587 13.5179 19.3594 13.51C19.3731 13.3168 19.2338 13.3193 19.289 13.5114ZM26.3867 13.747C26.3904 13.7639 26.5452 13.7796 26.5502 13.7641C26.631 13.4535 26.318 13.4207 26.3867 13.747ZM15.7749 15.911C15.8775 16.0857 15.8493 16.1568 15.6268 16.052C15.6783 16.0067 15.7224 15.9552 15.7749 15.911ZM10.2528 31.5846C10.209 31.431 10.2884 31.2363 10.39 31.1062C10.4215 31.0653 10.5216 31.1073 10.5481 31.0811C10.5997 31.0307 10.5606 30.9654 10.622 30.9192C10.6428 30.9044 10.8006 30.9663 10.8185 30.9506C10.9153 30.866 10.901 30.7602 10.9682 30.6704C11.298 30.2363 11.5988 29.8571 11.9796 29.549C12.021 29.5157 12.0758 29.4903 12.1326 29.4669C12.248 29.419 12.3694 29.382 12.423 29.281C12.4324 29.2632 12.3311 29.1555 12.3263 29.1438C12.2559 28.9619 12.4263 29.2067 12.4788 29.2159C12.6875 29.2517 12.8142 29.1838 12.902 29.0674C12.9393 29.0178 12.7446 28.7916 12.8774 28.9054C12.8863 28.9132 12.9497 29.0571 12.9713 29.0642C13.0198 29.08 13.065 29.0249 13.0949 29.0239C13.1524 29.023 13.1591 29.018 13.2042 28.9992C13.267 28.9745 13.3683 29.0164 13.421 28.9588C13.4324 28.9459 13.3568 28.8029 13.3711 28.7684C13.3855 28.7338 13.4547 28.7241 13.488 28.7532C13.5212 28.7821 13.5509 28.9051 13.5635 28.9314C13.6658 29.1545 13.6344 28.8114 13.644 28.8001C13.7806 28.6139 13.9771 28.7717 14.1342 28.7523C14.2552 28.7367 14.3847 28.6666 14.505 28.6742C14.506 28.6743 14.507 28.6743 14.508 28.6744C14.6524 28.6859 14.7648 28.7807 14.8996 28.7828C14.9141 28.7833 14.9215 28.5939 14.94 28.5943C15.1375 28.5984 15.3337 28.6646 15.4745 28.8443C15.4883 28.8624 15.4145 29.0125 15.4245 29.0398C15.4938 29.2054 15.4888 29.5572 15.8527 28.9317C15.9129 28.9904 15.9869 29.0615 15.9742 29.2213C15.9653 29.3238 15.8403 29.4601 15.9217 29.4183C15.9401 29.4092 16.0071 29.2653 16.0294 29.2624C16.1246 29.2515 16.1661 29.3393 16.2747 29.3159C16.2972 29.3109 16.3755 29.1929 16.394 29.1748C16.5476 29.0303 16.3991 29.3455 16.3928 29.3721C16.3605 29.5807 16.4578 29.5679 16.5247 29.6347C16.5399 29.6502 16.6495 29.4926 16.6694 29.5032C16.7054 29.5235 16.7378 29.5488 16.7651 29.5792C16.8155 29.6355 16.8483 29.7092 16.8535 29.7987C16.8548 29.8295 16.7178 29.9188 16.7118 29.9386C16.6851 30.023 16.9274 29.8358 16.9073 29.9161C16.9031 29.9326 16.791 30.0145 16.7803 30.0255C16.6095 30.1948 16.8905 30.0045 16.9016 30.0067C17.0417 30.0223 16.7863 30.2745 16.872 30.3146C16.8829 30.3199 17.0176 30.2048 17.0398 30.2263C17.1893 30.3697 17.2476 30.5956 17.183 30.8229C17.1731 30.858 17.0422 30.8845 17.0277 30.8921C16.7994 31.0064 17.1248 30.9061 17.1404 30.9118C17.2534 30.9554 16.9987 31.099 17.4027 31.0399C17.3644 31.3227 17.5219 31.5732 17.3883 31.8393C17.3553 31.9028 17.3045 31.9641 17.2289 32.0194C17.2245 32.0229 17.0577 32.0052 17.0496 32.0119C16.9492 32.0909 17.2102 32.0923 17.5193 32.1956C17.5966 32.2239 17.2086 32.2237 17.1803 32.222C17.0754 32.2217 16.8308 32.1711 16.8102 32.173C16.6488 32.1837 17.4648 32.3043 17.454 32.368C17.4523 32.3696 17.3043 32.3351 17.2885 32.3374C17.2393 32.3439 17.2957 32.3698 17.2416 32.3745C17.1161 32.3858 16.723 32.3094 16.9404 32.4047C16.9683 32.4176 17.4267 32.513 17.3918 32.5624C17.3779 32.5815 17.3598 32.6776 17.3225 32.6945C17.2857 32.7114 17.1471 32.6493 17.1403 32.6494C16.9301 32.6534 16.859 32.6037 16.5703 32.5373C16.2839 32.4666 16.9487 32.6889 17.0179 32.7279C17.0869 32.7672 16.9156 32.7563 16.8585 32.7453C16.8012 32.735 16.7167 32.6878 16.6832 32.6849C16.4646 32.6628 16.9961 32.8398 17.0904 32.9034C17.3105 33.0604 16.815 32.8949 16.7507 32.9111C16.7329 32.9165 16.8442 32.9583 16.8491 32.9736C16.8662 33.035 16.7103 32.9838 16.8164 33.1002C16.8344 33.1179 17.0836 33.313 16.8699 33.2238C16.8393 33.2105 16.7331 33.1356 16.6983 33.1376C16.646 33.1405 16.5958 33.1677 16.6153 33.2169C16.6295 33.2536 16.8226 33.3486 16.7505 33.3374C16.7185 33.3319 16.628 33.2427 16.5772 33.2373C16.5267 33.2316 16.4975 33.2824 16.4873 33.3031C16.4775 33.3237 16.6146 33.4108 16.6223 33.4187C16.6657 33.4652 16.6981 33.5512 16.6951 33.5546C16.6316 33.6527 16.5024 33.6885 16.3884 33.7227C16.2875 33.7534 16.198 33.7839 16.1527 33.8751C16.1448 33.8902 16.2599 34.0167 16.2598 34.0204C16.2599 34.1118 16.0117 33.7292 15.8918 33.6301C16.1081 33.9008 16.053 33.8644 16.0461 33.9169C16.0427 33.9425 16.13 34.0448 16.1369 34.0568C16.2338 34.2386 16.0628 34.037 16.0285 33.9954C15.9003 33.8434 16.0183 34.0463 15.9334 33.9439C15.8506 33.8413 15.7614 33.6664 15.7374 33.6856C15.7982 33.7942 16.0003 34.049 16.006 34.1083C16.022 34.3383 15.7091 34.2204 15.6276 34.2271C15.541 34.2382 15.5248 34.2691 15.4635 34.2456C15.3542 34.2011 15.4699 34.4142 15.4512 34.538C15.4299 34.6617 15.2687 34.0913 15.2206 33.9733C15.1742 33.8548 15.2087 33.9812 15.1793 33.9173C15.1505 33.8532 15.1392 33.7659 15.1147 33.7463C15.0918 33.7262 15.1104 33.9566 15.1379 34.0869C15.1987 34.3625 15.305 34.6403 15.2162 34.5565C15.2112 34.5514 15.1827 34.398 15.166 34.3861C15.0366 34.2961 14.9342 34.3081 14.8246 34.216C14.8098 34.203 14.7984 34.0299 14.79 34.0203C14.7051 33.9192 14.767 34.2056 14.75 34.5331C14.7201 34.1025 14.6731 33.8422 14.6249 33.8426C14.5947 33.8427 14.6097 34.0305 14.5924 34.1642C14.5868 34.2045 14.5586 34.0758 14.5564 34.1645C14.5469 34.4542 14.5792 34.7784 14.505 34.6501C14.505 34.65 14.505 34.65 14.5049 34.6499C14.5038 34.6478 14.5044 34.6266 14.505 34.5998C14.5059 34.5645 14.5069 34.5193 14.505 34.4941C14.5043 34.4842 14.503 34.4774 14.5011 34.4756C14.4362 34.4122 14.4217 34.7152 14.3388 34.7477C14.2729 34.7732 14.1811 34.5787 14.1219 34.5394C14.1893 34.0591 14.1262 34.162 14.0429 34.4869C14.0036 34.4661 13.9545 34.4756 13.9249 34.4215C13.9148 34.4031 13.9549 34.2681 13.9565 34.2529C13.9863 34.0156 13.8957 34.3283 13.883 34.3383C13.7552 34.4339 13.7565 34.1766 13.5904 34.373C13.5848 34.3802 13.4628 34.6944 13.5232 34.4544C13.5281 34.4381 13.6101 34.3051 13.5737 34.2787C13.535 34.2514 13.5358 34.0563 13.4183 34.1735C13.3908 34.2022 13.2349 34.431 13.3025 34.2257C13.312 34.1979 13.3593 34.1136 13.3787 34.0631C13.4417 33.9029 13.2757 34.2005 13.3926 33.935C13.5092 33.6693 13.5899 33.4668 13.4484 33.615C13.4444 33.6194 13.2954 33.8448 13.2825 33.8319C13.2626 33.8115 13.2609 33.7436 13.2371 33.7297C13.2256 33.7231 13.1389 33.8668 13.1352 33.868C13.0014 33.8905 13.0315 33.7261 13 33.6147C12.9956 33.5951 12.8021 33.7296 12.8977 33.5716C13.0057 33.4016 13.5944 32.8263 13.4174 32.9274C13.4171 32.9275 13.4168 32.9277 13.4164 32.9279C13.3449 32.9792 12.5595 33.6521 12.9166 33.2433C12.7366 33.2412 12.8965 32.9941 12.6779 33.0073C12.6683 33.0081 12.4125 33.1488 12.4082 33.1343C12.4028 33.1131 12.5138 33.0335 12.5146 33.0173C12.5212 32.9479 12.3937 32.9572 12.3839 32.897C12.3802 32.8747 12.5098 32.8193 12.5065 32.7942C12.5035 32.7699 12.3276 32.8314 12.3955 32.7634C12.4472 32.7113 12.788 32.5439 12.8198 32.5042C12.4718 32.6407 12.4709 32.6181 12.3643 32.6136C12.3436 32.6126 12.2241 32.6648 12.2079 32.6665C12.1392 32.6735 12.236 32.6237 12.162 32.6326C12.1441 32.6346 12.0231 32.6752 12.0016 32.6789C11.8136 32.7102 12.073 32.5768 12.1193 32.5569C12.2932 32.4756 12.1304 32.5099 12.1966 32.4687C12.2634 32.4291 12.3615 32.4339 12.3993 32.3999C12.4779 32.3308 12.4454 32.2808 12.4425 32.2339C12.4406 32.2156 12.2754 32.2592 12.2712 32.2573C12.2208 32.2229 12.3942 32.1576 12.0548 32.1812C12.9208 32.0349 11.9666 32.1676 12.134 32.0818C12.1476 32.075 12.5602 32.0297 12.6223 32.0379C12.6843 32.0455 12.5581 32.0837 12.6551 32.0917C12.678 32.0949 13.0664 32.0625 13.0899 32.0602C13.2749 32.0512 12.6644 32.1598 12.6312 32.168C12.2725 32.2516 12.6917 32.2118 12.7213 32.2116C12.8589 32.2215 12.7816 32.2719 12.8813 32.278C12.9457 32.2818 13.3369 32.1717 13.328 32.1856C13.2976 32.2278 12.7697 32.4365 13.2463 32.3087C13.3477 32.2804 13.7592 32.1134 13.4427 32.2628C13.4222 32.2709 13.1356 32.4142 13.3268 32.3472C13.3508 32.3385 13.4696 32.2871 13.4802 32.2844C13.5492 32.2668 13.4584 32.3161 13.5088 32.3073C13.5591 32.2982 13.6308 32.2773 13.5979 32.3092C13.578 32.3278 13.371 32.4522 13.322 32.4855C13.1806 32.5814 13.431 32.4577 13.2574 32.5687C13.0847 32.6833 12.8004 32.82 12.7039 32.9196C12.9931 32.7479 13.2901 32.5721 13.5801 32.3982C13.5907 32.4388 13.5263 32.5373 13.5672 32.5659C13.5724 32.569 13.7117 32.4538 13.7204 32.4536C13.7556 32.4519 13.6696 32.55 13.7245 32.5345C13.7675 32.5221 13.9191 32.4037 13.9625 32.3789C13.943 32.3992 13.9255 32.4176 13.91 32.4344C13.7128 32.6478 13.8104 32.5892 13.8018 32.6251C13.7991 32.639 13.7307 32.7157 13.713 32.7448C13.6492 32.8535 13.8626 32.5885 13.901 32.551C14.0611 32.3871 13.5746 32.9838 13.619 32.9943C13.6223 32.9959 13.8856 32.6807 13.9013 32.6604C14.0112 32.5343 13.8189 32.7771 13.8098 32.8079C13.7931 32.864 13.7526 32.9551 13.8388 32.8678C13.8652 32.8425 14.0118 32.6327 13.9188 32.8076C13.9068 32.8306 13.8359 32.9462 13.8331 32.9538C13.7902 33.0824 14.0056 32.7145 14.0845 32.5933C14.1621 32.4715 14.037 32.738 14.0038 32.8162C13.9144 33.0168 13.9527 32.8953 13.9423 32.9142C13.8158 33.137 13.8531 33.1068 13.8568 33.1329C13.6713 33.5072 13.7075 33.497 13.8618 33.1584C13.8788 33.1216 13.8511 33.1513 13.8568 33.1329C14.0535 32.7729 14.081 32.728 13.9454 33.0871C13.8829 33.2557 13.7877 33.4428 13.8571 33.3891C13.888 33.3645 13.9906 33.0957 14.0319 33.0277C14.1221 32.8712 14.0641 33.1353 14.1103 33.1055C14.1256 33.0941 14.1618 32.9405 14.1731 32.9274C14.2017 32.8914 14.1854 33.0095 14.2188 32.9556C14.2217 32.9505 14.2592 32.79 14.2644 32.7891C14.3028 32.7791 14.3136 32.889 14.3555 32.898C14.3761 32.9024 14.4192 32.8155 14.4362 32.8348C14.4558 32.856 14.4777 32.9634 14.505 33.0211C14.5198 33.0531 14.5351 33.0698 14.5468 33.0486C14.568 33.0105 14.5549 32.846 14.5561 32.7334C14.5539 32.5156 14.6078 32.9023 14.6216 32.9615C14.6222 32.9635 14.6071 33.004 14.6254 33.0873C14.6491 33.2621 14.6218 32.9623 14.6216 32.9615C14.6279 33.0003 14.6708 33.0327 14.6738 33.0003C14.6754 32.9827 14.6504 32.8285 14.6513 32.8222C14.673 32.6775 14.6907 32.6329 14.7478 32.6928C14.7493 32.6956 14.7961 32.8639 14.7993 32.8685C14.8482 32.9352 14.8025 32.7252 14.7748 32.6004C14.7481 32.4752 14.7682 32.5129 14.8942 32.7854C14.8939 32.7448 14.9677 32.8571 15.017 32.9228C15.0664 32.9883 14.9188 32.6819 14.9165 32.6755C14.8479 32.4693 14.9493 32.6356 14.9975 32.642C15.0198 32.6461 15.0205 32.5865 15.0117 32.5468C15.0044 32.5152 15.0586 32.5741 15.0373 32.5262C15.0344 32.5198 14.9403 32.4012 14.9371 32.3963C14.8335 32.2474 15.0587 32.5411 15.102 32.5912C15.26 32.7727 15.3516 32.8634 15.2968 32.7615C15.2856 32.737 14.9434 32.3281 14.9246 32.303C14.9028 32.2694 15.0302 32.4117 15.0049 32.3721C15.0028 32.3688 14.9221 32.283 14.9287 32.2839C14.936 32.2845 14.9452 32.2869 14.9554 32.2896C14.9867 32.2984 15.027 32.3097 15.0318 32.2903C15.0329 32.2872 14.8885 32.1685 14.8871 32.1628C14.8804 32.1363 14.8939 32.1302 14.9755 32.1661C14.9962 32.1751 15.1024 32.2516 15.1351 32.2728C15.3342 32.3982 15.0571 32.1978 15.0515 32.1944C14.9287 32.0823 15.2128 32.2069 15.0977 32.105C15.0918 32.097 14.7583 31.9455 15.0509 32.0599C15.07 32.0684 15.3723 32.178 15.1698 32.0922C15.157 32.0872 15.0012 32.0315 15.0191 32.0317C15.0375 32.0306 14.9355 31.9876 15.1112 32.0352C15.1661 32.0516 15.4763 32.1341 15.2346 32.05C15.2187 32.0406 14.6634 31.8807 15.05 31.978C15.1137 31.9939 15.5229 32.0971 15.3164 32.0307C15.2761 32.0186 15.1836 32.0011 15.1276 31.9821C15.041 31.9548 15.1542 31.9651 14.9709 31.9227C14.9386 31.9141 14.6565 31.8646 14.8717 31.8954C14.9055 31.8999 15.0445 31.9227 15.0605 31.9221C15.1376 31.9177 15.0457 31.8926 15.1439 31.885C15.1784 31.8815 15.4054 31.9001 15.4669 31.8948C15.5284 31.8898 15.5878 31.8703 15.4839 31.8584C15.38 31.8478 15.017 31.8498 14.988 31.842C14.9843 31.8411 14.9809 31.8402 14.9777 31.8393C14.8743 31.8153 15.0734 31.7761 15.0956 31.7284C15.0992 31.7221 14.9724 31.7507 14.9687 31.7448C14.953 31.7171 14.831 31.7329 15.0773 31.6067C15.2714 31.4978 15.4411 31.4674 15.5136 31.4079C15.5464 31.3755 15.1564 31.5374 15.1441 31.5424C15.0138 31.5821 15.1742 31.4857 15.1134 31.4944C15.1011 31.4969 14.9543 31.5847 14.9458 31.5865C14.9162 31.5944 14.9768 31.5471 14.96 31.5469C14.9523 31.5471 14.8432 31.619 14.8502 31.6113C14.8654 31.5933 14.9077 31.5578 15.0012 31.4782C15.0095 31.4707 15.1453 31.3812 15.1448 31.3702C15.1443 31.3537 15.2252 31.261 15.1174 31.3265C15.0849 31.3462 14.8586 31.5408 15.0088 31.3994C15.0403 31.37 15.3103 31.1341 15.0702 31.3303C15.0281 31.3604 14.7157 31.6378 14.9049 31.4463C14.9298 31.4205 14.9945 31.354 15.0468 31.2975C15.0981 31.2424 15.1375 31.1968 15.1191 31.2107C15.1134 31.2154 15.0035 31.3322 14.9893 31.3403C14.9419 31.3671 14.9418 31.3441 14.8981 31.3729C14.8866 31.3811 14.7834 31.5111 14.7706 31.5202C14.7359 31.5458 14.7535 31.5061 14.7734 31.4566C14.7809 31.4382 14.8618 31.327 14.8702 31.3146C15.0021 31.11 14.8128 31.3784 14.8015 31.3939C14.7295 31.4838 14.8052 31.3492 14.7737 31.378C14.7656 31.3859 14.689 31.5225 14.6816 31.5343C14.6102 31.6507 14.7528 31.4083 14.7648 31.3794C14.7982 31.2974 14.7778 31.3009 14.7584 31.3138C14.7512 31.3188 14.6768 31.4845 14.6721 31.4874C14.644 31.5088 14.6409 31.4887 14.6545 31.3877C14.657 31.3684 14.7026 31.2362 14.7117 31.2055C14.7723 30.9903 14.6698 31.2776 14.6614 31.3055C14.6164 31.4304 14.6473 31.3107 14.6333 31.331C14.5718 31.4339 14.5551 31.3493 14.5158 31.2976C14.5123 31.2925 14.5087 31.2871 14.505 31.2814C14.4631 31.2128 14.3996 31.1075 14.3508 31.1509C14.3477 31.1537 14.3921 31.3343 14.3906 31.3389C14.3735 31.3887 14.3224 31.329 14.3142 31.3908C14.3138 31.3954 14.3855 31.5565 14.3882 31.5689C14.3944 31.5955 14.3866 31.5885 14.3567 31.5405C14.3419 31.5175 14.2785 31.3801 14.2641 31.3602C14.2297 31.314 14.2118 31.3094 14.2164 31.3394C14.2189 31.3523 14.3143 31.5054 14.3117 31.5093C14.2942 31.5412 14.3067 31.5691 14.1206 31.4225C14.1082 31.4121 13.855 31.147 13.8961 31.205C13.9661 31.2788 14.0491 31.365 14.1243 31.4435C14.1242 31.4486 14.1238 31.4531 14.1229 31.4572C14.1128 31.516 13.9917 31.4882 13.9432 31.5385C13.9413 31.5404 14.1144 31.6284 14.1121 31.6316C14.0982 31.6524 14.1427 31.6837 13.9516 31.645C13.9328 31.6415 13.6107 31.5277 13.6552 31.5573C13.6633 31.5627 13.7007 31.5954 13.7707 31.6205C13.7813 31.6241 13.9348 31.6674 13.938 31.6728C13.9544 31.7033 13.9141 31.7153 13.8132 31.7288C13.7966 31.7311 13.6298 31.6993 13.6164 31.7014C13.5222 31.721 13.6472 31.7661 13.4918 31.7882C13.3871 31.806 13.0941 31.7862 12.8048 31.7966C12.7639 31.7984 12.7571 31.8214 12.589 31.8216C12.1662 31.8225 11.7036 31.8004 11.2529 31.8025C11.1558 31.8031 11.2602 31.8643 11.0257 31.8275C11.0099 31.8251 10.9326 31.7784 10.8533 31.7646C10.7985 31.7551 10.6273 31.7671 10.5573 31.7476C10.4874 31.7275 10.6311 31.7121 10.5497 31.6793C10.4673 31.6456 10.2721 31.6505 10.2528 31.5846ZM15.2515 33.2068C15.3479 33.3402 15.057 32.8174 15.1126 32.9502C15.1157 32.9572 15.2469 33.2002 15.2515 33.2068ZM13.1602 32.7996C12.9627 32.9768 13.2851 32.7599 13.439 32.6255C13.5955 32.4948 13.2215 32.7477 13.1602 32.7996ZM12.8498 32.6545C12.6801 32.7804 13.4357 32.3947 13.2713 32.4493C13.262 32.4525 12.8598 32.6474 12.8498 32.6545ZM12.7275 31.699C12.7195 31.6987 12.7105 31.7155 12.7184 31.7164C12.9073 31.7377 12.9249 31.708 12.7275 31.699ZM12.5398 32.4394C12.4336 32.4848 12.5705 32.4775 12.7018 32.4198C12.8079 32.375 12.6724 32.3849 12.5398 32.4394ZM16.4867 32.7863C16.495 32.7898 16.5088 32.7793 16.463 32.7582C16.3157 32.6903 16.3487 32.7274 16.4867 32.7863ZM12.441 31.8853C12.4109 31.9611 11.7175 32.0834 11.7894 31.9568C11.8028 31.9356 12.0148 31.9908 12.0766 31.9615C12.1895 31.9143 11.7488 31.892 11.9844 31.8402C12.0275 31.8337 12.4441 31.8829 12.442 31.8854C12.4416 31.8854 12.4413 31.8853 12.441 31.8853ZM15.6096 33.8298C15.6139 33.8365 15.6368 33.8323 15.6333 33.8252C15.549 33.6547 15.5063 33.6613 15.6096 33.8298ZM17.0692 31.9426C17.0862 31.9421 17.1037 31.8846 17.088 31.8824C16.7782 31.8508 16.7426 31.9519 17.0692 31.9426ZM14.1227 34.5264C14.0678 34.7117 14.0238 34.7274 14.043 34.4871C14.0684 34.5045 14.0962 34.5108 14.1227 34.5264ZM39.1271 31.8212C39.0745 31.8144 39.129 31.7999 39.2018 31.7726C39.2244 31.7642 39.329 31.7471 39.3491 31.7393C39.388 31.7233 39.3356 31.7269 39.3816 31.708C39.3972 31.7012 39.5615 31.6662 39.574 31.6593C39.6409 31.62 39.5936 31.6098 39.6203 31.5772C39.7503 31.4081 39.7309 31.2348 39.6798 31.066C39.6741 31.0474 39.6771 31.0182 39.6794 30.987C39.6845 30.9244 39.6837 30.8518 39.6236 30.8605C39.6131 30.8622 39.5237 30.9794 39.5151 30.9881C39.3851 31.1222 39.5753 30.8934 39.5885 30.8535C39.641 30.6964 39.5843 30.6419 39.5072 30.6634C39.4742 30.6729 39.3501 30.9391 39.4118 30.7853C39.4158 30.7748 39.4971 30.6409 39.4993 30.6231C39.5039 30.5826 39.4643 30.5935 39.4593 30.5772C39.4493 30.5447 39.4448 30.5443 39.4253 30.5333C39.3998 30.5173 39.3943 30.4307 39.3493 30.4516C39.3399 30.4567 39.2918 30.61 39.2728 30.6321C39.254 30.6541 39.2344 30.6329 39.2374 30.5941C39.2405 30.5553 39.283 30.4365 39.2903 30.4085C39.3488 30.1709 39.2131 30.4831 39.2091 30.4908C39.1 30.608 39.0809 30.4081 39.0002 30.3985C38.9421 30.3923 38.8788 30.4514 38.8271 30.444C38.8266 30.4439 38.8262 30.4439 38.8258 30.4438C38.7639 30.4329 38.7016 30.3498 38.6377 30.373C38.6312 30.3752 38.6632 30.5613 38.6561 30.5643C38.5817 30.5967 38.5112 30.5911 38.3921 30.4956C38.3799 30.486 38.3397 30.3249 38.3236 30.3061C38.2329 30.1909 37.9827 29.9405 38.257 30.6093C38.2141 30.5981 38.1656 30.5902 38.0644 30.4803C37.9985 30.4101 37.9287 30.2421 37.9405 30.3243C37.9433 30.3425 38.0306 30.4745 38.0295 30.4911C38.0261 30.5603 37.9624 30.5404 37.9783 30.629C37.9819 30.6472 38.0654 30.7616 38.0786 30.7835C38.1873 30.9595 37.9656 30.6991 37.9436 30.6847C37.7911 30.5686 37.8037 30.653 37.7662 30.6812C37.7572 30.6879 37.8954 30.8193 37.8921 30.8301C37.8859 30.8489 37.8764 30.8639 37.8624 30.8747C37.8367 30.8946 37.7961 30.8998 37.7331 30.8888C37.7111 30.8849 37.5955 30.7708 37.5784 30.7639C37.5028 30.7367 37.7346 30.9366 37.6692 30.9124C37.6556 30.9078 37.5489 30.8191 37.5364 30.8104C37.3386 30.6749 37.5966 30.8951 37.601 30.9018C37.6559 30.9984 37.3488 30.8202 37.3602 30.8944C37.3623 30.9028 37.5169 30.9869 37.5144 31.004C37.4996 31.1178 37.4128 31.1821 37.2414 31.2375C37.215 31.2462 37.096 31.1884 37.0804 31.1835C36.8351 31.1144 37.1502 31.2441 37.1607 31.2528C37.2335 31.3232 36.9463 31.2877 37.3286 31.426C37.181 31.539 37.2835 31.6975 37.15 31.8393C37.117 31.8763 37.0694 31.9152 37.0005 31.9601C36.9965 31.963 36.829 31.9692 36.8217 31.9753C36.733 32.0509 36.9923 32.0197 37.3125 32.0184C37.3926 32.0157 37.0151 32.0939 36.9879 32.1024C36.8866 32.1278 36.6383 32.1523 36.6189 32.1589C36.4679 32.2176 37.2817 32.0858 37.2872 32.1154C37.286 32.1167 37.1358 32.1389 37.1215 32.1445C37.0766 32.1623 37.1376 32.1604 37.0881 32.1794C36.9734 32.2224 36.5839 32.3182 36.8202 32.3052C36.8507 32.3027 37.3048 32.1915 37.2901 32.2242C37.2838 32.238 37.3053 32.2857 37.2808 32.3086C37.2562 32.3317 37.1092 32.3664 37.1032 32.3692C36.9268 32.4725 36.8431 32.4814 36.572 32.6014C36.3038 32.7254 36.9636 32.4883 37.0405 32.471C37.1169 32.4534 36.9743 32.5418 36.9246 32.5717C36.8746 32.6009 36.781 32.6244 36.754 32.6441C36.5793 32.7774 37.0862 32.538 37.1953 32.5109C37.4509 32.4397 36.9849 32.6713 36.9571 32.7318C36.9492 32.7471 37.0523 32.6883 37.0662 32.6915C37.1188 32.703 36.985 32.7978 37.135 32.7624C37.1602 32.758 37.4456 32.6281 37.2564 32.7589C37.2293 32.7781 37.1132 32.8362 37.0959 32.8641C37.0698 32.9057 37.0687 32.9575 37.1186 32.9546C37.1554 32.9522 37.3226 32.818 37.2789 32.8722C37.2597 32.8967 37.1455 32.9507 37.1187 32.9918C37.0919 33.0333 37.1259 33.0718 37.1408 33.0845C37.1558 33.0972 37.2792 32.9919 37.289 32.9867C37.3444 32.9566 37.4254 32.9339 37.4269 32.936C37.4803 32.987 37.4721 33.0869 37.4858 33.1806C37.4971 33.2621 37.5252 33.3376 37.6057 33.3484C37.619 33.3503 37.7201 33.2124 37.7232 33.2114C37.7961 33.1779 37.4903 33.515 37.4217 33.6542C37.6306 33.3776 37.6056 33.4379 37.6513 33.4245C37.6733 33.4176 37.7468 33.3051 37.756 33.2948C37.8906 33.1409 37.7463 33.3611 37.7189 33.4077C37.616 33.5776 37.7618 33.3938 37.6945 33.5081C37.6291 33.6225 37.4997 33.7702 37.5277 33.7861C37.6032 33.6873 37.7665 33.4066 37.812 33.3738C37.9765 33.2459 37.9586 33.5263 38.0094 33.5786C38.054 33.6283 38.0813 33.6145 38.098 33.6696C38.1305 33.7693 38.1943 33.5359 38.2644 33.4442C38.3327 33.3513 38.128 33.9066 38.0928 34.029C38.059 34.1518 38.1074 34.03 38.0938 34.099C38.0808 34.1683 38.0353 34.2445 38.048 34.2761C38.0621 34.3084 38.183 34.1082 38.2239 33.9813C38.3128 33.7135 38.3727 33.4235 38.3836 33.5339C38.3844 33.5405 38.3372 33.689 38.3425 33.7066C38.3878 33.8422 38.4698 33.8663 38.5389 33.9824C38.5487 33.9986 38.5153 34.1688 38.5212 34.1802C38.5854 34.2997 38.5942 34.0065 38.659 33.6871C38.6107 34.1158 38.609 34.3815 38.6746 34.3882C38.713 34.392 38.7161 34.2034 38.7431 34.0716C38.7508 34.0319 38.7712 34.1619 38.7777 34.0734C38.7972 33.784 38.7838 33.4599 38.8271 33.5889C38.8271 33.5889 38.8271 33.589 38.8271 33.589C38.8278 33.5912 38.8275 33.6123 38.8271 33.6392C38.8265 33.6745 38.8257 33.7197 38.8271 33.7448C38.8276 33.7548 38.8285 33.7616 38.8299 33.7634C38.8803 33.8258 38.8796 33.5227 38.9211 33.4838C38.9526 33.4535 39.0339 33.6314 39.0846 33.6544C39.1497 34.1352 39.1905 34.0167 39.1491 33.6842C39.1809 33.6926 39.2082 33.6678 39.2466 33.7066C39.2599 33.7197 39.2846 33.8581 39.2892 33.8727C39.3642 34.0997 39.3041 33.7794 39.3065 33.7656C39.3424 33.6289 39.4754 33.8459 39.4609 33.5951C39.4607 33.5859 39.3474 33.2686 39.4482 33.4936C39.4556 33.5089 39.4879 33.6606 39.5223 33.6603C39.5547 33.661 39.6874 33.8014 39.6652 33.6393C39.6608 33.5999 39.563 33.3435 39.6768 33.5255C39.6924 33.5501 39.733 33.6379 39.7613 33.6838C39.8529 33.8295 39.7025 33.5238 39.8528 33.7717C40.0027 34.0197 40.1527 34.1851 40.1025 33.9827C40.1014 33.9766 39.9739 33.7383 39.9894 33.7338C40.015 33.7264 40.077 33.7535 40.0994 33.7363C40.1099 33.7281 40.0091 33.5939 40.0093 33.5901C40.0234 33.4667 40.1556 33.5546 40.271 33.5426C40.2935 33.5395 40.1762 33.3386 40.3215 33.4501C40.4838 33.5687 41.0178 34.198 40.9635 33.9766C40.9634 33.9762 40.9633 33.9758 40.9631 33.9754C40.9405 33.8751 40.2163 33.1395 40.6556 33.4555C40.6352 33.2765 40.9301 33.3447 40.8423 33.1276C40.8386 33.1177 40.6012 32.9479 40.6104 32.9406C40.6249 32.9294 40.7466 32.9912 40.7613 32.984C40.8258 32.9555 40.7479 32.8546 40.7871 32.8167C40.8018 32.8017 40.9251 32.8702 40.9433 32.8505C40.9616 32.83 40.7997 32.7386 40.8947 32.745C40.9668 32.7506 41.3274 32.8712 41.384 32.8482C41.0369 32.7093 41.0534 32.689 40.9748 32.6161C40.9595 32.6022 40.8343 32.5659 40.8206 32.5572C40.7622 32.5216 40.8683 32.5448 40.8035 32.5085C40.788 32.4998 40.667 32.4589 40.6474 32.4498C40.4752 32.3722 40.7583 32.4286 40.8085 32.4352C40.9976 32.4657 40.8415 32.4075 40.9185 32.4095C40.9958 32.4099 41.0781 32.4637 41.1283 32.4519C41.2324 32.426 41.2281 32.3529 41.2437 32.3016C41.2492 32.2808 41.079 32.2639 41.0759 32.2601C41.0407 32.2136 41.2267 32.1965 40.8935 32.1277C41.767 32.2173 40.8128 32.0922 40.9928 32.0608C41.0073 32.0584 41.4212 32.0919 41.4796 32.1191C41.5379 32.147 41.4055 32.1625 41.4957 32.2034C41.5172 32.2118 41.8958 32.3105 41.9178 32.3218C42.0916 32.4016 41.4788 32.3029 41.4451 32.2985C41.0792 32.2573 41.4825 32.3774 41.5076 32.3988C41.625 32.4854 41.5276 32.5165 41.6059 32.5901C41.6561 32.6384 42.0457 32.7536 42.025 32.7803C41.954 32.873 41.4104 32.711 41.8413 32.9635C41.9325 33.0183 42.3546 33.1591 42.0009 33.1047C41.9781 33.1026 41.663 33.0295 41.8367 33.1366C41.8585 33.1503 41.9774 33.2016 41.9852 33.211C42.0348 33.2732 41.9306 33.2533 41.9586 33.3101C41.9864 33.3671 42.0301 33.4451 41.9694 33.4669C41.9328 33.4806 41.7037 33.3974 41.6463 33.3793C41.4813 33.3266 41.7055 33.4962 41.5165 33.4115C41.3282 33.3234 41.0745 33.1349 40.9369 33.1047C41.2245 33.279 41.518 33.4606 41.8055 33.6387C41.7247 33.7493 41.5618 33.7943 41.4941 33.9059C41.4858 33.9201 41.639 34.0177 41.6332 34.0365C41.607 34.1163 41.4653 34.085 41.4518 34.1775C41.4418 34.2495 41.5334 34.4316 41.5179 34.5156C41.4958 34.498 41.4754 34.4825 41.4567 34.4689C41.2197 34.2957 41.2361 34.4321 41.1652 34.4516C41.1389 34.4587 41.0721 34.3807 41.0376 34.3663C40.9099 34.3129 41.1531 34.552 41.174 34.6045C41.2579 34.8323 40.765 34.2412 40.7168 34.3027C40.7153 34.3049 40.918 34.6658 40.925 34.6922C40.9813 34.8574 40.8339 34.582 40.7911 34.5756C40.7126 34.5636 40.6286 34.5025 40.6402 34.6383C40.6448 34.6778 40.7388 34.921 40.6026 34.7722C40.5849 34.7526 40.5172 34.6351 40.5098 34.6303C40.384 34.5513 40.5969 34.9199 40.6276 35.0682C40.6571 35.2171 40.4564 34.9903 40.4076 34.9199C40.2778 34.74 40.3876 34.8249 40.3793 34.8048C40.2784 34.5685 40.2606 34.6278 40.2218 34.6229C40.0301 34.2518 40.0066 34.2912 40.1826 34.6192C40.2021 34.6549 40.2075 34.6088 40.2218 34.6229C40.3812 35.0016 40.343 35.0786 40.1337 34.7526C40.0366 34.5992 39.9744 34.3984 39.9382 34.497C39.921 34.5415 40.0422 34.8027 40.0408 34.8878C40.0336 35.0834 39.8469 34.865 39.7897 34.9268C39.7674 34.9498 39.8402 35.0921 39.8258 35.1132C39.7862 35.1699 39.7094 35.0688 39.6735 35.1405C39.6701 35.1472 39.723 35.3038 39.7066 35.3102C39.5813 35.3613 39.4478 35.2802 39.3153 35.2962C39.2516 35.3043 39.1434 35.4072 39.0724 35.3933C38.9937 35.379 38.9027 35.2757 38.8271 35.2178C38.7849 35.1859 38.7465 35.1681 38.7117 35.1876C38.6478 35.2225 38.6534 35.3875 38.6182 35.4981C38.5457 35.7124 38.4754 35.3144 38.4726 35.2531C38.4726 35.2511 38.5305 35.2177 38.5098 35.1307C38.511 34.9536 38.4735 35.2524 38.4726 35.2531C38.4678 35.2138 38.3654 35.1636 38.3397 35.1913C38.3257 35.2066 38.3094 35.3621 38.3022 35.3671C38.1302 35.483 37.9559 35.4864 37.822 35.3722C37.8202 35.3684 37.872 35.2015 37.8673 35.1947C37.8057 35.0961 37.6901 35.2831 37.573 35.3765C37.4569 35.4699 37.4072 35.4045 37.4813 35.1106C37.4148 35.1243 37.3948 34.9702 37.3908 34.8791C37.387 34.7882 37.2321 35.0908 37.2251 35.0949C37.0115 35.2289 37.0306 35.0175 36.935 34.9239C36.8889 34.8786 36.7573 34.8508 36.6786 34.8395C36.6157 34.8312 36.637 34.7476 36.5658 34.757C36.5561 34.7581 36.4689 34.8821 36.4636 34.8854C36.3045 34.991 36.5564 34.718 36.5883 34.6589C36.7053 34.4446 36.7714 34.3337 36.648 34.3771C36.621 34.3881 36.2333 34.7572 36.1865 34.7568C36.1283 34.7573 36.2694 34.6275 36.2063 34.632C36.2011 34.6322 36.1209 34.7188 36.1045 34.6959C36.0858 34.6706 36.0689 34.6427 36.0527 34.6136C36.0021 34.523 35.9604 34.4232 35.8898 34.3543C35.8772 34.3414 35.7502 34.4806 35.7292 34.4632C35.6305 34.3814 35.5491 34.2637 35.552 34.114C35.5532 34.0769 35.6717 34.018 35.7001 33.9907C35.8734 33.828 35.5608 33.9745 35.5495 33.969C35.2897 33.8679 35.4802 33.5725 35.2584 33.4391C35.2465 33.4344 34.8699 33.4866 35.1447 33.3273C35.1625 33.3157 35.447 33.1617 35.2296 33.2081C35.2159 33.2106 35.0705 33.2942 35.0701 33.2454C35.0702 33.1979 34.9402 33.162 35.0941 33.0464C35.142 33.0085 35.4359 32.8751 35.1754 32.8943C35.1581 32.8996 34.5749 32.9592 34.9527 32.8258C35.015 32.804 35.4252 32.707 35.1999 32.6952C35.1561 32.6923 35.0699 32.737 35.0048 32.7165C34.9042 32.6833 35.0007 32.5924 34.8039 32.5597C34.7692 32.5552 34.4775 32.5489 34.6859 32.4731C34.7185 32.4616 34.8596 32.4522 34.872 32.429C34.9322 32.3205 34.8271 32.2268 34.9171 32.1187C34.9489 32.0813 35.1773 32.0837 35.2361 32.0463C35.2949 32.0085 35.3511 31.9419 35.2465 31.909C35.1418 31.8748 34.7794 31.9217 34.7498 31.8624C34.746 31.8547 34.7426 31.847 34.7394 31.8393C34.6361 31.5803 34.8612 31.339 34.9356 31.1089C34.9472 31.0728 34.8135 31.0793 34.8223 31.0228C34.8492 30.8194 34.8478 30.4156 35.1747 30.3546C35.4315 30.3128 35.5219 30.5326 35.6428 30.4772C35.6992 30.4542 35.3364 30.2332 35.3302 30.215C35.26 30.0467 35.4661 30.0556 35.4679 29.9356C35.4687 29.9102 35.3091 29.8449 35.3117 29.8236C35.3202 29.7492 35.4227 29.7276 35.4456 29.6662C35.4557 29.6384 35.3433 29.5715 35.3669 29.554C35.422 29.5117 35.5008 29.4945 35.6358 29.517C35.6479 29.5194 35.7582 29.6439 35.7892 29.6117C35.8399 29.5583 35.9868 29.566 35.9431 29.4241C35.9297 29.3818 35.704 29.1861 35.8959 29.2795C35.9362 29.2989 36.1946 29.5474 36.004 29.296C35.9699 29.2564 35.7419 28.8875 35.9743 29.0358C36.0049 29.0558 36.0798 29.112 36.1442 29.1564C36.2072 29.1998 36.2601 29.232 36.2543 29.2058C36.2521 29.1977 36.1283 29.0945 36.1352 29.0659C36.1623 28.9666 36.243 28.9165 36.2809 28.8189C36.2912 28.7923 36.1554 28.6896 36.1752 28.6533C36.2301 28.5526 36.3637 28.5038 36.4773 28.488C36.5194 28.4823 36.5764 28.6102 36.5873 28.6208C36.7596 28.7973 36.5946 28.5127 36.5969 28.4882C36.6098 28.3421 36.7512 28.4359 36.8007 28.3597C36.8151 28.3389 36.7226 28.2115 36.7196 28.1971C36.6945 28.0541 36.8026 28.3163 36.844 28.3284C36.9598 28.3638 37.033 28.3113 37.0999 28.2569C37.1245 28.2367 37.0144 28.0881 37.0382 28.0715C37.1789 27.9698 37.3565 27.9177 37.5433 27.9616C37.5785 27.9702 37.6035 28.1091 37.6195 28.1375C37.7269 28.3373 37.6936 28.0291 37.7012 27.9967C37.7288 27.8507 37.7881 27.9628 37.8389 27.926C38.0934 27.7407 38.4784 27.7735 38.7473 27.8215C38.7744 27.826 38.801 27.8311 38.8271 27.8368C39.144 27.9071 39.3734 28.0454 39.6699 28.0776C39.6905 28.0801 39.7109 27.8941 39.7298 27.8942C39.9767 27.9049 40.1802 28.047 40.4217 28.0914C40.4417 28.0956 40.4839 27.9218 40.5194 27.9235C40.593 27.9259 40.6695 27.972 40.7059 28.053C40.7235 28.0921 40.6167 28.2079 40.6348 28.244C40.6761 28.3283 40.7382 28.376 40.8182 28.3895C40.8527 28.3952 40.8998 28.214 40.9387 28.2343C41.2041 28.3683 41.4771 28.5329 41.5347 28.904C41.5389 28.9297 41.3005 29.2084 41.3764 29.1838C41.449 29.1125 41.5318 29.0261 41.6082 28.9488C41.6293 28.964 41.6498 28.9801 41.6696 28.9967C41.9759 29.2543 42.1223 29.6422 42.2858 29.9879C42.2934 30.0038 42.4502 29.885 42.4662 29.9163C42.5578 30.0956 42.6908 30.2659 42.5765 30.5228C42.5653 30.548 42.2396 30.6506 42.3056 30.685C42.3177 30.6909 42.386 30.7553 42.4632 30.7555C42.4748 30.7554 42.623 30.6942 42.6356 30.7203C42.7058 30.8727 42.7097 31.0562 42.6387 31.2307C42.6269 31.2587 42.4549 31.2582 42.4449 31.2778C42.3747 31.4116 42.5166 31.5348 42.3685 31.6609C42.2682 31.7422 41.9735 31.7253 41.6858 31.7676C41.6452 31.7733 41.6394 31.8117 41.4712 31.8148C41.0486 31.822 40.5856 31.8144 40.1351 31.8245C40.0381 31.8264 40.1427 31.8477 39.9081 31.8356C39.8924 31.8347 39.8145 31.8216 39.7348 31.8207C39.6798 31.82 39.5089 31.8264 39.4385 31.825C39.3681 31.8243 39.5113 31.8167 39.4284 31.8149C39.3445 31.814 39.1503 31.8243 39.1271 31.8212ZM37.3885 34.4746C37.4369 34.3149 37.139 34.8337 37.2464 34.7295C37.252 34.7238 37.3863 34.4826 37.3885 34.4746ZM41.1936 33.5292C40.9544 33.4101 41.2472 33.6659 41.4313 33.7599C41.6178 33.85 41.2674 33.5634 41.1936 33.5292ZM41.263 33.0389C41.0561 32.9878 41.8056 33.3852 41.6813 33.2506C41.6744 33.2428 41.2752 33.0416 41.263 33.0389ZM41.5958 31.6209C41.588 31.622 41.5822 31.6492 41.5901 31.6493C41.7807 31.6515 41.7918 31.5931 41.5958 31.6209ZM41.2235 32.571C41.1098 32.5506 41.2236 32.6293 41.3648 32.6562C41.4791 32.6762 41.3656 32.5944 41.2235 32.571ZM36.6941 32.8586C36.7019 32.8543 36.7022 32.8362 36.6568 32.8579C36.5103 32.9278 36.5623 32.9304 36.6941 32.8586ZM41.3223 31.8949C41.2871 32.0036 40.584 31.9931 40.6676 31.9189C40.6827 31.9037 40.8892 31.9633 40.9533 31.9463C41.0703 31.9088 40.6311 31.8747 40.8669 31.84C40.9101 31.8308 41.326 31.8868 41.3233 31.8951C41.323 31.895 41.3226 31.895 41.3223 31.8949ZM37.7189 33.8364C37.7222 33.8292 37.7069 33.812 37.7026 33.8185C37.5976 33.9773 37.6319 34.0141 37.7189 33.8364ZM36.8346 31.9196C36.8512 31.9177 36.8657 31.8735 36.8503 31.8723C36.5391 31.8508 36.5092 31.9555 36.8346 31.9196ZM39.0871 33.6671C39.0796 33.4752 39.0922 33.4503 39.149 33.684C39.1276 33.6748 39.108 33.676 39.0871 33.6671Z" fill="#161716"/>
</svg>
