<svg width="27" height="24" viewBox="0 0 27 24" fill="none" xmlns="http://www.w3.org/2000/svg">
<path d="M10.88 18.3781C10.7862 18.395 10.7707 18.2837 10.7885 18.1625C10.7938 18.1248 10.8933 18.0171 10.9012 17.9859C10.9163 17.9251 10.8522 17.9656 10.8745 17.8965C10.8823 17.8731 11.0361 17.6994 11.041 17.6789C11.0666 17.5681 10.9931 17.5846 10.985 17.5148C10.945 17.1705 10.8104 16.9503 10.6819 16.7111C10.6393 16.6324 10.6932 16.4058 10.5692 16.4239C10.5546 16.4262 10.4316 16.5883 10.4196 16.6002C10.2354 16.7814 10.5008 16.4678 10.5199 16.4132C10.5952 16.1972 10.5403 16.1289 10.4334 16.1436C10.3876 16.1503 10.1587 16.4847 10.2763 16.2883C10.2842 16.275 10.4259 16.1118 10.4336 16.0884C10.4509 16.0358 10.3977 16.0425 10.3967 16.0197C10.3953 15.9748 10.3901 15.9735 10.3701 15.9542C10.344 15.9264 10.3763 15.8145 10.314 15.8272C10.3003 15.8304 10.1703 16.01 10.1359 16.0307C10.1015 16.0513 10.0848 16.0137 10.108 15.9653C10.1311 15.9169 10.2444 15.7847 10.2677 15.7523C10.465 15.4788 10.1395 15.8154 10.128 15.821C9.92741 15.9117 10.0278 15.6514 9.95478 15.5935C9.89898 15.55 9.78506 15.5709 9.74019 15.5193C9.68728 15.4571 9.70964 15.3211 9.63604 15.2883C9.62844 15.2846 9.47259 15.4934 9.46297 15.4893C9.36089 15.446 9.2962 15.3574 9.32377 15.1539C9.32667 15.1333 9.48078 14.9639 9.49226 14.9327C9.55939 14.7456 9.76224 14.3295 9.10768 15.0801C9.09769 15.0222 9.08116 14.9573 9.17628 14.7763C9.23747 14.6598 9.41296 14.4814 9.32194 14.5445C9.3016 14.5585 9.17191 14.7341 9.15175 14.7423C9.06698 14.7765 9.07356 14.6908 8.96856 14.7509C8.94688 14.7635 8.82618 14.9172 8.80213 14.943C8.60672 15.1515 8.87462 14.7624 8.89006 14.7309C9.0043 14.4951 8.90774 14.5463 8.86887 14.507C8.85992 14.4978 8.70697 14.7116 8.69244 14.7101C8.6193 14.6995 8.58213 14.6405 8.60669 14.5108C8.61255 14.4814 8.76276 14.3153 8.77273 14.2924C8.81502 14.1933 8.54503 14.5181 8.58047 14.4295C8.5876 14.4112 8.71028 14.2643 8.72263 14.2472C8.91654 13.9797 8.61178 14.3346 8.60193 14.3399C8.47074 14.4153 8.74969 14.0133 8.66508 14.0338C8.65464 14.0367 8.51382 14.2342 8.49379 14.2307C8.35942 14.2083 8.30342 14.0777 8.33348 13.8532C8.33795 13.8185 8.46225 13.6851 8.47543 13.6669C8.6807 13.3823 8.37668 13.7403 8.36094 13.7503C8.2445 13.8199 8.45737 13.4858 8.08163 13.9012C8.04845 13.6252 7.69717 13.7455 7.85785 13.2315C7.85954 13.2255 8.00812 13.0482 8.01087 13.0368C8.04539 12.8979 7.82892 13.185 7.52208 13.5023C7.44501 13.5819 7.75417 13.1495 7.77647 13.1175C7.85874 12.9997 8.08254 12.7383 8.09739 12.7146C8.2129 12.5277 7.50254 13.4164 7.47363 13.3936C7.47393 13.3914 7.60908 13.2313 7.61974 13.2132C7.65328 13.1563 7.59365 13.2151 7.63156 13.1531C7.71947 13.0097 8.06036 12.5744 7.83291 12.8043C7.80348 12.8342 7.40351 13.3407 7.39703 13.2964C7.39479 13.2782 7.34267 13.2505 7.35625 13.2077C7.36981 13.165 7.50898 13.01 7.51373 13.0023C7.65219 12.7607 7.73662 12.6824 7.97499 12.3516C8.2124 12.022 7.61017 12.7791 7.53547 12.8576C7.46094 12.9358 7.57831 12.739 7.62166 12.6726C7.66504 12.6062 7.7556 12.5095 7.77816 12.4703C7.92503 12.214 7.46101 12.8314 7.35275 12.9414C7.09654 13.2018 7.52478 12.6255 7.54315 12.5501C7.5481 12.5297 7.45126 12.6615 7.43548 12.6684C7.37431 12.694 7.49999 12.5078 7.34328 12.6452C7.31772 12.6675 7.02451 12.9852 7.2085 12.7269C7.23507 12.6897 7.35312 12.5552 7.36778 12.5156C7.38986 12.4562 7.38621 12.4031 7.33191 12.4361C7.29176 12.4605 7.12115 12.7014 7.16295 12.6175C7.18165 12.5801 7.30264 12.4563 7.32874 12.3972C7.35491 12.3382 7.317 12.3174 7.30064 12.3118C7.28423 12.3064 7.15093 12.486 7.14046 12.4969C7.0802 12.5591 6.98842 12.6235 6.98645 12.6216C6.86158 12.556 6.99855 12.1826 6.81542 12.1952C6.80125 12.1959 6.65889 12.3838 6.6552 12.3858C6.56507 12.44 6.98038 11.97 7.09226 11.7909C6.79509 12.1655 6.83779 12.0887 6.78503 12.1136C6.75937 12.1258 6.64841 12.2742 6.63564 12.2883C6.445 12.4958 6.66303 12.205 6.70711 12.1451C6.86922 11.9247 6.65635 12.1679 6.76459 12.0205C6.87198 11.8742 7.05536 11.6767 7.03416 11.664C6.92142 11.793 6.6549 12.1527 6.59495 12.1975C6.36836 12.3671 6.48675 12.0118 6.46576 11.948C6.44485 11.8844 6.4109 11.8976 6.42421 11.8289C6.44832 11.7047 6.25697 11.9767 6.13305 12.0719C6.00906 12.1671 6.53536 11.5425 6.64137 11.4025C6.74742 11.2626 6.62967 11.3997 6.68515 11.3205C6.74064 11.2414 6.82639 11.1572 6.83731 11.1195C6.84819 11.0818 6.62004 11.2988 6.50069 11.4384C6.24786 11.734 6.00634 12.0636 6.06506 11.9267C6.0686 11.9186 6.20916 11.7562 6.21589 11.7337C6.26493 11.5609 6.21457 11.5072 6.2517 11.3494C6.25702 11.3274 6.4136 11.1468 6.41839 11.1319C6.46874 10.9763 6.23231 11.303 5.92665 11.6313C6.30583 11.1722 6.52059 10.8774 6.48826 10.8469C6.46895 10.8283 6.30937 11.0337 6.18094 11.1656C6.14225 11.2054 6.23959 11.0545 6.1602 11.1476C5.90059 11.4518 5.63365 11.8114 5.70984 11.644C5.71359 11.6361 5.85587 11.4697 5.85878 11.4551C5.87831 11.3594 5.61178 11.6816 5.54229 11.6907C5.48779 11.6978 5.59519 11.4569 5.58755 11.3974C6.00827 10.8768 5.88029 10.9705 5.5778 11.3195C5.56781 11.2872 5.52784 11.2885 5.54675 11.2218C5.55313 11.199 5.67951 11.0519 5.69173 11.0349C5.8838 10.7678 5.59256 11.1098 5.5768 11.1197C5.41832 11.2117 5.59021 10.9132 5.33275 11.1329C5.3235 11.1408 5.02894 11.5006 5.22893 11.2257C5.24277 11.2068 5.39162 11.0551 5.37894 11.0238C5.36628 10.9926 5.47942 10.7636 5.31237 10.9057C5.27211 10.9399 5.01577 11.2181 5.18516 10.9759C5.20821 10.943 5.29416 10.841 5.33771 10.7808C5.47635 10.5888 5.17615 10.9505 5.41524 10.6304C5.65431 10.3103 5.81814 10.0583 5.61316 10.2469C5.60711 10.2523 5.36578 10.5362 5.35937 10.5235C5.34934 10.5029 5.37513 10.4241 5.35677 10.4124C5.34789 10.4069 5.20792 10.5912 5.20387 10.5933C5.06832 10.6506 5.15911 10.4589 5.15718 10.3424C5.15711 10.3207 4.9286 10.5417 5.06446 10.3309C5.21311 10.1 5.94888 9.23452 5.7271 9.40327C5.63822 9.47063 4.7077 10.5711 5.13833 9.95945C4.94914 10.0445 5.1212 9.69257 4.88215 9.83913C4.87151 9.84558 4.60879 10.1503 4.60447 10.1398C4.59855 10.1236 4.71014 9.97214 4.70969 9.95587C4.71077 9.88404 4.57837 9.98385 4.56085 9.93762C4.55394 9.92038 4.68028 9.77262 4.67206 9.75205C4.66373 9.73162 4.49316 9.9228 4.55034 9.81016C4.59406 9.72442 4.90684 9.30477 4.92468 9.24085C4.60021 9.64194 4.59285 9.62237 4.48249 9.70833C4.46112 9.72505 4.35359 9.86901 4.33767 9.88412C4.27038 9.94875 4.35522 9.826 4.28326 9.89739C4.26595 9.91451 4.1553 10.0516 4.13491 10.0734C3.95731 10.2635 4.18157 9.93522 4.22067 9.87811C4.36904 9.66111 4.21776 9.8335 4.27019 9.74322C4.32264 9.65296 4.42195 9.56734 4.44688 9.50701C4.49836 9.38217 4.44225 9.3735 4.4171 9.34283C4.40637 9.33144 4.26705 9.5212 4.26209 9.52382C4.19971 9.55016 4.33144 9.33504 4.02368 9.68866C4.76636 8.73156 3.93492 9.76802 4.0514 9.55048C4.0609 9.53295 4.41671 9.08405 4.48026 9.02726C4.54375 8.97053 4.44777 9.12313 4.54498 9.03311C4.56782 9.01201 4.92489 8.61042 4.94806 8.58734C5.12918 8.40695 4.5952 9.07594 4.56685 9.11348C4.26154 9.51903 4.64915 9.08876 4.68075 9.06291C4.8255 8.94443 4.77536 9.05862 4.88235 8.977C4.95169 8.92441 5.30508 8.4891 5.30714 8.51281C5.31422 8.59136 4.83837 9.21241 5.30409 8.71673C5.40346 8.61104 5.7794 8.12696 5.50795 8.52707C5.49083 8.55229 5.23718 8.91403 5.42538 8.70759C5.4491 8.68156 5.56111 8.54245 5.57271 8.53253C5.64831 8.46882 5.56885 8.58751 5.62763 8.54737C5.68641 8.50721 5.76942 8.44364 5.74971 8.50555C5.73801 8.54264 5.54338 8.81314 5.49754 8.88083C5.3652 9.07557 5.6226 8.78883 5.45353 9.01756C5.28363 9.24746 4.99329 9.57054 4.90191 9.73391C5.19395 9.37333 5.49484 9.00416 5.78908 8.64198C5.83233 8.69781 5.79084 8.85706 5.85738 8.88436C5.86592 8.88738 6.01563 8.68765 6.02882 8.68589C6.08379 8.67928 5.99851 8.83894 6.07416 8.80895C6.13331 8.78499 6.32553 8.60069 6.39254 8.56923C6.07484 8.99511 6.22543 8.88496 6.22222 8.94469C6.22124 8.96544 6.13163 9.07534 6.10939 9.11683C6.02763 9.27069 6.31003 8.89567 6.36337 8.84383C6.59121 8.62271 5.92745 9.45174 5.97941 9.45991C5.98194 9.46062 6.36011 9.03834 6.3854 9.01344C6.54975 8.85065 6.2651 9.16955 6.25145 9.21227C6.22648 9.29031 6.15763 9.40845 6.28863 9.30107C6.32731 9.26916 6.56756 9.00962 6.4116 9.23444C6.39118 9.26389 6.27267 9.40869 6.26741 9.41853C6.18208 9.58435 6.55174 9.12715 6.6934 8.98558C6.83504 8.84405 6.60622 9.1809 6.53809 9.27623C6.36198 9.52294 6.44641 9.36843 6.42703 9.39095C6.19655 9.65908 6.25357 9.62689 6.24923 9.66174C5.88961 10.1123 5.93146 10.1016 6.24619 9.69607C6.28054 9.65175 6.2356 9.68458 6.24923 9.66174C6.61675 9.23151 6.68433 9.19293 6.37714 9.6242C6.23316 9.82631 6.04112 10.0425 6.14217 9.98823C6.18787 9.9638 6.43083 9.64981 6.51265 9.57676C6.69937 9.41012 6.50837 9.73174 6.57776 9.71273C6.60295 9.70583 6.72769 9.5273 6.7496 9.51675C6.80818 9.48822 6.72493 9.63051 6.799 9.58294C6.80589 9.57842 6.9438 9.39745 6.95235 9.40062C7.02003 9.42123 6.97312 9.57052 7.02393 9.61665C7.04855 9.63886 7.17334 9.57831 7.18422 9.61947C7.20392 9.68976 7.05334 9.99317 7.14329 9.96247C7.20134 9.9432 7.33843 9.7615 7.44673 9.6497C7.65656 9.43293 7.35663 9.88241 7.30943 9.9514C7.30785 9.95367 7.25201 9.97755 7.19058 10.078C7.04479 10.273 7.30851 9.95201 7.30943 9.9514C7.27898 9.996 7.29091 10.0719 7.327 10.0452C7.34669 10.0305 7.47925 9.86052 7.48696 9.85605C7.66726 9.75362 7.76101 9.75881 7.75789 9.88572C7.75622 9.88997 7.60336 10.0764 7.60131 10.084C7.56885 10.1956 7.77619 9.98386 7.91476 9.87064C8.05328 9.75748 8.03926 9.82146 7.79656 10.1574C7.85091 10.1343 7.76717 10.3018 7.71539 10.4027C7.6636 10.5035 7.96055 10.1401 7.96795 10.1342C8.20333 9.94246 8.06315 10.1745 8.08782 10.248C8.09904 10.2836 8.18975 10.2693 8.24815 10.2505C8.2948 10.235 8.23827 10.3307 8.30147 10.2913C8.30995 10.286 8.43845 10.1212 8.44428 10.1156C8.62244 9.93808 8.29169 10.3276 8.23885 10.4022C8.04662 10.6734 7.9456 10.8189 8.0708 10.7193C8.09952 10.6966 8.57933 10.1386 8.61779 10.1144C8.66694 10.0839 8.49589 10.2846 8.55157 10.2475C8.55618 10.2445 8.65796 10.1176 8.66309 10.131C8.68826 10.1912 8.67764 10.3042 8.73433 10.329C8.74169 10.3328 8.89542 10.1254 8.90871 10.1277C8.97093 10.1385 9.01211 10.184 8.97827 10.3118C8.96943 10.3439 8.84962 10.4793 8.81821 10.5229C8.62835 10.7867 8.9437 10.4352 8.95256 10.4308C9.17149 10.3162 8.9625 10.6959 9.16821 10.6007C9.17995 10.5948 9.52989 10.2277 9.27251 10.577C9.25542 10.6003 8.9916 10.9573 9.19466 10.7315C9.20736 10.7173 9.34161 10.5323 9.34275 10.5631C9.34391 10.5938 9.46491 10.4955 9.32913 10.7083C9.28639 10.7754 9.02497 11.1329 9.26668 10.8747C9.28346 10.8566 9.81536 10.2611 9.48139 10.6986C9.42639 10.7706 9.05915 11.2224 9.27084 11.0096C9.31181 10.9683 9.38484 10.8604 9.448 10.8071C9.54522 10.7249 9.47228 10.8664 9.65814 10.6831C9.69098 10.6506 9.9561 10.3567 9.78166 10.6013C9.75434 10.6397 9.62828 10.7877 9.6219 10.8105C9.59099 10.9196 9.70877 10.8475 9.65947 10.9805C9.64225 11.0274 9.43873 11.2669 9.39885 11.3429C9.35899 11.4189 9.33428 11.503 9.43795 11.4021C9.54165 11.3012 9.84107 10.8993 9.88654 10.8844C10.0841 10.8201 9.98724 11.1194 10.0485 11.2239C10.0575 11.2394 10.1591 11.0911 10.1805 11.104C10.26 11.1509 10.4881 11.1189 10.3109 11.4652C10.1689 11.7425 9.96102 11.8732 9.9209 12.0003C9.90197 12.0611 10.287 11.6235 10.3029 11.6128C10.4627 11.5024 10.3308 11.7273 10.4191 11.6969C10.4374 11.6905 10.5776 11.5005 10.5915 11.4971C10.6404 11.4839 10.5988 11.5856 10.633 11.5885C10.6487 11.5893 10.76 11.4475 10.7604 11.4657C10.7628 11.5077 10.7346 11.5823 10.65 11.7311C10.6423 11.7446 10.4884 11.9086 10.4994 11.9282C10.5176 11.9593 10.4456 12.1154 10.5838 12.0057C10.6252 11.9726 10.884 11.6521 10.7248 11.8891C10.6916 11.9387 10.376 12.3197 10.6666 12.0049C10.715 11.9527 11.1144 11.5341 10.8997 11.8384C10.8432 11.9185 10.6017 12.2437 10.6524 12.2029C10.6602 12.1961 10.7932 12.0191 10.8156 12.0095C10.8924 11.9786 10.9106 12.0236 10.9864 11.9956C11.0069 11.9878 11.1377 11.7992 11.1637 11.7933C11.2354 11.7767 11.243 11.8577 11.2326 11.9414C11.2285 11.9725 11.1007 12.1131 11.0886 12.13C10.8929 12.4034 11.1861 12.0576 11.2076 12.0411C11.3377 11.9427 11.2276 12.1273 11.2913 12.1063C11.3085 12.101 11.4386 11.9283 11.4522 11.9145C11.5865 11.781 11.331 12.0734 11.3144 12.115C11.2671 12.2324 11.3099 12.2446 11.3563 12.2465C11.3735 12.247 11.5187 12.0422 11.5323 12.0449C11.616 12.0568 11.6598 12.1229 11.6284 12.275C11.6222 12.304 11.4946 12.4489 11.4691 12.485C11.2906 12.7371 11.5763 12.4273 11.6065 12.4001C11.7442 12.2762 11.646 12.4162 11.6862 12.4077C11.8845 12.3639 11.9357 12.5502 11.9851 12.6797C12.0503 12.8476 12.0295 13.0665 12.1753 13.1228C12.1844 13.1266 12.338 12.9207 12.3479 12.9214C12.4687 12.9393 12.4865 13.0824 12.6152 13.0909C12.6255 13.0919 12.7684 12.8947 12.79 12.89C12.8355 12.879 12.8553 12.912 12.829 12.9906C12.8164 13.0285 12.6708 13.1793 12.6608 13.2142C12.6373 13.2958 12.654 13.3314 12.7048 13.3223C12.7268 13.318 12.866 13.1106 12.8823 13.1201C12.9971 13.1809 13.1215 13.2261 13.0197 13.5579C13.0127 13.5806 12.7014 13.9793 12.7769 13.9156C12.866 13.8072 12.9696 13.6786 13.0642 13.5621C13.2594 13.6157 13.2925 13.8674 13.4204 14.0053C13.4258 14.0111 13.5834 13.7939 13.5948 13.804C13.6608 13.8623 13.7738 13.8581 13.6768 14.1219C13.6674 14.1478 13.368 14.512 13.4332 14.473C13.445 14.4658 13.5153 14.4417 13.5875 14.3684C13.5982 14.3573 13.7307 14.1814 13.7446 14.1844C13.8234 14.2049 13.8524 14.2928 13.8257 14.444C13.8211 14.4687 13.6642 14.6432 13.6596 14.6624C13.6286 14.7971 13.7915 14.6996 13.703 14.9015C13.6431 15.0373 13.3779 15.3437 13.1437 15.667C13.1106 15.7127 13.1237 15.7346 12.9791 15.916C12.6156 16.3722 12.2058 16.8624 11.8193 17.3495C11.7361 17.4544 11.8515 17.3622 11.6337 17.6023C11.6191 17.6183 11.5336 17.6874 11.4603 17.7693C11.4096 17.8259 11.2671 18.0141 11.1998 18.0847C11.1326 18.1552 11.2497 17.9956 11.1676 18.076C11.0846 18.1576 10.9208 18.3703 10.88 18.3781ZM7.48452 10.854C7.35966 11.0428 7.88003 10.402 7.73821 10.5413C7.73074 10.5488 7.4906 10.8447 7.48452 10.854ZM5.39987 9.34165C5.19307 9.6426 5.54378 9.23766 5.70494 9.00641C5.86591 8.77539 5.46253 9.2504 5.39987 9.34165ZM5.00868 9.36781C4.85386 9.61173 5.59228 8.70346 5.41672 8.86589C5.40676 8.87504 5.01766 9.35364 5.00868 9.36781ZM12.9983 15.6957C12.9917 15.7045 12.9984 15.7236 13.0055 15.7154C13.1771 15.517 13.1637 15.4789 12.9983 15.6957ZM4.60442 9.41372C4.51296 9.54338 4.65038 9.41937 4.76411 9.25815C4.8556 9.12844 4.71817 9.25243 4.60442 9.41372ZM7.79527 12.2358C7.78781 12.2455 7.79046 12.2619 7.83389 12.2076C7.97375 12.0327 7.92074 12.0712 7.79527 12.2358ZM4.21748 9.11925C4.24575 9.19861 3.67297 9.97886 3.68054 9.84483C3.6819 9.82057 3.89777 9.62388 3.93843 9.54469C4.01239 9.40032 3.61442 9.85933 3.79233 9.58488C3.82495 9.5347 4.21721 9.11305 4.21842 9.11828C4.21811 9.1186 4.21779 9.11892 4.21748 9.11925ZM6.87195 11.6337C6.86544 11.6425 6.87223 11.6612 6.87934 11.6531C7.05096 11.4548 7.03737 11.4169 6.87195 11.6337ZM8.03502 13.0844C8.02116 13.1031 8.03834 13.1449 8.0528 13.129C8.33776 12.8083 8.30382 12.7228 8.03502 13.0844ZM5.59822 11.3831C5.41831 11.5767 5.38149 11.5869 5.57766 11.3198C5.58103 11.3451 5.59391 11.3588 5.59822 11.3831ZM8.07427 14.2123C8.11805 14.0707 8.29389 14.0086 8.46012 13.9954C8.51198 13.991 8.59846 14.1107 8.63882 14.1125C8.71762 14.1157 8.7047 14.0287 8.79057 14.0402C8.81952 14.0446 8.96385 14.2272 8.99053 14.2279C9.13563 14.2307 9.16497 14.1208 9.27424 14.0842C9.81273 13.9045 10.2369 13.6183 10.6848 13.335C10.8323 13.2415 11.1281 13.2492 11.1921 13.0604C11.1994 13.0382 11.0498 12.8999 11.041 12.8851C10.9078 12.6572 11.1772 12.9678 11.244 12.9793C11.5084 13.0243 11.6495 12.9149 11.706 12.7519C11.7297 12.6821 11.4027 12.4359 11.6072 12.554C11.6211 12.5619 11.7587 12.7292 11.7875 12.7335C11.8527 12.7427 11.8817 12.6615 11.9163 12.652C11.9837 12.6346 11.9894 12.626 12.0326 12.5881C12.0929 12.5375 12.2346 12.5504 12.2615 12.4567C12.2668 12.4363 12.0964 12.2929 12.091 12.2459C12.0857 12.1989 12.1535 12.1599 12.2081 12.1798C12.2627 12.1998 12.3753 12.3329 12.4062 12.3586C12.6662 12.5758 12.4068 12.1784 12.4069 12.1623C12.4196 11.8779 12.731 11.9473 12.8701 11.8128C12.9753 11.7104 13.0279 11.5384 13.1371 11.4504C13.2677 11.3461 13.4526 11.3351 13.555 11.2083C13.566 11.1951 13.3714 11.021 13.3844 11.0045C13.5233 10.8294 13.7016 10.6976 13.9824 10.6719C14.0108 10.6694 14.1484 10.8541 14.1862 10.8616C14.4138 10.9035 14.8806 11.0811 14.2497 10.3072C14.3428 10.2718 14.4508 10.2238 14.6489 10.3119C14.7764 10.3685 14.9117 10.5837 14.885 10.4621C14.8792 10.4349 14.7145 10.2907 14.7172 10.2617C14.7286 10.1401 14.8506 10.1214 14.8386 9.97676C14.8358 9.94697 14.6969 9.80946 14.6764 9.78041C14.5111 9.54408 14.8904 9.83302 14.9257 9.8466C15.1907 9.94609 15.1857 9.81172 15.2723 9.73728C15.2925 9.72008 15.0882 9.5523 15.1011 9.52895C15.1704 9.41038 15.2848 9.33197 15.4587 9.32651C15.4978 9.32575 15.6335 9.50543 15.6601 9.51332C15.7756 9.54617 15.493 9.23209 15.5981 9.2577C15.6199 9.26271 15.7474 9.40563 15.7636 9.41925C16.0172 9.63319 15.7155 9.2747 15.7149 9.26102C15.6994 9.08044 16.0898 9.38235 16.1213 9.25635C16.1247 9.24092 15.9357 9.08667 15.9556 9.05398C16.0871 8.8352 16.3212 8.70286 16.6313 8.67387C16.6793 8.66913 16.7857 8.81916 16.8029 8.8337C17.0735 9.05969 16.7667 8.70341 16.7634 8.68209C16.7457 8.52272 17.084 8.74383 16.7447 8.29435C17.1772 8.1485 17.2566 7.63725 17.899 7.71528C17.9068 7.71587 18.0601 7.88922 18.0749 7.88966C18.2551 7.89677 17.989 7.65402 17.7445 7.27949C17.6832 7.18539 18.0963 7.52448 18.1272 7.54867C18.2412 7.63797 18.464 7.90094 18.4882 7.91623C18.68 8.03433 17.8858 7.21962 17.9407 7.16644C17.9438 7.16615 18.0815 7.32424 18.1005 7.33482C18.1602 7.3682 18.1168 7.29447 18.1808 7.33299C18.3285 7.42247 18.7226 7.81045 18.5491 7.53104C18.5264 7.49493 18.0702 7.03829 18.1406 7.01305C18.169 7.00338 18.2483 6.91203 18.3016 6.91884C18.3549 6.92566 18.4821 7.09177 18.4901 7.09661C18.746 7.23219 18.8 7.3383 19.1147 7.60063C19.4282 7.86186 18.7495 7.17241 18.6882 7.08164C18.6271 6.99107 18.8322 7.10872 18.8986 7.15432C18.965 7.19994 19.0418 7.30944 19.0832 7.3316C19.3547 7.4754 18.7814 6.95574 18.698 6.82293C18.5005 6.50868 19.0392 6.98606 19.1373 6.98932C19.1639 6.99017 19.0398 6.88273 19.0412 6.86026C19.048 6.77284 19.2314 6.90715 19.1431 6.70747C19.1287 6.6749 18.8736 6.32192 19.1208 6.5234C19.1564 6.55253 19.2688 6.69241 19.3167 6.702C19.3884 6.71653 19.4696 6.69276 19.4606 6.61862C19.4538 6.56382 19.2226 6.37745 19.316 6.41468C19.3576 6.43137 19.4521 6.57948 19.5204 6.60045C19.5885 6.62153 19.6471 6.55488 19.6673 6.5273C19.6873 6.49967 19.5194 6.35111 19.5109 6.33837C19.4631 6.26477 19.435 6.1424 19.4393 6.13865C19.6277 5.92014 20.0796 6.00864 20.1952 5.72508C20.2044 5.70306 20.0308 5.54312 20.0305 5.538C20.0164 5.41474 20.4073 5.90791 20.5903 6.02292C20.2539 5.68306 20.3362 5.72411 20.3381 5.64962C20.3387 5.61345 20.2005 5.48944 20.1891 5.47414C20.0217 5.245 20.2922 5.48893 20.3485 5.53786C20.5558 5.7178 20.3519 5.46584 20.4907 5.5859C20.6285 5.70499 20.7863 5.92615 20.8205 5.88853C20.7123 5.75514 20.3755 5.45838 20.3531 5.37939C20.2683 5.08083 20.7071 5.14626 20.8167 5.09165C20.9261 5.03717 20.9315 4.9883 21.0233 4.98588C21.1894 4.9816 20.9272 4.77323 20.8771 4.61081C20.8271 4.44824 21.3655 5.06333 21.495 5.18241C21.6242 5.30158 21.5077 5.16306 21.5841 5.22339C21.6606 5.28372 21.7223 5.38992 21.77 5.39427C21.8178 5.39858 21.6639 5.1137 21.5449 4.97351C21.2927 4.67652 20.9822 4.40882 21.1416 4.45464C21.151 4.45747 21.2884 4.6232 21.3166 4.62616C21.5362 4.64459 21.6526 4.54719 21.8588 4.55196C21.8874 4.55286 22.0399 4.73764 22.0584 4.74011C22.2517 4.76641 21.9416 4.50574 21.6799 4.13681C22.0813 4.57687 22.3599 4.81433 22.4288 4.75313C22.4704 4.7165 22.2835 4.53541 22.1825 4.37836C22.152 4.33105 22.3038 4.43281 22.2243 4.33963C21.9645 4.03491 21.6281 3.73746 21.82 3.80036C21.8288 3.80359 21.9707 3.9707 21.9903 3.97031C22.1175 3.96852 21.8361 3.65903 21.8736 3.55288C21.903 3.46965 22.1806 3.55665 22.2741 3.52446C22.7361 4.0089 22.6912 3.8396 22.3965 3.48269C22.4516 3.45601 22.479 3.39363 22.5638 3.40071C22.5928 3.403 22.7178 3.55169 22.734 3.56511C22.9884 3.77628 22.6959 3.43467 22.6928 3.41327C22.6727 3.19545 22.9884 3.36424 22.852 3.03418C22.847 3.02234 22.5306 2.68157 22.7907 2.90255C22.8085 2.91788 22.9239 3.1003 22.9794 3.06977C23.0349 3.03925 23.2907 3.13933 23.2028 2.92503C23.1818 2.87337 22.958 2.56495 23.1923 2.74893C23.224 2.77398 23.3119 2.87444 23.3691 2.92245C23.5515 3.07516 23.2364 2.72615 23.5348 2.99322C23.8331 3.26028 24.0859 3.4322 23.957 3.17409C23.9534 3.16642 23.7102 2.88353 23.7337 2.86914C23.7715 2.84639 23.8693 2.86014 23.9 2.82732C23.9146 2.8115 23.7446 2.65408 23.7443 2.64844C23.7589 2.45484 23.9759 2.53246 24.1496 2.48988C24.1818 2.4824 24.0223 2.19828 24.2346 2.34023C24.4671 2.49549 25.2084 3.35801 25.1212 3.06674C25.0867 2.94992 24.1406 1.86109 24.7298 2.33023C24.7425 2.06178 25.1371 2.2127 25.0954 1.88675C25.0936 1.87223 24.8354 1.56277 24.8541 1.55242C24.8824 1.5376 25.0246 1.66158 25.049 1.65535C25.1544 1.63265 25.1038 1.45845 25.185 1.41523C25.2155 1.39852 25.3416 1.5469 25.378 1.527C25.4143 1.50698 25.2565 1.30381 25.3812 1.35543C25.476 1.39503 25.8676 1.74414 25.9491 1.75047C25.5935 1.37669 25.6278 1.35849 25.5815 1.21422C25.5724 1.18631 25.4382 1.0662 25.4275 1.04631C25.3812 0.962498 25.5006 1.05415 25.4478 0.96529C25.4351 0.943895 25.3134 0.816557 25.2961 0.791888C25.145 0.577308 25.4663 0.818315 25.5221 0.860385C25.7344 1.01989 25.5902 0.840659 25.6853 0.892414C25.7804 0.944193 25.8343 1.07121 25.9053 1.0899C26.0522 1.12843 26.1061 1.03731 26.1699 0.987352C26.1946 0.966633 26.016 0.812095 26.0158 0.805183C26.0225 0.7161 26.2442 0.850092 25.9465 0.486467C26.8182 1.32874 25.8942 0.373913 26.1306 0.483109C26.1496 0.492083 26.5529 0.898885 26.5904 0.979479C26.6278 1.06001 26.4724 0.960966 26.5343 1.08318C26.5488 1.11192 26.8813 1.53676 26.8985 1.56534C27.0326 1.78876 26.4342 1.17666 26.3995 1.14485C26.0233 0.802695 26.3758 1.2658 26.3909 1.30669C26.4601 1.49396 26.3279 1.45393 26.3703 1.59436C26.3973 1.68548 26.7823 2.09309 26.7457 2.10439C26.6244 2.14219 26.0543 1.60516 26.4464 2.16883C26.5299 2.28913 26.9706 2.71561 26.5776 2.42483C26.5528 2.40648 26.2036 2.13065 26.3711 2.35635C26.3922 2.38479 26.5159 2.51359 26.5221 2.52847C26.561 2.62565 26.4436 2.54107 26.4599 2.61982C26.4763 2.69857 26.5095 2.80744 26.4324 2.79748C26.3861 2.79168 26.1286 2.57763 26.062 2.52857C25.8709 2.3867 26.1065 2.69389 25.892 2.50582C25.6764 2.31687 25.4112 1.97023 25.2365 1.88209C25.5559 2.21865 25.8816 2.56621 26.2018 2.90568C26.0875 2.99261 25.8824 2.98147 25.7933 3.09532C25.7826 3.10977 25.9683 3.27725 25.9613 3.29738C25.9308 3.38153 25.7571 3.3017 25.7461 3.41041C25.7382 3.49525 25.87 3.73476 25.8675 3.82941C25.4703 3.47469 25.5229 3.67396 25.4369 3.6892C25.4069 3.69471 25.31 3.59118 25.2649 3.57031C25.0972 3.49406 25.4451 3.81056 25.4827 3.8768C25.6429 4.1598 24.9028 3.39808 24.8527 3.48252C24.8498 3.48673 25.1974 3.93771 25.2157 3.969C25.3361 4.17202 25.0729 3.83294 25.0198 3.82598C24.9226 3.81323 24.7983 3.74514 24.8612 3.91457C24.8801 3.96453 25.088 4.254 24.8697 4.0852C24.8411 4.06312 24.7137 3.92603 24.703 3.9211C24.5203 3.84328 24.9257 4.26904 25.0314 4.44361C25.137 4.61816 24.8063 4.37292 24.7153 4.29819C24.4793 4.10518 24.646 4.18541 24.6269 4.1626C24.3991 3.8914 24.405 3.97008 24.3566 3.9751C23.9536 3.56289 23.9388 3.62502 24.3081 3.98198C24.3485 4.02091 24.3328 3.96143 24.3566 3.9751C24.7238 4.40664 24.7314 4.49975 24.3185 4.16339C24.125 4.00571 23.9459 3.77729 23.9521 3.91769C23.9548 3.98122 24.2413 4.25645 24.2894 4.36024C24.3991 4.59713 24.0633 4.40614 24.0406 4.50875C24.0324 4.546 24.2051 4.68143 24.2046 4.71228C24.2039 4.79466 24.0545 4.71212 24.0706 4.81239C24.0722 4.82168 24.2389 4.97697 24.2279 4.99151C24.1479 5.10486 23.9614 5.08182 23.856 5.17735C23.8051 5.22358 23.8033 5.39916 23.7345 5.43023C23.6161 5.48505 23.2776 5.3514 23.2571 5.48234C23.2431 5.56705 23.4115 5.7208 23.4975 5.85305C23.6645 6.10925 23.2193 5.79046 23.1519 5.73969C23.1497 5.73799 23.1552 5.65834 23.0516 5.5959C22.8699 5.43299 23.1516 5.73847 23.1519 5.73969C23.1082 5.707 22.9871 5.75152 23.0003 5.79915C23.0076 5.82513 23.1619 5.97575 23.1629 5.98635C23.1823 6.23494 23.106 6.38404 22.9206 6.42223C22.9155 6.42104 22.7517 6.2441 22.7419 6.24347C22.6008 6.23032 22.762 6.48431 22.828 6.66365C22.8939 6.84293 22.8096 6.84262 22.4904 6.57525C22.4848 6.65282 22.2984 6.57808 22.1871 6.53094C22.0759 6.48379 22.3959 6.82711 22.3993 6.83671C22.5105 7.14156 22.27 7.00002 22.1431 7.06377C22.0822 7.09349 22.037 7.2312 22.0221 7.31659C22.0109 7.38463 21.9108 7.32827 21.9227 7.41424C21.9243 7.42578 22.0739 7.57178 22.078 7.57904C22.21 7.79877 21.8762 7.4112 21.8045 7.35347C21.5442 7.14343 21.403 7.03407 21.4585 7.19704C21.4712 7.23444 21.945 7.7991 21.9528 7.8513C21.9618 7.9182 21.7902 7.71754 21.8044 7.79243C21.8054 7.79866 21.9185 7.91554 21.895 7.92814C21.7874 7.98817 21.6281 8.00983 21.55 8.10734C21.5389 8.12021 21.7331 8.29139 21.72 8.31305C21.6584 8.41453 21.561 8.49468 21.3968 8.48489C21.3558 8.48189 21.2432 8.33958 21.2018 8.30501C20.9507 8.09617 21.2395 8.47247 21.2395 8.48489C21.2487 8.79007 20.8403 8.5905 20.8304 8.8815C20.8305 8.89796 21.1173 9.32328 20.789 9.03738C20.7672 9.01841 20.4323 8.725 20.6176 8.96747C20.6292 8.98263 20.8046 9.1308 20.7582 9.14303C20.7119 9.15531 20.7687 9.31209 20.5534 9.17093C20.4855 9.12653 20.1482 8.83707 20.353 9.1293C20.3675 9.14953 20.8588 9.78328 20.4563 9.40694C20.3901 9.34494 19.9907 8.92118 20.1505 9.18163C20.1816 9.23199 20.2877 9.31012 20.3202 9.3913C20.3706 9.5162 20.2147 9.44961 20.3498 9.67946C20.3738 9.72004 20.6143 10.0369 20.3802 9.84584C20.3436 9.81591 20.2169 9.66806 20.1879 9.66577C20.0491 9.65423 20.0695 9.81486 19.9089 9.78255C19.8523 9.77138 19.647 9.53285 19.5637 9.49598C19.4805 9.45914 19.3743 9.44886 19.4476 9.57752C19.5209 9.70624 19.8961 10.0404 19.8847 10.1068C19.8353 10.3954 19.4636 10.3448 19.2641 10.4765C19.2345 10.496 19.3794 10.6054 19.3447 10.6434C19.2172 10.7842 19.0974 11.1319 18.7151 10.9708C18.4089 10.8419 18.3679 10.5595 18.2093 10.5396C18.1332 10.5305 18.4984 10.9871 18.5026 11.0085C18.5488 11.2222 18.3128 11.0911 18.2932 11.2196C18.2892 11.2462 18.4676 11.4021 18.4624 11.4228C18.446 11.4952 18.3262 11.4642 18.2968 11.519C18.284 11.544 18.4123 11.6707 18.3851 11.6776C18.3213 11.6955 18.2316 11.6766 18.0735 11.5941C18.0591 11.5866 17.9292 11.4005 17.8922 11.4244C17.8328 11.4635 17.6548 11.4034 17.7159 11.5833C17.7345 11.6372 18.0189 11.9351 17.785 11.7653C17.7361 11.7299 17.4036 11.3634 17.6563 11.7132C17.6982 11.7715 18.0247 12.2571 17.7319 12.023C17.6548 11.9614 17.3507 11.6922 17.374 11.758C17.3782 11.768 17.5427 11.917 17.5404 11.949C17.5299 12.0592 17.4501 12.103 17.4359 12.2126C17.4324 12.2422 17.6156 12.3838 17.6054 12.4226C17.5774 12.5296 17.452 12.569 17.3359 12.5811C17.2928 12.5853 17.1784 12.4321 17.1624 12.4189C16.9013 12.2042 17.198 12.5475 17.2067 12.5757C17.257 12.7468 17.0645 12.6364 17.0489 12.7294C17.0442 12.7547 17.2044 12.9004 17.2147 12.9172C17.3139 13.0829 17.0685 12.7806 17.0192 12.7686C16.8802 12.7341 16.8307 12.8057 16.794 12.8791C16.7807 12.9063 16.9772 13.0651 16.9633 13.0874C16.8843 13.223 16.7545 13.3142 16.5526 13.3165C16.5143 13.3165 16.3933 13.1652 16.3587 13.1374C16.1165 12.9425 16.3655 13.2864 16.3835 13.3246C16.4661 13.4989 16.3308 13.3921 16.314 13.4525C16.2336 13.7492 15.9206 13.8928 15.6928 14.0145C15.3968 14.174 15.0883 14.2156 14.8982 14.4638C14.886 14.4795 15.0779 14.651 15.0697 14.6668C14.9547 14.8628 14.73 14.9393 14.6233 15.1444C14.6142 15.1609 14.8013 15.3186 14.7924 15.351C14.7753 15.4186 14.7121 15.461 14.6151 15.4463C14.5681 15.4395 14.4519 15.2617 14.4076 15.2579C14.304 15.2488 14.2391 15.287 14.2154 15.3638C14.2057 15.3968 14.4105 15.5452 14.3844 15.5742C14.2105 15.7752 14.0526 15.9861 13.6365 15.9386C13.6079 15.9354 13.2462 15.5815 13.2852 15.6785C13.3803 15.7818 13.4947 15.9008 13.5976 16.01C13.3754 16.335 12.9788 16.4725 12.6812 16.7204C12.6687 16.7308 12.8745 16.9048 12.8512 16.9261C12.7167 17.0496 12.6402 17.2258 12.3211 17.1628C12.2896 17.1569 11.9702 16.81 11.9801 16.8993C11.9822 16.9153 11.9664 17.0176 12.0219 17.1062C12.0305 17.1194 12.1936 17.2678 12.1789 17.2908C12.0909 17.4214 11.9397 17.4969 11.7357 17.5062C11.7025 17.5075 11.5593 17.32 11.5343 17.3194C11.3577 17.3164 11.3826 17.5394 11.1489 17.4687C10.9919 17.4208 10.7329 17.1079 10.4262 16.8496C10.3829 16.8132 10.3409 16.8411 10.1785 16.6755C9.76998 16.259 9.34521 15.7814 8.90771 15.3395C8.8135 15.2443 8.86536 15.3944 8.66976 15.1336C8.65675 15.116 8.61719 15.0051 8.54976 14.9177C8.50319 14.8572 8.32914 14.6972 8.27405 14.6154C8.21903 14.5337 8.36929 14.6636 8.31045 14.5618C8.25062 14.4591 8.05598 14.2739 8.07427 14.2123ZM21.6888 6.32131C21.5009 6.18919 22.0676 6.78946 21.9653 6.61389C21.9597 6.60469 21.6981 6.32771 21.6888 6.32131ZM25.452 2.53153C25.1583 2.30869 25.5004 2.7224 25.7244 2.89717C25.9482 3.07173 25.5411 2.59902 25.452 2.53153ZM25.6998 1.9256C25.4524 1.76509 26.255 2.61725 26.1433 2.39648C26.1371 2.38392 25.7141 1.9349 25.6998 1.9256ZM10.4902 16.6309C10.4822 16.6235 10.449 16.6404 10.4559 16.6489C10.6237 16.8512 10.6898 16.8171 10.4902 16.6309ZM25.9279 1.30583C25.8031 1.20612 25.8859 1.37999 26.0411 1.50399C26.1659 1.60374 26.0832 1.42984 25.9279 1.30583ZM19.4176 7.27884C19.4086 7.27045 19.3824 7.28016 19.4309 7.32999C19.5872 7.49042 19.5691 7.42016 19.4176 7.27884ZM26.6468 0.597714C26.5087 0.669097 25.7742 0.0337955 25.9669 0.000179529C26.0017 -0.00592282 26.1346 0.266576 26.2219 0.303593C26.3813 0.370829 25.9938 -0.0988158 26.2694 0.0876254C26.3198 0.121849 26.6561 0.595191 26.6475 0.598871C26.6473 0.598482 26.647 0.598102 26.6468 0.597714ZM20.9841 5.62331C20.976 5.61604 20.9432 5.63309 20.9501 5.64148C21.1177 5.8439 21.1837 5.80967 20.9841 5.62331ZM17.9868 7.94379C17.9693 7.92836 17.895 7.96954 17.9079 7.98687C18.1735 8.32584 18.3248 8.24348 17.9868 7.94379ZM22.2875 3.53637C22.1329 3.31935 22.1448 3.26495 22.3962 3.48256C22.3563 3.49647 22.3266 3.52135 22.2875 3.53637Z" fill="#3C4A33"/>
<path fill-rule="evenodd" clip-rule="evenodd" d="M1.55653 0.351482C2.00471 0.286395 2.59243 0.356522 3.03895 0.452068C3.17876 0.481762 3.1084 0.614112 3.20497 0.640545C3.39389 0.692012 3.57003 0.627037 3.75673 0.688396C3.81841 0.709597 3.74168 0.919249 3.80653 0.936443C4.16209 1.02917 4.49907 0.975812 4.85926 1.02043C6.63344 1.24052 8.37783 1.31933 10.1737 1.41496C10.7659 1.44638 11.486 1.63692 12.0975 1.55363C12.1685 1.54323 12.126 1.35883 12.1395 1.34367C12.3524 1.11154 12.2819 1.48345 12.4208 1.53312C12.973 1.72822 13.5876 1.74485 14.119 1.67375C14.3444 1.64262 14.1184 1.27746 14.3456 1.48234C14.3612 1.4967 14.3045 1.69162 14.3661 1.71281C14.5067 1.75969 14.7738 1.72466 14.8827 1.74015C15.0926 1.771 15.1275 1.76918 15.3261 1.7714C15.5976 1.77618 15.9205 1.87329 16.2118 1.82902C16.2737 1.81875 16.1922 1.61925 16.2909 1.58488C16.3901 1.55092 16.6521 1.56711 16.7411 1.61418C16.8295 1.6615 16.7929 1.81906 16.8085 1.85539C16.9374 2.1603 17.2411 1.73791 17.2802 1.72746C17.9925 1.54974 18.6037 1.79058 19.2724 1.78996C19.594 1.7893 19.9299 1.75708 20.2557 1.73625L16.286 5.04191C16.0822 5.04296 15.878 5.04912 15.6727 5.0673C15.6113 5.07316 15.6999 5.29279 15.6005 5.30851C15.3959 5.34197 15.1364 5.32999 14.9296 5.25969C14.8292 5.22561 14.964 5.03637 14.8632 5.00578C14.6267 4.93489 14.3727 4.91969 14.1298 4.955C14.0265 4.97056 14.1819 5.19543 14.0477 5.19816C13.1325 5.22052 12.2334 5.2595 11.3085 4.96769C11.2451 4.94766 11.1893 4.48986 11.0546 4.57707C11.0444 4.70421 11.0453 4.85426 11.0409 4.99015C9.70837 5.06335 8.3889 4.90438 7.05262 4.8798C6.9963 4.87882 7.09316 5.1215 6.98426 5.12101C6.35298 5.11743 5.73937 5.18449 5.09364 4.94328C5.03008 4.91815 5.06225 4.49328 4.87391 4.55754C4.83937 4.56953 4.55688 4.62635 4.48329 4.71867C4.47332 4.73263 4.52441 4.93089 4.43348 4.93742C3.90095 4.96769 3.34205 4.92247 2.81044 4.8007C2.72524 4.78022 2.81558 4.56898 2.75477 4.55265C2.32151 4.44019 1.85044 4.60048 1.43641 4.40812C1.36955 4.37683 1.32437 4.33175 1.29286 4.27629C1.27648 4.36109 1.23164 4.45997 1.31141 4.55265C1.34051 4.58562 1.82178 4.7712 1.85438 4.79777C2.08342 4.99695 1.31563 5.02634 1.26747 5.03703C0.80789 5.15704 1.33088 5.38598 1.36708 5.44621C1.53273 5.72156 1.42472 5.95514 1.54286 6.18547C1.61943 6.33609 2.12648 6.3514 2.11122 6.46965C2.05984 6.86303 1.35176 7.00037 1.96571 7.37101C2.09685 7.45039 2.65131 7.37173 2.21571 7.65617C2.18821 7.67406 1.78921 7.88551 2.04091 8.00773C2.07297 8.02302 2.23521 8.0227 2.24891 8.04289C2.33674 8.17847 2.20777 8.26922 2.26942 8.41691C2.33113 8.5646 2.42283 8.74242 2.36805 8.91105C2.33526 9.01267 2.03379 9.14359 1.95985 9.1923C1.74803 9.32959 2.09536 9.47634 1.83876 9.56144C1.58006 9.64728 1.18661 9.47997 1.01942 9.705C1.43957 9.71333 1.8713 9.73261 2.29384 9.74601C2.27901 10.2393 2.14343 10.7247 2.162 11.2196C2.16503 11.2808 2.39057 11.2184 2.3993 11.2841C2.43511 11.5616 2.27462 11.8039 2.33876 12.0917C2.38932 12.3145 2.6281 12.559 2.68837 12.7919C2.20763 12.9342 2.37097 13.2801 2.32704 13.5312C2.31169 13.6189 2.1834 13.6132 2.14149 13.6757C1.98652 13.9117 2.41152 13.8014 2.47841 13.8661C2.7626 14.1433 1.802 14.1672 1.82509 14.4941C1.82617 14.5114 2.33829 14.7234 2.37098 14.7528C2.5788 14.938 2.19388 14.7841 2.15516 14.8993C2.08593 15.1113 1.96298 15.2591 2.11317 15.5077C2.15797 15.5803 2.47663 15.7538 2.23036 15.8945C2.19813 15.9129 2.0297 15.9033 2.01844 15.9179C1.85299 16.1878 2.38593 16.1953 2.5663 16.3495C2.74542 16.5037 2.37835 16.7414 2.27235 16.79C1.99996 16.916 2.15339 16.6958 2.1288 16.6864C1.80871 16.6058 1.86383 16.7793 1.8368 16.912C1.31465 16.9312 1.34562 17.1169 1.81044 17.0497C1.86102 17.0419 1.81297 16.9387 1.8368 16.912C2.3487 17.0286 2.41396 17.2326 1.93544 17.4579C1.71108 17.5633 1.4501 17.4637 1.54579 17.7841C1.58911 17.9294 1.94769 17.8737 2.04579 18.0019C2.26936 18.2951 1.93435 18.6761 1.98719 18.9784C2.00651 19.0879 2.20364 18.9816 2.22352 19.0566C2.27654 19.2553 2.12938 19.4311 2.20497 19.6308C2.2157 19.6476 2.41721 19.6054 2.41981 19.6669C2.44365 20.1379 2.31214 20.5482 2.30848 21.04C2.30775 21.1484 2.33107 21.2957 2.35438 21.4472C2.47009 21.46 2.5919 21.4618 2.6327 21.4423C2.67667 21.4205 2.6527 21.2252 2.67567 21.2177C3.22206 21.0431 3.76994 20.9936 4.32411 21.0849C4.3333 21.0927 4.31927 21.3056 4.34169 21.3134C4.66247 21.4104 4.86813 21.1439 5.1327 20.9853C5.39727 20.8268 5.60694 20.8799 5.76356 21.2548C5.9632 21.2077 6.25012 21.373 6.41493 21.4736C6.57968 21.5739 6.60258 21.1489 6.61708 21.1405C7.06935 20.8717 7.33141 21.1154 7.80067 21.1532C8.02394 21.1718 8.46649 21.1099 8.7079 21.0634C8.89848 21.0262 9.01369 21.1259 9.18934 21.0624C9.21266 21.0535 9.1898 20.869 9.19618 20.8573C9.39222 20.6313 9.29858 21.0923 9.33876 21.1757C9.48568 21.4762 9.57669 21.6363 9.82802 21.495C9.88609 21.462 10.0554 20.7967 10.161 20.7577C10.2983 20.7086 10.2467 20.9464 10.3905 20.8886C10.4024 20.8807 10.4013 20.7367 10.4891 20.7431C10.9014 20.7713 11.3508 20.8574 11.7792 20.8427C11.8375 20.8409 11.763 20.6074 11.8475 20.6015C12.2442 20.5738 12.6789 20.583 13.0653 20.6923C13.1602 20.72 13.1014 20.8829 13.122 20.9316C13.2484 21.2247 13.4275 20.8012 13.4579 20.7909C14.1655 20.5858 14.7074 20.9719 15.4286 20.788C15.4683 20.7764 15.7704 20.3195 15.9052 20.7118C15.9147 20.7388 16.0481 21.1392 16.1659 20.8652C16.1731 20.8477 16.0903 20.641 16.2352 20.662C16.3803 20.6829 16.6141 20.5453 16.8134 20.7724C16.8767 20.8448 17.0257 21.2438 17.2138 20.9247C17.2282 20.897 17.5176 20.1824 17.621 20.6786C17.6378 20.7608 17.6199 21.2879 17.8446 21.0175C17.8871 20.9649 17.8098 20.8477 17.9227 20.7743C18.0961 20.6612 18.3259 20.8022 18.539 20.5673C18.5564 20.5476 18.6008 20.4602 18.6552 20.3993C18.6085 20.3809 18.5381 20.3824 18.536 20.2655C18.5239 19.6102 18.3718 18.4787 18.7167 17.9101C18.993 17.4546 19.2039 18.0277 19.3163 17.6796C19.3694 17.5117 18.842 17.3296 18.8251 17.289C18.6568 16.8931 18.8897 16.6179 18.8182 16.2616C18.8034 16.188 18.5905 16.2596 18.58 16.1972C18.5429 15.9832 18.6384 15.7581 18.621 15.5536C18.6127 15.4619 18.4495 15.4786 18.4618 15.3945C18.4901 15.1924 18.5588 15.0133 18.7118 14.8163C18.7275 14.7999 18.9286 14.9187 18.9364 14.7704C18.9474 14.542 19.08 14.262 18.9638 13.997L21.6698 11.7441C21.6657 11.9142 21.6842 12.0822 21.6815 12.2695C21.6806 12.3605 21.9185 12.2528 21.9257 12.3407C21.9597 12.7974 21.9393 13.2705 21.8339 13.7177C21.8098 13.8172 21.6068 13.7259 21.5849 13.7734C21.4911 13.9829 21.8734 14.0295 21.7909 14.2304C21.774 14.2726 21.6022 14.2493 21.5819 14.2568C21.2844 14.3772 21.7027 14.4819 21.7157 14.5136C21.8434 14.9073 21.4012 15.1596 21.4638 15.54C21.4722 15.585 21.6909 15.483 21.7001 15.6103C21.7606 16.4622 21.7007 17.3636 21.5253 18.207C21.4985 18.3369 21.3361 18.2465 21.3134 18.2528C20.996 18.3873 21.4203 18.4747 21.4364 18.5175C21.5517 18.8548 21.1955 19.1701 21.702 19.3993C21.561 20.5456 21.7163 21.6876 21.5487 22.8261L21.5927 23.5302L20.7948 23.58C20.5145 23.5387 20.2339 23.4782 19.954 23.3886C19.9363 23.3824 19.9682 23.174 19.9325 23.164C19.5 23.0465 19.5827 23.3715 19.2968 23.7695C19.2248 23.8692 19.0054 23.3914 18.9852 23.3544C18.9148 23.225 18.9877 22.9147 18.9647 22.8876C18.7688 22.6902 18.8003 23.72 18.536 23.7206C18.5284 23.7163 18.5618 23.5297 18.5399 23.5107C18.4712 23.4519 18.4031 23.5264 18.3358 23.4618C18.1815 23.3108 18.1261 22.8099 17.8905 23.1005C17.8607 23.1383 17.9058 23.7236 17.6698 23.6962C17.5754 23.6847 17.1599 23.6939 17.0429 23.6562C16.9265 23.6184 17.0058 23.4308 16.9979 23.4218C16.6838 23.1728 16.8026 23.0697 16.6454 22.7011C16.4881 22.334 16.5316 23.2086 16.4677 23.3075C16.4034 23.405 16.1728 23.1994 16.1161 23.1278C16.0598 23.0564 16.13 22.9369 16.08 22.8964C15.7464 22.6322 15.933 23.3314 15.8231 23.4706C15.5641 23.7994 15.362 23.1497 15.1249 23.0859C15.0614 23.0694 15.1131 23.2171 15.0565 23.2314C14.8303 23.2842 14.6936 23.0812 14.4364 23.2665C14.3943 23.2968 14.1854 23.6879 14.0507 23.4013C14.0317 23.3598 14.0854 23.1984 13.9891 23.162C13.845 23.1077 13.5854 23.0719 13.4306 23.1259C13.3166 23.1662 13.4473 23.4322 13.3036 23.3495C13.2401 23.3124 13.3577 23.1571 13.2382 23.1005C13.1186 23.044 12.8126 23.0512 12.6962 23.0566C12.5814 23.0622 12.6425 23.26 12.6347 23.2773C12.578 23.3552 12.3553 23.4529 12.3349 23.453C11.3415 23.4777 10.4251 23.137 9.4579 23.2499C9.38251 23.2588 9.43195 23.4707 9.42079 23.4755C9.16167 23.5641 9.36553 22.9976 9.18446 22.8075C9.21058 23.2399 9.10356 23.1616 8.92079 23.2089C8.83266 23.2321 8.8799 23.4005 8.87196 23.4179C8.74154 23.6711 8.65049 23.3444 8.62684 23.2763C8.54022 23.0287 8.44654 23.3205 8.38759 23.1552C8.32868 22.991 8.46335 22.7479 8.28798 22.7509C8.23906 22.9062 8.36925 23.3111 8.23622 23.3769C7.73353 23.6251 6.79515 23.3076 6.39051 23.2743C5.98703 23.2413 5.85607 23.2698 5.62098 23.2138C5.19632 23.1125 5.35138 23.4131 5.08778 23.5507C4.82387 23.6872 4.95193 22.948 4.91395 22.789C4.87671 22.631 4.83624 22.7935 4.78993 22.707C4.74372 22.6197 4.8433 22.5114 4.73524 22.4784C4.62641 22.4457 4.32882 22.7281 4.28993 22.8945C4.20834 23.2467 4.34163 23.616 4.0536 23.4862C4.03871 23.4747 4.09029 23.2848 4.02821 23.2646C3.52432 23.1149 3.00025 23.1059 2.49696 22.9736C2.42786 22.9551 2.48898 22.7394 2.44911 22.7255C2.3214 22.6834 2.24611 22.6874 2.19716 22.7255C2.1874 22.7595 2.17624 22.7927 2.16786 22.8261L2.14442 22.8027C2.08971 22.924 2.07567 23.1343 1.94911 23.3573C2.00073 22.8181 1.87388 22.4876 1.55555 22.4843C1.36423 22.4822 1.39689 22.7177 1.27333 22.8837C1.23622 22.9337 1.10081 22.7726 1.07606 22.8827C0.995162 23.2447 1.1225 23.6499 0.794812 23.4892L0.175671 23.5282L0.131726 22.8261H0.194226L0.234265 23.4618L0.794812 23.4267C0.798833 23.3827 0.80386 23.3263 0.794812 23.2948L0.357312 23.3222L0.326062 22.8261C0.338362 22.8225 0.347229 22.8165 0.349499 22.8075C0.42803 22.4859 0.0497871 22.4471 0.00379622 22.0995C-0.0321964 21.8269 0.198653 21.3416 0.236218 21.0312C0.842097 21.0376 0.703654 20.7449 0.286023 20.6259C0.303109 20.4246 0.279153 20.2072 0.336804 20.0126C0.356492 19.9459 0.530794 19.9885 0.550671 19.9804C0.847351 19.8511 0.443402 19.7642 0.425671 19.7206C0.270668 19.2494 0.579429 18.8647 0.27821 18.415C0.266192 18.399 -0.153784 18.3729 0.15321 18.2528C0.174945 18.2456 0.365883 18.3935 0.380749 18.1825C0.395605 17.971 0.621664 17.572 0.426648 17.2782C0.379663 17.2072 0.0375273 17.027 0.304577 16.8827C0.340968 16.8636 0.462018 16.8851 0.529187 16.8573C0.743143 16.7677 0.317953 16.7186 0.679577 16.6132C1.04096 16.5077 1.31144 16.2881 1.06239 15.9921C1.05514 15.9827 0.717541 15.9124 0.722546 15.8193C0.731355 15.6705 0.801892 15.4589 0.799695 15.3036C0.797834 15.2301 0.590021 15.277 0.584851 15.2646C0.467438 14.7646 0.654172 14.4085 0.735242 13.873C0.750479 13.7748 0.465415 13.4927 0.691296 13.3027C0.938852 13.0942 1.96638 13.3085 1.72157 12.829C1.62355 12.6356 0.3193 12.3905 0.995007 12.0429C0.827465 11.3686 1.17367 10.7445 0.93446 10.0683C0.923321 10.0378 0.55939 9.94147 0.564343 9.87004C0.572699 9.76409 0.742592 9.70552 0.753796 9.6298C0.804916 9.31238 0.659861 9.0218 0.682507 8.71574C0.690862 8.59973 0.866839 8.6402 0.876843 8.50187C0.886507 8.36332 0.654549 8.27069 0.766492 8.08293C0.852086 7.9412 1.32546 7.79936 1.38075 7.61125C0.913599 7.60407 0.922916 7.47465 0.799695 7.24504C0.775925 7.20118 0.615162 7.24728 0.59364 7.22746C0.50983 7.14246 0.643744 7.06305 0.552624 6.98234C0.529453 6.96306 0.372087 6.96205 0.344617 6.94621C0.109588 6.80968 0.468635 6.58445 0.53114 6.54582C0.767969 6.39791 0.560754 6.32827 0.654187 6.21476C0.747608 6.10204 0.864124 6.2709 0.920788 6.13859C1.03796 5.86423 1.0131 5.512 1.0204 5.23332C1.02233 5.12221 0.809724 5.19725 0.804577 5.18156C0.750556 4.95156 0.976652 4.71928 0.552624 4.59172C1.6496 4.43224 0.446306 4.45274 0.665906 4.12394C0.682574 4.10062 1.10397 4.07335 1.24305 4.14054C1.20204 3.97415 1.20007 3.76159 1.11415 3.5507C1.09834 3.51204 0.995745 3.49755 0.943249 3.40129C0.697207 3.71706 0.169393 3.81949 0.24696 3.37687C0.264874 3.27526 0.526399 3.59514 0.605359 3.46574C0.748619 3.22918 0.2003 3.07236 0.494031 2.83097C0.528894 2.80312 0.754914 2.9148 0.911999 3.00578C0.917751 2.55527 0.966615 2.07797 0.938367 1.61125C0.931157 1.48993 0.701637 1.62023 0.837781 1.32707C0.847834 1.30722 1.0144 1.21044 1.05555 1.11125C1.0841 1.04244 1.03239 0.828153 1.09071 0.740154C1.14894 0.652901 1.21299 0.831189 1.30946 0.728436C1.406 0.62376 1.36385 0.380445 1.55653 0.351482ZM20.5819 23.205C20.7301 22.8169 20.1562 22.7758 20.2821 23.1835C20.2892 23.2045 20.5712 23.2241 20.5819 23.205ZM7.37294 22.831C7.43922 22.5937 7.19323 22.5745 7.24501 22.8212C7.24832 22.831 7.36778 22.8403 7.37294 22.831ZM15.2079 22.6796C15.2019 22.4767 15.079 22.5342 15.119 22.7216C15.1233 22.7326 15.2096 22.7418 15.2079 22.6796ZM7.15712 21.9237C7.30946 22.1265 7.33179 21.38 7.16688 21.5585C7.1589 21.5689 7.14925 21.9137 7.15712 21.9237ZM20.1415 21.2187C20.2686 21.2739 20.4452 21.3054 20.5468 21.2001C20.628 21.1154 20.5999 20.8937 20.621 20.7392L20.1415 21.2187ZM1.57997 10.7216C1.2502 10.9211 1.73442 11.0576 1.98915 10.9169C2.24292 10.7764 1.68133 10.6615 1.57997 10.7216ZM1.33876 8.65226C1.07874 8.88545 2.13882 8.92248 1.92469 8.67277C1.91238 8.65833 1.35966 8.63907 1.33876 8.65226ZM1.07704 6.59953C0.933607 6.67233 1.09888 6.88139 1.27723 6.79094C1.41987 6.71798 1.25512 6.50951 1.07704 6.59953ZM1.66884 3.43742C1.60312 3.67489 1.85031 3.69406 1.79774 3.44719C1.79439 3.43743 1.67442 3.42818 1.66884 3.43742Z" fill="#3C4A33"/>
</svg>
