<svg width="54" height="54" viewBox="0 0 54 54" fill="none" xmlns="http://www.w3.org/2000/svg">
<path d="M26.6426 16.625C27.4765 16.6467 28.2828 16.9273 28.9502 17.4277C29.617 17.9278 30.1125 18.6234 30.3672 19.417C30.7228 20.5322 31.0903 21.4361 31.498 21.9775C32.4835 23.2907 33.7611 24.3565 35.2295 25.0908C36.3991 25.6756 37.6649 26.0359 38.9609 26.1592V28.001C37.4741 27.8818 36.0181 27.4959 34.6641 26.8574C33.0079 26.0764 31.5448 24.938 30.3809 23.5244L29.001 21.8486L27.1855 32.1367L27.6279 32.5088L31.3721 35.6494L35.1992 46.165L33.4756 46.792L29.8184 36.7393L23.1162 31.1143L23.1084 31.1084L23.1006 31.1016C22.7064 30.7835 22.4044 30.3658 22.2266 29.8916C22.0487 29.4172 22.0009 28.9033 22.0889 28.4043L23.4951 20.4365L20.1943 22.835L20.0664 22.9287L16.4844 27.8584L15 26.7803L18.7559 21.6133L24.874 17.1699L24.876 17.1689C25.3859 16.7965 26.0056 16.6041 26.6367 16.624L26.6426 16.625ZM23.9688 36.9854L22.873 39.3896L17.4424 45.8613L16.0391 44.6846L21.0977 38.6543L21.2178 38.5117L22.2363 35.5342L23.9688 36.9854ZM29.4189 8C30.1704 8.00001 30.8915 8.29876 31.4229 8.83008C31.9539 9.36132 32.2519 10.0818 32.252 10.833C32.252 11.5844 31.9541 12.3056 31.4229 12.8369C30.8915 13.3682 30.1704 13.667 29.4189 13.667C28.6675 13.667 27.9464 13.3682 27.415 12.8369C26.8838 12.3056 26.5859 11.5844 26.5859 10.833C26.586 10.0818 26.884 9.36132 27.415 8.83008C27.9464 8.29874 28.6675 8.00002 29.4189 8Z" fill="black"/>
<path d="M28.046 15.8662C28.5352 16.0009 29.0878 16.2756 29.5422 16.6382C29.8278 16.8633 30.0761 17.118 30.2716 17.3633C30.4285 17.5649 30.3044 17.5002 30.4045 17.6425C30.5953 17.9225 30.7854 18.1783 30.9122 18.4897C30.9528 18.5926 30.818 18.5062 30.861 18.6121C30.9385 18.8061 31.0075 18.9983 31.0667 19.1925C31.1626 19.5122 31.2724 19.82 31.3799 20.1386C31.5599 20.6691 31.7729 21.1989 32.0336 21.5742C32.9183 22.8225 34.107 23.854 35.4894 24.571C35.8131 24.7391 36.1474 24.8899 36.4909 25.0225C37.2309 25.3138 38.1677 25.6052 39.0089 25.6555L39.4589 25.6906L39.4669 26.1592C39.4678 26.1919 39.4689 26.2245 39.4701 26.2569C39.474 26.3622 39.5477 26.2994 39.5538 26.3195C39.6468 26.6339 39.498 26.5294 39.4782 26.7347C39.4391 27.1428 39.4179 27.5738 39.4101 28.001L39.4182 28.4798L38.925 28.4487C38.486 28.4058 38.0525 28.3529 37.6505 28.2941C37.3081 28.2418 37.6212 28.4522 37.2938 28.3023C37.2713 28.2919 37.3732 28.2334 37.2821 28.2057C37.0756 28.1444 36.677 28.0596 36.5184 28.0076C36.2132 27.9083 36.1626 27.8932 35.8748 27.7976C35.4817 27.6647 35.0377 27.4492 34.6276 27.2802C34.5398 27.2441 34.6205 27.37 34.4768 27.3182C34.469 27.3154 34.4604 27.3121 34.4514 27.3085C34.2936 27.2477 33.9687 27.0749 33.8648 26.9974C33.7542 26.9163 33.8354 26.8883 33.8213 26.8642C33.7079 26.6661 33.2278 26.5764 33.1742 26.5458C32.2103 26.0261 31.5349 25.3525 30.8198 24.6306C30.5593 24.3663 30.2967 24.0864 30.0495 23.7973C29.7895 23.4939 29.5324 23.1935 29.2981 22.9054C29.0764 22.6326 28.8739 22.3728 28.675 22.1171L29.4169 21.922C29.3246 22.3716 29.2339 22.8101 29.1541 23.2874C29.1397 23.3733 29.2503 23.2892 29.2329 23.3941C29.0473 24.5091 28.8421 25.6126 28.5838 26.7098C28.5578 26.8198 28.5015 26.6622 28.4707 26.7712C28.2837 27.4392 27.9329 28.4865 28.2167 28.953C28.1216 29.4111 28.0086 29.9676 27.8643 30.367C27.7714 30.6245 27.7281 30.3508 27.7084 30.6838C27.7039 30.7589 27.7986 30.6769 27.7859 30.7885C27.7332 31.2508 27.6211 31.7455 27.5786 32.2061L27.4424 31.8313C27.4485 31.8356 27.4545 31.8398 27.4605 31.8441C27.5387 31.8987 27.5644 31.8278 27.5932 31.8354C27.7326 31.8741 27.8513 32.0167 27.9369 32.1414C27.998 32.2303 28.0425 32.3105 28.0655 32.3365C28.4847 32.8089 28.8577 33.0742 29.3022 33.45C29.4053 33.5373 29.3441 33.3618 29.4455 33.4431C29.9707 33.8659 30.5004 34.3209 30.979 34.7774C31.0853 34.8791 30.9298 34.8544 30.9779 34.9062C31.1908 35.1338 31.3417 35.0606 31.5477 35.2766C31.5913 35.322 31.5197 35.3525 31.5236 35.3657C31.5312 35.3917 31.5414 35.4139 31.5536 35.433L31.6087 35.4777L31.6375 35.5528C31.6444 35.7096 31.8086 35.7813 31.8254 35.8179C32.0721 36.3464 32.0329 36.7558 32.2484 37.2747C32.2744 37.3367 32.305 37.1644 32.3729 37.3405C32.8257 38.5139 33.2579 39.7718 33.6176 40.9654C33.6737 41.1509 33.5645 41.0437 33.561 41.0579C33.5096 41.2878 33.7134 41.3503 33.741 41.4074C33.9546 41.8594 33.9795 42.3452 34.2856 42.5937C34.6665 43.7597 35.1047 44.9014 35.5119 46.0513L35.6289 46.3567L35.3129 46.4777C34.7359 46.6819 34.1568 46.8783 33.5715 47.0557L33.314 47.1543L33.2119 46.8879C33.1349 46.6338 33.0615 46.3785 32.9925 46.1217C32.9854 46.096 33.0804 46.1121 33.0659 46.061C32.8918 45.4448 32.8113 45.6046 32.5172 45.2619C32.4432 45.1756 32.5132 44.8055 32.5167 44.7738C32.5298 44.6579 32.6839 44.7171 32.6814 44.6808C32.6568 44.382 32.2855 44.5672 32.152 44.2006C32.1485 44.1889 32.2373 44.2111 32.2332 44.1777C32.2207 44.074 32.1578 43.9895 32.1483 43.8871C32.1272 43.6523 32.2877 43.5075 32.0592 43.2203C32.0299 43.1841 31.8332 43.3272 31.7245 42.9961C31.6813 42.864 31.4674 42.2877 31.4227 42.1206C31.3781 41.9537 31.4893 42.039 31.4882 42.0263C31.4233 41.5566 31.5222 41.7077 31.5814 41.4389C31.6401 41.1704 31.3327 41.3508 31.2636 41.2752C31.1945 41.1994 31.1555 40.8518 31.1538 40.7635C31.1522 40.6753 31.2328 40.7568 31.2226 40.6815C31.1536 40.1827 30.9852 40.5379 30.8775 40.4045C30.6229 40.0901 30.7654 39.7214 30.6696 39.3836C30.6437 39.2923 30.6145 39.3852 30.5805 39.3078C30.4464 39.0011 30.4539 38.7845 30.2541 38.4528C30.2214 38.3985 29.9695 38.1631 30.0093 37.937C30.0152 37.9049 30.1034 37.958 30.0684 37.8192C30.0161 37.6119 29.8984 37.2469 29.7999 37.0394C29.7271 36.8863 29.693 37.1046 29.6515 36.8936C29.6335 36.8014 29.7476 36.9381 29.7141 36.7772L29.7471 36.8242C29.7451 36.8221 29.7432 36.8199 29.7411 36.8176C29.6204 36.6869 29.2731 36.3989 29.1402 36.2902C29.0075 36.1817 29.0273 36.304 29.0132 36.2993C28.9289 36.2693 28.6518 36.0878 28.6296 36.069C27.5003 35.1341 26.5525 34.1605 25.4301 33.2774C25.3421 33.2081 25.3444 33.3214 25.3304 33.3115C25.0137 33.0924 25.3912 33.1129 25.2348 32.8825C25.1531 33.0401 25.0522 32.9144 24.833 32.7553C24.7274 32.6787 24.7385 32.7757 24.725 32.7733C24.5116 32.7273 24.4933 32.54 24.4841 32.4972C24.4498 32.3391 24.268 32.3393 24.244 32.2327C24.2196 32.1264 24.4355 32.1805 24.2362 32.0149C24.1407 32.0157 24.1839 32.2635 24.0163 32.1571C23.7118 31.964 23.3267 31.6347 22.9593 31.3013L22.9697 31.3096C22.9672 31.3075 22.9647 31.3055 22.9621 31.3034L22.9479 31.2918C22.9454 31.2895 22.9428 31.2871 22.9403 31.2847C22.5089 30.9163 22.2459 30.4168 22.1258 30.1182C22.1014 30.0601 22.0804 30.0052 22.0619 29.9534C21.9051 29.4814 21.8856 29.2766 21.8914 28.9475C21.9206 28.5175 21.9097 28.4706 21.8739 28.3664C21.8572 28.315 21.8411 28.2507 21.8458 28.1143C21.8595 27.7203 22.1178 27.9586 22.1902 27.9144C22.2624 27.8713 22.2084 27.8006 22.2547 27.7392C22.301 27.6781 22.3179 27.8312 22.3588 27.6753C22.3996 27.5193 22.3646 27.067 22.309 26.9993C22.1912 26.8562 22.0111 27.0255 22.1362 26.6158C22.1435 26.5922 22.2063 26.6839 22.2303 26.5931C22.4186 25.871 22.5565 25.1107 22.7378 24.3883C22.7629 24.289 22.8322 24.394 22.8478 24.3364C23.0099 23.7363 22.8277 23.9289 22.7271 23.5665C22.9263 23.679 23.0889 23.5172 23.1718 23.0546C23.2217 22.7766 23.1205 22.8081 23.0868 22.6166C23.0766 22.5592 23.1751 22.3736 23.1378 22.3302C23.0159 22.1874 22.8235 22.3446 22.9713 21.8787C22.978 21.8583 23.0443 21.9387 23.0618 21.8673C23.1753 21.4052 23.0359 21.3229 23.1071 20.8143C23.1241 20.6927 23.1559 20.544 23.1947 20.3835L23.6745 20.6833C23.357 20.8851 22.9709 21.1066 22.7073 21.2852C22.5725 21.0834 22.2551 21.3826 22.2115 21.6211C21.9669 21.7903 21.7128 21.9866 21.4668 22.1368C21.3821 22.1886 21.3934 22.0936 21.3789 22.0948C21.1542 22.1109 21.1453 22.3185 21.0971 22.3613C20.8245 22.5992 20.5506 22.7764 20.2851 22.9598C20.2422 22.9897 20.199 23.0202 20.156 23.051L20.1891 23.0179C20.0422 23.2163 19.904 23.4225 19.7879 23.6637C19.7776 23.6853 19.8915 23.8152 19.6876 23.8864C19.674 23.8907 19.7409 23.6683 19.5526 23.9174C19.3642 24.1665 18.9451 24.5896 18.7535 24.9862C18.707 25.0821 18.6617 25.3772 18.4501 25.4866C18.4216 25.501 18.4008 25.4475 18.355 25.4649C18.2078 25.5216 18.3031 25.6802 18.0946 25.721C17.8861 25.7619 17.6082 25.96 17.432 26.3723C17.4261 26.3853 17.4745 26.5484 17.3919 26.6583C17.2601 26.8338 17.0542 27.0693 16.9202 27.2552C16.8561 27.3443 16.9652 27.3367 16.9552 27.353C16.8231 27.5615 16.694 27.7428 16.5623 27.915L16.508 27.9925L16.4278 27.9363C16.0843 27.6736 15.7773 27.4007 15.364 27.0739C15.2957 27.0197 15.1225 26.9431 14.9574 26.839L14.899 26.798L14.9413 26.7376C15.0105 26.6281 15.0918 26.5222 15.1867 26.4529C15.4478 26.2619 15.5946 26.7598 15.9315 26.1296C16.0676 25.8756 15.8579 25.2763 16.3784 25.0203C16.9093 24.176 17.5623 23.5129 18.0716 22.6495C18.0946 22.6107 18.0602 22.4103 18.1238 22.3261C18.2185 22.2013 18.3241 22.1718 18.3935 22.084C18.5205 21.9244 18.6311 21.7622 18.7379 21.6002C18.9399 21.4379 19.131 21.2789 19.3406 21.133C19.4814 21.0348 19.4742 21.127 19.6421 21.01C19.8098 20.893 19.8656 20.7378 20.1161 20.6113C20.3055 20.5159 20.5861 20.5463 20.8238 20.401C20.7226 20.2435 20.8792 20.1345 21.1245 19.8953C21.1716 19.8493 21.0768 19.8377 21.0972 19.8132C21.179 19.7124 21.3046 19.6878 21.3796 19.5882C21.3979 19.5641 21.3614 19.5116 21.3743 19.489C21.4821 19.2945 21.835 19.2157 21.8958 19.2024C22.1284 19.1508 22.1622 19.0237 22.3198 18.9554C22.4771 18.8874 22.3022 19.0722 22.4737 18.9757C22.829 18.7756 23.2441 18.4614 23.5788 18.222C23.712 18.1262 23.5713 18.123 23.5893 18.1077C23.8512 17.8907 24.1822 17.7624 24.2348 17.5144C24.6831 17.7312 24.3754 17.3597 24.8196 17.1456C24.8293 17.141 24.8487 17.1483 24.8695 17.1637C24.8723 17.1648 24.8741 17.1667 24.8758 17.1687C24.9017 17.1893 24.9282 17.2218 24.9411 17.2581L24.9253 17.2677C24.9257 17.27 24.926 17.2722 24.9263 17.2745L24.9427 17.2645C24.9534 17.3013 24.9492 17.3418 24.9152 17.3792C24.8144 17.49 24.5962 17.5683 24.4594 17.7264C24.4269 17.7637 24.3178 18.0834 24.2942 18.115C24.1095 18.363 23.8934 18.1366 23.8707 18.132C23.6194 18.0873 23.4694 18.4552 23.406 18.5191C23.1161 18.8117 22.8109 18.9794 22.5636 19.2176C22.4016 19.373 22.5034 19.5502 22.3584 19.6478C21.8766 19.9723 21.5461 19.8621 21.2478 20.3824C21.1837 20.4937 21.4085 20.6049 20.9658 20.7106C20.938 20.7172 20.5916 20.7714 20.5051 20.9591C20.4942 20.9827 20.5328 21.0346 20.5119 21.0566C20.3706 21.2027 20.2323 21.2394 20.0704 21.3875C19.9085 21.5356 19.718 21.7194 19.5037 21.8479C19.3746 21.9255 19.148 21.941 19.0725 21.9593C19.054 21.9637 19.0364 21.9695 19.0196 21.9764L19.1189 21.8771C18.9723 22.0016 18.9473 22.22 18.8037 22.2575C18.6456 22.2991 18.664 22.0064 18.4146 22.2358C18.5434 22.3446 18.6664 22.4689 18.7915 22.5843C18.3587 23.1697 17.8935 23.7171 17.4701 24.3123C17.4177 24.3862 17.5453 24.3644 17.491 24.445C17.2618 24.7847 16.9994 25.0362 16.7704 25.3949C16.5934 25.6727 16.4589 26.0206 16.2762 26.3128C15.9971 26.3696 15.75 26.8206 15.5179 27.1101C15.5091 27.1211 15.5008 27.1305 15.4929 27.1385L15.3581 26.2873C15.4242 26.3518 15.4009 26.3873 15.4587 26.4477C15.7041 26.7026 15.6719 26.4691 15.7649 26.5036C16.1634 26.6519 15.9657 26.9839 16.3621 27.26C16.383 27.2748 16.7566 27.2926 16.7989 27.3076C16.8266 27.3171 16.8485 27.3256 16.8658 27.3333L15.9593 27.4769C16.0266 27.3255 16.0296 27.5358 16.131 27.4194C16.3372 27.1826 16.5046 27.0356 16.6717 26.7034C16.7202 26.6064 16.7677 26.3236 16.9698 26.2136C16.9964 26.1991 17.0424 26.2512 17.0585 26.2357C17.3462 25.9524 17.18 25.8187 17.2554 25.5922C17.3308 25.3656 17.6565 25.1677 17.7328 25.1347C17.9315 25.0477 17.6864 25.2783 17.6892 25.2928C17.7228 25.4644 17.8556 25.244 17.9796 25.0919C18.1652 25.1917 18.3161 24.9627 18.1073 24.9337C18.0843 24.9309 18.0104 25.0657 17.9796 25.0919C17.9149 24.8323 18.0706 24.5733 18.4211 24.4168C18.5852 24.3436 18.5833 24.5242 18.8304 24.1191C18.9425 23.9353 18.7774 23.9179 18.857 23.7416C19.0293 23.3605 19.4318 23.0033 19.6823 22.6496L19.7857 22.5457C19.8053 22.531 19.8244 22.5161 19.843 22.5011C19.9543 22.4112 19.832 22.4238 19.8599 22.3786C19.8655 22.3712 19.8719 22.3642 19.8818 22.3558C20.1068 22.1659 20.351 22.0615 20.5718 21.8636C20.5918 21.8456 20.4905 21.8173 20.5641 21.7626C21.1209 21.3462 21.6417 21.033 22.2298 20.6075C22.4631 20.4386 22.829 20.135 23.1181 19.9176L24.4181 18.994L24.1267 20.548C24.1143 20.6257 24.1017 20.698 24.0888 20.7617C23.9642 21.3791 23.7116 22.1212 23.6467 22.656C23.6041 23.0047 23.6987 22.9433 23.7278 23.1011C23.7846 23.4057 23.5033 23.8775 23.4616 23.9403C23.4602 23.9422 23.4936 23.6415 23.4239 23.7928C23.3208 23.8698 23.4618 23.9369 23.4616 23.9403C23.4345 23.9817 23.3112 24.5723 23.3059 24.693C23.3031 24.7586 23.3863 24.7363 23.3834 24.7703C23.3121 25.5766 23.1912 26.3756 23.0131 27.1748C23.009 27.1887 22.9268 27.1521 22.9183 27.185C22.7977 27.6446 22.8503 27.9618 22.8449 28.3574C22.844 28.4194 22.8415 28.479 22.8371 28.5363C22.8284 28.7631 22.7964 28.9347 22.6838 29.0976C22.7123 29.269 22.7278 29.5006 22.7631 29.6904C22.7736 29.7504 22.7851 29.8059 22.7961 29.853C22.8459 30.0511 23.0134 29.9866 23.0228 29.9987C23.2321 30.2216 23.3735 30.3809 23.5461 30.5494L23.5678 30.5676C23.5702 30.5701 23.5727 30.5725 23.5751 30.575L23.5337 30.5414C23.5362 30.5435 23.5386 30.5456 23.5411 30.5477L23.5715 30.5718C23.7273 30.7208 23.8887 30.8811 24.0955 31.0625C24.3429 31.2799 24.859 31.6808 25.144 31.8958C25.3695 32.0654 25.4739 32.2051 25.6891 32.3525C25.7182 32.3724 25.7397 32.2916 25.7498 32.2963C26.0299 32.4132 25.8043 32.4654 25.8288 32.5292C25.9177 32.7607 25.9792 32.8959 26.2997 33.0911C26.3736 33.1362 26.7359 33.0923 26.8654 33.1807C27.0335 33.2959 26.9134 33.3199 27.091 33.4387C27.1061 33.4489 27.1411 33.4013 27.2398 33.4876C27.6986 33.8874 28.1847 34.3401 28.6728 34.742C28.7393 34.7971 28.7146 34.6543 28.8117 34.7327C29.2673 35.1006 29.7567 35.5159 30.1655 35.9161C30.2659 36.0149 30.1564 36.0084 30.1673 36.0429C30.1875 36.1056 30.2295 36.1532 30.2795 36.1898L30.4338 36.3238L30.4925 36.494C30.5514 36.6272 30.6789 36.7296 30.6915 36.7577C31.1258 37.7111 31.2537 38.5152 31.6869 39.4904C31.7107 39.5434 32.0353 39.8999 31.9558 40.1406C31.9506 40.157 31.8669 40.397 32.0297 40.523C32.0398 40.5308 32.0756 40.3872 32.1409 40.5913C32.2062 40.7954 32.3759 41.1003 32.3911 41.4079C32.396 41.5053 32.3207 41.767 32.5358 41.9845C32.5503 41.9985 32.9686 42.3029 32.8336 42.515C32.8112 42.5495 32.6041 42.5972 32.8191 42.872C32.8605 42.9243 32.8654 42.8001 32.9501 42.947C33.0801 43.1719 33.1429 43.5098 33.3387 43.7731C33.3731 43.819 33.5875 43.9894 33.5494 44.2026C33.5434 44.2359 33.4582 44.2077 33.4846 44.3033C33.6098 44.7582 33.8224 45.2048 33.9399 45.6702C33.9816 45.835 33.8451 45.7926 33.8767 45.9687C33.9042 46.1221 33.9789 46.4025 34.0716 46.5752L33.2588 46.1959C33.2845 46.1822 33.3078 46.168 33.3279 46.1535C33.4836 46.0415 33.2321 45.9398 33.4869 45.8317C33.9477 45.6362 34.4167 45.4689 34.8888 45.3117L34.3459 46.4756C34.1251 45.8126 33.9241 45.1432 33.693 44.4815C33.6343 44.3134 33.6237 44.4743 33.5329 44.2282C33.1976 43.3212 32.5694 41.7731 32.4121 40.9374C32.286 40.2678 32.6544 41.0341 32.521 40.5359C32.4563 40.2956 32.1663 40.1157 32.1396 40.0618C31.8763 39.5354 31.8251 39.1217 31.6182 38.637C31.5755 38.5369 31.5316 38.6663 31.4961 38.5808C31.3741 38.289 31.2964 37.964 31.1866 37.6827C31.1372 37.5566 31.0843 37.6024 31.0465 37.4835C30.9551 37.1995 30.8907 36.9423 30.8488 36.6483C30.845 36.6215 30.9825 36.7615 30.9099 36.5532C30.841 36.356 30.78 36.1246 30.7013 35.8935L30.9134 36.1963C30.783 36.0822 30.6451 35.9727 30.4978 35.8829C30.3924 35.819 30.2928 35.9303 30.1583 35.6829C30.13 35.6311 30.299 35.5388 29.9656 35.4614C29.9097 35.4481 29.3827 35.2787 29.2765 35.0138C29.2484 34.944 29.2129 34.7228 29.0858 34.6463C29.0682 34.6363 29.0777 34.7489 28.9796 34.6768C28.6349 34.4218 28.2967 34.127 27.9436 33.8636C27.8493 33.7934 27.9299 33.9694 27.791 33.8627C27.5489 33.677 27.2809 33.4474 27.0295 33.2222C26.8833 33.0909 26.7436 32.9618 26.6177 32.8435C26.6124 32.8385 26.6075 32.8337 26.6031 32.8292L26.198 32.4766L26.2944 31.9795C26.333 31.8407 26.3764 31.9596 26.3855 31.9489C26.5406 31.7701 26.3998 31.6234 26.4021 31.5554C26.4184 31.1327 26.5498 30.8318 26.5969 30.4479C26.6101 30.3419 26.5198 30.4028 26.5166 30.3807C26.4877 30.1521 26.5977 30.338 26.6371 30.2035C26.7482 29.8268 26.8176 29.3972 26.8763 29.0068C26.8978 28.8634 26.7801 29.0081 26.8004 28.8796C26.9188 28.1186 27.0664 27.3318 27.2463 26.6004C27.2803 26.4627 27.3337 26.5626 27.3545 26.5363C27.4999 26.3556 27.4016 26.0357 27.3992 25.9657C27.3881 25.6473 27.47 25.5388 27.5065 25.2658C27.6547 24.1492 27.9092 22.827 28.1321 21.6953L28.49 19.8033L29.6821 21.2878C29.8214 21.4641 29.9561 21.6347 30.0844 21.7971C30.4189 22.2199 30.7255 22.6146 31.0221 22.9964C31.5944 23.7322 32.2086 24.364 33.0126 24.9523C33.0885 25.0074 33.068 24.8765 33.1339 24.9226C33.7435 25.3503 34.371 25.7402 35.042 26.056C35.3038 26.1792 35.5719 26.2907 35.8467 26.3875C35.9268 26.4157 35.8439 26.2903 35.9729 26.3321C36.2377 26.417 36.5695 26.5307 36.8327 26.6339C36.9614 26.684 36.763 26.7072 36.8938 26.7561C37.1991 26.8696 37.5392 26.9542 37.8702 27.0002C38.0109 27.0192 37.8168 26.893 37.9975 26.9239C38.3434 26.9812 38.6901 27.0218 39.0372 27.0491L38.006 28.001C38.0053 27.3877 38.0113 26.7757 38.0373 26.1592L38.8735 27.0787C38.4923 27.0274 38.1134 26.9505 37.74 26.8455C37.6418 26.8176 37.5935 26.6216 37.3799 26.608C37.3527 26.6539 37.3398 26.7123 37.3204 26.7635C36.4583 26.5721 35.6251 26.2657 34.8429 25.864C33.7403 25.298 32.7403 24.5458 31.869 23.6599C31.8062 23.5957 31.8463 23.775 31.7241 23.65C31.3784 23.2941 31.055 22.9252 30.7636 22.5287C30.3996 22.0258 30.2034 21.5397 30.0471 21.0375C30.018 20.9397 30.1936 20.924 30.0647 20.6605C30.0404 20.614 29.8705 20.2106 29.8006 20.1161C29.7904 20.1034 29.7405 20.2046 29.6931 20.0721C29.6466 19.9407 29.602 19.8081 29.5591 19.6747C29.3999 19.1799 29.1274 18.7068 28.7776 18.3158C28.709 18.2398 28.8469 18.253 28.7971 18.1976C28.7215 18.1149 28.6366 18.038 28.5457 17.9671C28.203 17.6991 27.788 17.5333 27.4133 17.3715C27.0893 17.24 27.2438 17.1276 27.0703 16.9515C27.0453 16.9253 26.8112 16.8979 26.8036 16.8149C26.7828 16.6014 26.9281 16.3803 26.8931 16.1516C26.8855 16.0989 26.4985 16.1372 26.7311 16.0281C26.7472 16.0189 27.0329 16.0005 27.1087 15.9723C27.1616 15.9512 27.082 15.8548 27.1893 15.8332C27.2979 15.8127 27.3985 15.9005 27.5747 15.8963C27.7519 15.8956 27.7022 15.7757 28.046 15.8662ZM23.1876 30.6988C23.2826 30.8941 23.4911 30.6774 23.2963 30.6008C23.2868 30.5972 23.183 30.689 23.1876 30.6988ZM17.7135 23.5812C17.4336 23.7418 17.4721 24.0188 17.6766 23.9107C17.881 23.8025 17.7986 23.5321 17.7135 23.5812ZM19.5704 21.2906C19.2308 21.4087 19.4362 21.7837 19.684 21.4977C19.6985 21.4812 19.5902 21.2837 19.5704 21.2906ZM27.9859 17.1612C27.9851 17.1556 27.8269 17.09 27.8214 17.0932C27.7062 17.1505 28.0143 17.2776 27.9859 17.1612ZM21.9603 19.4253C21.8397 19.442 21.6283 19.6774 21.7782 19.6567C21.8989 19.64 22.1105 19.4044 21.9603 19.4253ZM30.8036 39.3248C30.8006 39.3297 30.8415 39.4538 30.8643 39.4427C30.9375 39.4066 30.8538 39.2437 30.8036 39.3248ZM26.2371 16.7483C25.5361 16.8346 24.9223 16.7715 25.7832 16.5012C25.9367 16.4651 25.4868 16.7046 25.6884 16.6771C26.037 16.6333 26.2591 16.3799 26.6399 16.5039C26.6401 16.5039 26.6403 16.504 26.6405 16.5041L26.6564 16.5057C26.6641 16.5101 26.6623 16.5163 26.6534 16.5238L26.6399 16.5224C26.5828 16.5723 26.2683 16.7413 26.2359 16.7489C26.2363 16.7487 26.2367 16.7485 26.2371 16.7483ZM23.0382 31.0473C23.0386 31.05 23.0668 31.0766 23.0989 31.1037C23.1013 31.1059 23.1039 31.1083 23.1065 31.1106C23.1092 31.1128 23.1118 31.1148 23.1143 31.1168C23.147 31.1452 23.1787 31.1716 23.1814 31.1715C23.2494 31.1666 23.215 31.1042 23.1629 31.0586C23.1572 31.0542 23.1546 31.0522 23.152 31.0503C23.1536 31.0515 23.1509 31.0493 23.1482 31.0471C23.0973 31.0098 23.0414 30.991 23.0382 31.0473ZM33.2347 46.5483C33.2318 46.5562 33.2873 46.7239 33.3303 46.8448L33.3865 46.9916L33.5284 46.9373C33.5951 46.9136 33.6476 46.8937 33.6512 46.8894C33.7151 46.797 33.6117 46.7914 33.4867 46.8226L33.4568 46.8341L33.445 46.8031C33.4015 46.6295 33.2869 46.4141 33.2347 46.5483ZM22.6976 21.2842C22.5942 21.4775 22.41 21.6253 22.2123 21.6206C22.3746 21.5106 22.5347 21.3953 22.6976 21.2842ZM24.7652 37.6245C24.7276 37.7699 24.6219 37.9347 24.526 38.0529C24.4961 38.09 24.4575 38.0467 24.4347 38.0713C24.3901 38.1195 24.3897 38.1831 24.3418 38.229C24.3257 38.2441 24.2598 38.1861 24.2447 38.2028C24.1623 38.2941 24.1357 38.4039 24.0702 38.5047C23.8299 38.874 23.6203 39.2512 23.4132 39.6358L23.3278 39.7712C23.224 39.8794 23.1203 39.9885 23.0155 40.0981C22.8803 40.2397 22.6693 40.3726 22.5652 40.5486C22.5531 40.5692 22.6185 40.6058 22.6203 40.6131C22.6464 40.7267 22.5474 40.6132 22.5028 40.6356C22.3259 40.725 22.1905 40.8758 22.0996 41.0283C22.0611 41.0934 22.2213 41.1302 22.1101 41.1349C22.1025 41.1353 22.0547 41.0705 22.0352 41.0808C21.991 41.1043 21.9452 41.1807 21.9173 41.2042C21.8633 41.2493 21.8565 41.2586 21.8137 41.3083C21.7547 41.3756 21.6564 41.4322 21.6082 41.5173C21.5981 41.5356 21.6771 41.5663 21.6665 41.6002C21.6559 41.634 21.595 41.696 21.5617 41.7062C21.5284 41.7164 21.4881 41.6663 21.4737 41.661C21.353 41.6152 21.418 41.8005 21.4129 41.8131C21.3163 42.0389 21.113 42.1315 20.9714 42.3007C20.864 42.4292 20.7733 42.5869 20.6675 42.7062C20.5412 42.8481 20.4044 42.9434 20.2916 43.0895C20.2796 43.1049 20.3665 43.1481 20.352 43.1669C20.1981 43.3675 20.0289 43.5531 19.8185 43.7048C19.7973 43.72 19.7547 43.6418 19.7298 43.6538C19.5785 43.7283 19.2963 43.8102 19.5136 44.1122C19.4356 44.1832 19.3429 44.271 19.2271 44.2959C19.1525 44.3121 19.1211 44.2092 19.1029 44.2907C19.0988 44.309 19.1733 44.3431 19.1624 44.3668C19.1168 44.4661 19.0231 44.5379 18.9873 44.6441C18.9801 44.6658 19.0381 44.7068 19.044 44.7196C19.0906 44.8247 18.9058 44.7794 18.8845 44.7855C18.7239 44.833 18.6862 44.9346 18.6009 45.0328C18.581 45.0555 18.6768 45.0893 18.6603 45.1134C18.5739 45.2376 18.4673 45.3519 18.3402 45.4378C18.3117 45.4567 18.2691 45.3816 18.2523 45.3879C18.1791 45.4168 18.2864 45.5269 18.2185 45.5564C18.2043 45.5628 18.1563 45.5122 18.1488 45.5092C18.0315 45.4629 18.139 45.5984 18.1353 45.6087C18.091 45.741 17.9021 45.6909 17.8407 45.8031C17.8335 45.8166 17.9224 45.8471 17.898 45.8817C17.8455 45.9566 17.7879 46.0295 17.7262 46.0995L17.5272 46.3768L17.2043 46.1453C17.0582 46.0167 16.9245 45.8701 16.8109 45.713C16.7847 45.6769 16.8507 45.6462 16.8539 45.6383C16.9014 45.5125 16.7701 45.6244 16.7552 45.6202C16.6403 45.5841 16.6524 45.408 16.4642 45.5147C16.2717 45.2973 16.0359 45.1329 15.8264 44.9381L15.5785 44.7604L15.7855 44.4719C15.9104 44.3376 16.0476 44.2142 16.2193 44.1199C16.2247 44.1167 16.2821 44.1787 16.2926 44.1721C16.4204 44.093 16.303 44.0303 16.2417 43.8556C16.2263 43.8117 16.4202 43.8798 16.4351 43.8839C16.4899 43.8995 16.5698 43.9981 16.5825 43.9986C16.6846 43.9998 16.362 43.743 16.418 43.6761C16.4202 43.6744 16.471 43.7319 16.4815 43.7312C16.5142 43.729 16.5056 43.6923 16.5399 43.6921C16.619 43.6919 16.7841 43.8067 16.7448 43.6722C16.7395 43.655 16.5507 43.5162 16.6092 43.4636C16.6327 43.4428 16.7179 43.335 16.7543 43.3152C16.7906 43.2955 16.8313 43.3641 16.8356 43.3641C16.9785 43.3488 16.9849 43.4054 17.1313 43.4604C17.2773 43.5151 16.9995 43.3009 16.9831 43.2595C16.9668 43.2182 17.0787 43.2128 17.1126 43.2169C17.1465 43.221 17.1682 43.2696 17.1912 43.2673C17.3429 43.2509 17.089 43.1184 17.0697 43.0549C17.0237 42.9048 17.2656 43.0208 17.3354 42.9772C17.3543 42.9654 17.2978 42.9406 17.3057 42.9226C17.3375 42.8518 17.4285 42.8695 17.4261 42.7567C17.4258 42.7382 17.3502 42.5852 17.4666 42.6248C17.4833 42.6306 17.5215 42.686 17.553 42.6709C17.6003 42.6485 17.6662 42.592 17.6824 42.5389C17.6944 42.4997 17.5848 42.4642 17.6408 42.4492C17.6657 42.4425 17.6884 42.5126 17.7312 42.4967C17.7738 42.4811 17.8365 42.402 17.8595 42.3712C17.8825 42.3405 17.807 42.3045 17.8048 42.2986C17.7929 42.2642 17.8102 42.1828 17.8145 42.1779C18.0175 41.9205 18.3162 41.7767 18.4867 41.5032C18.5001 41.4818 18.424 41.4397 18.4254 41.4359C18.4531 41.3473 18.5836 41.5449 18.6802 41.5479C18.5419 41.4432 18.5887 41.4362 18.6129 41.3778C18.6245 41.3495 18.5629 41.3185 18.5594 41.3121C18.509 41.2136 18.6292 41.2751 18.6548 41.2865C18.749 41.3283 18.6794 41.2292 18.7426 41.2569C18.8054 41.2842 18.8513 41.3811 18.8875 41.3359C18.8505 41.2836 18.6987 41.2124 18.7068 41.1618C18.7373 40.9709 19.0337 40.8154 19.1295 40.7217C19.2252 40.6282 19.244 40.5879 19.3111 40.5429C19.4321 40.4616 19.307 40.4237 19.3208 40.3217C19.3347 40.2194 19.5341 40.4421 19.5909 40.4734C19.6475 40.5048 19.606 40.4524 19.6426 40.4632C19.6792 40.4739 19.6911 40.527 19.7242 40.508C19.7573 40.4889 19.7338 40.3409 19.691 40.2884C19.6004 40.1773 19.4586 40.1161 19.5595 40.0767C19.5654 40.0745 19.6136 40.1381 19.6331 40.1271C19.7858 40.0382 19.8997 39.9083 20.047 39.8151C20.0673 39.8024 20.1205 39.8737 20.1331 39.8669C20.2644 39.7964 20.1208 39.7406 20.0454 39.5783C20.1997 39.73 20.3278 39.7826 20.3963 39.703C20.4375 39.6552 20.3583 39.6029 20.3337 39.529C20.3262 39.5067 20.4045 39.5141 20.3758 39.4794C20.282 39.3658 20.1307 39.2939 20.2497 39.2524C20.2551 39.2507 20.3062 39.3133 20.3204 39.3038C20.4127 39.2427 20.3048 39.1356 20.3644 39.0359C20.4112 38.9578 20.5847 38.8946 20.662 38.8259C20.8465 38.9834 20.8661 38.8736 20.7632 38.7361C20.8111 38.6896 20.85 38.6285 20.909 38.5942C20.9292 38.5823 20.9737 38.6386 20.9813 38.6413C21.0572 38.6693 21.0411 38.6275 21.0208 38.5898C21.0096 38.5684 20.9968 38.5485 20.9984 38.5431C21.0182 38.4836 21.0553 38.4439 21.0941 38.4075L21.0647 38.4594C21.1031 38.3794 21.1492 38.3061 21.1079 38.194C21.1055 38.1876 20.9489 38.125 21.0781 38.1273C21.087 38.1276 21.1437 38.1988 21.1718 38.1347C21.2001 38.0706 21.3281 37.9753 21.2856 37.8584C21.2754 37.8301 21.1652 37.7297 21.2817 37.7193C21.2975 37.718 21.3409 37.7402 21.3694 37.7402C21.46 37.74 21.3041 37.6695 21.4522 37.6835C21.6004 37.6974 21.7263 37.664 21.6635 37.5392C21.6618 37.5354 21.5415 37.4698 21.5535 37.4414C21.5727 37.3961 21.6218 37.3393 21.6376 37.2906C21.6451 37.2672 21.5607 37.255 21.5606 37.2504C21.5696 37.0792 21.6782 36.9924 21.7661 36.8357C21.7824 36.8071 21.7043 36.682 21.8101 36.652C21.926 36.6189 22.2924 36.819 22.2509 36.6375C22.2344 36.5645 21.7667 36.319 22.0597 36.2981C22.0683 36.0659 22.2658 35.9161 22.2475 35.6741C22.2467 35.6633 22.1191 35.5861 22.1286 35.5644C22.1399 35.5393 22.1855 35.5362 22.2108 35.5254L22.2203 35.4894L22.2537 35.5135C22.2539 35.5211 22.2553 35.5275 22.2589 35.5318C22.326 35.6147 22.4369 35.6316 22.5085 35.7034C22.5357 35.7306 22.4803 35.7759 22.5128 35.8083C22.5453 35.8406 22.6282 35.7891 22.6469 35.8632C22.6609 35.9194 22.575 36.0947 22.6084 36.1515C22.7303 36.0097 22.7605 36.0401 22.8503 36.0509C22.8676 36.0529 22.8974 35.993 22.9077 35.9914C22.9508 35.9837 22.9361 36.0417 22.9799 36.0308C22.9905 36.0282 23.0317 35.9795 23.0427 35.9747C23.1376 35.9315 23.1023 36.0892 23.096 36.1166C23.0724 36.2207 23.1432 36.1717 23.1479 36.2244C23.1526 36.2771 23.0797 36.277 23.0986 36.3225C23.1379 36.4166 23.2337 36.4834 23.3023 36.5447C23.33 36.5688 23.3655 36.4875 23.3707 36.4894C23.4428 36.5215 23.4434 36.6403 23.5846 36.5372C23.3431 36.9074 23.647 36.5339 23.6738 36.6709C23.6757 36.6819 23.5508 36.8479 23.5061 36.8502C23.4614 36.8525 23.4649 36.7708 23.3996 36.778C23.3841 36.7797 23.2119 36.8891 23.1979 36.8927C23.0882 36.9209 23.2802 36.6772 23.2885 36.6619C23.3762 36.4956 23.1838 36.6077 23.1593 36.6061C23.047 36.5986 23.0158 36.5156 22.9272 36.503C22.8694 36.4946 22.7352 36.6472 22.7093 36.6174C22.623 36.5183 22.7703 36.2719 22.5188 36.3818C22.465 36.4051 22.3424 36.5921 22.3825 36.3979C22.385 36.3857 22.4341 36.2184 22.3384 36.27C22.3263 36.2765 22.2849 36.3262 22.2763 36.3261C22.2194 36.3243 22.2296 36.2657 22.1764 36.2533C22.1232 36.2409 22.0546 36.2315 22.0261 36.179C22.0088 36.1474 22.0532 36.0273 22.0599 35.9944C22.0798 35.9001 21.953 35.9758 21.9976 35.8788C22.0404 35.7855 22.1734 35.7038 22.1726 35.6102L22.3302 35.5663C22.3262 35.5678 22.3224 35.5697 22.3186 35.5718C22.4768 35.6288 22.638 35.6906 22.7966 35.7495C22.7383 35.9016 22.635 36.0354 22.5892 36.1923C22.5837 36.2118 22.6759 36.2215 22.6722 36.2431C22.6562 36.3344 22.5693 36.3892 22.5629 36.4873C22.5582 36.5634 22.6227 36.6706 22.6206 36.7511C22.4234 36.7333 22.4483 36.8623 22.4048 36.935C22.3897 36.9605 22.3417 36.942 22.3192 36.9561C22.2353 37.0097 22.408 37.0302 22.4264 37.059C22.5048 37.1826 22.1382 37.0655 22.1122 37.1707C22.1107 37.1763 22.2822 37.3088 22.2911 37.322C22.3501 37.4069 22.2203 37.3085 22.1936 37.3398C22.1447 37.397 22.0827 37.4271 22.113 37.5242C22.1221 37.5526 22.2245 37.6482 22.1159 37.6602C22.1016 37.6618 22.0386 37.6366 22.0332 37.64C21.9418 37.7028 22.1426 37.774 22.1944 37.8454C22.2462 37.9169 22.0816 37.9437 22.0363 37.9451C21.9191 37.9492 22.0024 37.8996 21.9929 37.894C21.8804 37.8273 21.8827 37.8887 21.8583 37.9266C21.6586 37.865 21.6506 37.927 21.8338 37.9662C21.8538 37.9704 21.8464 37.9319 21.8583 37.9266C22.0398 38.0293 22.0428 38.1015 21.8375 38.1098C21.7414 38.1137 21.653 38.0487 21.655 38.1611C21.6558 38.2121 21.7979 38.2411 21.8213 38.2939C21.8746 38.4143 21.707 38.4898 21.6948 38.591C21.6903 38.6277 21.7762 38.6198 21.7757 38.6458C21.7754 38.6652 21.7694 38.6819 21.7609 38.6975L21.6568 38.8816C21.6221 38.9112 21.5755 38.9285 21.5616 38.9788C21.5599 38.9852 21.6323 39.0272 21.6199 39.0435C21.6121 39.054 21.604 39.0642 21.5958 39.074C21.5069 39.1797 21.3919 39.2477 21.2954 39.3607C21.2445 39.4203 21.1893 39.5569 21.1301 39.6133C21.0278 39.7112 20.8248 39.7669 20.7698 39.8777C20.7337 39.9498 20.8079 39.9896 20.8293 40.0514C20.871 40.171 20.6479 40.1336 20.6148 40.1261C20.6137 40.1258 20.6422 40.0616 20.5867 40.062C20.5057 40.0214 20.615 40.1252 20.6148 40.1261C20.5933 40.1213 20.4924 40.2126 20.4872 40.2432C20.4845 40.2599 20.5495 40.3038 20.547 40.3116C20.4847 40.4946 20.3838 40.6457 20.2384 40.7623C20.2351 40.7637 20.1713 40.7039 20.1644 40.708C20.0666 40.7641 20.1049 40.8847 20.0975 40.9924C20.09 41.1 20.0292 41.1394 19.8811 41.0826C19.8532 41.1452 19.7417 41.1749 19.676 41.1907C19.6102 41.2065 19.7356 41.3216 19.7351 41.3275C19.7217 41.5109 19.5917 41.5144 19.4806 41.6233C19.4275 41.6749 19.3526 41.8026 19.3156 41.8756C19.2867 41.9334 19.2317 41.9369 19.214 41.9977C19.2115 42.0059 19.2746 42.0485 19.2753 42.0522C19.3031 42.16 19.1813 42.0172 19.1474 42.0062C19.0241 41.9661 18.9558 41.9479 18.9459 42.0478C18.9435 42.0708 19.1119 42.2847 19.1014 42.3215C19.0874 42.3689 19.0252 42.2944 19.0124 42.3456C19.0113 42.35 19.057 42.3872 19.0362 42.408C18.9401 42.5049 18.8186 42.5965 18.7323 42.7085C18.7203 42.7237 18.8078 42.7648 18.7917 42.7877C18.7161 42.8951 18.6212 43.0028 18.5058 43.0723C18.4771 43.0893 18.4396 43.0321 18.4204 43.0248C18.3034 42.9813 18.3962 43.1366 18.3924 43.1462C18.3053 43.3778 18.072 43.4153 17.9755 43.6449C17.9704 43.6576 18.0467 43.8517 17.8978 43.7848C17.8878 43.7804 17.7364 43.7108 17.7956 43.8113C17.7993 43.8175 17.8803 43.8497 17.8431 43.8809C17.8059 43.9122 17.7987 44.0067 17.6868 43.9987C17.6515 43.9962 17.497 43.9309 17.555 44.0606C17.5592 44.0695 17.719 44.3286 17.5442 44.2267C17.5155 44.2099 17.3576 44.0698 17.3929 44.1962C17.3998 44.2205 17.4524 44.231 17.4509 44.2785C17.4489 44.3514 17.3569 44.3731 17.3837 44.4874C17.3886 44.5075 17.4648 44.6395 17.3546 44.6017C17.3373 44.5958 17.2914 44.541 17.2711 44.5528C17.1746 44.6091 17.14 44.7237 17.0341 44.7741C16.9966 44.7921 16.9218 44.7041 16.8731 44.7147C16.8244 44.7253 16.7509 44.7672 16.7643 44.8323C16.7777 44.8973 16.9457 44.9794 16.9171 45.0361C16.8714 45.1265 16.8085 45.202 16.7381 45.271L16.6253 43.9854C16.7443 44.1069 16.844 44.2509 16.9678 44.3676C16.9968 44.3949 17.0132 44.324 17.059 44.3607C17.2277 44.4959 17.5527 44.689 17.6078 44.9153C17.6519 45.0965 17.453 45.0395 17.5121 45.1477C17.5407 45.1997 17.7222 45.0766 17.7367 45.0801C17.8538 45.1064 17.8817 45.1978 17.9469 45.2596L16.8409 45.3566C16.8548 45.3418 16.8673 45.3252 16.8772 45.3052C16.8882 45.2828 16.8074 45.2461 16.8176 45.2276C16.8516 45.1639 16.9285 45.1316 16.9665 45.0755C16.9835 45.0501 16.9298 45.0124 16.9516 44.9943C17.0031 44.9506 17.062 44.9231 17.1507 44.9126C17.1587 44.9117 17.1953 44.9945 17.2293 44.9587C17.2842 44.9005 17.3941 44.8635 17.4054 44.7531C17.4085 44.7201 17.2949 44.6234 17.4115 44.6448C17.4358 44.6492 17.5631 44.7764 17.4883 44.6246C17.4759 44.5993 17.3896 44.3772 17.5289 44.4207C17.5656 44.4321 17.7022 44.4974 17.7057 44.4575C17.7057 44.4517 17.6328 44.4138 17.6443 44.388C17.6857 44.2979 17.7567 44.2266 17.8007 44.1352C17.8123 44.1107 17.7236 44.0873 17.743 44.0524C17.796 43.9565 17.8986 43.8672 17.9861 43.8034C18.0184 43.7799 18.0539 43.8446 18.0614 43.8473C18.1838 43.8907 18.0752 43.7646 18.0776 43.7469C18.0939 43.6383 18.1988 43.6332 18.2387 43.554C18.2498 43.5322 18.179 43.4949 18.1767 43.4867C18.1561 43.4052 18.2402 43.5237 18.2721 43.5098C18.3618 43.4712 18.4195 43.3926 18.4685 43.3186C18.4864 43.2914 18.3935 43.2609 18.4104 43.2371C18.509 43.0952 18.6307 42.9638 18.777 42.8673C18.8047 42.8492 18.8454 42.9094 18.8619 42.9146C18.9767 42.9516 18.9027 42.8027 18.9015 42.7816C18.8955 42.6856 18.9602 42.7046 18.9909 42.6501C19.1401 42.383 19.41 42.1251 19.6117 41.924C19.8742 41.6618 20.1096 41.4848 20.3229 41.2037C20.3365 41.1859 20.2508 41.1434 20.2616 41.1273C20.4047 40.9219 20.5904 40.7572 20.7304 40.5485C20.742 40.5315 20.6555 40.4975 20.6718 40.4683C20.705 40.408 20.7636 40.3455 20.829 40.3114C20.8608 40.2946 20.8901 40.3774 20.9209 40.3595C20.9927 40.318 21.0513 40.258 21.092 40.1875C21.1092 40.1574 21.007 40.1388 21.0347 40.1042C21.2219 39.8672 21.4007 39.63 21.6862 39.4714C21.7058 39.4605 21.858 39.5642 21.8597 39.5076C21.8229 39.4723 21.7769 39.434 21.7362 39.3979C21.8821 39.1985 22.0494 39.019 22.2196 38.8413L22.0968 39.0359C22.188 38.8662 22.2812 38.6972 22.3654 38.5228C22.3734 38.5061 22.2718 38.495 22.2869 38.4624C22.3746 38.2735 22.434 38.0783 22.6101 37.9245C22.6275 37.9092 22.7784 37.9899 22.7807 37.9225C22.781 37.9106 22.7992 37.8158 22.7755 37.7783C22.7718 37.773 22.6921 37.7555 22.7025 37.7271C22.7644 37.5622 22.8573 37.4022 22.9743 37.2629C22.9933 37.2404 23.0581 37.3031 23.0723 37.2874C23.1726 37.176 23.1784 37.0077 23.3052 36.9153C23.3903 36.8537 23.5099 36.9453 23.6615 36.961C23.6829 36.9632 23.7093 36.913 23.787 36.9452C23.9824 37.026 24.1817 37.147 24.3913 37.2301C24.4365 37.2481 24.4204 37.1574 24.5085 37.2469C24.5143 37.253 24.5269 37.3192 24.5575 37.348C24.5786 37.368 24.6634 37.388 24.6875 37.4201C24.7115 37.4522 24.6376 37.4417 24.662 37.4879C24.6869 37.5342 24.7812 37.5618 24.7652 37.6245ZM19.3809 41.2627C19.286 41.2488 19.5103 41.4467 19.4905 41.359C19.4893 41.3545 19.3856 41.2633 19.3809 41.2627ZM22.4219 35.9616C22.2757 35.9811 22.4447 36.0865 22.5561 36.0756C22.6675 36.0646 22.4662 35.9555 22.4219 35.9616ZM22.3558 35.9181C22.3637 35.789 22.082 36.1063 22.2002 36.0935C22.207 36.0929 22.3554 35.9256 22.3558 35.9181ZM23.6054 37.1831C23.6093 37.1842 23.6298 37.1487 23.6266 37.1462C23.5491 37.0871 23.5084 37.158 23.6054 37.1831ZM22.9423 36.2726C22.9607 36.2132 22.8652 36.2195 22.8423 36.2934C22.8238 36.3528 22.9194 36.3465 22.9423 36.2726ZM17.4486 43.0694C17.4447 43.0672 17.4229 43.087 17.4426 43.1027C17.506 43.1533 17.5146 43.1075 17.4486 43.0694ZM23.8278 37.0079C23.7077 36.8865 23.8536 36.5517 23.9702 36.7009C23.9913 36.7279 23.843 36.7402 23.8555 36.7918C23.8784 36.8861 24.0594 36.7507 24.0448 36.8923C24.042 36.9181 23.8341 37.0155 23.8272 37.0081C23.8274 37.008 23.8276 37.008 23.8278 37.0079ZM19.087 41.0541C19.0833 41.0523 19.0545 41.0808 19.0569 41.0841C19.1156 41.1619 19.1737 41.1044 19.087 41.0541ZM16.2125 44.2553C16.2046 44.2516 16.1383 44.3184 16.1423 44.3257C16.2298 44.463 16.3642 44.3283 16.2125 44.2553ZM20.668 38.8288C20.6232 38.7336 20.6485 38.686 20.7629 38.7362C20.7299 38.7656 20.7008 38.7988 20.668 38.8288ZM29.6477 7.01702C29.784 6.99845 29.9591 7.04736 30.0825 7.10887C30.1213 7.12795 30.091 7.1763 30.1167 7.19192C30.1666 7.22248 30.2221 7.20781 30.2694 7.24422C30.2848 7.25653 30.2439 7.33307 30.2601 7.34405C30.3484 7.40356 30.4443 7.40867 30.5347 7.45727C30.9757 7.69634 31.3704 7.96546 31.7016 8.3162C31.7377 8.3545 31.7707 8.40126 31.8028 8.45011C31.8677 8.54867 31.9269 8.65455 32.0116 8.72356C32.0265 8.73562 32.0767 8.68061 32.0837 8.67958C32.1924 8.66652 32.0641 8.74434 32.0709 8.78519C32.098 8.94764 32.1773 9.07902 32.2708 9.18425C32.3105 9.22901 32.4088 9.10543 32.3666 9.19827C32.3638 9.20455 32.2881 9.22952 32.2886 9.24756C32.2898 9.28814 32.3338 9.34218 32.3407 9.37015C32.3535 9.4239 32.358 9.43145 32.3785 9.47796C32.4059 9.54223 32.4015 9.63251 32.4439 9.69514C32.4532 9.70861 32.5209 9.66055 32.5427 9.68006C32.5647 9.69964 32.581 9.76725 32.5701 9.79506C32.5593 9.82288 32.4962 9.83293 32.4837 9.84122C32.3776 9.9086 32.5606 9.9317 32.5675 9.94152C32.6862 10.1011 32.6229 10.2793 32.6433 10.4462C32.6592 10.573 32.6982 10.7091 32.6944 10.833C32.6944 10.8342 32.6943 10.8354 32.6943 10.8366C32.6883 10.9854 32.6365 11.1064 32.6262 11.2476C32.6249 11.2626 32.7208 11.2572 32.7193 11.2759C32.7038 11.4756 32.6482 11.6727 32.5272 11.8396C32.515 11.8562 32.444 11.8068 32.4272 11.8214C32.3258 11.9155 32.1122 12.0042 32.409 12.2193C32.362 12.2877 32.3031 12.3702 32.2046 12.3967C32.1414 12.4134 32.0849 12.3305 32.0909 12.3971C32.0921 12.4121 32.1685 12.438 32.1648 12.4579C32.1487 12.5421 32.0796 12.6019 32.0671 12.6907C32.0647 12.7089 32.125 12.7461 32.1327 12.7574C32.1933 12.8508 32.0153 12.8038 31.9974 12.8065C31.8588 12.835 31.8387 12.9151 31.7699 12.9874C31.7539 13.0039 31.8425 13.0481 31.8292 13.0667C31.8047 13.1002 31.7772 13.1319 31.7467 13.1607C31.6902 13.2144 31.6239 13.2582 31.5499 13.2862C31.5244 13.2955 31.489 13.219 31.4743 13.2201C31.411 13.2249 31.4998 13.35 31.4388 13.3567C31.4262 13.3581 31.3877 13.3001 31.3814 13.2954C31.2841 13.22 31.3682 13.369 31.3638 13.3771C31.3143 13.4788 31.1607 13.3703 31.0983 13.4406C31.0905 13.4494 31.1595 13.5094 31.1345 13.5297C30.9672 13.6654 30.7466 13.7483 30.528 13.7556C30.4941 13.7569 30.4925 13.687 30.4877 13.6802C30.4138 13.5723 30.453 13.7388 30.4448 13.7485C30.3807 13.8199 30.2687 13.7046 30.2689 13.9147C29.9806 13.9361 29.7035 14.0354 29.4189 13.9685C29.3499 13.952 29.282 13.9254 29.2172 13.8851C29.213 13.8828 29.2262 13.7997 29.2181 13.7953C29.1212 13.7407 29.1315 13.8719 29.042 14.0223C29.0183 14.0599 28.9895 13.862 28.9878 13.8474C28.9786 13.7936 29.0136 13.6727 29.0095 13.662C28.9784 13.5774 28.9222 13.9862 28.8558 13.9748C28.8539 13.9737 28.8757 13.9005 28.8716 13.8922C28.8594 13.8659 28.8374 13.8925 28.8263 13.8637C28.8005 13.7969 28.8316 13.599 28.7533 13.7007C28.743 13.7137 28.7011 13.9445 28.646 13.9195C28.6242 13.9098 28.5228 13.886 28.4995 13.8626C28.4762 13.8397 28.5175 13.7735 28.5164 13.7697C28.4745 13.6522 28.5145 13.6213 28.5278 13.4704C28.5434 13.3204 28.4377 13.6546 28.4102 13.6864C28.3824 13.7181 28.3591 13.6219 28.3576 13.5905C28.3558 13.5592 28.3881 13.5203 28.3833 13.5011C28.3531 13.3755 28.2878 13.6504 28.2424 13.6921C28.1321 13.789 28.1903 13.5303 28.1537 13.4846C28.1433 13.472 28.1287 13.5307 28.1142 13.5298C28.0564 13.5252 28.0659 13.439 27.9776 13.4758C27.9638 13.4821 27.842 13.5933 27.8712 13.4773C27.8757 13.4608 27.9193 13.4113 27.9073 13.3874C27.8893 13.3516 27.8463 13.3082 27.8045 13.3067C27.7734 13.3054 27.7405 13.4116 27.7301 13.3649C27.7258 13.3442 27.7835 13.3077 27.7729 13.2734C27.7625 13.2394 27.7039 13.2014 27.6811 13.187C27.6584 13.1729 27.6217 13.2464 27.6167 13.2496C27.5874 13.2668 27.5209 13.265 27.5172 13.2618C27.4126 13.1866 27.3442 13.0769 27.2796 12.9724C27.2226 12.8803 27.168 12.7921 27.0847 12.7228C27.0708 12.711 27.0118 12.7738 27.009 12.7725C26.9417 12.7455 27.15 12.6428 27.1847 12.5638C27.0515 12.6747 27.0608 12.636 27.0201 12.613C27.0003 12.6018 26.9529 12.6506 26.9463 12.6532C26.8451 12.6876 26.9389 12.5922 26.9579 12.5725C27.0273 12.4991 26.9187 12.5476 26.9655 12.4988C27.0125 12.4509 27.11 12.4213 27.0874 12.3898C27.0294 12.4148 26.9116 12.5302 26.8721 12.5183C26.7192 12.471 26.7179 12.2051 26.6927 12.1152C26.6646 12.0232 26.6428 11.9989 26.6429 11.9393C26.6447 11.832 26.5456 11.9091 26.4719 11.8667C26.3986 11.8228 26.6894 11.7585 26.7468 11.7297C26.8045 11.7018 26.7395 11.7139 26.7696 11.6933C26.7998 11.673 26.8475 11.6801 26.8529 11.6541C26.8584 11.6288 26.732 11.6001 26.6655 11.6089C26.5249 11.6288 26.3905 11.6991 26.4225 11.6177C26.4245 11.6131 26.503 11.6058 26.5068 11.5893C26.535 11.4597 26.5156 11.3401 26.5528 11.2189C26.5581 11.2024 26.6457 11.2049 26.6498 11.1954C26.6936 11.0975 26.5529 11.1482 26.3861 11.1093C26.6021 11.1012 26.7302 11.0609 26.7274 10.9945C26.726 10.954 26.6323 10.9659 26.5648 10.9408C26.5444 10.933 26.6082 10.9009 26.5639 10.8966C26.4188 10.8811 26.2566 10.9143 26.3207 10.8334C26.3209 10.8332 26.3212 10.8331 26.3217 10.833C26.3239 10.8325 26.3292 10.8326 26.3362 10.833C26.3553 10.8339 26.387 10.8364 26.4011 10.833C26.4047 10.8321 26.4071 10.8308 26.4079 10.8291C26.4399 10.7538 26.2885 10.7414 26.2746 10.6538C26.2636 10.5846 26.367 10.4745 26.3927 10.4041C26.6327 10.4386 26.5869 10.3684 26.4274 10.3113C26.4423 10.2653 26.4433 10.2123 26.476 10.1723C26.4872 10.1585 26.5533 10.1843 26.5612 10.184C26.6837 10.182 26.5301 10.1255 26.5265 10.1135C26.4939 9.98887 26.6376 9.94057 26.5595 9.80125C26.5567 9.79647 26.4006 9.73225 26.5263 9.74745C26.5348 9.74891 26.5943 9.80838 26.6174 9.76383C26.641 9.71817 26.7588 9.66945 26.7168 9.57537C26.7064 9.55304 26.6023 9.45355 26.7136 9.4702C26.7286 9.47267 26.7696 9.49881 26.7965 9.5052C26.882 9.52603 26.7361 9.4373 26.8755 9.48329C27.0149 9.52917 27.1299 9.54372 27.0759 9.43916C27.0744 9.43609 26.9664 9.35358 26.9793 9.33655C26.9999 9.30972 27.0489 9.28522 27.0674 9.25621C27.0762 9.24223 27.0009 9.20413 27.0012 9.20088C27.0273 9.07905 27.138 9.05611 27.2395 8.98583C27.2577 8.9736 27.2151 8.84857 27.3114 8.87796C27.4155 8.91178 27.6831 9.22637 27.6772 9.09238C27.6772 9.09232 27.6772 9.09225 27.6772 9.09218C27.6719 9.04046 27.3557 8.62189 27.5954 8.7704C27.6638 8.62112 27.8537 8.65096 27.9228 8.49315C27.9259 8.48615 27.8663 8.3514 27.8817 8.34427C27.9043 8.33415 27.9507 8.38571 27.9675 8.38097C28.0386 8.36281 28.0679 8.28062 28.1344 8.25752C28.1595 8.2488 28.1823 8.31599 28.2114 8.30633C28.2402 8.29692 28.2206 8.20374 28.2775 8.22764C28.3208 8.24596 28.4219 8.40902 28.465 8.41572C28.3976 8.24141 28.4249 8.23446 28.4559 8.17072C28.4619 8.15837 28.4298 8.10077 28.4316 8.09175C28.4388 8.05354 28.4736 8.09851 28.4793 8.05804C28.4807 8.04829 28.4606 7.98772 28.4607 7.9763C28.4623 7.87648 28.5575 7.99731 28.5725 8.01903C28.632 8.10034 28.6237 8.01644 28.6588 8.04556C28.6932 8.075 28.669 8.12993 28.703 8.14427C28.7728 8.17411 28.8436 8.14735 28.9035 8.13901C28.9272 8.13532 28.8954 8.0546 28.8984 8.05213C28.9458 8.02124 29.009 8.10327 29.014 7.93124C29.1082 8.36147 29.039 7.88436 29.1254 7.96338C29.1322 7.96984 29.1592 8.17567 29.142 8.20809C29.125 8.24047 29.086 8.17971 29.0638 8.2307C29.0579 8.24269 29.0495 8.44049 29.0473 8.45283C29.0255 8.5495 28.9675 8.24505 28.9621 8.22866C28.9045 8.052 28.8946 8.26748 28.8869 8.284C28.846 8.36031 28.7906 8.32904 28.7579 8.38686C28.7367 8.42438 28.7899 8.62053 28.7678 8.62049C28.6966 8.62034 28.5749 8.36229 28.5925 8.61755C28.5968 8.67202 28.69 8.87377 28.58 8.72939C28.5738 8.71997 28.4761 8.58723 28.4947 8.68934C28.4971 8.70216 28.5229 8.76152 28.5218 8.76792C28.5141 8.80964 28.4784 8.76915 28.465 8.80267C28.4518 8.83615 28.441 8.88246 28.4051 8.87632C28.3838 8.87255 28.3064 8.7773 28.284 8.7559C28.22 8.69394 28.2649 8.82888 28.1996 8.74779C28.1325 8.66722 28.0833 8.51366 28.0078 8.48073C28.0927 8.62587 28.1784 8.77571 28.2638 8.92163C28.1873 8.96089 28.0847 8.96522 28.0183 9.02598C28.0103 9.03358 28.0746 9.09813 28.0678 9.10787C28.0396 9.14824 27.9657 9.12588 27.9448 9.17874C27.9289 9.21996 27.9644 9.31798 27.9548 9.36152C27.9432 9.35231 27.9324 9.34434 27.9224 9.33749C27.8023 9.25526 27.8026 9.33361 27.7642 9.35238C27.7495 9.35976 27.7117 9.32498 27.6916 9.32241C27.6167 9.31419 27.7589 9.40979 27.772 9.43555C27.8303 9.54382 27.5298 9.30304 27.4979 9.35961C27.4956 9.36307 27.6364 9.5172 27.6443 9.52817C27.6928 9.60304 27.5835 9.49031 27.559 9.49827C27.5146 9.51283 27.4579 9.5087 27.4835 9.57952C27.4909 9.6008 27.5834 9.69361 27.4863 9.66315C27.4736 9.65927 27.4165 9.62266 27.4117 9.62296C27.329 9.63238 27.5126 9.74094 27.5632 9.79822C27.614 9.85491 27.4661 9.82045 27.4241 9.80959C27.3161 9.77995 27.3904 9.77258 27.3814 9.76662C27.275 9.6939 27.2793 9.73293 27.2584 9.75063C27.07 9.66017 27.0643 9.70046 27.2375 9.76951C27.2564 9.77711 27.2476 9.75091 27.2584 9.75063C27.4315 9.86277 27.442 9.90087 27.2502 9.86049C27.1603 9.8421 27.0717 9.78227 27.0819 9.85621C27.0868 9.88955 27.2241 9.93388 27.2517 9.97033C27.3155 10.0516 27.1665 10.0705 27.1695 10.132C27.1709 10.1536 27.2519 10.1581 27.2556 10.1732C27.2659 10.2128 27.2005 10.2272 27.2208 10.2697C27.2228 10.2734 27.3045 10.2865 27.3029 10.297C27.2927 10.377 27.227 10.436 27.2133 10.5218C27.2065 10.5634 27.244 10.6412 27.2323 10.6824C27.2192 10.7285 27.1642 10.7813 27.1353 10.8331C27.1192 10.8617 27.1112 10.8894 27.1224 10.9126C27.1427 10.9549 27.2248 10.9414 27.2817 10.9555C27.3919 10.9806 27.2029 11.0536 27.174 11.0667C27.173 11.0672 27.1501 11.0326 27.1099 11.0561C27.0233 11.0764 27.1736 11.0665 27.174 11.0667C27.1548 11.0739 27.1451 11.1494 27.1632 11.1616C27.1728 11.1681 27.2495 11.1524 27.253 11.1559C27.3361 11.2387 27.3737 11.319 27.3639 11.4184C27.3629 11.4205 27.2781 11.4419 27.2767 11.4465C27.2551 11.5119 27.3687 11.5151 27.4428 11.5345C27.5171 11.5543 27.5086 11.5904 27.3802 11.6726C27.4105 11.697 27.3699 11.7687 27.3464 11.8131C27.323 11.8577 27.4778 11.7866 27.4818 11.7872C27.6117 11.8068 27.5452 11.888 27.5743 11.9654C27.5876 12.002 27.6499 12.0515 27.6886 12.0731C27.7192 12.09 27.6989 12.1294 27.7371 12.1372C27.7423 12.1383 27.7996 12.0887 27.8027 12.0879C27.8932 12.0566 27.7386 12.1593 27.7169 12.1852C27.6383 12.2795 27.6004 12.3347 27.6731 12.3327C27.6904 12.333 27.9096 12.1788 27.9316 12.1798C27.9607 12.1824 27.8848 12.241 27.9177 12.2424C27.9205 12.2425 27.9631 12.2019 27.9708 12.2138C27.9796 12.2269 27.9878 12.2412 27.9962 12.2559C28.0222 12.302 28.0494 12.3527 28.092 12.3832C28.0995 12.3888 28.1512 12.3101 28.1626 12.3167C28.2161 12.3475 28.2651 12.3895 28.2894 12.4596C28.2953 12.4771 28.2506 12.5257 28.2423 12.5436C28.1934 12.6528 28.3136 12.5273 28.3186 12.5266C28.4538 12.5161 28.455 12.6929 28.5933 12.675C28.6021 12.6743 28.7147 12.5235 28.6742 12.6764C28.6711 12.6864 28.6327 12.8442 28.6903 12.7486C28.6937 12.7425 28.7112 12.6607 28.7292 12.6765C28.7478 12.6925 28.7986 12.6519 28.8 12.7478C28.7999 12.7779 28.7775 12.939 28.8436 12.8251C28.8499 12.8177 28.9671 12.5504 28.9318 12.747C28.9261 12.7794 28.8721 12.9836 28.9344 12.8873C28.946 12.8685 28.9447 12.8198 28.9688 12.7953C29.005 12.7572 29.0297 12.82 29.0788 12.7333C29.088 12.7181 29.1335 12.5806 29.1348 12.6907C29.1352 12.708 29.1188 12.7768 29.1279 12.7861C29.172 12.8309 29.2287 12.7898 29.2754 12.842C29.2923 12.8603 29.2753 12.9733 29.2938 13.005C29.3122 13.0367 29.3539 13.0677 29.3765 13.016C29.3984 12.9643 29.3792 12.7826 29.408 12.7684C29.4117 12.7665 29.4153 12.7648 29.419 12.7633C29.5359 12.7115 29.6597 12.8013 29.7867 12.7931C29.8056 12.7919 29.7782 12.7311 29.8044 12.7246C29.904 12.7009 30.0403 12.5951 30.173 12.6883C30.2834 12.7621 30.2282 12.8764 30.3006 12.8947C30.3374 12.9024 30.2784 12.6972 30.2808 12.6888C30.3087 12.6013 30.3894 12.6646 30.4264 12.6109C30.4337 12.5999 30.3814 12.5312 30.3878 12.5229C30.4086 12.4939 30.4577 12.5086 30.4808 12.4855C30.4909 12.475 30.453 12.4217 30.4663 12.4191C30.4977 12.4118 30.535 12.4194 30.596 12.4508C30.6017 12.4535 30.6334 12.5309 30.655 12.519C30.6892 12.4997 30.7671 12.5157 30.7627 12.438C30.7612 12.4146 30.6644 12.3012 30.7529 12.3609C30.7713 12.3734 30.8845 12.5127 30.807 12.3742C30.7954 12.3502 30.6907 12.1626 30.8025 12.2413C30.8178 12.2517 30.8557 12.2809 30.8887 12.3027C30.92 12.3236 30.9469 12.3377 30.9446 12.324C30.9434 12.3199 30.8801 12.2701 30.8837 12.2552C30.8971 12.2038 30.9357 12.1739 30.9468 12.1217C30.9495 12.1079 30.8744 12.0683 30.88 12.0498C30.8949 11.9993 30.9476 11.9651 30.9966 11.9402C31.0148 11.9312 31.0642 11.9804 31.071 11.9837C31.1838 12.0346 31.0555 11.931 31.0511 11.9203C31.0271 11.8529 31.1095 11.8662 31.1126 11.8204C31.1135 11.8081 31.0418 11.7757 31.0368 11.7703C30.9885 11.7175 31.1024 11.8015 31.123 11.7966C31.1813 11.7827 31.1977 11.7377 31.2067 11.696C31.2098 11.6806 31.1207 11.6567 31.1242 11.6437C31.1433 11.567 31.1801 11.4983 31.2519 11.4407C31.2655 11.4299 31.3291 11.4603 31.3453 11.4623C31.4586 11.4752 31.3227 11.3982 31.3105 11.3881C31.2558 11.3386 31.3185 11.3435 31.3145 11.3124C31.2936 11.1643 31.3551 11.0065 31.3824 10.8724C31.3852 10.8591 31.388 10.846 31.3909 10.833C31.4245 10.679 31.4649 10.5385 31.4152 10.386C31.4118 10.3756 31.3235 10.4066 31.3194 10.3983C31.2721 10.2917 31.2713 10.1716 31.2011 10.0748C31.1955 10.067 31.1197 10.1137 31.1082 10.1029C31.0842 10.081 31.0732 10.0458 31.085 10.0063C31.0905 9.98687 31.1672 9.97127 31.1711 9.952C31.1801 9.90671 31.1665 9.86805 31.1353 9.84238C31.122 9.83173 31.0558 9.89736 31.0449 9.88059C30.9674 9.76685 30.8821 9.67641 30.8721 9.49298C30.8715 9.48058 30.999 9.34854 30.9577 9.35616C30.9198 9.39016 30.8768 9.4317 30.8371 9.46888C30.8271 9.46108 30.8173 9.45313 30.8077 9.44506C30.6608 9.32271 30.5409 9.16269 30.3686 9.05965C30.361 9.05517 30.3284 9.14783 30.314 9.13987C30.2293 9.09376 30.1388 9.08313 30.0771 8.95905C30.0707 8.94689 30.1319 8.78712 30.0932 8.8014C30.0863 8.80396 30.0339 8.8112 30.012 8.84352C30.0089 8.84844 29.9939 8.92713 29.9795 8.92531C29.8962 8.91344 29.8177 8.87694 29.7411 8.8154C29.7287 8.80532 29.7566 8.72376 29.7476 8.71582C29.6808 8.65979 29.5958 8.71602 29.5297 8.63564C29.484 8.58162 29.5075 8.43579 29.4827 8.29051C29.4791 8.26997 29.4447 8.26617 29.4435 8.18215C29.44 7.97075 29.4621 7.73953 29.4565 7.51417C29.4553 7.46551 29.3941 7.51764 29.4306 7.40045C29.4331 7.39254 29.4786 7.35407 29.4909 7.31462C29.4995 7.28729 29.4866 7.20151 29.5041 7.16668C29.5219 7.13192 29.5382 7.20403 29.5674 7.16381C29.5971 7.12322 29.589 7.02523 29.6477 7.01702ZM27.2491 12.0183C27.1921 12.0843 27.455 11.9415 27.378 11.9501C27.374 11.9507 27.2519 12.0151 27.2491 12.0183ZM27.9547 8.78298C27.8445 8.69961 27.9385 8.87183 28.0207 8.93763C28.1011 9.0048 27.9872 8.80892 27.9547 8.78298ZM28.2632 8.48675C28.1725 8.41574 28.361 8.7958 28.3634 8.69869C28.3635 8.69319 28.2684 8.49094 28.2632 8.48675ZM29.6223 8.25658C29.6222 8.25256 29.5974 8.24685 29.5965 8.25076C29.5772 8.34459 29.6247 8.35577 29.6223 8.25658ZM28.6244 8.23135C28.5924 8.18103 28.5695 8.258 28.6098 8.31997C28.6414 8.36998 28.6632 8.29414 28.6244 8.23135ZM28.2153 13.3522C28.2139 13.3565 28.2297 13.3685 28.2401 13.3455C28.2733 13.2715 28.24 13.2809 28.2153 13.3522ZM29.3582 8.1085C29.2518 8.09539 29.1491 7.75224 29.287 7.7839C29.3111 7.78993 29.2409 7.89796 29.2728 7.92803C29.3278 7.98297 29.3598 7.76208 29.4179 7.8798C29.427 7.90124 29.3633 8.10987 29.358 8.10899C29.3581 8.10883 29.3582 8.10866 29.3582 8.1085ZM26.9431 12.2074C26.9399 12.21 26.95 12.2356 26.9538 12.2342C27.0434 12.1998 27.024 12.1498 26.9431 12.2074ZM29.2991 13.8076C29.3002 13.8163 29.3668 13.8261 29.3691 13.8182C29.4046 13.6638 29.2777 13.6439 29.2991 13.8076ZM26.3993 10.4038C26.3091 10.3588 26.3047 10.3158 26.4272 10.3114C26.4155 10.3416 26.4096 10.373 26.3993 10.4038Z" fill="black"/>
<path d="M26.6426 16.625C27.4765 16.6467 28.2828 16.9273 28.9502 17.4277C29.617 17.9278 30.1125 18.6234 30.3672 19.417C30.7228 20.5322 31.0903 21.4361 31.498 21.9775C32.4835 23.2907 33.7611 24.3565 35.2295 25.0908C36.3991 25.6756 37.6649 26.0359 38.9609 26.1592V28.001C37.4741 27.8818 36.0181 27.4959 34.6641 26.8574C33.0079 26.0764 31.5448 24.938 30.3809 23.5244L29.001 21.8486L27.1855 32.1367L27.6279 32.5088L31.3721 35.6494L35.1992 46.165L33.4756 46.792L29.8184 36.7393L23.1162 31.1143L23.1084 31.1084L23.1006 31.1016C22.7064 30.7835 22.4044 30.3658 22.2266 29.8916C22.0487 29.4172 22.0009 28.9033 22.0889 28.4043L23.4951 20.4365L20.1943 22.835L20.0664 22.9287L16.4844 27.8584L15 26.7803L18.7559 21.6133L24.874 17.1699L24.876 17.1689C25.3859 16.7965 26.0056 16.6041 26.6367 16.624L26.6426 16.625ZM23.9688 36.9854L22.873 39.3896L17.4424 45.8613L16.0391 44.6846L21.0977 38.6543L21.2178 38.5117L22.2363 35.5342L23.9688 36.9854ZM22.5771 37.624L22.7422 37.2627L22.71 37.2363L22.5771 37.624ZM26.5645 17.623C26.1711 17.6194 25.7855 17.743 25.4658 17.9766L25.3984 18.0264L25.3945 18.0273L24.8672 18.4102L23.0732 28.5781C23.0165 28.9004 23.048 29.2329 23.1631 29.54C23.2637 29.8083 23.4257 30.0492 23.6357 30.2432L23.7285 30.3232L23.7363 30.3291L23.7383 30.3311L23.7588 30.3486L26.1338 32.3418L26.2012 31.9629L28.3936 19.5371L30.1797 21.708C29.8929 21.1238 29.642 20.4355 29.4141 19.7207C29.2224 19.1257 28.8507 18.6026 28.3506 18.2275C27.849 17.8515 27.2426 17.6413 26.6162 17.625L26.5645 17.623ZM31.252 10.833C31.2519 10.4074 31.1038 9.99778 30.8369 9.67188L30.7158 9.53711C30.4151 9.23638 30.0202 9.05059 29.6006 9.00879L29.4189 9C28.9936 9.00002 28.5831 9.14786 28.2568 9.41504L28.1221 9.53711C27.7788 9.88052 27.586 10.3466 27.5859 10.833C27.5859 11.3199 27.7789 11.7866 28.1221 12.1299C28.4659 12.4737 28.9327 12.667 29.4189 12.667V13.667C28.6675 13.667 27.9464 13.3682 27.415 12.8369C26.8838 12.3056 26.5859 11.5844 26.5859 10.833C26.586 10.0818 26.884 9.36132 27.415 8.83008C27.9464 8.29874 28.6675 8.00002 29.4189 8C30.1704 8.00001 30.8915 8.29876 31.4229 8.83008C31.9539 9.36132 32.2519 10.0818 32.252 10.833C32.252 11.5844 31.9541 12.3056 31.4229 12.8369C30.8915 13.3682 30.1704 13.667 29.4189 13.667V12.667C29.9051 12.667 30.372 12.4737 30.7158 12.1299C31.059 11.7866 31.252 11.3199 31.252 10.833Z" fill="black"/>
</svg>
