<svg width="24" height="24" viewBox="0 0 24 24" fill="none" xmlns="http://www.w3.org/2000/svg">
<g clip-path="url(#clip0_1260_1915)">
<path d="M20.8244 2H19.5386V23H20.8244V2Z" fill="black"/>
<path d="M4.66699 9.30273C5.69203 8.49209 6.95923 8.00278 8.35547 7.94531C12.099 7.79148 15.4246 11.013 15.2129 15.0713C15.1542 18.8913 12.073 21.6021 8.60547 21.7061C7.14668 21.7061 5.77428 21.2191 4.66699 20.3691V21.3994H1.44434V3.35547H4.66699V9.30273ZM8.02051 10.79C6.47121 10.855 5.19612 11.8554 4.66699 13.3389C4.64885 13.3897 4.63161 13.4412 4.61523 13.4932C4.60789 13.5165 4.60073 13.5399 4.59375 13.5635C4.5433 13.7334 4.50253 13.9091 4.47168 14.0898C4.42713 14.3517 4.40332 14.6241 4.40332 14.9053C4.40332 15.0143 4.40833 15.1217 4.41602 15.2275C4.42727 15.3845 4.44654 15.5378 4.47363 15.6875C4.51789 15.93 4.58193 16.1626 4.66406 16.3838C5.22152 17.8851 6.60872 18.8594 8.16504 18.8594C10.1644 18.7984 11.9407 17.2086 11.9746 14.9688C12.0967 12.5891 10.1792 10.6997 8.02051 10.79Z" fill="black"/>
</g>
<defs>
<clipPath id="clip0_1260_1915">
<rect width="24" height="24" fill="white"/>
</clipPath>
</defs>
</svg>
