<svg width="24" height="24" viewBox="0 0 24 24" fill="none" xmlns="http://www.w3.org/2000/svg">
<path d="M15.6957 11.3018C15.7702 11.8043 15.7449 12.3166 15.6214 12.8094C15.4979 13.3022 15.2785 13.7659 14.9758 14.1739C14.6731 14.5819 14.2929 14.9263 13.8571 15.1874C13.4213 15.4486 12.9383 15.6213 12.4358 15.6957C11.9332 15.7702 11.4209 15.7449 10.9281 15.6214C10.4353 15.4979 9.97163 15.2785 9.56362 14.9758C8.73959 14.3644 8.19217 13.4507 8.04179 12.4358C7.89141 11.4208 8.15039 10.3876 8.76176 9.56361C9.37312 8.73959 10.2868 8.19217 11.3018 8.04179C12.3167 7.89141 13.3499 8.15039 14.1739 8.76176C14.9979 9.37312 15.5454 10.2868 15.6957 11.3018Z" stroke="black" stroke-linecap="round" stroke-linejoin="round"/>
<path d="M16.5568 7.79721C17.213 7.79721 17.745 7.26526 17.745 6.60906C17.745 5.95285 17.213 5.4209 16.5568 5.4209C15.9006 5.4209 15.3687 5.95285 15.3687 6.60906C15.3687 7.26526 15.9006 7.79721 16.5568 7.79721Z" fill="black"/>
<rect x="2.5" y="2.5" width="19" height="19" rx="1.5" stroke="black"/>
</svg>
