<svg width="24" height="24" viewBox="0 0 24 24" fill="none" xmlns="http://www.w3.org/2000/svg">
<path d="M12 19.5C17.799 19.5 22.5 15.694 22.5 11C22.5 6.306 17.799 2.5 12 2.5C6.201 2.5 1.5 6.306 1.5 11C1.5 13.973 3.385 16.59 6.24 18.108L5.5 22.5L10.5 19.414C10.99 19.4713 11.49 19.5 12 19.5Z" stroke="black" stroke-linejoin="round"/>
<path d="M4.5 9H7.5M6 13.5V9M8 13.5L9.75 9L11.5 13.5M8.5 12.5H11M13 9V13.5H15M16.5 9V13.5M16.5 12L19.5 9M17.5 11L19.5 13.5" stroke="black" stroke-linecap="round" stroke-linejoin="round"/>
</svg>
